$MeshFormat
4.1 0 8
$EndMeshFormat
$Entities
14 12 1 0
1 0 0 0 0 
2 5 0 0 0 
3 5 2.5 0 0 
4 0 2.5 0 0 
5 0 1.5 0 0 
6 3.8 1.5 0 0 
7 4 1.3 0 0 
8 4 1.2 0 0 
9 3.8 1 0 0 
10 0 1 0 0 
16 3.6 1.5 0 0 
19 3.6 1 0 0 
101 3.8 1.3 0 0 
102 3.8 1.2 0 0 
1 0 0 0 5 0 0 1 3 2 1 -2 
2 5 0 0 5 2.5 0 1 3 2 2 -3 
3 0 2.5 0 5 2.5 0 1 3 2 3 -4 
4 0 1.5 0 0 2.5 0 1 1 2 4 -5 
5 0 1.5 0 3.6 1.5 0 1 3 2 5 -16 
6 3.6 1.5 0 3.8 1.5 0 1 3 2 16 -6 
7 3.8 1.3 0 4 1.5 0 1 3 2 6 -7 
8 4 1.2 0 4 1.3 0 1 3 2 7 -8 
10 3.8 0.9999999999999998 0 4 1.2 0 1 3 2 8 -9 
11 3.6 1 0 3.8 1 0 1 3 2 9 -19 
12 0 1 0 3.6 1 0 1 3 2 19 -10 
13 0 0 0 0 1 0 1 2 2 10 -1 
1 0 0 0 5 2.5 0 1 1 12 1 2 3 4 5 6 7 8 10 11 12 13 
$EndEntities
$Nodes
25 865 1 865
0 1 0 1
1
0 0 0
0 2 0 1
2
5 0 0
0 3 0 1
3
5 2.5 0
0 4 0 1
4
0 2.5 0
0 5 0 1
5
0 1.5 0
0 6 0 1
6
3.8 1.5 0
0 7 0 1
7
4 1.3 0
0 8 0 1
8
4 1.2 0
0 9 0 1
9
3.8 1 0
0 10 0 1
10
0 1 0
0 16 0 1
11
3.6 1.5 0
0 19 0 1
12
3.6 1 0
1 1 0 33
13
14
15
16
17
18
19
20
21
22
23
24
25
26
27
28
29
30
31
32
33
34
35
36
37
38
39
40
41
42
43
44
45
0.1470588235293027 0 0
0.2941176470585617 0 0
0.4411764705878707 0 0
0.5882352941171785 0 0
0.7352941176462438 0 0
0.8823529411752264 0 0
1.029411764704209 0 0
1.176470588233192 0 0
1.323529411762174 0 0
1.470588235291157 0 0
1.617647058820139 0 0
1.764705882349121 0 0
1.911764705878103 0 0
2.058823529407295 0 0
2.20588235293693 0 0
2.352941176466565 0 0
2.4999999999962 0 0
2.647058823525836 0 0
2.79411764705547 0 0
2.941176470585106 0 0
3.088235294114741 0 0
3.235294117644377 0 0
3.382352941174012 0 0
3.529411764703647 0 0
3.676470588233282 0 0
3.823529411762917 0 0
3.970588235292553 0 0
4.117647058822188 0 0
4.264705882351824 0 0
4.411764705881458 0 0
4.558823529411093 0 0
4.705882352940729 0 0
4.852941176470365 0 0
1 2 0 16
46
47
48
49
50
51
52
53
54
55
56
57
58
59
60
61
5 0.1470588235292808 0
5 0.2941176470585892 0
5 0.4411764705876132 0
5 0.5882352941165959 0
5 0.7352941176455783 0
5 0.8823529411745605 0
5 1.029411764703647 0
5 1.176470588233282 0
5 1.323529411762918 0
5 1.470588235292553 0
5 1.617647058822188 0
5 1.764705882351824 0
5 1.911764705881458 0
5 2.058823529411094 0
5 2.205882352940729 0
5 2.352941176470364 0
1 3 0 33
62
63
64
65
66
67
68
69
70
71
72
73
74
75
76
77
78
79
80
81
82
83
84
85
86
87
88
89
90
91
92
93
94
4.852941176470588 2.5 0
4.705882352941176 2.5 0
4.558823529411764 2.5 0
4.411764705882352 2.5 0
4.26470588235294 2.5 0
4.117647058823528 2.5 0
3.970588235294116 2.5 0
3.823529411764704 2.5 0
3.676470588235292 2.5 0
3.52941176470588 2.5 0
3.382352941176468 2.5 0
3.235294117647057 2.5 0
3.088235294117645 2.5 0
2.941176470588233 2.5 0
2.794117647058822 2.5 0
2.64705882352941 2.5 0
2.499999999999998 2.5 0
2.352941176470587 2.5 0
2.205882352941175 2.5 0
2.058823529411764 2.5 0
1.911764705882351 2.5 0
1.76470588235294 2.5 0
1.617647058823529 2.5 0
1.470588235294117 2.5 0
1.323529411764705 2.5 0
1.176470588235294 2.5 0
1.029411764705881 2.5 0
0.8823529411764701 2.5 0
0.735294117647058 2.5 0
0.5882352941176467 2.5 0
0.4411764705882346 2.5 0
0.2941176470588234 2.5 0
0.1470588235294112 2.5 0
1 4 0 6
95
96
97
98
99
100
0 2.357142857142857 0
0 2.214285714285714 0
0 2.07142857142857 0
0 1.928571428571427 0
0 1.785714285714284 0
0 1.642857142857142 0
1 5 0 23
101
102
103
104
105
106
107
108
109
110
111
112
113
114
115
116
117
118
119
120
121
122
123
0.1499999999997074 1.5 0
0.299999999999445 1.5 0
0.4499999999992079 1.5 0
0.599999999998783 1.5 0
0.7499999999983471 1.5 0
0.8999999999979112 1.5 0
1.049999999997476 1.5 0
1.19999999999704 1.5 0
1.349999999996603 1.5 0
1.499999999996167 1.5 0
1.64999999999573 1.5 0
1.799999999995294 1.5 0
1.949999999995638 1.5 0
2.099999999996055 1.5 0
2.249999999996458 1.5 0
2.399999999996862 1.5 0
2.549999999997265 1.5 0
2.699999999997668 1.5 0
2.849999999998042 1.5 0
2.999999999998416 1.5 0
3.14999999999879 1.5 0
3.299999999999194 1.5 0
3.449999999999597 1.5 0
1 6 0 2
124
125
3.686448908663834 1.5 0
3.751320341008382 1.5 0
1 7 0 6
126
127
128
129
130
131
3.844504187101862 1.494985582365473 0
3.886776748492566 1.480193773258284 0
3.924697960889713 1.456366296080541 0
3.956366296753521 1.424697960045823 0
3.980193773885925 1.386776747189255 0
3.99498558250272 1.34450418650054 0
1 8 0 1
132
4 1.250000000000087 0
1 10 0 6
133
134
135
136
137
138
3.994985582420543 1.155495813139416 0
3.980193773442497 1.113223251889956 0
3.956366296165091 1.075302039216308 0
3.924697960260898 1.043633703417995 0
3.886776747954573 1.019806226482632 0
3.844504187031744 1.005014417618523 0
1 11 0 2
139
140
3.751320341008741 1 0
3.686448908664389 1 0
1 12 0 23
141
142
143
144
145
146
147
148
149
150
151
152
153
154
155
156
157
158
159
160
161
162
163
3.450000000000188 1 0
3.300000000000376 1 0
3.150000000000564 1 0
3.000000000000839 1 0
2.850000000001201 1 0
2.700000000001562 1 0
2.550000000001895 1 0
2.400000000002401 1 0
2.250000000002907 1 0
2.100000000003443 1 0
1.950000000004108 1 0
1.800000000004557 1 0
1.650000000004225 1 0
1.50000000000382 1 0
1.35000000000343 1 0
1.200000000003039 1 0
1.050000000002648 1 0
0.9000000000022572 1 0
0.7500000000018958 1 0
0.6000000000015344 1 0
0.4500000000011721 1 0
0.3000000000007819 1 0
0.1500000000003907 1 0
1 13 0 6
164
165
166
167
168
169
0 0.8571428571424611 0
0 0.7142857142863099 0
0 0.5714285714301588 0
0 0.4285714285732146 0
0 0.2857142857154765 0
0 0.1428571428577383 0
2 1 0 696
170
171
172
173
174
175
176
177
178
179
180
181
182
183
184
185
186
187
188
189
190
191
192
193
194
195
196
197
198
199
200
201
202
203
204
205
206
207
208
209
210
211
212
213
214
215
216
217
218
219
220
221
222
223
224
225
226
227
228
229
230
231
232
233
234
235
236
237
238
239
240
241
242
243
244
245
246
247
248
249
250
251
252
253
254
255
256
257
258
259
260
261
262
263
264
265
266
267
268
269
270
271
272
273
274
275
276
277
278
279
280
281
282
283
284
285
286
287
288
289
290
291
292
293
294
295
296
297
298
299
300
301
302
303
304
305
306
307
308
309
310
311
312
313
314
315
316
317
318
319
320
321
322
323
324
325
326
327
328
329
330
331
332
333
334
335
336
337
338
339
340
341
342
343
344
345
346
347
348
349
350
351
352
353
354
355
356
357
358
359
360
361
362
363
364
365
366
367
368
369
370
371
372
373
374
375
376
377
378
379
380
381
382
383
384
385
386
387
388
389
390
391
392
393
394
395
396
397
398
399
400
401
402
403
404
405
406
407
408
409
410
411
412
413
414
415
416
417
418
419
420
421
422
423
424
425
426
427
428
429
430
431
432
433
434
435
436
437
438
439
440
441
442
443
444
445
446
447
448
449
450
451
452
453
454
455
456
457
458
459
460
461
462
463
464
465
466
467
468
469
470
471
472
473
474
475
476
477
478
479
480
481
482
483
484
485
486
487
488
489
490
491
492
493
494
495
496
497
498
499
500
501
502
503
504
505
506
507
508
509
510
511
512
513
514
515
516
517
518
519
520
521
522
523
524
525
526
527
528
529
530
531
532
533
534
535
536
537
538
539
540
541
542
543
544
545
546
547
548
549
550
551
552
553
554
555
556
557
558
559
560
561
562
563
564
565
566
567
568
569
570
571
572
573
574
575
576
577
578
579
580
581
582
583
584
585
586
587
588
589
590
591
592
593
594
595
596
597
598
599
600
601
602
603
604
605
606
607
608
609
610
611
612
613
614
615
616
617
618
619
620
621
622
623
624
625
626
627
628
629
630
631
632
633
634
635
636
637
638
639
640
641
642
643
644
645
646
647
648
649
650
651
652
653
654
655
656
657
658
659
660
661
662
663
664
665
666
667
668
669
670
671
672
673
674
675
676
677
678
679
680
681
682
683
684
685
686
687
688
689
690
691
692
693
694
695
696
697
698
699
700
701
702
703
704
705
706
707
708
709
710
711
712
713
714
715
716
717
718
719
720
721
722
723
724
725
726
727
728
729
730
731
732
733
734
735
736
737
738
739
740
741
742
743
744
745
746
747
748
749
750
751
752
753
754
755
756
757
758
759
760
761
762
763
764
765
766
767
768
769
770
771
772
773
774
775
776
777
778
779
780
781
782
783
784
785
786
787
788
789
790
791
792
793
794
795
796
797
798
799
800
801
802
803
804
805
806
807
808
809
810
811
812
813
814
815
816
817
818
819
820
821
822
823
824
825
826
827
828
829
830
831
832
833
834
835
836
837
838
839
840
841
842
843
844
845
846
847
848
849
850
851
852
853
854
855
856
857
858
859
860
861
862
863
864
865
3.775660170504371 0.9595282731014895 0
3.777467726437926 1.556030836483451 0
4.041082816961649 1.276115816309163 0
4.33795781439214 0.1136220241584531 0
4.869112672218087 1.840134623061958 0
3.967314407256542 1.467314696485642 0
4.87604548596491 0.8094841027728563 0
4.187380098750301 2.383091713655689 0
3.613400490928222 0.1172822928172855 0
3.609427511294411 2.373944612424541 0
4.860868459672917 1.388038122213032 0
3.534005958170069 0.9047654146023622 0
3.538605995173897 1.594904746231669 0
0.1087937120110328 1.983746023088602 0
0.1056747054638097 0.527907425549841 0
0.6725734168308023 2.36577716464131 0
0.6615853299789121 0.1306759101139349 0
1.107777988418997 2.380414407572987 0
1.1029411764687 0.12016437574871 0
1.56338772600167 2.369854977020144 0
1.55509350566316 0.1266146568039803 0
1.969750058173887 0.1421570998217242 0
1.983032189145234 2.363484119347347 0
2.42611456346332 0.1248684531258229 0
2.41836377040381 2.378735810219905 0
2.85126597145878 0.1322877182880084 0
2.869996826056718 2.351759923715948 0
3.224999999998991 1.629903810568002 0
3.23141914108537 0.8876917192087556 0
2.626887804976859 0.8781331886504773 0
2.624999999997466 1.629903810568002 0
2.18299133564831 0.8691601482316497 0
2.181092964158376 1.619888387419459 0
1.722955392431321 0.8610918213527923 0
1.726648517499055 1.632154182120365 0
1.2552577918871 0.8555731908448354 0
1.262685556874304 1.641140619470009 0
0.8236399924586437 1.629579647333283 0
0.8192103232092008 0.8734269257411184 0
4.877498012105525 1.099818021864797 0
4.876381265532906 0.5162048260099826 0
3.30859180571372 0.1245746853425018 0
3.90775088062489 0.1288117073914218 0
3.310906888181835 2.37509795033385 0
3.912326167990436 2.364851071686959 0
4.489301666051351 2.377239766953074 0
2.925453645618212 1.632458160781991 0
2.925005850151878 0.8463697179754847 0
0.5255670771255482 0.8736267942932447 0
0.5267782587030087 1.628502743490544 0
4.631472194915773 0.1146716480489567 0
4.876090497683066 2.119471915305502 0
0.3628332012053498 0.1238472979860497 0
0.3703130058883497 2.382286793757441 0
0.2130183624389165 0.8859145213026596 0
0.2127703035224214 1.617329609022713 0
0.1409480757708473 2.272368437979914 0
0.1234127093000852 0.2145895182011498 0
4.875580599114725 0.2211990786981703 0
4.778545215171652 2.376123636769838 0
3.651956840228302 0.922831550561076 0
3.611442699820558 0.8283901305584077 0
3.504905842688787 0.7908481297804668 0
3.593984638308871 0.7206984269198993 0
3.490279678937118 0.6763885384920433 0
3.699252801542821 0.7683912476803775 0
3.674814261808795 0.6611852285935202 0
3.765328395880533 0.695894011616527 0
3.75073067659248 0.5985856698106994 0
3.841810074620458 0.635270539944248 0
3.856932781427613 0.7342404454277492 0
3.928916293863735 0.6694576362523565 0
4.003842907473746 1.075870421602941 0
3.926563913471168 1.000930796009746 0
3.923740809631731 0.575602264734246 0
4.005885774705266 0.6167889116694905 0
4.01089770653283 0.7199967041656972 0
4.089113373332494 0.6570429471357119 0
4.100568953336464 0.7496523272069054 0
4.174145837931605 0.6940315644136517 0
4.180516035882828 0.7814801461200025 0
4.260120055990885 0.7318242783146006 0
4.256154022288732 0.8335327693107237 0
4.350460252233545 0.7707214336974668 0
4.359213224727371 0.8730705092783153 0
4.340522168453415 0.6694450961537024 0
4.082358150178123 0.5605255326199474 0
4.278790589312241 0.9305772231505074 0
4.36567478184479 0.9686328607313315 0
4.290609474424153 1.022705655848054 0
4.373101016556119 1.060299791932282 0
4.300096966449503 1.108233875026757 0
4.379253127788528 1.149077919967813 0
4.30923000159029 1.191022662448664 0
4.386282320664512 1.235976578294503 0
4.305664208754656 1.280442707605156 0
4.39148811053211 1.323409245516398 0
4.320931110118448 1.369636622373796 0
4.399985359846116 1.411501736638022 0
4.328457243546051 1.458415344057844 0
4.406980616005918 1.501372234448831 0
4.331833577719838 1.553730893617968 0
4.416491372935357 1.594883157337184 0
4.336359404166425 1.650040971234372 0
4.021559638170687 1.377358129791523 0
4.424910590516403 1.69156303342389 0
4.341314409034366 1.747752805879032 0
4.242980384740491 1.699888528030041 0
4.255708507387237 1.801274931382558 0
4.165315484155951 1.7615088451779 0
3.881449117108344 1.524178700365038 0
4.174394278391114 1.855852203057658 0
4.089943050189657 1.812491952330746 0
4.427607169992788 1.78841171323739 0
4.094380518372709 1.907813667155115 0
4.00698779217553 1.863277401611385 0
4.037927527846117 1.175320608781411 0
4.267450077622138 1.900144476549718 0
4.45398887891566 1.276289295148135 0
4.508832075253216 1.634162907226876 0
4.252439416388929 1.507021407738684 0
4.463251262654091 1.012391833772065 0
4.441285532136838 0.7131118741443717 0
4.424725306569638 0.5994628467441376 0
4.484130025844914 1.449796354186516 0
4.088034694292455 1.724244179805783 0
4.010767076353572 1.965412928828031 0
3.917996314570639 1.917002564210345 0
3.923222058640852 1.822316598099453 0
3.825643535450396 1.849781711137225 0
3.825973699260596 1.968100641050849 0
3.725775513582245 1.91469583556497 0
4.104666147684492 2.012369359467914 0
3.657562972629247 0.5578642949316076 0
4.109051546928434 0.8301175708027508 0
3.737869898227896 0.4916063571760093 0
3.723051060229305 1.789581149852139 0
3.627210004814152 1.857128588814721 0
3.618767522746247 1.972887261765508 0
3.513561667922975 1.90488199362953 0
4.251426437009096 1.336542033236283 0
4.218767716337542 1.073760673347497 0
4.53176175214807 0.6465158160383203 0
4.519839630946572 0.5294442414309164 0
4.407292313060761 0.4818285367881371 0
4.542927374128563 0.762425514679468 0
3.637496356384032 0.4496585369422781 0
3.501779961438985 2.029366131840014 0
3.394917388488221 1.955901925612567 0
4.015725395061265 2.074845136483337 0
3.719382463413787 0.3726580937825009 0
4.506083159373652 0.4083720811405153 0
4.641951630376182 0.6900091740564479 0
4.115844177302929 2.128821507255605 0
3.381796161829707 2.090040100236237 0
3.269809743278716 2.011626153972193 0
3.614693758243432 2.113256198736732 0
4.649315142470423 0.8127646309731671 0
3.830955415875656 0.4235463398467326 0
4.620379609382408 0.4606754254780965 0
3.413745842447699 1.82462777418055 0
4.391689454482061 0.3620716907903654 0
4.294355805924155 0.4358765675117824 0
4.277180530808191 0.318537588413904 0
4.183207704450219 0.3894185728803155 0
4.164783707487066 0.2722585395545115 0
4.079267829775379 0.3434826894109055 0
3.257585354954323 2.150714243653618 0
3.141575105914761 2.069929444094567 0
3.154475108177064 1.928646675326811 0
3.024215321272755 1.987282362763988 0
3.116520315925325 2.231452425954988 0
4.022567590637008 2.189285724724026 0
3.901461033439764 2.14560692646022 0
3.60599474911933 0.3300365132820975 0
3.509401286531909 0.4310147895218739 0
3.488572636197362 0.2878702592296581 0
3.400838264004759 0.3720805818245633 0
3.396862299632325 0.7458760007822296 0
3.381717701641713 0.6253191292537206 0
4.210081884361042 2.059772608253531 0
4.223655309564002 2.170928904393725 0
4.323462450018726 2.103450658811279 0
3.035257763921603 1.850507687390153 0
2.906283543195512 1.9056938007248 0
2.892380566809676 2.04837105325278 0
2.773321492384806 1.963608242983518 0
2.759197687531532 2.109725484524826 0
2.639288011308874 2.024309021071114 0
2.625299312467307 2.171142128958411 0
2.504816664640305 2.085732866839936 0
2.518898671046887 1.938486270936021 0
2.384107202829389 2.000042151117666 0
2.398256537688132 1.852303492338708 0
2.263318530352518 1.914045716657539 0
2.249248345550193 2.061761224328928 0
2.128405520463498 1.975849617862959 0
2.114438321032112 2.123494355478224 0
1.993450842104147 2.037700581026622 0
2.007411961727924 1.889837567650488 0
1.872443375954167 1.951825711128893 0
1.858572134237663 2.099598204300877 0
1.737562632608861 2.01384970011006 0
1.723821315723222 2.161501853825151 0
1.602871194575643 2.07584482580681 0
1.616498234132549 1.928027691029223 0
1.481470031554881 1.990172153479703 0
1.494385964742086 1.840367387280019 0
1.359229803703321 1.902372320323665 0
1.346323558396983 2.052014181843127 0
1.225059384548902 1.966273732851601 0
1.210505663478627 2.112256727257065 0
1.090089886954532 2.028491931125095 0
1.10389971289304 1.881014290974079 0
0.9693042853003795 1.944000516682721 0
0.9556099072527089 2.091294627259299 0
0.8347023662570814 2.006637954263497 0
1.333043353715812 2.223325462403113 0
0.8209269720557735 2.153505891701681 0
0.6999728094855101 2.068230089496769 0
0.6972272368200919 1.90095326731972 0
0.5787016969038657 1.982876844950957 0
0.5681642051441725 2.126619207940166 0
0.4456315821182775 2.044360652993106 0
0.4529328015200651 1.904042064692513 0
2.244438873097356 2.208021369109232 0
2.793926523447395 1.830689896750652 0
3.638975514504714 1.616857610114682 0
1.888248145683527 1.808093964459868 0
4.334403809866466 2.222413090147268 0
4.435764535304856 2.154081148571646 0
4.42383147366041 2.030157652152376 0
4.535904725942938 2.072570063333745 0
4.527109064336024 1.94859624701737 0
4.637986148533238 1.996669540420517 0
4.627738843470574 1.868309919404521 0
4.658575837661103 2.129298167736019 0
3.815446556161967 0.3076053166804205 0
4.490197651742345 0.2832905879879963 0
0.984769046988435 1.801501366640741 0
4.546665247264437 0.8881779784910121 0
4.655252779521458 0.9362938261806737 0
3.925868406411349 1.499607370077508 0
3.925054896971629 1.550803447115658 0
3.87514362851429 1.576335988676216 0
3.922345951181648 1.608289612578903 0
3.975144370144847 1.578841131708225 0
3.868716517014863 1.63741679832542 0
3.973726002021509 1.642329936167298 0
4.029819829537796 1.61062967602567 0
4.027721876246334 1.544485655903746 0
4.086688443612513 1.577120346735436 0
4.083539208975941 1.508335918614271 0
4.143975549517337 1.537299502028945 0
4.140763770102353 1.46995640950906 0
4.1449755735482 1.608385211170813 0
4.086687260392297 1.445803466401145 0
4.138359900928122 1.405665162391788 0
3.277573058680776 0.6949125895806079 0
3.261128129078176 0.5699695941733275 0
3.150586536899736 0.6477681138364446 0
3.135272925074108 0.5138098646498845 0
3.023961387974583 0.5985773994386314 0
3.009518260871785 0.4632221424544355 0
2.893118271338501 0.5447794702855415 0
3.146532911456626 0.3697329095453027 0
2.882437085604911 0.3860947703641779 0
2.760222201694538 0.4859242817982526 0
2.740262956691147 0.3447599576046358 0
2.62330816861193 0.4326977832742749 0
2.649049721521942 0.5798591742548107 0
2.506898219073135 0.52274055848197 0
2.489275849847136 0.3788146218194544 0
2.3697605390341 0.4660184667001666 0
2.388338517809596 0.6126549657050387 0
2.251455665705985 0.5554135627295402 0
2.232659150447505 0.4083589038548709 0
2.114632512484956 0.4979978297803785 0
2.093943269553216 0.3554765017192768 0
1.977478987585963 0.4412913729086277 0
1.996458491260448 0.5879124592382843 0
1.859629782549212 0.5303631883118254 0
1.841003626177491 0.3831981682253545 0
1.722952083232191 0.4726731310925716 0
2.215320306315089 0.25387579871134 0
1.704809339571411 0.3260313141490381 0
1.586571038727964 0.4155199873000546 0
1.604808746099593 0.5623774657911653 0
1.467885080912376 0.5046588217382706 0
1.485741341925781 0.6535741102365464 0
1.348687579795066 0.5959355379402065 0
1.33082591037548 0.4470924550810352 0
1.212403241162149 0.5366888211620295 0
1.194192003683924 0.3902248125918032 0
1.075641958734123 0.478737467904677 0
1.094017185033247 0.6259933381968531 0
0.9581406608149657 0.5657303690789748 0
0.9390510010093998 0.420268517493963 0
0.8216568299435312 0.5071761073962161 0
1.321549133810103 0.276143597469652 0
0.8026644143827819 0.3623188341820547 0
0.6844155017746687 0.451568266425934 0
0.6883866049396632 0.6102072010641696 0
0.5586812786489503 0.5358302741867053 0
0.5470405254690645 0.3937115760383634 0
0.4291917521065627 0.4822112083647446 0
0.4398269935229125 0.6188363966358358 0
1.879665693757147 0.6743300093577538 0
0.9206838460781077 0.2734090676211093 0
0.4166859488923321 0.3427794263801199 0
0.9753872769108258 0.7156400453431516 0
0.9420671684842216 2.238870657142907 0
3.997936549156353 1.424591345728978 0
4.024911487464169 1.124050607431569 0
4.058388297453592 1.086397804373447 0
4.031845790937456 1.029624791377192 0
4.075883560657076 1.143730952964335 0
4.093049483389382 1.039082954894874 0
4.064077405046878 0.9789383379211919 0
4.135684436417426 0.9812917639844226 0
4.082621963232569 1.198254936470403 0
4.129458583968977 1.167855559171888 0
4.134737644790675 1.226740089878554 0
4.184756053677845 1.191913675978099 0
4.001406308359976 0.9761938443611363 0
4.033174518205221 0.9229549814827301 0
3.969288630962916 0.9170606247576369 0
4.002814536626485 0.8638703629737848 0
3.93689834799498 0.8619341857250334 0
3.905334470524981 0.9154268660055906 0
3.871763286820539 0.8627681030300877 0
4.11463351420465 1.10351586140107 0
4.03426340277091 0.2187887373611673 0
0.320029799564327 0.5685652624907911 0
0.3311386108276675 1.961990261894729 0
0.3164228618521878 2.10670208996273 0
0.3426004631529144 1.81370558285428 0
3.582674841258375 1.694954944317672 0
2.010849244715399 0.728605399720869 0
4.199864555517393 1.43485566067762 0
1.825298069463718 0.2366651622061059 0
3.847573997111751 0.9172799662053523 0
3.810866974213722 0.8757690481268386 0
3.819746087993327 1.6005086038077 0
3.809986728934378 1.665990235216849 0
3.759438602180566 1.618788485910116 0
4.189568402716928 1.256848279200629 0
4.133180013481764 1.2824879764369 0
3.865214340770604 1.70620846908855 0
2.258817186114341 0.7254131443341183 0
2.421205700060983 0.7564479335825834 0
1.848883403483477 2.250527525312862 0
4.025896295708906 1.475153188918644 0
2.014822285925246 1.752378879536966 0
1.109250924537473 0.7749978550004122 0
1.632450050549216 0.7325598228713437 0
1.497161028740157 0.7805677737175676 0
2.914068160084643 0.6854723131894979 0
1.118488224434619 1.732237134457822 0
0.3360749683638645 0.706602625901066 0
0.1997599792826715 0.6512819971996018 0
4.035532290524255 1.327553572768574 0
4.066332940975905 1.361338615245549 0
1.880152030421123 0.841130932496331 0
3.972525040809286 0.799207273730001 0
3.834681885637439 1.540729102472358 0
2.540686358118562 1.766761626742697 0
2.405035344024916 1.724138072763579 0
0.5338974105358303 0.250507424184731 0
3.707019944426414 1.566009664657718 0
2.87796930642836 2.191317072391088 0
1.709056129930776 2.301223172915881 0
4.197343464627947 0.5159763082593722 0
3.972876684163863 1.027733355186094 0
3.916164271590247 0.3580915326536055 0
4.745645928237462 1.919980204671305 0
4.730775536356234 1.78935941294325 0
4.835144180851547 1.710588343411569 0
4.713095254627664 1.660435485487348 0
4.799698408223226 1.588644186428172 0
4.687063028167027 1.544766361261886 0
1.639578938112691 1.759726942972103 0
1.505147848259484 1.686563492723259 0
3.383061386142253 1.608288685013089 0
3.483312621535805 0.5536042381242415 0
4.212030450126631 0.9937955375844112 0
4.191733363204331 0.9185328000927422 0
4.868177193955824 1.979446421244292 0
3.695684570444318 0.8622405309301606 0
3.159788080821849 1.767672481878003 0
3.75225340990844 0.1135295653426669 0
4.877920852910645 0.952913827614761 0
4.761411048028833 1.018365277167767 0
4.758805419746822 1.158322005002491 0
4.637356827146976 1.080521831117899 0
4.648110239046041 1.213200355291638 0
4.548330914991594 1.154751833732572 0
4.753511488133364 1.289537799927149 0
4.648177877032476 1.333632346345792 0
3.754672563883168 2.375341028988635 0
3.683106716698807 2.250745252003303 0
3.546257202829836 2.250326736914903 0
3.764523753292552 2.144826542011303 0
3.459653607431007 2.373961613115326 0
3.382755276102368 2.237256384217377 0
3.825623059656355 2.257860547554309 0
4.05557840256007 2.383134853119697 0
3.783769421809121 0.7687148226745264 0
4.605595158458858 1.728799113644901 0
4.319065517342343 0.5564270726546973 0
0.8145135864833488 2.294561204068446 0
1.883054197280106 1.649372266439187 0
4.737079449565851 1.393490666822033 0
4.875408582104542 0.6665542751925895 0
4.753069015726855 0.5928327841665569 0
3.72302369705183 0.9539142048083815 0
4.338792005940596 2.360689824040518 0
3.88104068253844 0.9702252634127723 0
4.141760843583156 0.1515628655668904 0
3.46812358101391 0.1427460174999291 0
4.256634343614069 1.6056224063353 0
4.758696558667692 0.7397529625731767 0
4.484017019059909 0.1401639489571982 0
3.918665619552663 0.4732192436137694 0
4.002841772152733 1.765643655565054 0
4.877620082863876 1.241379999009489 0
3.974500042123267 1.51936758170157 0
0.982040228347285 1.644297322361821 0
4.568175389175574 1.007781583170956 0
2.488071907881052 2.252650507928665 0
2.627332733226887 2.327233486144104 0
3.677613043757799 1.697244507433937 0
2.122168686729814 2.274693851024259 0
3.081920882152537 1.626951637553196 0
3.082651992396518 0.872883608473437 0
4.875987695759184 0.3679665045147088 0
4.757636401779958 0.2866249046508813 0
4.631449793544514 2.375078109900131 0
4.557348281807708 2.237403936766975 0
1.697402732980855 0.190204368495625 0
0.8026504813438999 0.2159756267605669 0
0.2228794824706054 1.900044889646166 0
0.3587542940349457 0.8554207735157624 0
0.3606496302390094 1.652854067273096 0
2.7677812181343 1.62205051259718 0
2.774856723739716 0.8701789100208732 0
2.674900963626803 0.7379891001756412 0
3.161842185558067 0.1243540687907187 0
3.23010433673149 0.2403060299211795 0
3.16282140541272 2.373253408731181 0
3.022292603976904 2.370154058674927 0
0.2994425086560771 0.423111891285139 0
0.2821570861007427 0.2585867716884591 0
0.4400724131027144 2.179726960636266 0
0.6904691808244602 2.210944970942791 0
0.6746055399768184 0.8703239310335792 0
0.6075860756196965 0.7501662248060532 0
0.7500274410729185 0.7511739293520134 0
0.6749082508183323 1.629300719069829 0
0.6130600485983145 1.75657026755108 0
3.015370770965767 0.1269728034059803 0
2.941839495213885 0.2543799210607182 0
0.7551338175080021 1.753509823997816 0
1.467478016549656 2.138155307197104 0
1.588832569670412 2.223592365660249 0
1.449098377642638 0.3571279380710111 0
3.392268802602006 0.8790479382030127 0
1.07219597513362 2.166889149082507 0
1.055908527073826 0.3381521276750515 0
1.986757596122074 2.191583106081698 0
1.958939603782523 0.2933912730747662 0
2.74547656130723 2.256617458860756 0
2.356827619875939 0.3269665356764809 0
2.607135965787451 0.2903117502947603 0
2.721774146737777 0.2060901038922318 0
2.586240061706639 0.136125013683154 0
3.26270244254415 0.4407563600744266 0
0.6720422772475262 0.3007929396175975 0
0.9778346812294295 0.8603380879379797 0
2.37060402841148 2.146630273209964 0
0.5133488881623476 2.38355169645177 0
2.132464775152933 0.1257674515464912 0
2.2809440584669 0.1188896979403371 0
1.253536680008275 2.37144402235034 0
1.397058823529411 2.372643322972878 0
2.261298425327114 2.361157133936162 0
1.249669953672338 0.1286817642138831 0
0.9394679291264409 0.1320182473393578 0
1.395604745568344 0.1278101176565902 0
2.53194031596465 0.6652107589238707 0
4.154873917084955 1.048966973573626 0
2.133268325637665 0.6450817799465652 0
1.751287575679568 1.866109035088255 0
1.238756849122 1.818751473899283 0
1.377363018820178 1.751159772482259 0
1.230843293388371 0.683746225895191 0
1.741444722298481 0.619757342784531 0
2.136191230313583 1.836980233090244 0
1.368549372328482 0.744384780193633 0
2.259730382450977 1.755895776481765 0
2.653123550974959 1.877650793107381 0
0.1485321083799084 0.3780061058459618 0
0.1183254023654226 2.123244317464939 0
3.833962082416813 0.532971735854284 0
3.01160947772334 2.129832153835008 0
4.763106977927326 0.8782624378804003 0
4.757050400545515 0.4409844619207764 0
4.71084426525291 2.257927346750594 0
1.574362204632861 0.2751531587119558 0
3.284417851496292 1.869715088044138 0
4.410806583912714 1.908589376921182 0
0.8495830417959773 1.862277098146021 0
3.800088157818294 1.742175877841525 0
3.699498445904548 0.2393054757372226 0
3.902370322486185 0.801861303067666 0
3.75128880950926 0.902372614246439 0
3.368842040710174 0.2486643215114592 0
3.373808899342623 0.4996413103165494 0
3.044707700897211 0.7363932919938707 0
0.3091966532189089 2.255149682128815 0
3.322834089470786 1.732552645944656 0
2.32901666966762 0.8718594045049131 0
4.457761491161635 0.8276551735987433 0
4.041043451250545 1.225000000000044 0
4.08610310999766 1.251630834639232 0
1.15894542656885 0.2452022738499451 0
0.9468603224152895 2.372698247408376 0
4.124869981147602 2.258956919947887 0
4.771670779127458 0.1347849526122364 0
4.860023576354973 2.266021692638029 0
4.626128483803813 0.5787109330513318 0
4.092244163100633 0.4589008956799108 0
0.2277738272944936 2.384328522128046 0
0.2217997591633788 0.1185090022654561 0
2.042239785849787 0.8668440279244832 0
4.752495455523285 2.044764036016592 0
2.783523646853478 0.6308328388360219 0
0.1186510997781256 0.7766046515417708 0
0.1065071580657427 1.710544220728302 0
4.628951475879973 0.3314470962371662 0
3.918285668570391 2.024329591925025 0
4.458312367878007 1.106699040844207 0
4.10928068769313 0.9073722088939988 0
4.080113719178452 1.306671062200583 0
4.044190064433548 0.8055053362471021 0
2.92348014739434 1.770194604508684 0
3.084303431928767 0.2435303604186516 0
4.372974590871739 0.2372624804935884 0
4.250154045418146 0.6359730804710523 0
2.479726491400867 0.8813355580135256 0
4.457261501094615 1.188324282113526 0
0.4774367819600516 1.770767281107861 0
1.818103130230502 2.388815160332239 0
4.024707076353396 1.683065815538554 0
4.470611252560983 1.362270218614525 0
4.158622974297663 0.6127098865799471 0
0.5098434958741097 0.1168722226758932 0
3.966944040893967 1.706555758902669 0
1.170022489830279 2.255891350119619 0
3.825661889495686 0.9632777157934189 0
4.179011236223198 1.950783987389302 0
4.238830895169938 1.153534114058929 0
4.086401360833827 1.647644546018226 0
4.500984837923086 1.546706333863454 0
4.582446466943725 1.495733272517769 0
0.844091263908706 0.6456362632792082 0
4.317245060095931 1.994605138463521 0
4.566324499135952 1.390340418755764 0
3.727688667112838 2.028122526587257 0
3.913441333093278 0.2527588922519756 0
2.736796518235813 2.387122173744161 0
4.606011405748681 1.605948849104612 0
4.03440208421874 0.09983266206389591 0
2.332730683175551 1.619181490967559 0
3.578502335865944 0.6150593006783104 0
4.541829308968188 1.274115535714565 0
4.443125061023948 0.9178729873954191 0
2.037478430525617 1.619937368662772 0
0.4700927363800012 0.7418131937507543 0
2.47807949465477 0.2454920563466586 0
3.918731332623313 1.674650010599838 0
3.937897413701918 2.247551401601358 0
1.823837858292918 0.1071573546537399 0
4.256805074745793 0.205889042653613 0
2.701692243618597 1.741246905596059 0
4.340577349589848 1.829234660793976 0
4.243987390290537 1.221212874124311 0
4.192323864001922 1.372623796742009 0
1.771333577891458 0.7457739857725504 0
3.485456472088865 2.144049110389053 0
4.144182547658606 1.682422046833101 0
2.12624103671102 2.399867020861554 0
4.438310814100041 2.266829024669595 0
1.404300973599946 0.8820467778981229 0
1.469960097893392 2.265514287050697 0
1.399039284789347 1.615772776935105 0
0.5621557483110677 2.258253742678731 0
4.005734474600281 0.5167777816023158 0
3.93675737709272 0.742402312442019 0
4.258937160403689 1.402440626276082 0
3.239027467910494 2.272740780238828 0
4.518189208574237 1.828051860970209 0
1.122642801930145 1.603535015257931 0
3.543233959619753 1.791837455743644 0
3.46601612098989 1.704217325927768 0
3.835672272555263 0.8119874407647973 0
4.12749856129512 1.349084160016164 0
4.17355344674065 1.123257809588518 0
2.352941176470587 2.271573519935357 0
2.989154719141669 2.251596360157215 0
1.587773645466104 0.881151308008139 0
3.827586564335228 2.062197245606931 0
1.125000000002844 0.8989381402904296 0
4.189714772527628 1.312764429968942 0
1.777763474850989 1.743091278215955 0
2.487795811041051 1.619332078715257 0
2.065600639382652 0.2312151337185684 0
4.241820241053794 2.279216090437017 0
0.2227153993309013 1.758603537777902 0
3.176026715954184 0.773215503213863 0
0.8042701598541447 0.09573395684277192 0
1.453198233211136 0.235420687452026 0
1.602734643668004 1.613891206577347 0
4.044318260920594 1.417657472551747 0
4.500813009334921 1.731742602813579 0
0.8790332254196687 1.738233051695937 0
4.889891094941778 1.524072963909751 0
4.665486787798275 1.441385673618244 0
4.771605926495067 2.163496631689347 0
2.824521843944488 0.2614912268578876 0
0.1101492919797137 1.844537397587781 0
2.814471068891303 0.7541685760395039 0
3.941507936389364 0.9620692141440375 0
4.201466585337835 1.564955248449763 0
3.747863900011462 1.694922896658094 0
3.572179879023563 0.5210360744734037 0
4.584972668024676 0.2231007714979114 0
0.8659942439407572 0.7593636491907459 0
3.306538224329996 0.8026556083243273 0
1.029411764704209 0.2178469654005707 0
4.060481671296273 0.8689538145140494 0
3.012926237015195 0.3433920207686572 0
4.004175470578428 0.409992493364105 0
2.129446104306343 0.7621676870980499 0
3.814727967296971 0.2078637518521027 0
4.236072242259769 1.281562064827064 0
4.892345469475225 0.1076545305246777 0
4.892345469475199 2.39234546947514 0
4.199547958430909 1.640983742235894 0
3.575117980632675 0.2234481117132386 0
0.0851852615146462 0.645634963849715 0
0.2268845384471039 2.033844401831472 0
0.1050087583009796 0.1038337810984597 0
0.1031561453189504 2.402767963450164 0
0.5685994895469973 1.868928960785653 0
2.546932255206033 0.7838233078692197 0
3.029694785112541 1.731123920178236 0
3.290330977953165 0.3363866230140107 0
0.8088235294117641 2.414023131022585 0
0.09633389244348656 0.9039324059973783 0
0.0938554923175743 1.594146194521632 0
2.720407147392054 0.08905288088362329 0
4.18770197537277 1.502817645680815 0
3.699512140874764 0.9111989422104231 0
0.4204532567093831 0.2258788066325293 0
4.772224674960196 1.487673798016829 0
3.865921847307487 1.773516428940588 0
3.630756581935877 1.766149329232422 0
3.760839238344535 0.8325373827072087 0
3.795431302215883 0.9204218984273579 0
4.8974712276578 1.629177834472704 0
1.691176470588234 2.417656144417344 0
3.634210072553772 1.555554404200814 0
2.533783725971291 2.395590505364829 0
2.352941176466563 0.2088264842583686 0
1.043075278226343 2.281018332051707 0
3.964157650930753 0.9923576466969537 0
4.241429935207409 0.1084628736687171 0
0.2245985756547796 2.1647218797731 0
0.2452517407797048 0.7751649138921721 0
4.531012013988545 1.074284677198789 0
3.917620293571177 1.74563716337562 0
3.992354970772143 0.3064989407689803 0
4.16994999721282 0.8477018992580474 0
0.2187877999462972 0.509142217455463 0
4.505304240029512 0.9565560957073631 0
0.4411310466018978 2.296269952503494 0
4.689156877364647 0.5183009011541904 0
3.702205590370868 1.6352652104932 0
4.027509216786028 2.280152737581274 0
2.829635811038903 1.72042479381044 0
0.5527470096130395 0.6462263473525639 0
4.674940703945568 0.2181258746094304 0
1.6913224870977 0.07702725383143838 0
4.093930545020052 1.397650016158262 0
2.12584936906973 1.723612807170201 0
$EndNodes
$Elements
13 1728 1 1728
1 1 1 34
1 1 13 
2 13 14 
3 14 15 
4 15 16 
5 16 17 
6 17 18 
7 18 19 
8 19 20 
9 20 21 
10 21 22 
11 22 23 
12 23 24 
13 24 25 
14 25 26 
15 26 27 
16 27 28 
17 28 29 
18 29 30 
19 30 31 
20 31 32 
21 32 33 
22 33 34 
23 34 35 
24 35 36 
25 36 37 
26 37 38 
27 38 39 
28 39 40 
29 40 41 
30 41 42 
31 42 43 
32 43 44 
33 44 45 
34 45 2 
1 2 1 17
35 2 46 
36 46 47 
37 47 48 
38 48 49 
39 49 50 
40 50 51 
41 51 52 
42 52 53 
43 53 54 
44 54 55 
45 55 56 
46 56 57 
47 57 58 
48 58 59 
49 59 60 
50 60 61 
51 61 3 
1 3 1 34
52 3 62 
53 62 63 
54 63 64 
55 64 65 
56 65 66 
57 66 67 
58 67 68 
59 68 69 
60 69 70 
61 70 71 
62 71 72 
63 72 73 
64 73 74 
65 74 75 
66 75 76 
67 76 77 
68 77 78 
69 78 79 
70 79 80 
71 80 81 
72 81 82 
73 82 83 
74 83 84 
75 84 85 
76 85 86 
77 86 87 
78 87 88 
79 88 89 
80 89 90 
81 90 91 
82 91 92 
83 92 93 
84 93 94 
85 94 4 
1 4 1 7
86 4 95 
87 95 96 
88 96 97 
89 97 98 
90 98 99 
91 99 100 
92 100 5 
1 5 1 24
93 5 101 
94 101 102 
95 102 103 
96 103 104 
97 104 105 
98 105 106 
99 106 107 
100 107 108 
101 108 109 
102 109 110 
103 110 111 
104 111 112 
105 112 113 
106 113 114 
107 114 115 
108 115 116 
109 116 117 
110 117 118 
111 118 119 
112 119 120 
113 120 121 
114 121 122 
115 122 123 
116 123 11 
1 6 1 3
117 11 124 
118 124 125 
119 125 6 
1 7 1 7
120 6 126 
121 126 127 
122 127 128 
123 128 129 
124 129 130 
125 130 131 
126 131 7 
1 8 1 2
127 7 132 
128 132 8 
1 10 1 7
129 8 133 
130 133 134 
131 134 135 
132 135 136 
133 136 137 
134 137 138 
135 138 9 
1 11 1 3
136 9 139 
137 139 140 
138 140 12 
1 12 1 24
139 12 141 
140 141 142 
141 142 143 
142 143 144 
143 144 145 
144 145 146 
145 146 147 
146 147 148 
147 148 149 
148 149 150 
149 150 151 
150 151 152 
151 152 153 
152 153 154 
153 154 155 
154 155 156 
155 156 157 
156 157 158 
157 158 159 
158 159 160 
159 160 161 
160 161 162 
161 162 163 
162 163 10 
1 13 1 7
163 10 164 
164 164 165 
165 165 166 
166 166 167 
167 167 168 
168 168 169 
169 169 1 
2 1 2 1559
170 290 509 769 
171 602 395 655 
172 212 502 739 
173 572 343 575 
174 343 572 781 
175 345 554 687 
176 602 655 761 
177 484 487 501 
178 171 513 515 
179 125 171 539 
180 151 152 533 
181 411 562 564 
182 411 564 598 
183 400 402 608 
184 205 524 665 
185 528 206 663 
186 192 521 639 
187 653 387 654 
188 152 203 533 
189 180 567 595 
190 469 656 658 
191 341 619 620 
192 269 290 769 
193 556 489 712 
194 230 558 833 
195 676 329 709 
196 426 422 522 
197 502 212 742 
198 680 283 771 
199 606 676 709 
200 402 406 608 
201 326 570 571 
202 510 191 640 
203 182 11 842 
204 613 506 788 
205 407 320 683 
206 486 484 501 
207 390 629 632 
208 680 287 755 
209 570 326 572 
210 403 680 771 
211 567 180 582 
212 622 621 671 
213 555 489 556 
214 561 562 675 
215 201 519 691 
216 217 527 688 
217 513 171 535 
218 347 345 687 
219 124 125 539 
220 422 420 522 
221 341 620 779 
222 562 411 675 
223 287 680 736 
224 440 616 659 
225 288 720 745 
226 171 515 539 
227 720 566 745 
228 629 390 824 
229 538 186 647 
230 204 112 581 
231 12 181 230 
232 191 510 752 
233 671 621 854 
234 478 610 657 
235 57 174 547 
236 197 559 603 
237 154 763 780 
238 556 712 853 
239 763 526 780 
240 174 545 546 
241 511 499 587 
242 712 304 853 
243 730 287 736 
244 230 231 558 
245 483 484 486 
246 743 116 785 
247 57 547 840 
248 525 203 780 
249 350 730 736 
250 123 11 182 
251 12 141 181 
252 534 246 714 
253 501 487 660 
254 397 182 842 
255 522 420 596 
256 657 610 790 
257 733 734 741 
258 494 485 543 
259 663 206 664 
260 435 618 827 
261 540 196 641 
262 225 613 788 
263 602 192 639 
264 387 653 728 
265 205 665 668 
266 646 435 827 
267 469 658 791 
268 110 552 765 
269 200 536 785 
270 552 110 792 
271 227 622 671 
272 322 584 591 
273 323 351 697 
274 112 113 581 
275 737 724 745 
276 346 589 819 
277 592 408 717 
278 501 660 777 
279 537 743 785 
280 519 201 813 
281 589 346 686 
282 506 613 721 
283 134 242 483 
284 222 622 703 
285 231 235 558 
286 299 306 682 
287 299 682 836 
288 521 192 722 
289 542 256 701 
290 226 689 702 
291 207 106 597 
292 320 344 683 
293 593 244 673 
294 578 289 741 
295 584 583 591 
296 542 718 725 
297 724 288 745 
298 511 587 729 
299 289 733 741 
300 174 546 547 
301 230 181 231 
302 196 540 779 
303 252 257 556 
304 203 525 758 
305 659 616 825 
306 176 561 675 
307 184 671 854 
308 542 579 718 
309 72 213 573 
310 541 189 634 
311 426 522 793 
312 197 122 553 
313 494 543 846 
314 524 205 782 
315 328 593 673 
316 277 760 818 
317 571 573 574 
318 604 217 688 
319 570 572 575 
320 206 528 772 
321 171 6 535 
322 622 227 703 
323 509 290 832 
324 289 578 794 
325 689 226 848 
326 186 610 647 
327 656 469 695 
328 77 600 740 
329 600 77 843 
330 660 311 777 
331 654 387 764 
332 485 242 543 
333 527 217 801 
334 646 347 687 
335 142 198 636 
336 699 677 798 
337 536 200 754 
338 603 559 826 
339 330 690 774 
340 545 174 557 
341 277 279 760 
342 252 556 853 
343 214 751 859 
344 54 180 595 
345 106 107 597 
346 558 235 838 
347 290 271 590 
348 151 533 704 
349 186 538 726 
350 231 233 235 
351 489 555 660 
352 571 574 759 
353 293 255 579 
354 193 29 645 
355 626 472 627 
356 204 551 792 
357 71 72 573 
358 342 323 697 
359 569 179 570 
360 573 213 574 
361 483 242 484 
362 757 427 776 
363 178 37 560 
364 176 51 561 
365 583 176 591 
366 407 683 814 
367 70 179 569 
368 586 399 762 
369 259 261 311 
370 576 214 859 
371 608 406 677 
372 68 214 576 
373 519 520 691 
374 228 606 698 
375 285 298 594 
376 246 248 714 
377 229 677 699 
378 140 230 585 
379 314 293 579 
380 567 563 595 
381 173 592 717 
382 59 221 557 
383 235 577 838 
384 279 282 295 
385 580 185 624 
386 584 322 700 
387 256 542 725 
388 416 413 596 
389 337 324 574 
390 232 181 636 
391 210 583 584 
392 246 534 768 
393 326 571 759 
394 253 292 692 
395 529 612 849 
396 756 265 815 
397 575 343 751 
398 29 30 645 
399 622 222 834 
400 197 553 690 
401 618 435 716 
402 563 209 595 
403 559 197 690 
404 235 237 577 
405 757 776 783 
406 564 565 566 
407 348 232 636 
408 530 184 854 
409 480 524 648 
410 184 530 820 
411 237 239 240 
412 257 259 555 
413 248 250 304 
414 189 541 841 
415 410 411 598 
416 636 198 808 
417 265 267 310 
418 533 203 758 
419 569 570 575 
420 243 587 802 
421 561 209 562 
422 58 59 557 
423 263 265 756 
424 802 494 846 
425 612 224 849 
426 210 584 676 
427 347 646 827 
428 257 555 556 
429 698 606 862 
430 536 537 785 
431 562 563 564 
432 616 440 706 
433 254 253 692 
434 210 49 583 
435 424 422 426 
436 500 499 511 
437 551 204 784 
438 237 240 577 
439 175 522 596 
440 204 581 784 
441 257 258 259 
442 377 378 664 
443 215 65 586 
444 564 563 565 
445 679 559 690 
446 547 546 548 
447 546 405 578 
448 148 691 719 
449 690 553 774 
450 306 601 804 
451 261 263 731 
452 580 481 696 
453 548 546 578 
454 259 311 555 
455 708 788 800 
456 526 525 780 
457 174 58 557 
458 408 592 806 
459 214 569 575 
460 334 332 542 
461 420 416 596 
462 38 212 560 
463 52 209 561 
464 133 134 483 
465 214 69 569 
466 620 196 779 
467 413 412 596 
468 562 209 563 
469 273 277 590 
470 215 586 762 
471 177 67 576 
472 179 71 573 
473 460 459 668 
474 211 35 589 
475 572 326 738 
476 557 221 705 
477 498 496 499 
478 6 126 535 
479 299 301 306 
480 472 626 861 
481 390 632 681 
482 252 254 257 
483 259 260 261 
484 554 345 805 
485 178 560 683 
486 240 239 241 
487 588 40 847 
488 731 263 756 
489 269 271 290 
490 566 565 745 
491 332 314 579 
492 43 220 592 
493 334 542 701 
494 555 311 660 
495 277 278 279 
496 50 51 176 
497 50 176 583 
498 38 39 212 
499 36 37 178 
500 70 71 179 
501 52 53 209 
502 271 273 590 
503 54 55 180 
504 207 597 795 
505 41 42 173 
506 57 58 174 
507 68 69 214 
508 235 236 237 
509 295 282 594 
510 66 177 586 
511 66 67 177 
512 295 594 723 
513 669 202 743 
514 410 598 855 
515 400 608 762 
516 285 297 298 
517 594 298 851 
518 261 262 263 
519 549 548 550 
520 36 178 589 
521 641 196 740 
522 56 57 840 
523 510 609 752 
524 454 651 652 
525 241 245 246 
526 279 281 282 
527 589 178 819 
528 173 42 592 
529 211 589 686 
530 235 233 236 
531 414 513 535 
532 542 332 579 
533 788 611 800 
534 587 499 802 
535 378 663 664 
536 552 377 664 
537 399 586 787 
538 273 276 277 
539 315 327 410 
540 326 308 738 
541 48 210 605 
542 140 12 230 
543 231 232 233 
544 424 426 427 
545 51 52 561 
546 37 38 560 
547 216 120 603 
548 144 217 604 
549 69 70 569 
550 263 264 265 
551 246 247 248 
552 607 215 608 
553 67 68 576 
554 570 179 571 
555 209 53 595 
556 665 460 668 
557 459 526 668 
558 565 567 568 
559 574 324 759 
560 522 482 793 
561 331 314 332 
562 701 256 767 
563 257 254 258 
564 333 332 334 
565 274 532 793 
566 691 520 719 
567 648 524 782 
568 194 599 843 
569 606 605 676 
570 676 584 857 
571 48 49 210 
572 229 63 607 
573 64 65 215 
574 40 41 847 
575 405 403 771 
576 607 608 677 
577 617 211 618 
578 697 351 787 
579 328 544 593 
580 228 605 606 
581 198 143 604 
582 121 197 603 
583 122 123 553 
584 142 143 198 
585 121 122 197 
586 496 494 802 
587 49 50 583 
588 34 211 617 
589 548 578 741 
590 202 669 865 
591 65 66 586 
592 64 215 607 
593 175 129 482 
594 119 216 614 
595 217 145 615 
596 580 696 828 
597 128 175 412 
598 402 401 403 
599 265 266 267 
600 53 54 595 
601 734 550 741 
602 305 328 673 
603 218 161 612 
604 103 219 613 
605 35 36 589 
606 228 47 605 
607 292 315 692 
608 551 552 792 
609 75 196 620 
610 47 48 605 
611 34 35 211 
612 72 73 213 
613 498 499 500 
614 259 258 260 
615 42 43 592 
616 119 120 216 
617 144 145 217 
618 400 352 401 
619 591 176 675 
620 193 645 749 
621 330 679 690 
622 631 436 799 
623 492 516 517 
624 213 73 619 
625 547 548 549 
626 492 517 694 
627 475 503 621 
628 739 502 852 
629 190 609 678 
630 162 224 612 
631 225 102 613 
632 162 163 224 
633 101 102 225 
634 392 389 624 
635 195 630 631 
636 143 144 604 
637 120 121 603 
638 208 625 627 
639 599 600 843 
640 615 199 616 
641 33 34 617 
642 625 626 627 
643 504 393 505 
644 277 276 278 
645 633 374 634 
646 200 118 614 
647 146 199 615 
648 43 44 220 
649 727 594 851 
650 59 60 221 
651 373 541 634 
652 208 159 625 
653 105 207 628 
654 479 621 622 
655 367 602 639 
656 479 475 621 
657 391 392 393 
658 118 119 614 
659 145 146 615 
660 474 473 475 
661 362 360 649 
662 503 529 530 
663 506 504 611 
664 625 218 626 
665 376 374 633 
666 456 458 635 
667 219 628 629 
668 463 464 638 
669 382 381 637 
670 471 474 647 
671 33 617 630 
672 419 416 420 
673 628 207 632 
674 389 388 624 
675 471 473 474 
676 655 395 778 
677 360 599 649 
678 74 75 620 
679 391 389 392 
680 474 475 479 
681 374 373 634 
682 448 449 640 
683 474 538 647 
684 619 74 620 
685 368 367 639 
686 160 161 218 
687 103 104 219 
688 195 32 630 
689 63 64 607 
690 394 393 504 
691 160 218 625 
692 219 104 628 
693 752 609 863 
694 442 443 642 
695 470 468 471 
696 404 403 405 
697 545 405 546 
698 475 476 503 
699 240 684 775 
700 565 563 567 
701 471 472 473 
702 390 389 391 
703 357 540 641 
704 102 103 613 
705 161 162 612 
706 158 208 648 
707 443 446 642 
708 388 481 580 
709 381 379 387 
710 478 470 610 
711 461 463 469 
712 175 482 522 
713 373 521 541 
714 386 388 389 
715 610 470 647 
716 373 371 521 
717 467 470 478 
718 452 455 510 
719 388 385 481 
720 510 455 609 
721 261 260 262 
722 388 580 624 
723 92 93 223 
724 14 15 222 
725 367 365 395 
726 367 395 602 
727 446 448 454 
728 386 385 388 
729 467 468 470 
730 365 362 649 
731 73 74 619 
732 359 357 641 
733 449 452 640 
734 46 47 228 
735 458 461 635 
736 62 63 229 
737 464 467 638 
738 600 359 641 
739 379 376 633 
740 371 368 639 
741 385 382 637 
742 380 379 381 
743 470 471 647 
744 461 462 463 
745 372 371 373 
746 446 454 642 
747 130 274 482 
748 337 574 770 
749 452 453 455 
750 393 392 623 
751 366 365 367 
752 384 382 385 
753 629 628 632 
754 157 158 648 
755 378 376 379 
756 152 153 203 
757 155 156 205 
758 158 159 208 
759 117 118 200 
760 114 115 202 
761 146 147 199 
762 149 150 201 
763 105 106 207 
764 108 109 206 
765 111 112 204 
766 464 466 467 
767 599 359 600 
768 458 460 461 
769 461 469 635 
770 446 447 448 
771 452 510 640 
772 370 368 371 
773 521 371 639 
774 159 160 625 
775 104 105 628 
776 387 379 633 
777 449 451 452 
778 467 478 638 
779 481 385 637 
780 391 393 394 
781 384 385 386 
782 92 223 650 
783 364 362 365 
784 467 466 468 
785 395 365 649 
786 475 473 476 
787 505 393 623 
788 335 334 336 
789 380 381 382 
790 331 332 333 
791 372 373 374 
792 378 379 380 
793 463 462 464 
794 461 460 462 
795 455 453 456 
796 370 371 372 
797 471 468 472 
798 443 445 446 
799 248 249 250 
800 32 33 630 
801 452 451 453 
802 366 367 368 
803 474 479 538 
804 448 447 449 
805 439 442 643 
806 364 365 366 
807 386 389 390 
808 185 91 650 
809 644 643 645 
810 237 238 239 
811 446 445 447 
812 360 359 599 
813 91 92 650 
814 439 441 442 
815 394 504 506 
816 789 428 808 
817 438 643 644 
818 267 268 269 
819 410 327 411 
820 279 278 281 
821 383 382 384 
822 375 374 376 
823 464 465 466 
824 377 376 378 
825 456 457 458 
826 357 355 540 
827 458 459 460 
828 369 368 370 
829 79 80 655 
830 449 450 451 
831 26 27 651 
832 358 357 359 
833 18 19 657 
834 27 28 652 
835 20 21 656 
836 86 87 653 
837 21 22 658 
838 85 86 654 
839 25 26 191 
840 28 29 193 
841 31 32 195 
842 87 88 187 
843 90 91 185 
844 84 85 189 
845 16 17 186 
846 81 82 192 
847 75 76 196 
848 78 79 194 
849 22 23 190 
850 19 20 188 
851 540 355 674 
852 503 476 529 
853 358 359 360 
854 380 382 383 
855 363 362 364 
856 372 374 375 
857 464 462 465 
858 488 485 494 
859 456 453 457 
860 449 447 450 
861 366 368 369 
862 442 441 443 
863 383 384 409 
864 375 376 377 
865 466 465 480 
866 458 457 459 
867 369 370 398 
868 451 450 477 
869 438 439 643 
870 480 465 524 
871 383 409 528 
872 356 358 670 
873 375 377 551 
874 459 457 525 
875 651 27 652 
876 194 79 655 
877 369 398 523 
878 191 26 651 
879 477 450 508 
880 443 444 445 
881 19 188 657 
882 28 193 652 
883 656 21 658 
884 188 20 656 
885 86 653 654 
886 87 187 653 
887 22 190 658 
888 189 85 654 
889 361 360 362 
890 528 409 597 
891 551 377 552 
892 459 525 526 
893 370 372 662 
894 280 127 412 
895 378 380 663 
896 523 398 581 
897 443 441 444 
898 462 460 665 
899 477 508 533 
900 7 132 172 
901 453 451 666 
902 447 445 661 
903 364 366 667 
904 398 370 662 
905 445 444 519 
906 361 362 363 
907 519 444 520 
908 363 364 669 
909 339 353 559 
910 412 175 596 
911 361 363 536 
912 305 320 328 
913 451 477 666 
914 536 363 537 
915 605 210 676 
916 358 360 361 
917 380 383 663 
918 372 375 662 
919 465 462 665 
920 441 440 659 
921 444 441 659 
922 450 447 661 
923 457 453 666 
924 366 369 667 
925 439 440 441 
926 456 635 678 
927 280 412 413 
928 445 519 661 
929 141 142 636 
930 383 528 663 
931 524 465 665 
932 537 363 669 
933 375 551 662 
934 364 667 669 
935 525 457 666 
936 487 489 660 
937 168 169 227 
938 95 96 226 
939 508 450 661 
940 396 356 670 
941 356 357 358 
942 369 523 667 
943 682 306 804 
944 439 437 440 
945 624 185 766 
946 436 631 811 
947 520 444 659 
948 429 431 646 
949 167 168 671 
950 96 97 672 
951 361 536 670 
952 431 435 646 
953 438 437 439 
954 609 455 678 
955 358 361 670 
956 701 767 812 
957 166 167 184 
958 97 98 183 
959 680 401 736 
960 354 356 396 
961 356 355 357 
962 354 340 355 
963 229 607 677 
964 185 580 828 
965 421 420 422 
966 246 245 247 
967 267 269 769 
968 431 433 435 
969 317 308 326 
970 640 191 786 
971 330 318 679 
972 353 340 354 
973 619 341 770 
974 177 576 697 
975 579 255 718 
976 354 355 356 
977 339 340 353 
978 168 227 671 
979 226 96 672 
980 436 437 438 
981 403 401 680 
982 585 230 833 
983 195 644 831 
984 139 140 585 
985 263 262 264 
986 773 507 837 
987 325 338 339 
988 274 131 531 
989 307 773 837 
990 97 183 672 
991 184 167 671 
992 136 243 543 
993 242 135 543 
994 617 618 716 
995 318 325 679 
996 339 338 340 
997 339 559 679 
998 9 139 170 
999 125 6 171 
1000 355 340 674 
1001 436 434 437 
1002 338 337 341 
1003 613 219 721 
1004 571 179 573 
1005 434 432 527 
1006 723 594 727 
1007 400 401 402 
1008 433 434 436 
1009 340 338 674 
1010 328 407 544 
1011 221 699 798 
1012 386 390 681 
1013 409 384 681 
1014 338 341 674 
1015 243 137 587 
1016 431 432 433 
1017 250 252 853 
1018 455 456 678 
1019 429 646 687 
1020 433 432 434 
1021 241 244 245 
1022 325 337 338 
1023 568 567 582 
1024 265 264 266 
1025 148 149 691 
1026 618 211 686 
1027 282 281 284 
1028 250 251 252 
1029 495 494 496 
1030 402 403 404 
1031 274 531 532 
1032 132 8 693 
1033 651 454 786 
1034 306 301 307 
1035 550 797 835 
1036 93 94 702 
1037 13 14 703 
1038 292 312 315 
1039 231 181 232 
1040 333 334 335 
1041 352 350 736 
1042 315 322 327 
1043 44 45 698 
1044 653 187 728 
1045 60 61 699 
1046 431 430 432 
1047 187 88 696 
1048 234 349 554 
1049 323 302 350 
1050 587 138 729 
1051 282 285 594 
1052 7 172 531 
1053 631 630 716 
1054 564 566 850 
1055 325 324 337 
1056 304 712 810 
1057 672 183 821 
1058 321 314 331 
1059 507 397 601 
1060 429 430 431 
1061 313 293 314 
1062 248 304 714 
1063 404 405 545 
1064 212 39 742 
1065 269 270 271 
1066 290 590 803 
1067 8 286 693 
1068 684 240 768 
1069 423 422 424 
1070 689 223 702 
1071 315 410 692 
1072 500 511 512 
1073 309 318 330 
1074 298 297 299 
1075 463 638 695 
1076 252 253 254 
1077 577 240 775 
1078 672 821 848 
1079 325 339 679 
1080 592 220 806 
1081 469 463 695 
1082 192 602 761 
1083 147 148 719 
1084 541 521 722 
1085 532 531 713 
1086 311 261 731 
1087 200 614 754 
1088 694 517 713 
1089 384 386 681 
1090 440 437 706 
1091 267 266 268 
1092 381 387 728 
1093 582 180 835 
1094 9 170 729 
1095 351 350 352 
1096 512 685 838 
1097 318 324 325 
1098 505 623 689 
1099 328 320 407 
1100 222 15 726 
1101 248 247 249 
1102 335 336 502 
1103 527 432 688 
1104 192 82 722 
1105 354 396 715 
1106 241 239 244 
1107 493 731 756 
1108 644 195 799 
1109 319 342 343 
1110 244 593 767 
1111 16 186 726 
1112 627 472 735 
1113 269 268 270 
1114 150 151 704 
1115 574 213 770 
1116 344 316 345 
1117 318 317 324 
1118 149 201 691 
1119 399 352 400 
1120 568 737 745 
1121 425 803 818 
1122 429 428 430 
1123 201 150 704 
1124 434 527 706 
1125 432 430 688 
1126 343 342 751 
1127 797 582 835 
1128 612 529 748 
1129 237 236 238 
1130 394 506 721 
1131 466 480 735 
1132 472 468 735 
1133 484 242 485 
1134 55 56 796 
1135 545 557 705 
1136 40 588 742 
1137 581 113 747 
1138 88 89 696 
1139 271 272 273 
1140 128 129 175 
1141 336 334 701 
1142 220 44 698 
1143 221 60 699 
1144 123 182 553 
1145 188 656 695 
1146 323 350 351 
1147 776 517 783 
1148 309 308 317 
1149 273 275 276 
1150 315 312 322 
1151 321 331 408 
1152 182 397 507 
1153 442 642 749 
1154 233 232 234 
1155 313 314 321 
1156 480 648 807 
1157 282 284 285 
1158 115 116 743 
1159 554 349 687 
1160 309 317 318 
1161 327 322 591 
1162 402 404 406 
1163 114 202 747 
1164 411 327 675 
1165 223 93 702 
1166 14 222 703 
1167 217 615 801 
1168 586 177 787 
1169 623 392 766 
1170 645 643 749 
1171 250 249 251 
1172 635 469 791 
1173 531 172 713 
1174 313 321 329 
1175 387 633 764 
1176 164 165 707 
1177 299 300 301 
1178 99 100 708 
1179 349 428 429 
1180 183 611 821 
1181 488 494 495 
1182 25 191 752 
1183 533 508 704 
1184 497 496 498 
1185 597 409 795 
1186 351 352 399 
1187 610 186 790 
1188 185 650 766 
1189 320 316 344 
1190 775 512 838 
1191 252 251 253 
1192 154 155 763 
1193 537 669 743 
1194 305 316 320 
1195 109 110 765 
1196 281 278 287 
1197 240 241 768 
1198 344 345 346 
1199 437 434 706 
1200 108 206 772 
1201 477 533 758 
1202 754 614 860 
1203 599 194 778 
1204 655 80 761 
1205 81 192 761 
1206 312 293 313 
1207 346 345 347 
1208 598 564 850 
1209 327 591 675 
1210 346 347 686 
1211 130 131 274 
1212 319 323 342 
1213 292 293 312 
1214 419 420 421 
1215 394 721 824 
1216 606 709 862 
1217 8 133 286 
1218 234 554 744 
1219 276 275 283 
1220 271 270 272 
1221 670 536 754 
1222 319 302 323 
1223 129 130 482 
1224 454 448 786 
1225 239 238 673 
1226 247 245 256 
1227 503 530 854 
1228 127 128 412 
1229 157 648 782 
1230 205 156 782 
1231 153 154 780 
1232 307 308 309 
1233 126 127 280 
1234 525 666 758 
1235 421 422 423 
1236 196 76 740 
1237 499 496 802 
1238 626 218 748 
1239 273 272 275 
1240 335 502 588 
1241 116 117 785 
1242 611 504 821 
1243 260 258 291 
1244 292 255 293 
1245 414 417 513 
1246 415 413 416 
1247 630 617 716 
1248 609 190 863 
1249 349 429 687 
1250 241 246 768 
1251 424 427 509 
1252 648 208 807 
1253 253 251 255 
1254 135 136 543 
1255 581 398 784 
1256 238 303 305 
1257 317 326 759 
1258 110 111 792 
1259 498 500 684 
1260 296 284 302 
1261 136 137 243 
1262 253 255 292 
1263 134 135 242 
1264 305 303 316 
1265 692 410 746 
1266 319 343 710 
1267 238 305 673 
1268 199 147 719 
1269 353 354 715 
1270 280 414 535 
1271 286 490 693 
1272 611 183 800 
1273 793 532 864 
1274 18 657 790 
1275 186 17 790 
1276 285 296 297 
1277 226 672 848 
1278 279 295 760 
1279 219 629 721 
1280 408 331 717 
1281 307 309 773 
1282 172 694 713 
1283 578 405 771 
1284 436 438 799 
1285 181 141 636 
1286 137 138 587 
1287 11 124 842 
1288 662 551 784 
1289 82 83 722 
1290 728 187 845 
1291 244 239 673 
1292 479 622 834 
1293 266 264 288 
1294 138 9 729 
1295 550 548 741 
1296 45 2 816 
1297 2 46 816 
1298 61 3 817 
1299 3 62 817 
1300 296 302 319 
1301 390 391 824 
1302 275 272 289 
1303 131 7 531 
1304 418 416 419 
1305 776 427 864 
1306 473 472 861 
1307 350 302 730 
1308 216 603 826 
1309 616 199 825 
1310 198 789 808 
1311 190 23 863 
1312 77 78 843 
1313 331 333 717 
1314 31 195 831 
1315 90 185 828 
1316 84 189 841 
1317 291 598 850 
1318 495 496 497 
1319 637 381 728 
1320 492 493 516 
1321 1 13 822 
1322 94 4 823 
1323 299 297 300 
1324 674 341 779 
1325 401 352 736 
1326 15 16 726 
1327 530 707 820 
1328 183 98 800 
1329 238 236 303 
1330 661 519 813 
1331 645 30 831 
1332 285 284 296 
1333 169 1 822 
1334 4 95 823 
1335 404 545 705 
1336 349 348 428 
1337 634 189 764 
1338 711 566 720 
1339 280 413 414 
1340 669 667 865 
1341 565 568 745 
1342 307 301 308 
1343 172 693 694 
1344 286 486 490 
1345 262 260 711 
1346 166 184 820 
1347 597 107 772 
1348 283 680 755 
1349 601 306 837 
1350 234 232 348 
1351 490 491 492 
1352 313 329 700 
1353 163 10 829 
1354 5 101 830 
1355 721 629 824 
1356 559 353 826 
1357 300 297 710 
1358 649 599 778 
1359 433 436 811 
1360 430 428 789 
1361 76 77 740 
1362 322 312 700 
1363 541 722 841 
1364 312 313 700 
1365 286 133 483 
1366 234 348 349 
1367 406 404 705 
1368 270 268 294 
1369 468 466 735 
1370 218 612 748 
1371 497 498 534 
1372 773 330 774 
1373 265 310 815 
1374 10 164 829 
1375 100 5 830 
1376 172 132 693 
1377 321 408 709 
1378 329 321 709 
1379 126 280 535 
1380 180 796 835 
1381 695 638 809 
1382 236 233 744 
1383 251 249 718 
1384 685 512 839 
1385 421 423 425 
1386 308 301 738 
1387 296 319 710 
1388 487 485 488 
1389 796 56 840 
1390 297 296 710 
1391 454 652 844 
1392 214 575 751 
1393 418 723 727 
1394 201 704 813 
1395 560 212 814 
1396 747 202 865 
1397 310 267 769 
1398 222 726 834 
1399 303 236 744 
1400 600 641 740 
1401 598 291 855 
1402 491 486 501 
1403 39 40 742 
1404 550 734 797 
1405 418 419 723 
1406 415 416 418 
1407 642 454 844 
1408 276 283 755 
1409 188 695 809 
1410 492 491 493 
1411 696 89 828 
1412 425 423 803 
1413 255 251 718 
1414 658 190 791 
1415 202 115 743 
1416 264 262 720 
1417 668 526 763 
1418 205 668 763 
1419 534 498 684 
1420 427 426 864 
1421 258 254 746 
1422 345 316 805 
1423 487 488 489 
1424 544 407 739 
1425 704 508 813 
1426 644 645 831 
1427 497 534 714 
1428 99 708 800 
1429 260 291 711 
1430 195 631 799 
1431 683 560 814 
1432 601 397 858 
1433 245 244 767 
1434 484 485 487 
1435 523 581 747 
1436 254 692 746 
1437 482 274 793 
1438 286 483 486 
1439 190 678 791 
1440 626 748 861 
1441 643 442 749 
1442 113 114 747 
1443 520 659 825 
1444 513 514 515 
1445 707 165 820 
1446 528 597 772 
1447 490 486 491 
1448 529 476 748 
1449 24 25 752 
1450 281 287 730 
1451 284 281 730 
1452 490 492 694 
1453 553 182 774 
1454 608 215 762 
1455 268 266 724 
1456 513 417 514 
1457 247 256 725 
1458 287 278 755 
1459 198 604 789 
1460 301 300 738 
1461 249 247 725 
1462 414 413 415 
1463 488 495 712 
1464 552 664 765 
1465 311 731 777 
1466 396 670 754 
1467 664 206 765 
1468 729 170 839 
1469 395 649 778 
1470 298 299 836 
1471 514 417 518 
1472 189 654 764 
1473 335 588 753 
1474 717 333 753 
1475 722 83 841 
1476 588 502 742 
1477 666 477 758 
1478 396 754 860 
1479 80 81 761 
1480 392 624 766 
1481 124 539 842 
1482 180 55 796 
1483 738 300 781 
1484 288 264 720 
1485 155 205 763 
1486 637 728 845 
1487 633 634 764 
1488 705 221 798 
1489 213 619 770 
1490 593 544 812 
1491 509 427 757 
1492 206 109 765 
1493 419 421 732 
1494 223 689 856 
1495 689 623 856 
1496 262 711 720 
1497 233 234 744 
1498 302 284 730 
1499 715 216 826 
1500 414 415 417 
1501 278 276 755 
1502 590 277 818 
1503 733 294 734 
1504 191 651 786 
1505 706 527 801 
1506 685 558 838 
1507 324 317 759 
1508 767 593 812 
1509 532 776 864 
1510 693 490 694 
1511 514 518 682 
1512 107 108 772 
1513 266 288 724 
1514 304 250 853 
1515 272 270 733 
1516 803 590 818 
1517 509 757 769 
1518 289 272 733 
1519 718 249 725 
1520 309 330 773 
1521 333 335 753 
1522 577 775 838 
1523 631 716 811 
1524 723 419 732 
1525 489 488 712 
1526 177 697 787 
1527 540 674 779 
1528 341 337 770 
1529 291 258 746 
1530 41 173 847 
1531 423 424 832 
1532 532 713 776 
1533 812 544 852 
1534 734 294 737 
1535 203 153 780 
1536 399 400 762 
1537 572 738 781 
1538 726 538 834 
1539 623 766 856 
1540 194 655 778 
1541 709 806 862 
1542 283 275 794 
1543 749 642 844 
1544 516 493 756 
1545 719 520 825 
1546 294 268 724 
1547 757 310 769 
1548 448 640 786 
1549 156 157 782 
1550 117 200 785 
1551 683 344 819 
1552 421 425 732 
1553 295 723 732 
1554 398 662 784 
1555 24 752 863 
1556 506 611 788 
1557 256 245 767 
1558 523 747 865 
1559 512 511 839 
1560 478 657 809 
1561 618 686 827 
1562 614 216 860 
1563 746 410 855 
1564 748 476 861 
1565 678 635 791 
1566 632 207 795 
1567 684 500 775 
1568 702 94 823 
1569 13 703 822 
1570 270 294 733 
1571 173 717 753 
1572 111 204 792 
1573 17 18 790 
1574 294 724 737 
1575 616 706 801 
1576 187 696 845 
1577 604 688 789 
1578 517 516 783 
1579 677 406 798 
1580 409 681 795 
1581 170 139 585 
1582 170 585 685 
1583 224 163 829 
1584 101 225 830 
1585 543 243 846 
1586 615 616 801 
1587 348 636 808 
1588 638 478 809 
1589 698 45 816 
1590 699 61 817 
1591 438 644 799 
1592 707 530 849 
1593 568 582 797 
1594 98 99 800 
1595 418 727 750 
1596 344 346 819 
1597 803 423 832 
1598 688 430 789 
1599 351 399 787 
1600 711 291 850 
1601 735 480 807 
1602 329 676 857 
1603 500 512 775 
1604 497 714 810 
1605 208 627 807 
1606 534 684 768 
1607 750 727 851 
1608 716 435 811 
1609 493 491 777 
1610 686 347 827 
1611 681 632 795 
1612 518 750 851 
1613 549 550 835 
1614 491 501 777 
1615 515 804 858 
1616 657 188 809 
1617 518 417 750 
1618 708 225 788 
1619 46 228 816 
1620 504 505 821 
1621 62 229 817 
1622 731 493 777 
1623 744 554 805 
1624 336 812 852 
1625 508 661 813 
1626 295 732 760 
1627 165 166 820 
1628 710 343 781 
1629 435 433 811 
1630 391 394 824 
1631 226 702 823 
1632 703 227 822 
1633 89 90 828 
1634 30 31 831 
1635 696 481 845 
1636 538 479 834 
1637 227 169 822 
1638 95 226 823 
1639 621 503 854 
1640 300 710 781 
1641 821 505 848 
1642 415 418 750 
1643 83 84 841 
1644 481 637 845 
1645 507 601 837 
1646 530 529 849 
1647 566 711 850 
1648 78 194 843 
1649 652 193 844 
1650 650 223 856 
1651 428 348 808 
1652 182 507 774 
1653 275 289 794 
1654 771 283 794 
1655 316 303 805 
1656 712 495 810 
1657 23 24 863 
1658 228 698 816 
1659 229 699 817 
1660 476 473 861 
1661 417 415 750 
1662 306 307 837 
1663 667 523 865 
1664 216 715 860 
1665 220 698 862 
1666 507 773 774 
1667 715 396 860 
1668 502 336 852 
1669 539 397 842 
1670 178 683 819 
1671 303 744 805 
1672 783 516 815 
1673 342 697 859 
1674 511 729 839 
1675 707 224 829 
1676 225 708 830 
1677 406 705 798 
1678 547 549 840 
1679 732 425 760 
1680 193 749 844 
1681 495 497 810 
1682 714 304 810 
1683 212 739 814 
1684 505 689 848 
1685 709 408 806 
1686 584 700 857 
1687 796 549 835 
1688 310 783 815 
1689 164 707 829 
1690 708 100 830 
1691 514 682 804 
1692 336 701 812 
1693 544 739 852 
1694 353 715 826 
1695 734 737 797 
1696 424 509 832 
1697 713 517 776 
1698 199 719 825 
1699 224 707 849 
1700 515 514 804 
1701 627 735 807 
1702 766 650 856 
1703 697 576 859 
1704 310 757 783 
1705 243 802 846 
1706 737 568 797 
1707 739 407 814 
1708 549 796 840 
1709 170 685 839 
1710 804 601 858 
1711 578 771 794 
1712 426 793 864 
1713 516 756 815 
1714 558 685 833 
1715 700 329 857 
1716 397 539 858 
1717 682 518 836 
1718 753 588 847 
1719 290 803 832 
1720 760 425 818 
1721 751 342 859 
1722 539 515 858 
1723 685 585 833 
1724 291 746 855 
1725 173 753 847 
1726 836 518 851 
1727 806 220 862 
1728 298 836 851 
$EndElements
