$MeshFormat
4.1 0 8
$EndMeshFormat
$Entities
32 24 1 0
1 0 0 0 0 
2 2 0 0 0 
3 2.9 1.9 0 0 
4 2.970710678118655 1.970710678118655 0 0 
5 3.04142135623731 2 0 0 
6 3.14142135623731 2 0 0 
7 4.858578643762691 2 0 0 
8 4.95857864376269 2 0 0 
9 5.029289321881345 1.970710678118655 0 0 
10 5.1 1.9 0 0 
11 6 0 0 0 
12 8 0 0 0 
13 8 5 0 0 
14 6 5 0 0 
15 5.1 3.1 0 0 
16 5.029289321881345 3.029289321881345 0 0 
17 4.95857864376269 3 0 0 
18 4.858578643762691 3 0 0 
19 3.14142135623731 3 0 0 
20 3.04142135623731 3 0 0 
21 2.970710678118655 3.029289321881345 0 0 
22 2.9 3.1 0 0 
23 2 5 0 0 
24 0 5 0 0 
101 3.04142135623731 1.9 0 0 
102 4.95857864376269 1.9 0 0 
103 4.95857864376269 3.1 0 0 
104 3.04142135623731 3.1 0 0 
1001 3 2 0 0 
1002 5 2 0 0 
1003 5 3 0 0 
1004 3 3 0 0 
1 0 0 0 2 0 0 1 3 2 1 -2 
2 2 0 0 2.9 1.9 0 1 3 2 2 -3 
3 2.9 1.9 0 2.970710678118655 1.970710678118655 0 1 3 2 3 -4 
4 2.970710678118655 1.970710678118655 0 3.04142135623731 2 0 1 3 2 4 -5 
5 3.04142135623731 2 0 3.14142135623731 2 0 1 3 2 5 -6 
6 3.14142135623731 2 0 4.858578643762691 2 0 1 3 2 6 -7 
7 4.858578643762691 2 0 4.95857864376269 2 0 1 3 2 7 -8 
8 4.95857864376269 1.970710678118655 0 5.029289321881345 2 0 1 3 2 8 -9 
9 5.029289321881345 1.9 0 5.1 1.970710678118655 0 1 3 2 9 -10 
10 5.1 0 0 6 1.9 0 1 3 2 10 -11 
11 6 0 0 8 0 0 1 3 2 11 -12 
12 8 0 0 8 5 0 1 2 2 12 -13 
13 6 5 0 8 5 0 1 3 2 13 -14 
14 5.1 3.1 0 6 5 0 1 3 2 14 -15 
15 5.029289321881345 3.029289321881345 0 5.1 3.1 0 1 3 2 15 -16 
16 4.95857864376269 3 0 5.029289321881345 3.029289321881345 0 0 2 16 -17 
17 4.858578643762691 3 0 4.95857864376269 3 0 0 2 17 -18 
18 3.14142135623731 3 0 4.858578643762691 3 0 1 3 2 18 -19 
19 3.04142135623731 3 0 3.14142135623731 3 0 1 3 2 19 -20 
20 2.970710678118655 3 0 3.04142135623731 3.029289321881345 0 1 3 2 20 -21 
21 2.9 3.029289321881345 0 2.970710678118655 3.1 0 1 3 2 21 -22 
22 2 3.1 0 2.9 5 0 1 3 2 22 -23 
23 0 5 0 2 5 0 1 3 2 23 -24 
24 0 0 0 0 5 0 1 1 2 24 -1 
1 0 0 0 8 5 0 1 1 24 1 2 3 4 5 6 7 8 9 10 11 12 13 14 15 16 17 18 19 20 21 22 23 24 
$EndEntities
$Nodes
47 1133 1 1133
0 1 0 1
1
0 0 0
0 2 0 1
2
2 0 0
0 3 0 1
3
2.9 1.9 0
0 4 0 1
4
2.970710678118655 1.970710678118655 0
0 5 0 1
5
3.04142135623731 2 0
0 6 0 1
6
3.14142135623731 2 0
0 7 0 1
7
4.858578643762691 2 0
0 8 0 1
8
4.95857864376269 2 0
0 9 0 1
9
5.029289321881345 1.970710678118655 0
0 10 0 1
10
5.1 1.9 0
0 11 0 1
11
6 0 0
0 12 0 1
12
8 0 0
0 13 0 1
13
8 5 0
0 14 0 1
14
6 5 0
0 15 0 1
15
5.1 3.1 0
0 16 0 1
16
5.029289321881345 3.029289321881345 0
0 17 0 1
17
4.95857864376269 3 0
0 18 0 1
18
4.858578643762691 3 0
0 19 0 1
19
3.14142135623731 3 0
0 20 0 1
20
3.04142135623731 3 0
0 21 0 1
21
2.970710678118655 3.029289321881345 0
0 22 0 1
22
2.9 3.1 0
0 23 0 1
23
2 5 0
0 24 0 1
24
0 5 0
1 1 0 9
25
26
27
28
29
30
31
32
33
0.1999999999996293 0 0
0.3999999999991157 0 0
0.5999999999985328 0 0
0.7999999999979498 0 0
0.9999999999973885 0 0
1.199999999997894 0 0
1.39999999999842 0 0
1.599999999998947 0 0
1.799999999999474 0 0
1 2 0 10
34
35
36
37
38
39
40
41
42
43
2.081818181817978 0.1727272727268416 0
2.163636363635938 0.3454545454536462 0
2.245454545453868 0.5181818181803889 0
2.327272727271779 0.6909090909070903 0
2.409090909089706 0.8636363636338233 0
2.490909090907836 1.036363636360988 0
2.572727272726315 1.209090909088887 0
2.654545454544712 1.381818181816615 0
2.736363636363087 1.554545454544294 0
2.818181818181533 1.727272727272125 0
1 3 0 0
1 4 0 0
1 5 0 0
1 6 0 8
44
45
46
47
48
49
50
51
3.332216610406459 2 0
3.523011864575339 2 0
3.713807118744209 2 0
3.904602372913301 2 0
4.09539762708299 2 0
4.28619288125267 2 0
4.476988135422657 2 0
4.667783389592896 2 0
1 7 0 0
1 8 0 0
1 9 0 0
1 10 0 10
52
53
54
55
56
57
58
59
60
61
5.181818181818025 1.727272727273057 0
5.263636363636049 1.554545454546117 0
5.345454545454011 1.38181818181931 0
5.427272727271941 1.209090909092569 0
5.509090909089951 1.036363636365658 0
5.590909090908129 0.8636363636383937 0
5.672727272726634 0.6909090909104389 0
5.754545454545055 0.5181818181826612 0
5.836363636363326 0.3454545454552005 0
5.918181818181669 0.172727272727589 0
1 11 0 9
62
63
64
65
66
67
68
69
70
6.199999999999999 0 0
6.399999999999999 0 0
6.599999999999999 0 0
6.799999999999999 0 0
6.999999999999999 0 0
7.199999999999999 0 0
7.399999999999999 0 0
7.6 0 0
7.8 0 0
1 12 0 24
71
72
73
74
75
76
77
78
79
80
81
82
83
84
85
86
87
88
89
90
91
92
93
94
8 0.1999999999998339 0
8 0.3999999999996643 0
8 0.5999999999995166 0
8 0.7999999999989961 0
8 0.9999999999984124 0
8 1.199999999997829 0
8 1.399999999997245 0
8 1.599999999996661 0
8 1.799999999996077 0
8 1.999999999995511 0
8 2.199999999995745 0
8 2.399999999996049 0
8 2.599999999996353 0
8 2.799999999996657 0
8 2.999999999996961 0
8 3.199999999997265 0
8 3.399999999997569 0
8 3.599999999997873 0
8 3.799999999998176 0
8 3.999999999998481 0
8 4.199999999998784 0
8 4.399999999999088 0
8 4.599999999999393 0
8 4.799999999999696 0
1 13 0 9
95
96
97
98
99
100
101
102
103
7.800000000000001 5 0
7.600000000000001 5 0
7.400000000000001 5 0
7.200000000000001 5 0
7.000000000000001 5 0
6.800000000000001 5 0
6.600000000000001 5 0
6.4 5 0
6.2 5 0
1 14 0 10
104
105
106
107
108
109
110
111
112
113
5.918181818181972 4.82727272727305 0
5.83636363636391 4.654545454546033 0
5.754545454545879 4.481818181819079 0
5.672727272727854 4.309090909092135 0
5.590909090909799 4.136363636365131 0
5.509090909091665 3.96363636363796 0
5.427272727273193 3.790909090910076 0
5.345454545454819 3.618181818182397 0
5.263636363636625 3.445454545455098 0
5.181818181818351 3.272727272727631 0
1 15 0 0
1 18 0 8
114
115
116
117
118
119
120
121
4.667783389593513 3 0
4.476988135424585 3 0
4.286192881255849 3 0
4.095397627086845 3 0
3.904602372917493 3 0
3.713807118747447 3 0
3.523011864577401 3 0
3.332216610407356 3 0
1 19 0 0
1 20 0 0
1 21 0 0
1 22 0 10
122
123
124
125
126
127
128
129
130
131
2.818181818181798 3.272727272727314 0
2.736363636363657 3.445454545454501 0
2.654545454545581 3.618181818181551 0
2.57272727272755 3.790909090908506 0
2.490909090909431 3.963636363635646 0
2.409090909091197 4.136363636363027 0
2.327272727272916 4.309090909090511 0
2.24545454545465 4.481818181817962 0
2.163636363636418 4.654545454545341 0
2.081818181818201 4.827272727272687 0
1 23 0 9
132
133
134
135
136
137
138
139
140
1.799999999999167 5 0
1.6 5 0
1.400000000001387 5 0
1.200000000002774 5 0
1.000000000004117 5 0
0.8000000000033287 5 0
0.6000000000024965 5 0
0.4000000000016644 5 0
0.200000000000832 5 0
1 24 0 24
141
142
143
144
145
146
147
148
149
150
151
152
153
154
155
156
157
158
159
160
161
162
163
164
0 4.8 0
0 4.6 0
0 4.399999999999999 0
0 4.199999999999998 0
0 3.999999999999999 0
0 3.799999999999999 0
0 3.599999999999999 0
0 3.399999999999999 0
0 3.199999999999998 0
0 2.999999999999999 0
0 2.799999999999999 0
0 2.599999999999999 0
0 2.399999999999999 0
0 2.199999999999999 0
0 2 0
0 1.799999999999999 0
0 1.599999999999999 0
0 1.399999999999999 0
0 1.199999999999999 0
0 0.9999999999999991 0
0 0.7999999999999998 0
0 0.5999999999999996 0
0 0.3999999999999995 0
0 0.1999999999999993 0
2 1 0 969
165
166
167
168
169
170
171
172
173
174
175
176
177
178
179
180
181
182
183
184
185
186
187
188
189
190
191
192
193
194
195
196
197
198
199
200
201
202
203
204
205
206
207
208
209
210
211
212
213
214
215
216
217
218
219
220
221
222
223
224
225
226
227
228
229
230
231
232
233
234
235
236
237
238
239
240
241
242
243
244
245
246
247
248
249
250
251
252
253
254
255
256
257
258
259
260
261
262
263
264
265
266
267
268
269
270
271
272
273
274
275
276
277
278
279
280
281
282
283
284
285
286
287
288
289
290
291
292
293
294
295
296
297
298
299
300
301
302
303
304
305
306
307
308
309
310
311
312
313
314
315
316
317
318
319
320
321
322
323
324
325
326
327
328
329
330
331
332
333
334
335
336
337
338
339
340
341
342
343
344
345
346
347
348
349
350
351
352
353
354
355
356
357
358
359
360
361
362
363
364
365
366
367
368
369
370
371
372
373
374
375
376
377
378
379
380
381
382
383
384
385
386
387
388
389
390
391
392
393
394
395
396
397
398
399
400
401
402
403
404
405
406
407
408
409
410
411
412
413
414
415
416
417
418
419
420
421
422
423
424
425
426
427
428
429
430
431
432
433
434
435
436
437
438
439
440
441
442
443
444
445
446
447
448
449
450
451
452
453
454
455
456
457
458
459
460
461
462
463
464
465
466
467
468
469
470
471
472
473
474
475
476
477
478
479
480
481
482
483
484
485
486
487
488
489
490
491
492
493
494
495
496
497
498
499
500
501
502
503
504
505
506
507
508
509
510
511
512
513
514
515
516
517
518
519
520
521
522
523
524
525
526
527
528
529
530
531
532
533
534
535
536
537
538
539
540
541
542
543
544
545
546
547
548
549
550
551
552
553
554
555
556
557
558
559
560
561
562
563
564
565
566
567
568
569
570
571
572
573
574
575
576
577
578
579
580
581
582
583
584
585
586
587
588
589
590
591
592
593
594
595
596
597
598
599
600
601
602
603
604
605
606
607
608
609
610
611
612
613
614
615
616
617
618
619
620
621
622
623
624
625
626
627
628
629
630
631
632
633
634
635
636
637
638
639
640
641
642
643
644
645
646
647
648
649
650
651
652
653
654
655
656
657
658
659
660
661
662
663
664
665
666
667
668
669
670
671
672
673
674
675
676
677
678
679
680
681
682
683
684
685
686
687
688
689
690
691
692
693
694
695
696
697
698
699
700
701
702
703
704
705
706
707
708
709
710
711
712
713
714
715
716
717
718
719
720
721
722
723
724
725
726
727
728
729
730
731
732
733
734
735
736
737
738
739
740
741
742
743
744
745
746
747
748
749
750
751
752
753
754
755
756
757
758
759
760
761
762
763
764
765
766
767
768
769
770
771
772
773
774
775
776
777
778
779
780
781
782
783
784
785
786
787
788
789
790
791
792
793
794
795
796
797
798
799
800
801
802
803
804
805
806
807
808
809
810
811
812
813
814
815
816
817
818
819
820
821
822
823
824
825
826
827
828
829
830
831
832
833
834
835
836
837
838
839
840
841
842
843
844
845
846
847
848
849
850
851
852
853
854
855
856
857
858
859
860
861
862
863
864
865
866
867
868
869
870
871
872
873
874
875
876
877
878
879
880
881
882
883
884
885
886
887
888
889
890
891
892
893
894
895
896
897
898
899
900
901
902
903
904
905
906
907
908
909
910
911
912
913
914
915
916
917
918
919
920
921
922
923
924
925
926
927
928
929
930
931
932
933
934
935
936
937
938
939
940
941
942
943
944
945
946
947
948
949
950
951
952
953
954
955
956
957
958
959
960
961
962
963
964
965
966
967
968
969
970
971
972
973
974
975
976
977
978
979
980
981
982
983
984
985
986
987
988
989
990
991
992
993
994
995
996
997
998
999
1000
1001
1002
1003
1004
1005
1006
1007
1008
1009
1010
1011
1012
1013
1014
1015
1016
1017
1018
1019
1020
1021
1022
1023
1024
1025
1026
1027
1028
1029
1030
1031
1032
1033
1034
1035
1036
1037
1038
1039
1040
1041
1042
1043
1044
1045
1046
1047
1048
1049
1050
1051
1052
1053
1054
1055
1056
1057
1058
1059
1060
1061
1062
1063
1064
1065
1066
1067
1068
1069
1070
1071
1072
1073
1074
1075
1076
1077
1078
1079
1080
1081
1082
1083
1084
1085
1086
1087
1088
1089
1090
1091
1092
1093
1094
1095
1096
1097
1098
1099
1100
1101
1102
1103
1104
1105
1106
1107
1108
1109
1110
1111
1112
1113
1114
1115
1116
1117
1118
1119
1120
1121
1122
1123
1124
1125
1126
1127
1128
1129
1130
1131
1132
1133
5.254835190305132 1.867601358087322 0
5.245824868448862 3.112934507714764 0
2.743782196146708 3.143752200587679 0
2.7541730386634 1.887078307012141 0
7.827563206061236 2.49866203294765 0
0.1720414854458915 2.698151731479464 0
5.552608081305777 1.359005788484318 0
2.970740778316001 2.041986191051575 0
5.007268494116687 2.053543081366045 0
2.467536345262317 1.37184602481642 0
5.526943135123866 3.621286877761666 0
2.462411012071587 3.601546806103837 0
2.992740438343656 2.946460340304429 0
5.032583910631405 2.957049468374628 0
0.1772579070499924 1.900407073448609 0
7.833403706079122 1.721294064857401 0
7.836411274725327 3.289810944434532 0
0.183239124769931 3.484601164334749 0
1.300094389965192 4.831399235643951 0
1.29880618324331 0.1647080389155921 0
6.702071523986124 4.828600554190601 0
6.689187065211104 0.1619035516840223 0
5.78177681949089 0.8427666578817543 0
0.1951876240416459 1.312272178559798 0
2.23155242884539 0.8420080536204586 0
5.763797687029851 4.1549084210901 0
2.213245974373552 4.153228503261952 0
7.819539319607962 1.098927886122177 0
7.838901021625476 3.896067784338912 0
0.196554814886296 4.120956529392835 0
4.765584851993865 2.10941544320586 0
3.221009866679972 2.889963867274647 0
0.194201437270568 0.6956655942714784 0
7.301976971884193 0.1720616592328869 0
7.298093573903345 4.82793990095543 0
4.755965500700691 2.887133521239121 0
3.249325428004385 2.113806938677554 0
0.6849109969998134 4.789303372176976 0
0.7020027658394509 0.1689034867368451 0
4.382771686068099 2.846548097014011 0
3.5914181607573 2.150973631066214 0
0.1811151538373451 3.116890305172809 0
5.943563474887704 0.5032920879127729 0
7.827001631119353 2.102036711305362 0
0.1726233585420036 2.301066717236918 0
7.832582793815893 2.902158351831805 0
7.826820624336174 0.7002314929858994 0
7.805805756263528 4.298008770979044 0
3.997670796484433 2.8140409166262 0
2.055914918257083 0.5022221200586101 0
5.943089225523117 4.498249601308149 0
2.054959248437235 4.497325194235613 0
4.219780801118532 2.162946423541914 0
3.61611221947165 2.840041091119418 0
0.1896454301522166 4.484225903943287 0
6.3 0.1732050807568871 0
1.692875985174418 0.1597480457879392 0
6.312144308446229 4.832621758947446 0
1.700057633703405 4.832588436094396 0
2.798519630462549 3.013002961489973 0
2.670097659017247 3.026941497376762 0
2.737449572043567 2.893688620293192 0
2.598926180397267 2.914441876641741 0
2.652304950421244 2.793914679412214 0
2.52579605436168 2.807106211107098 0
2.463958196753467 2.926494766512335 0
2.389021541840175 2.813041741897491 0
2.325421813545886 2.936386998228115 0
2.236413111057074 2.786012846119605 0
2.17957814105771 2.940715932727189 0
2.086442501523724 2.813839410915419 0
2.03051766344597 2.953052451062073 0
1.944385799687442 2.828856422318669 0
1.879714425916198 2.964187812480175 0
1.796053591906206 2.834776933576942 0
1.724451911342341 2.973558912170212 0
1.870379749661027 2.697718203495295 0
1.714787295776321 2.699844307550693 0
1.782106458458261 2.562279534296013 0
1.625658481473055 2.563028874416097 0
1.704862247568546 2.414752839014229 0
1.539453676163261 2.422037568350947 0
1.618239294007967 2.268206750373946 0
1.466379332512171 2.553398037823518 0
1.421491025887071 2.289541527784903 0
1.521049212224555 2.123515283136186 0
1.344151033713975 2.129350823593985 0
1.430612960276307 1.967220051838708 0
2.324247661024367 2.697524411738128 0
1.812116457049079 3.106566289853442 0
1.65072496412239 3.1170189680645 0
1.74206286336207 3.254936718181332 0
1.573824639617442 3.265478125733652 0
1.238116624063453 1.978120930982394 0
1.330752304677275 1.814205093843286 0
1.709961297946401 2.113095897451819 0
1.667460970073375 3.408160094781531 0
1.494231427034398 3.419013319581025 0
1.399827235717534 3.272325272188992 0
1.317483328914983 3.428733639235189 0
1.415032393992831 3.578867001238719 0
1.234215374297526 3.590024369831764 0
1.220803823681706 3.277861260528541 0
1.125382722543691 1.826471885218617 0
1.226104475011642 1.660701071728178 0
1.419989093384416 1.652088948980261 0
1.320639857138914 1.493446786020136 0
1.334792332988792 3.742678166285271 0
1.156375930827153 2.142932235569826 0
1.150698353556548 3.753830438596535 0
1.128522901859411 1.50198409321496 0
1.220739028004383 1.333467420213975 0
1.50878821319227 1.487589781324676 0
1.252410091635554 3.909657650320298 0
1.06529881591024 3.920766746402558 0
1.031630743323144 1.339234643589844 0
1.121245468160849 1.170522814464993 0
0.9301429473570657 1.176501546422723 0
1.021123606017712 1.006076883791283 0
1.21339925868046 1.000726129623731 0
1.516748278081985 3.730247122692995 0
1.050231433393386 3.598066824620269 0
0.9442423839276963 1.507295435136689 0
1.870512942661884 2.451926592854108 0
2.116567831514744 3.080040416937047 0
2.402391900886007 3.04233350423502 0
2.582738269400549 2.690035360696813 0
2.708503387581783 2.676847108266205 0
2.640545544494742 2.573385171253099 0
2.768740961074448 2.56164397509214 0
2.698399256784408 2.45907130771906 0
2.819838016060035 2.448351642565137 0
2.753746360483238 2.349349409787707 0
2.637859221230193 2.351179378324582 0
1.165224660665471 4.07698056127035 0
0.9783610577111648 4.089592484892673 0
1.342723018449459 4.064015601561937 0
0.8748721943935256 3.930063887326432 0
2.915886784614302 2.549595737120892 0
1.837426714148954 3.39610686310255 0
0.8285153940099145 1.01161284438745 0
0.9188327064219611 0.8403005470067006 0
0.7870078752938642 4.100821651363612 0
2.872594230444799 2.35027896352095 0
1.305052864912368 3.120890249161111 0
1.124411652679577 3.125727657425042 0
1.081794676417288 4.248298465782673 0
1.607503129833808 1.647205451248324 0
1.696130170520984 1.482039357228315 0
1.796272875756391 1.640497837603711 0
1.884663751465511 1.477432119809817 0
1.78547495639127 1.316357694457924 0
1.981911102663249 1.638054413777709 0
0.6863946440071365 3.936063948574255 0
2.819202492479285 2.256353421920373 0
0.7304976037089437 1.173755866033534 0
0.7248670710152976 0.8460648318260908 0
1.974873859311567 1.312188702349137 0
1.875357726849207 1.149975927017534 0
1.209246867168337 2.967093477215061 0
1.028154679921167 2.972153256526904 0
0.9422364750321408 3.133390191452882 0
0.8445902146062194 2.977801715461135 0
0.9318588375127859 2.815398752760874 0
0.7572186550276548 3.141408702190909 0
0.7462800960807516 2.820659831174102 0
0.8345844873042401 2.656243334429288 0
5.199565038045155 1.985634784096831 0
5.327749510700204 1.973945939887311 0
5.261775839542824 2.105285716974454 0
5.399817382013141 2.084386861880333 0
5.346949191867159 2.203857788821191 0
5.47274185717873 2.190517425638506 0
5.534273226017101 2.072252801562477 0
5.608629640664693 2.185004620738287 0
5.671991568515679 2.062653681239004 0
5.759903832196305 2.211248656466485 0
5.816741468521196 2.058439998728456 0
5.908715002086025 2.183933612398028 0
5.964581591141376 2.046423219118795 0
6.049890441923055 2.169635383578628 0
6.11416170217646 2.035538628767498 0
6.197052508234319 2.163874008845142 0
6.268265830672291 2.026290393220022 0
6.123346575011492 2.299591590706956 0
6.276881184148916 2.298145269627021 0
6.210465387740411 2.434177879992903 0
6.364943463186373 2.434104616056723 0
6.286919100542329 2.580566847128182 0
6.450854412804182 2.577213103230412 0
6.372682978383733 2.726496936080104 0
6.526248701593748 2.421381056226971 0
6.549820856185863 2.715971888862907 0
6.464284555921733 2.873955287133516 0
6.636777048378555 2.86985718269379 0
6.556172672731536 3.026496056867992 0
6.180408500609808 1.894297301192093 0
6.341489530313649 1.88395588297307 0
5.668261549901766 2.313574922774619 0
6.249878296121452 1.74644212264984 0
6.41768036818811 1.736460032737185 0
6.73457342908229 3.020334676397457 0
6.654340135139095 3.178021718077972 0
6.280627789312973 2.879821960517041 0
6.325098798915755 1.595012133878952 0
6.496194227695728 1.585483489712768 0
6.589705701192615 1.729697377507809 0
6.670788744161069 1.575250700918146 0
6.574535811119547 1.427563031413211 0
6.752646989328032 1.416691535546404 0
6.766370537754968 1.723742757722704 0
6.653110669303762 1.264795593621924 0
6.813740938494846 2.851432346884443 0
6.837021843049176 1.254944793990411 0
6.832723095990888 3.173971631032142 0
6.751660975612843 3.333398513092809 0
6.568063351505342 3.338740640614253 0
6.665154824597495 3.496312058726661 0
6.851759705640042 3.49029097128895 0
6.763620198126356 3.655755376981056 0
6.479171019791135 3.500991339968697 0
6.735576326488237 1.100340947280984 0
6.921048452141534 1.08928823619682 0
7.023264225020135 1.246471958445226 0
6.952224332803675 3.649560792905483 0
6.863103070868586 3.816919908244437 0
6.550393503802309 1.111721492816768 0
6.673297388157142 3.822573298575952 0
6.772992167527725 3.985072218042554 0
6.963948361882457 3.979733175203956 0
7.040738762746752 3.482367989503036 0
6.126674446019431 2.580882512422972 0
6.582259854710898 3.990182698206083 0
7.108821185722413 1.078757992394521 0
7.005502505497046 0.9206860058995132 0
5.593718301250415 1.944721327123592 0
5.873980331341507 1.91914683301456 0
6.633184494888501 0.9449705149354626 0
5.416203742538267 2.306935405057155 0
5.29118326564485 2.319880205035751 0
5.358693824147325 2.422862481493265 0
5.231120601277565 2.434276536175277 0
5.300615523692832 2.537337675665616 0
5.180033719932072 2.54715790870301 0
5.246137314845299 2.645635833900642 0
5.381511521397044 2.659343757482465 0
7.142429802995452 3.643240125353863 0
7.211480882977222 1.237668527776501 0
6.153459427002266 1.606273154313695 0
5.108143484867543 2.443275286649965 0
6.446831139838631 0.9573375158046569 0
6.873770495556247 4.149411006872609 0
7.066839827038272 4.143770714287985 0
5.130218883040076 2.655096663400412 0
7.195634983342576 0.9091594047826833 0
6.529602808935655 0.7881632005374544 0
6.683861765748652 1.880843128036359 0
6.861778063479626 1.876078225396374 0
7.091378185006405 0.7488064370688937 0
7.231704425434966 3.473914880842362 0
6.381948310345825 3.34188130929567 0
6.293119204499085 3.505650102540533 0
6.193948000764419 3.348110417701055 0
6.105709145585216 3.510205313242403 0
6.009312342972441 3.350146543177724 0
6.975584773793483 4.314260153809157 0
7.170756783937149 4.308595540483493 0
6.783191701097961 4.31840574826924 0
5.193655230629304 2.746913717135353 0
6.202986147373222 3.669918994687666 0
6.364629154695786 1.122714256668163 0
6.946920841812824 1.71810120940613 0
7.043179187591602 1.869906304691269 0
6.957093830612744 2.029404173664614 0
7.140081340961935 2.023433324648948 0
7.053261112583149 2.186272021949308 0
7.238034351105509 2.1795845091953 0
7.150479237825055 2.343464089053569 0
7.228347012995354 1.863252872258984 0
7.262685996826953 4.135880741414495 0
7.283254319680678 0.7373464692448335 0
7.33411783260794 3.636578008852795 0
6.015238610693041 3.674615196625239 0
6.113295207231092 3.83613710072603 0
7.33410681813181 2.335697160701594 0
7.248437468250332 2.502091746425322 0
0.6515308980400507 2.664088882077609 0
0.736614577895586 2.496605249313369 0
6.260940007491582 0.9696390729179913 0
6.186854084174085 1.139295728385138 0
0.8155765059018436 0.6738416326189458 0
1.009455042087414 0.6686045654753376 0
1.68551964973739 1.155104387869475 0
1.775715433110356 0.9875422012579721 0
1.020162826839248 2.654771378242559 0
6.965859510045817 2.349376412398422 0
7.367124958911122 4.302102360614161 0
0.5604226494630518 2.82296547999088 0
7.378776937030288 0.9006687675028699 0
0.6189042003138495 0.6808363265136284 0
5.080671857848336 2.756276490650665 0
5.021278403609623 2.662284187161255 0
0.5280148909120206 0.8495077181945547 0
4.905656703705596 2.078514610612923 0
4.978578941274813 2.141328204994425 0
2.869612759262865 1.98447873633858 0
5.138779187779251 3.006656658163431 0
4.943012088629187 2.927139013351865 0
3.060241449359359 2.072864314019117 0
3.092109225738558 2.921378556556516 0
3.023497892256374 2.857183554349151 0
2.982098711081405 2.132614486509598 0
0.5949177298842906 4.112258100248665 0
0.6999866658246947 4.274820123208775 0
5.270178899375578 2.978269380941994 0
5.406954350841692 3.065115803631731 0
7.424649638489795 3.465878507454804 0
7.320926068916817 3.302219901577009 0
7.851585138619926 4.698058913573658 0
0.1845254061145605 0.3180312479022315 0
7.682803107845345 0.191936571305663 0
2.734092924430918 2.036936892727571 0
2.593770887420781 1.937398909400658 0
0.5253335392293477 2.499407280794437 0
0.637616318760393 2.334840936553055 0
7.083021205103251 4.481545815724523 0
1.895130469332094 1.798177302993893 0
2.076416415995183 1.795564975040581 0
1.990488412187905 1.953615111915725 0
2.163849360545273 1.946297212211499 0
2.258773310579582 1.797409335548705 0
2.083875055060707 2.10453885637282 0
2.27712784705322 2.088103469376598 0
2.176100010336847 2.248308514805633 0
7.177896714016335 0.5859177540716591 0
6.986080447447755 0.5906107438420851 0
7.371778905321799 0.5638499530094786 0
7.42527810209147 2.179874318335316 0
6.095929308645703 3.190991929150042 0
5.915597723716536 3.193121074734144 0
6.001469294354075 3.036002350482448 0
5.82983963235439 3.04336615741487 0
5.909145010008105 2.886173964702079 0
5.718392964450974 2.904525215598734 0
5.817554590945115 2.742534791701765 0
5.735608017191598 3.193150057109217 0
7.459635870483652 4.128839388246002 0
2.340238571737366 2.24674051902453 0
7.465912667452255 2.498593713709071 0
7.347412859870645 2.662925997075321 0
1.388048319481049 2.967617931937418 0
5.654762272426688 2.745173850877888 0
0.7710668111934527 3.767292131893184 0
0.5821545173260202 3.773010941731597 0
0.672433540112643 3.608367649757056 0
2.261725103981058 2.382960814150898 0
0.8272365321207846 2.329970289197217 0
0.7383763158133063 2.171153585473757 0
0.5528476408175487 2.178401436057134 0
0.6418768644045805 2.010494009577008 0
7.136435995123271 2.663503485674487 0
7.260410537515193 2.824542421538954 0
7.528248297933525 3.63011189003735 0
0.9081566976699237 0.5009496594008342 0
6.427866841049136 2.021074948713049 0
5.732862712460649 2.608883249223002 0
7.443843788453162 2.826035845327403 0
7.124761092803227 1.403493720195216 0
7.313563659767559 1.397496856481476 0
7.400778142615652 1.229117490589151 0
7.505895013489644 1.390115171543843 0
1.585723417228933 0.9935852052755078 0
1.6755398223004 0.8246556622378804 0
1.764982568037244 3.553415985059049 0
1.940815086763981 3.540785762792067 0
1.864603961182916 3.703179417140414 0
2.053117687845687 3.686066199880255 0
2.121872156637658 3.510524192540597 0
1.967340756471037 3.855607712400476 0
0.8566326840763915 3.293098846268144 0
0.5045883013180791 4.291981641365197 0
1.485911639598165 0.8302486977944216 0
1.57481013349755 0.6602148878885299 0
7.419251596160259 1.559329482748909 0
1.383827908918262 0.6656529726518703 0
1.100656647892601 0.5004728609401221 0
0.8340905951086232 2.005324115866141 0
0.7231770276934187 1.836876471996382 0
0.5119804855284258 1.864381218183149 0
0.6201753936261101 1.673898416325806 0
0.4284723226401905 1.673510184562574 0
0.5224000045809196 1.503748289909477 0
1.863535227456983 0.8220661229030931 0
0.6031557288458995 4.447449229078441 0
0.7969697325606053 4.454762539782816 0
5.072912061114097 2.118088658097109 0
5.04525295303119 2.211798795048393 0
4.940978706183611 2.255293815823674 0
2.927236010445894 2.88220568709743 0
2.955043616186068 2.787768199595338 0
3.072299184754856 2.757844836681284 0
5.412412353081219 2.923102930646241 0
1.785550704954137 3.867782799547362 0
1.885339684520951 4.023571858467163 0
1.474469265848062 0.4948565403647113 0
2.172652740415788 3.830197786664785 0
5.107697257336895 2.91473266516513 0
2.563417471261493 2.102899191618808 0
5.924531598248267 3.837772500360844 0
1.703743877988948 4.034984314320977 0
1.806052631815068 4.194340305296067 0
7.069756944596156 0.4119818981577588 0
2.514123830929292 2.584092251314545 0
5.483981963652825 2.412100318721275 0
1.673442821812136 0.4907330893373993 0
2.596113632262171 3.146516522063989 0
2.065324577219382 1.149498252330124 0
1.617752340563362 4.207386881523291 0
1.72303057562443 4.366180619807446 0
1.529104220672429 4.380135452590407 0
0.6700639111805184 3.307082116638224 0
0.5718351961206617 3.14945548784716 0
0.4795394710259552 3.315788866932834 0
0.2897065858079911 4.833088625781706 0
5.402259688485897 1.840089849875783 0
6.223059892693041 1.450337500687797 0
6.055921366306632 1.463414791535466 0
5.980073289921293 1.621760892035331 0
5.875787396756047 1.476845427671484 0
5.800727632672716 1.635676873753611 0
5.956566258972747 1.316717478693966 0
1.28823122590957 2.813476057556264 0
6.081426878401597 0.9849685329916547 0
6.157235129675117 0.8150564313595423 0
6.025417431336601 4.002193148187713 0
6.212137903769957 3.997659341987627 0
6.128392349034373 4.169061787017596 0
6.313252320873343 4.161500429681363 0
6.226475402449713 4.335041050468394 0
6.412997784702619 4.325543218665975 0
4.973757552379513 2.765145112062662 0
4.905800488284232 2.668180777290528 0
6.326727836617138 4.497162020443527 0
6.512636082424878 4.48962890921807 0
6.717570093682112 0.7766883733698096 0
6.613500114125884 0.6178444618052752 0
6.424152680279239 0.6303451948723677 0
6.506765965820393 0.4640858841537165 0
6.317391730410905 0.4799471500522146 0
7.245743795119752 3.804166923880715 0
1.496915014716423 1.161547206941015 0
3.07511890362922 2.168536780933077 0
6.482851341156871 3.826965017152298 0
7.527322787679183 3.292668942645657 0
1.003514780999114 0.3337798300903287 0
4.956040561971839 2.556139267756599 0
4.834519802479845 2.562472722138072 0
4.884610827066774 2.447340814275855 0
4.764290874730116 2.45164941478222 0
4.696389695190957 2.574769026098913 0
4.614981357822671 2.45715900437101 0
4.544837857098802 2.586849257954099 0
4.456744535643122 2.452244623122779 0
4.544493803461058 2.310732920126972 0
7.341294835785697 2.991724128361526 0
7.165913038598395 2.995760941668982 0
0.4859146389735247 3.614952309188145 0
0.3709784966229752 3.788403763289419 0
2.148801232660543 1.321040322810378 0
7.524644000618251 2.986593665367668 0
6.878825695555201 0.4374516192070211 0
2.403224965571428 2.373731829730815 0
5.592432571778454 2.618848208616976 0
5.843003775831768 3.669712619049976 0
1.654332953606018 4.534767309662395 0
1.461125063895899 4.54425504896906 0
5.885537516997216 2.599186466240745 0
2.107317982894586 2.385403296564127 0
1.343072272903329 4.389848799231941 0
1.269417777218662 4.550957411630839 0
5.15023348658152 2.174357083855726 0
1.466268735266576 2.82905105324724 0
2.997085604679827 2.233081927247055 0
3.099262159521333 2.281792760575464 0
2.849693198419907 2.824997773126785 0
2.180962775600218 2.517087454506237 0
4.376268532498735 2.591481857787968 0
4.281693578357279 2.455591349196921 0
4.196858548260842 2.613068984387446 0
4.102163293682871 2.46602902022321 0
5.813455635552844 2.474635709227559 0
5.948071440681844 2.451922448776744 0
2.032002809524198 2.530499036745924 0
5.778278959070726 1.331193490926837 0
5.845423461485543 1.166338572587519 0
2.612313804507703 1.745243668070135 0
5.387777169667915 3.255030681089192 0
4.634955321927227 2.700213014399098 0
2.233333623493375 1.174796296498018 0
7.571801819259079 4.297350425198666 0
7.474604015652881 4.472816222013225 0
7.655718222025464 4.124367019537983 0
7.551754662690276 3.952950660209565 0
5.514419070058723 2.716303471966843 0
5.757504603400001 3.816544581186915 0
7.610002488666155 1.541872368054966 0
7.523635543374827 1.701919564114881 0
7.688747104561298 1.384507585811435 0
2.974243893743977 2.676423020947915 0
3.115382979682469 2.651856277229568 0
0.324707102940677 1.500204744996106 0
0.4172767806198859 1.326127582327556 0
0.327721867868318 1.149565274437523 0
2.873180239639837 2.085752832661354 0
5.040733205991232 2.327427521702912 0
5.558774269772199 2.994525853094868 0
2.994640453288925 2.350223889011314 0
3.122471115095492 2.403418276566399 0
3.217404587587384 2.323504646204761 0
3.249165644283284 2.457189221402965 0
3.358564394822454 2.364802591181618 0
3.388370364297842 2.515549123407453 0
3.510858809954034 2.419281340205139 0
3.538818375220102 2.573098648203971 0
3.674313715725495 2.470970663158241 0
3.392975984787031 2.666551286336079 0
2.435442524386103 2.005741660797572 0
0.4196451551248511 0.687315961402085 0
0.5138352035717555 0.513648710994932 0
0.3106349657128746 0.5096822429776313 0
0.4045228586428338 0.336942290284207 0
6.961830776833692 0.2477696079122756 0
0.9198602028695085 1.834483096174608 0
0.3311726807491789 0.8584723110175085 0
0.4075701374771918 4.463181166573806 0
0.5231718409813348 4.627605954284112 0
7.665670221296732 4.468349867604326 0
7.572785392490765 4.643822358379706 0
2.835039007866956 2.662201221135971 0
2.538125577598995 1.542126176459607 0
2.347358623092202 1.522610161552917 0
3.698848160864719 2.663668640092913 0
3.837567491873837 2.542705788012571 0
3.813876307002594 2.357026509626141 0
5.460979906592391 3.456778835293529 0
5.652697209262944 3.4774041281937 0
6.089381400786281 2.883291534859841 0
3.023798128520059 2.478674231740462 0
1.99480432759567 4.179114157904769 0
1.900258017398634 2.106351205863517 0
3.408566602090849 2.134760704009216 0
0.3057391886415448 4.302811432883187 0
1.855589434815608 4.519843994734603 0
4.826889338236565 2.329982230349974 0
5.171362354958111 2.335296766142416 0
0.2103162808972369 1.683242555442944 0
0.7183511632492409 1.499735791745839 0
5.645817256170099 1.183897921678726 0
2.473271146322213 2.240247325813215 0
5.678060432216449 1.493290167428937 0
5.620195221075098 1.661618036121292 0
5.750823458671932 1.786202407950137 0
0.5263984533596142 1.164892709895871 0
2.437879122759197 1.848557688938596 0
1.033178678679057 1.995593492464326 0
0.9594302006059794 2.186878652277167 0
1.121054138842698 2.30603084924655 0
5.095980531105069 2.018458584540494 0
5.028604674609858 2.855154222626965 0
2.903655472303957 2.981344887293217 0
0.3873367727753346 3.143991851355825 0
2.117905579284011 2.662750669147534 0
5.560141547465602 3.148981921443456 0
7.641099693877094 2.814236928283923 0
6.42508697157534 4.662136494955332 0
0.2911548483831832 3.303935001564447 0
0.3105711773407722 2.983017252664504 0
5.876208616562495 2.331313972810477 0
4.010410057990388 2.617458532505292 0
1.559974746778758 2.975666205681938 0
6.183914708034305 3.037090099703486 0
6.369703333660924 3.034640586460229 0
5.464607636337385 1.55488999393956 0
1.806501832673173 1.953435989742341 0
1.619234592818954 1.957675821383242 0
5.672667796169576 2.469456021729675 0
2.321969607384351 2.497958829465495 0
7.827988837915688 2.300721157832615 0
7.656795546269947 2.402676761407736 0
7.656330184886921 2.595303301038993 0
7.82626264644019 2.701726769015896 0
7.627408518449954 2.190880287368556 0
7.68675193280774 2.009977675129759 0
7.835005174837858 1.910326679392047 0
5.478090859321549 1.716791492158833 0
0.1721004157631761 2.499538441591013 0
0.3395423494222231 2.403813283282752 0
0.3383667656019316 2.593881317047173 0
2.195006985225358 1.626230763298303 0
5.799958561159194 3.367586756643088 0
1.573692037784582 0.3237493735344564 0
7.058062315654174 2.494842919961826 0
6.877402052589336 2.495866409105787 0
6.790915652756965 2.347756935256396 0
6.702960438905038 2.47536160818054 0
6.799170493400889 2.640254842393845 0
6.971329498259466 2.7461478291732 0
6.872194041130378 2.192191505150361 0
6.700097136153312 2.19449150263859 0
6.779245532053382 2.037317259976026 0
6.601985956947169 2.035537264490772 0
6.52406738729767 2.2092217754007 0
3.251547903850867 2.593185646849807 0
0.9168747116395753 2.498126009734614 0
0.8648273816621025 3.604943681191116 0
6.499364261259115 0.1685884287579114 0
2.066716598596884 1.475235099801367 0
1.500621792711296 4.833409936923204 0
5.92564378030688 3.516278848097859 0
6.002776187737635 2.715256127833617 0
0.3648811863614236 2.191855462182548 0
0.1768662487957434 2.098896772613821 0
0.3419771986551972 1.985827383035075 0
1.11312870639471 2.812980022985802 0
7.841082567493566 3.098698400430848 0
2.00968440984626 2.245150377708104 0
6.470992647158582 1.275249926155451 0
1.200354939237327 2.661736684847429 0
6.081626355339425 1.757222399042157 0
1.100355339826773 4.83700380515703 0
0.8980954709229025 4.822600942418603 0
1.002210837118372 4.682623942906456 0
0.8202837494267806 4.648518962924539 0
6.899416289456 4.82779775235718 0
6.799999999999999 4.654554914531253 0
7.09865415243279 4.827733491912733 0
7.189512385658322 4.654656251633739 0
5.862278810828442 0.6737779430875951 0
7.809298975197482 3.484610498330552 0
7.83403702119664 3.697718125537627 0
0.1732050807568877 3.700000000000002 0
0.1834103760847956 3.900580156445121 0
0.332940446895535 3.979555160263785 0
1.828103087453658 2.281954290265514 0
0.8249394024989014 1.671894101736636 0
7.82563626433515 0.899854867580608 0
7.652583543068499 0.9965366743035117 0
7.653698534738822 0.7999999935638601 0
7.659926410819431 0.6050517319197726 0
7.828740993909756 0.5028795666614128 0
7.677884787302881 0.4039330096671401 0
0.4843445576879228 4.820090631369947 0
3.40707043964576 2.835706380155177 0
6.999480534157859 2.910871810295397 0
7.487521013315412 0.17038891601349 0
7.388425778067713 0.3597381830015546 0
7.491603602046201 4.827404851623447 0
4.033043446499049 2.163828364264101 0
3.806589233444934 2.834504532379882 0
4.415841823717513 2.157774497801691 0
4.192068321924821 2.84041198273074 0
7.128488029207142 3.31811386666729 0
2.378512220931257 3.802981357551715 0
2.260749122310456 3.649249995840539 0
2.299775560865302 3.466075452437348 0
2.169170092795227 3.343793105573747 0
2.32660475865087 3.30268661904286 0
2.462887123643068 3.400349374389028 0
2.289208584466017 3.980221126406761 0
6.022955001843339 0.3337978185867732 0
1.026047133673883 1.672985032456033 0
6.188383814201404 2.736360142227158 0
2.142942657327781 0.6724843980921957 0
1.975896069528167 0.331971505192254 0
1.870159079653462 0.4934030100620186 0
6.029990274346642 4.664901575572152 0
5.854806362456242 4.327700838697016 0
1.975993781545773 4.671830891044536 0
2.129495746474529 4.32835026042051 0
1.1113865295847 0.8352134494697423 0
1.963419398393571 0.9897462222619643 0
6.937925495509737 1.410833069187299 0
1.11647015435248 2.487386546558202 0
1.271632941525839 2.388656074840969 0
0.7119726899169276 0.5079852645619538 0
7.226865804446243 1.559638461247492 0
6.684793939310065 4.152255435465265 0
1.768499641983667 0.6579239581230577 0
6.57699676647023 3.659897927835201 0
1.430397982210477 3.894486403153888 0
6.937689991787577 3.325727438655615 0
7.612128440493998 3.469693783240984 0
7.627064483055828 1.205229581739567 0
1.926304742844758 4.35066989088612 0
1.597466739840317 1.321403082731173 0
2.087098677973836 4.003656857517651 0
0.8356405273324506 1.342184920203534 0
6.050081159101372 0.6597404070862625 0
4.599447180426917 2.150869107048885 0
7.053620652784403 3.811349742097056 0
1.137253417350214 3.437451641124298 0
5.971386899153481 0.8280552259110208 0
6.819544305573828 0.9325847511633891 0
0.8903045921715802 4.264555987034119 0
7.296822370241415 1.069214740202012 0
0.6613182444340047 2.984547212710647 0
3.810104498337656 2.189155100892599 0
0.9635627689913715 3.762939736285419 0
6.342583183219698 0.8011575989881217 0
6.389168808041731 3.664818265829386 0
1.408845119836432 1.327495434564345 0
7.354709484667681 3.965555038046654 0
7.274340071699384 4.473679124972139 0
1.040433003535847 3.284830784270425 0
1.902642358002169 3.240401030074845 0
6.849839255132695 1.566981980910156 0
1.520812495139929 1.80629924900003 0
6.471464702676907 3.183863670309778 0
0.625094088808509 1.335074193352635 0
0.5041112001564867 0.1694891373990455 0
7.325629154461813 2.024411651360707 0
6.992272430433744 4.654727500512998 0
6.135454433472082 4.499461724900175 0
0.3408318187782514 4.65469871365881 0
7.487294535139444 0.7154759309279418 0
6.236737333097965 0.6464041784367185 0
6.395281385538244 1.435957165728932 0
7.025345849155433 3.130235292633577 0
7.155224712696561 3.974199481950477 0
0.8051163748333995 0.3367994028513812 0
1.47957546177159 3.119832792127935 0
2.477703407487228 3.240885052693863 0
5.296626363244135 2.739467640841808 0
0.9911764550484283 4.406328506348737 0
6.887349357448097 4.48389922139859 0
1.639565243476965 2.837166462837604 0
6.510431693906555 1.881261439076374 0
6.352155067202123 2.170020535812876 0
6.293568364027208 1.289362386601918 0
5.422364181846016 2.527958289777997 0
1.591429508327786 3.566604790116547 0
2.709716234228502 2.240047793520332 0
2.579108666683706 2.470159716951061 0
1.310151037448806 1.166023984199297 0
0.6069268488268089 0.3389613821380607 0
2.894943856154772 2.184545116188682 0
6.904383960745538 0.7635344292977453 0
1.966410626870949 3.093759042308106 0
6.129291103906998 0.4921462033163814 0
6.298902093156808 3.829657784316357 0
7.446570160567759 3.798158772257139 0
1.399075628543597 1.000077545888225 0
4.848383009618893 2.784723330119106 0
0.9031972163384745 0.1679586359482724 0
1.100937633530196 0.166468407896358 0
7.035659787338816 1.56138883379448 0
5.895522597423479 0.9920213830593168 0
6.02864575945605 1.911600760113127 0
6.397937659631469 3.992659625779384 0
6.798718519425104 0.6078876252852282 0
1.895648310599139 4.839789827341612 0
6.506158565229098 4.831690377418035 0
5.913021391526735 1.769370780879307 0
5.541630514575315 2.298952439097353 0
6.107692457354286 0.168237624982466 0
7.662461409986074 3.79815442621301 0
2.45643492454739 2.699277933400616 0
1.893953077325901 0.1618212598258637 0
6.117290598446054 4.830173040428964 0
1.710206467998988 1.800220470960332 0
1.957500346939345 0.6622023231193628 0
0.9532741501747153 3.444246622790322 0
6.498237524119215 4.156351104330385 0
1.298381338993935 0.8346251980744185 0
6.61242914391674 4.652691440762898 0
6.279974243241627 3.189763181407124 0
2.261489181905565 3.060761518876424 0
7.840503121257361 0.3075265515245796 0
0.3074944769215802 0.1634355399904976 0
7.698179920536402 4.803597464724968 0
7.136949415196605 1.715927488511971 0
3.13287272513708 2.528258666663015 0
3.219939336992302 2.737667197620286 0
0.628600194927142 1.008534420815015 0
4.714467871811921 2.240073578291992 0
1.689086764845972 3.714699985068283 0
6.692788637579119 0.4590688576590288 0
1.196190270713659 0.3343634821788739 0
7.386706088163944 4.656508193723395 0
1.197025299988051 0.6686117357118734 0
2.004805238940921 3.374986201254144 0
7.80768829839165 1.515068291457738 0
5.711423355761348 1.014170755868561 0
1.289222452917562 0.5026851500340064 0
7.482171298041363 1.05354972207111 0
5.734523552859065 1.937404742055304 0
6.598451161250836 4.318573055696142 0
6.039979939275314 4.334413166739379 0
7.33108754773192 1.71569308087902 0
2.928956732635098 2.431826911692863 0
0.3592046708603538 2.807482901407441 0
7.837817207227856 4.091149612629767 0
6.699686275365782 4.485304221828549 0
2.20879358846036 3.198374278525497 0
2.536009291097897 3.031244830389231 0
1.608738135084132 3.879578544010884 0
7.692091979294037 3.191415464837859 0
5.166848271473135 2.082774305564325 0
2.784451210095398 2.15800181934533 0
1.435363288728832 4.218243071889874 0
2.639207489883654 3.30380583702042 0
2.832726076452992 2.917111012986124 0
1.38873003508431 0.328811761051573 0
5.460453464078212 1.964631673295923 0
6.209154638382387 0.3285820761940985 0
7.427543064202355 1.859727511020379 0
6.224449070483914 4.664409435874599 0
2.052597154621912 0.8321312700971559 0
4.774870656850927 2.676784931250976 0
2.060114499678387 3.220867747968086 0
1.498008826238266 0.1551965021931707 0
5.066463464799639 2.548862443336133 0
7.221663180225997 3.158503706006296 0
5.593072201593468 3.320827267523331 0
1.780003178546444 0.3269043806233218 0
6.122326697128457 1.304088430584065 0
2.404312796791582 1.678565709634531 0
7.842385253536746 4.507943314662582 0
0.7702669810303523 3.447087959267682 0
0.1526481574323555 0.9024754108664823 0
5.25413908158769 2.852424021481303 0
1.523119773837535 4.049782469410141 0
0.1605632319498407 2.878103675564587 0
0.1579191823577888 4.703214477579514 0
7.121790248106375 0.1700000823630343 0
7.64660042016421 1.839837180102494 0
5.848986694016133 3.997239277182651 0
3.984260695430015 2.32961116790561 0
0.3340008389542086 1.82147368293447 0
0.4875626553056891 2.994992059599704 0
6.404461579732315 0.3212607813788687 0
0.146042201575912 1.499143895799769 0
5.943563410524751 4.164252773152409 0
4.590002392055674 2.846810215601403 0
0.1526891333398813 1.097213621503647 0
5.141543711288904 2.834442277368462 0
7.414421528706736 3.143327399983527 0
0.4333077565570626 1.005372554552591 0
0.5804321183100338 3.455503866031313 0
5.577942865592144 1.809652642359382 0
7.506287817186475 2.321219623963281 0
6.014686662930984 1.150571687716943 0
1.255633904563288 4.232526882351695 0
7.834779370990469 1.284532012461627 0
7.230077977254819 0.3161169456687918 0
0.3891527078768126 3.462337821590471 0
2.143636210550648 0.9968143422394982 0
5.544408266258523 2.846108699398974 0
1.787152005076905 4.685353832126518 0
2.406305031420886 1.210224183639932 0
0.1378723618196006 0.504675817030268 0
1.173122282616104 4.393747564393021 0
4.35098503195236 2.310733790814125 0
4.482377087071199 2.723426159097456 0
1.543185020215726 2.692657081847727 0
6.594092882521094 0.3131560683583838 0
3.469867816010263 2.275560710811167 0
0.4863811407179052 2.6786233497613 0
7.510919838908015 2.679419157086942 0
0.5148751057264627 3.931311996167551 0
3.866202988958109 2.688332945785327 0
4.161987807840017 2.314790019324313 0
5.325170595551837 1.726951782050333 0
3.645073217964557 2.31049465929325 0
5.676213550574993 3.975639158091676 0
2.316338607837062 1.928858991857248 0
0.1371930068583391 4.300000000000002 0
3.140507720632179 2.829427740669448 0
4.857980996918431 2.178524520362735 0
4.99625043747717 2.446244957055106 0
7.514768574581881 2.019447104425527 0
0.398883441157146 4.156523356024 0
4.862314195150272 2.892163971340571 0
3.139531355187713 2.112310054498208 0
6.408859160685767 2.306574650624858 0
2.417899512152079 2.136746433326144 0
6.881172769376263 3.017369151448603 0
5.590715934933383 3.790084705904554 0
0.3168724770472578 3.608718029268563 0
2.31913788238464 1.02064047933212 0
7.691175239969511 3.60604035804449 0
1.380548579800936 2.680837038569583 0
1.594240337543807 4.693983834261011 0
2.305161709958375 1.35834232801 0
5.997305352149372 2.303265424269523 0
1.262941014159347 2.251302302207246 0
7.523468177326682 0.5013952866240687 0
1.994111197785653 2.685231916174799 0
5.68236446091203 3.062754172656606 0
0.4801177402037012 2.319953237392651 0
3.31033109681316 2.23449148721919 0
2.771826113898705 2.767232355293307 0
5.233346290132093 2.228431702887465 0
0.126545860013721 3.299999999999998 0
3.033628907425652 2.581010611776382 0
6.648857863341347 2.32964257554064 0
1.39732852154713 4.700995019657979 0
2.589907513036534 3.481822219093668 0
1.305843509430506 2.533414375211984 0
2.360258502443543 3.162630298146534 0
7.692421028460776 3.010421310910019 0
7.109337383958325 2.809439523653458 0
5.689134031231102 3.637403404898899 0
2.457543752508768 2.483538523161991 0
6.071821259154176 2.43428456857928 0
1.910887807451151 2.583301541774007 0
3.530765035997852 2.715813209181512 0
6.77775224344773 0.2939275177542063 0
3.17154963870829 2.206342238861291 0
2.52361007661562 2.354705789385594 0
1.097638609545629 4.534525321012238 0
1.198625071674674 4.703956987143135 0
0.146410161513739 0.1464101615138381 0
7.853589838486194 0.146410161513764 0
7.85358983848603 4.853589838485947 0
4.921098787872208 2.83828695457234 0
4.289891319627007 2.722755823629003 0
5.539581866696889 2.507261080166951 0
0.9788991631579951 2.357884036423236 0
5.485251237063397 2.610967388830138 0
0.1450116317161246 4.854988368284102 0
0.2795079191893593 1.002619834475551 0
7.540158461058407 0.9000193146307089 0
6.845754017098504 0.1407201354701008 0
5.402615411696969 2.790476264276178 0
6.596955996521103 2.590327079377369 0
2.392637832206304 2.601102500920351 0
2.676466109478744 2.149452731908789 0
2.594090123608049 2.224876638911827 0
1.40096009710377 2.437409516802464 0
0.6805756209229623 4.592322120600196 0
7.702824122122323 3.975676318261326 0
0.4827126751534351 2.046191901806983 0
7.681563757609942 1.677682410066745 0
2.916534838872686 2.27113875965007 0
2.215042660255075 1.476464276762856 0
4.109003741938341 2.721597860756394 0
5.581224738199275 2.400268956497975 0
6.005504912267637 2.573408882669183 0
6.679631576700842 2.737271207988511 0
0.9217357789344305 4.539953639730196 0
1.978218287487241 2.375942123051576 0
4.933212096469621 2.359305450917983 0
7.726121185296114 4.624354383789049 0
4.729175623604408 2.770350717460139 0
2.237756811142787 2.627850189970983 0
5.781378626190824 3.529626298383407 0
7.557785429458104 3.127026395886865 0
7.54460058235083 0.3168827748987409 0
2.474495346835369 3.124722041505727 0
2.877169166023123 2.743724514019863 0
5.765243218401258 2.362961108194773 0
7.257800821288894 0.4569651715035838 0
4.691458871574956 2.366036666239807 0
3.956994827557875 2.464382564900002 0
6.969811644421608 2.60138496613757 0
5.182467627473663 2.917305000624064 0
5.117967293142854 2.260934814753011 0
7.692954240706029 3.34061932502928 0
$EndNodes
$Elements
23 2262 1 2262
1 1 1 10
1 1 25 
2 25 26 
3 26 27 
4 27 28 
5 28 29 
6 29 30 
7 30 31 
8 31 32 
9 32 33 
10 33 2 
1 2 1 11
11 2 34 
12 34 35 
13 35 36 
14 36 37 
15 37 38 
16 38 39 
17 39 40 
18 40 41 
19 41 42 
20 42 43 
21 43 3 
1 3 1 1
22 3 4 
1 4 1 1
23 4 5 
1 5 1 1
24 5 6 
1 6 1 9
25 6 44 
26 44 45 
27 45 46 
28 46 47 
29 47 48 
30 48 49 
31 49 50 
32 50 51 
33 51 7 
1 7 1 1
34 7 8 
1 8 1 1
35 8 9 
1 9 1 1
36 9 10 
1 10 1 11
37 10 52 
38 52 53 
39 53 54 
40 54 55 
41 55 56 
42 56 57 
43 57 58 
44 58 59 
45 59 60 
46 60 61 
47 61 11 
1 11 1 10
48 11 62 
49 62 63 
50 63 64 
51 64 65 
52 65 66 
53 66 67 
54 67 68 
55 68 69 
56 69 70 
57 70 12 
1 12 1 25
58 12 71 
59 71 72 
60 72 73 
61 73 74 
62 74 75 
63 75 76 
64 76 77 
65 77 78 
66 78 79 
67 79 80 
68 80 81 
69 81 82 
70 82 83 
71 83 84 
72 84 85 
73 85 86 
74 86 87 
75 87 88 
76 88 89 
77 89 90 
78 90 91 
79 91 92 
80 92 93 
81 93 94 
82 94 13 
1 13 1 10
83 13 95 
84 95 96 
85 96 97 
86 97 98 
87 98 99 
88 99 100 
89 100 101 
90 101 102 
91 102 103 
92 103 14 
1 14 1 11
93 14 104 
94 104 105 
95 105 106 
96 106 107 
97 107 108 
98 108 109 
99 109 110 
100 110 111 
101 111 112 
102 112 113 
103 113 15 
1 15 1 1
104 15 16 
1 18 1 9
105 18 114 
106 114 115 
107 115 116 
108 116 117 
109 117 118 
110 118 119 
111 119 120 
112 120 121 
113 121 19 
1 19 1 1
114 19 20 
1 20 1 1
115 20 21 
1 21 1 1
116 21 22 
1 22 1 11
117 22 122 
118 122 123 
119 123 124 
120 124 125 
121 125 126 
122 126 127 
123 127 128 
124 128 129 
125 129 130 
126 130 131 
127 131 23 
1 23 1 10
128 23 132 
129 132 133 
130 133 134 
131 134 135 
132 135 136 
133 136 137 
134 137 138 
135 138 139 
136 139 140 
137 140 24 
1 24 1 25
138 24 141 
139 141 142 
140 142 143 
141 143 144 
142 144 145 
143 145 146 
144 146 147 
145 147 148 
146 148 149 
147 149 150 
148 150 151 
149 151 152 
150 152 153 
151 153 154 
152 154 155 
153 155 156 
154 156 157 
155 157 158 
156 158 159 
157 159 160 
158 160 161 
159 161 162 
160 162 163 
161 163 164 
162 164 1 
2 1 2 2100
163 486 470 678 
164 166 15 471 
165 522 551 730 
166 479 471 1131 
167 168 3 470 
168 22 122 167 
169 10 52 165 
170 658 171 722 
171 196 19 474 
172 195 7 468 
173 978 589 1014 
174 171 55 722 
175 212 664 666 
176 675 188 676 
177 965 462 1004 
178 818 630 892 
179 690 817 947 
180 10 165 332 
181 156 157 720 
182 724 725 747 
183 18 200 1047 
184 6 201 1048 
185 176 829 832 
186 857 192 1018 
187 495 763 991 
188 233 235 736 
189 22 167 224 
190 694 484 695 
191 233 736 1120 
192 171 658 724 
193 980 1000 1045 
194 763 705 991 
195 513 753 754 
196 817 196 947 
197 121 19 196 
198 51 7 195 
199 18 114 200 
200 6 44 201 
201 818 892 1051 
202 179 156 720 
203 664 212 701 
204 303 673 703 
205 811 192 857 
206 521 522 730 
207 741 965 1004 
208 55 56 722 
209 341 343 742 
210 341 742 1126 
211 827 570 828 
212 1000 757 1045 
213 570 541 828 
214 700 816 888 
215 16 178 471 
216 4 172 470 
217 202 700 1105 
218 268 258 729 
219 414 679 719 
220 700 202 816 
221 816 588 888 
222 699 219 716 
223 510 764 988 
224 764 710 988 
225 697 268 729 
226 718 949 1043 
227 42 660 704 
228 112 661 709 
229 8 173 468 
230 20 177 474 
231 10 332 732 
232 676 188 677 
233 42 43 660 
234 112 113 661 
235 258 273 729 
236 692 197 694 
237 960 400 1014 
238 334 645 972 
239 784 396 836 
240 1002 822 1036 
241 9 10 732 
242 171 724 747 
243 197 692 698 
244 22 224 734 
245 206 735 740 
246 400 978 1014 
247 756 502 1045 
248 673 303 1069 
249 21 22 734 
250 747 759 1037 
251 484 694 1025 
252 1034 477 1046 
253 832 896 975 
254 761 488 762 
255 551 729 730 
256 226 649 976 
257 776 356 1049 
258 1029 646 1056 
259 628 824 863 
260 726 960 1014 
261 17 18 472 
262 5 6 473 
263 708 871 1002 
264 777 690 947 
265 176 828 829 
266 822 217 1036 
267 805 632 806 
268 248 1029 1056 
269 871 822 1002 
270 807 1034 1046 
271 188 675 1006 
272 541 542 828 
273 645 334 1067 
274 580 167 975 
275 253 233 1120 
276 576 696 999 
277 576 999 1019 
278 356 776 1070 
279 871 708 1038 
280 486 678 973 
281 474 177 475 
282 53 747 1037 
283 468 173 469 
284 649 226 1066 
285 808 790 1116 
286 806 632 807 
287 298 1084 1103 
288 471 178 571 
289 45 205 715 
290 747 725 759 
291 174 41 704 
292 793 922 927 
293 672 857 1018 
294 175 111 709 
295 565 674 947 
296 218 706 823 
297 217 824 1027 
298 711 368 745 
299 268 697 835 
300 570 827 833 
301 589 759 1014 
302 714 260 748 
303 288 808 1116 
304 206 740 1068 
305 696 66 999 
306 363 341 1126 
307 421 775 901 
308 562 718 1043 
309 529 775 776 
310 166 471 479 
311 168 470 486 
312 191 713 860 
313 176 832 1072 
314 713 191 843 
315 217 1027 1036 
316 738 754 755 
317 245 247 808 
318 205 871 1038 
319 470 172 678 
320 716 194 1046 
321 565 947 1042 
322 353 355 836 
323 529 776 902 
324 753 513 1015 
325 933 840 981 
326 66 696 1098 
327 39 1024 1054 
328 717 216 842 
329 508 680 1022 
330 212 666 966 
331 921 659 957 
332 824 50 863 
333 513 754 1033 
334 593 594 724 
335 219 699 888 
336 515 646 744 
337 833 191 860 
338 410 668 1099 
339 303 712 1069 
340 986 620 1044 
341 497 691 1050 
342 553 787 1003 
343 679 414 1044 
344 715 205 1031 
345 200 1008 1119 
346 691 497 1040 
347 721 287 809 
348 579 765 989 
349 77 956 1018 
350 218 120 817 
351 744 646 900 
352 915 527 930 
353 368 711 836 
354 663 1024 1058 
355 414 986 1044 
356 41 42 704 
357 111 112 709 
358 949 195 1043 
359 777 674 946 
360 605 465 733 
361 680 508 1063 
362 757 756 1045 
363 260 714 808 
364 275 269 835 
365 668 410 1094 
366 633 663 1058 
367 358 360 746 
368 113 15 166 
369 43 3 168 
370 175 709 710 
371 733 465 1010 
372 832 975 1072 
373 396 784 1113 
374 174 704 705 
375 787 553 1107 
376 250 252 749 
377 1066 703 1125 
378 922 401 927 
379 1067 719 1132 
380 720 157 1006 
381 695 484 943 
382 980 671 1000 
383 288 657 1080 
384 210 738 755 
385 704 660 991 
386 709 661 988 
387 751 1101 1120 
388 775 529 901 
389 658 593 724 
390 896 580 975 
391 716 219 1041 
392 659 722 957 
393 287 721 861 
394 216 717 858 
395 1024 663 1054 
396 660 728 991 
397 661 737 988 
398 502 756 1015 
399 570 833 860 
400 1101 253 1120 
401 288 245 808 
402 713 843 858 
403 668 1022 1099 
404 363 750 1112 
405 712 303 964 
406 396 353 836 
407 418 433 465 
408 657 288 1116 
409 724 594 725 
410 1001 599 1007 
411 670 956 1108 
412 861 721 883 
413 296 297 308 
414 681 308 1109 
415 309 515 895 
416 566 995 1099 
417 729 273 730 
418 1084 723 1103 
419 408 409 418 
420 674 777 947 
421 813 889 1061 
422 815 485 942 
423 194 807 1046 
424 750 363 1126 
425 892 630 987 
426 792 847 1073 
427 722 56 957 
428 711 784 836 
429 206 150 997 
430 320 861 883 
431 368 358 746 
432 921 597 1016 
433 260 250 749 
434 294 295 296 
435 292 703 1066 
436 167 122 975 
437 809 287 835 
438 769 770 1100 
439 194 716 1041 
440 218 817 1081 
441 515 744 895 
442 582 974 996 
443 1039 109 1052 
444 292 294 703 
445 406 407 408 
446 667 915 930 
447 956 672 1018 
448 714 790 808 
449 404 406 719 
450 791 891 903 
451 639 1023 1057 
452 882 425 940 
453 765 221 989 
454 404 719 1067 
455 222 933 981 
456 1022 566 1099 
457 877 665 953 
458 797 202 1105 
459 670 672 956 
460 319 906 973 
461 881 312 934 
462 269 268 835 
463 639 717 1023 
464 583 575 858 
465 669 1052 1077 
466 194 806 807 
467 509 508 516 
468 247 260 808 
469 944 702 1118 
470 498 497 512 
471 945 850 963 
472 1100 770 1114 
473 249 848 1060 
474 421 774 775 
475 355 368 836 
476 638 669 1077 
477 843 216 858 
478 196 474 1042 
479 195 468 1043 
480 676 677 727 
481 828 542 829 
482 488 761 1064 
483 762 488 1032 
484 735 206 741 
485 727 320 883 
486 287 275 835 
487 630 629 987 
488 725 594 726 
489 566 479 995 
490 746 360 882 
491 811 857 959 
492 401 726 927 
493 530 516 637 
494 520 512 636 
495 126 127 833 
496 749 252 881 
497 829 830 831 
498 748 260 749 
499 995 897 1099 
500 743 213 1035 
501 728 495 991 
502 821 702 944 
503 697 809 835 
504 723 572 1103 
505 987 629 1011 
506 829 542 830 
507 571 1010 1131 
508 507 508 509 
509 745 368 746 
510 496 497 498 
511 507 506 508 
512 645 1067 1132 
513 694 197 1025 
514 824 628 1027 
515 487 486 572 
516 480 479 566 
517 813 812 889 
518 848 249 1104 
519 496 494 497 
520 185 926 939 
521 377 770 771 
522 701 212 992 
523 294 296 303 
524 509 641 784 
525 462 965 1032 
526 572 723 1050 
527 891 590 903 
528 741 206 997 
529 498 642 790 
530 657 736 1062 
531 746 882 940 
532 637 516 668 
533 490 801 886 
534 54 171 747 
535 406 408 414 
536 485 815 1123 
537 520 636 751 
538 530 637 750 
539 749 881 934 
540 719 679 1132 
541 197 698 994 
542 509 516 530 
543 443 945 963 
544 498 512 520 
545 438 772 774 
546 889 501 1061 
547 847 848 1073 
548 84 210 755 
549 592 793 927 
550 517 779 872 
551 669 1039 1052 
552 703 673 1125 
553 182 740 1020 
554 507 509 784 
555 678 910 973 
556 308 681 964 
557 496 498 790 
558 726 401 960 
559 421 422 774 
560 737 510 988 
561 754 738 1033 
562 772 773 774 
563 575 713 858 
564 190 1001 1007 
565 656 742 1059 
566 172 476 678 
567 827 126 833 
568 659 921 1016 
569 180 79 758 
570 542 539 955 
571 779 286 872 
572 422 438 774 
573 408 407 409 
574 296 295 297 
575 320 727 948 
576 438 440 772 
577 418 409 433 
578 730 273 731 
579 636 512 723 
580 717 583 858 
581 830 542 955 
582 505 506 507 
583 774 773 775 
584 308 297 319 
585 493 494 496 
586 823 706 1035 
587 686 690 777 
588 649 1066 1125 
589 840 887 981 
590 801 877 953 
591 334 335 336 
592 845 982 1021 
593 127 191 833 
594 505 504 506 
595 918 29 919 
596 632 805 1053 
597 493 492 494 
598 226 227 228 
599 974 301 996 
600 629 634 1011 
601 328 459 788 
602 785 786 787 
603 208 752 756 
604 503 504 505 
605 53 54 747 
606 474 475 1042 
607 491 492 493 
608 170 760 762 
609 977 184 985 
610 460 766 767 
611 179 720 1003 
612 460 767 768 
613 468 469 1043 
614 801 490 877 
615 676 727 883 
616 801 800 886 
617 460 442 766 
618 786 179 787 
619 15 16 471 
620 155 179 786 
621 459 778 847 
622 309 324 515 
623 79 80 758 
624 760 761 762 
625 3 4 470 
626 897 410 1099 
627 752 753 756 
628 459 331 778 
629 515 596 646 
630 170 152 760 
631 83 84 755 
632 44 45 715 
633 364 361 793 
634 775 773 776 
635 788 459 792 
636 768 767 769 
637 54 55 171 
638 208 81 752 
639 315 322 781 
640 772 768 773 
641 655 530 750 
642 650 520 751 
643 322 633 781 
644 292 293 294 
645 926 739 939 
646 656 655 742 
647 428 447 783 
648 404 405 406 
649 491 317 492 
650 49 50 824 
651 217 49 824 
652 710 764 1121 
653 525 771 1130 
654 503 429 504 
655 178 472 733 
656 447 638 783 
657 657 650 736 
658 222 739 926 
659 200 114 1008 
660 752 169 753 
661 505 711 745 
662 603 607 887 
663 657 1062 1080 
664 490 886 899 
665 294 293 295 
666 760 209 761 
667 551 697 729 
668 406 405 407 
669 718 562 1117 
670 593 592 594 
671 228 229 291 
672 371 421 901 
673 154 155 786 
674 505 507 711 
675 493 714 748 
676 220 63 780 
677 641 530 655 
678 440 460 772 
679 336 337 403 
680 515 324 596 
681 642 520 650 
682 480 566 680 
683 427 429 503 
684 660 487 728 
685 376 373 791 
686 493 496 714 
687 487 572 691 
688 176 827 828 
689 450 525 766 
690 314 317 491 
691 661 480 737 
692 263 309 895 
693 442 450 766 
694 208 756 757 
695 82 169 752 
696 697 552 809 
697 440 442 460 
698 460 768 772 
699 210 85 789 
700 82 83 169 
701 151 152 170 
702 910 319 973 
703 503 505 745 
704 483 944 1118 
705 153 209 760 
706 331 452 778 
707 134 183 782 
708 328 331 459 
709 452 521 778 
710 810 811 812 
711 413 364 793 
712 753 169 754 
713 7 8 468 
714 19 20 474 
715 491 493 748 
716 592 413 793 
717 591 413 592 
718 596 788 792 
719 798 185 799 
720 169 83 755 
721 517 519 779 
722 956 180 1108 
723 785 787 1107 
724 695 884 909 
725 391 376 791 
726 80 81 208 
727 374 378 846 
728 62 63 220 
729 795 202 797 
730 80 208 758 
731 435 391 791 
732 826 395 855 
733 453 435 454 
734 494 492 495 
735 153 154 209 
736 84 85 210 
737 415 391 435 
738 152 153 760 
739 149 150 206 
740 32 33 221 
741 223 133 782 
742 102 103 222 
743 137 202 795 
744 132 133 223 
745 336 403 404 
746 392 617 853 
747 302 517 872 
748 64 186 780 
749 100 185 798 
750 228 291 292 
751 506 504 510 
752 794 795 796 
753 761 209 785 
754 810 192 811 
755 450 514 525 
756 113 166 661 
757 43 168 660 
758 270 277 312 
759 699 700 888 
760 711 507 784 
761 81 82 752 
762 452 489 521 
763 183 135 794 
764 211 810 812 
765 146 805 806 
766 381 385 425 
767 89 193 804 
768 551 552 697 
769 147 182 805 
770 552 554 809 
771 86 181 789 
772 886 799 899 
773 482 424 826 
774 876 444 893 
775 706 218 1081 
776 211 812 813 
777 99 798 800 
778 198 819 820 
779 705 763 1110 
780 435 791 903 
781 424 395 826 
782 63 64 780 
783 57 58 187 
784 199 800 801 
785 312 313 314 
786 714 496 790 
787 526 629 630 
788 30 31 184 
789 72 73 814 
790 85 86 789 
791 181 87 803 
792 134 135 183 
793 425 426 427 
794 64 65 186 
795 100 101 185 
796 794 136 795 
797 47 48 822 
798 48 217 822 
799 78 79 180 
800 146 147 805 
801 522 524 551 
802 392 397 617 
803 135 136 794 
804 554 556 721 
805 796 795 797 
806 99 100 798 
807 769 356 1070 
808 125 126 827 
809 317 315 781 
810 559 478 868 
811 803 88 804 
812 228 227 229 
813 133 134 782 
814 619 918 919 
815 87 88 803 
816 187 58 802 
817 302 318 517 
818 136 137 795 
819 194 145 806 
820 336 335 337 
821 155 156 179 
822 314 315 317 
823 86 87 181 
824 176 125 827 
825 517 518 519 
826 847 731 848 
827 209 154 786 
828 554 721 809 
829 147 148 182 
830 284 283 844 
831 829 831 832 
832 145 146 806 
833 839 579 989 
834 309 310 324 
835 199 98 800 
836 98 99 800 
837 88 89 804 
838 769 767 770 
839 180 758 1000 
840 40 41 174 
841 733 472 1090 
842 110 111 175 
843 427 428 429 
844 75 192 810 
845 523 785 1107 
846 388 412 532 
847 158 159 188 
848 59 207 802 
849 814 813 815 
850 429 428 783 
851 884 203 909 
852 501 820 1061 
853 684 686 777 
854 75 76 192 
855 378 388 846 
856 89 90 193 
857 532 533 850 
858 144 145 194 
859 97 199 821 
860 211 74 810 
861 161 162 197 
862 27 28 203 
863 96 97 821 
864 666 511 667 
865 74 75 810 
866 73 74 211 
867 139 588 816 
868 137 138 202 
869 91 92 212 
870 202 138 816 
871 69 485 819 
872 67 68 198 
873 198 68 819 
874 73 211 814 
875 97 98 199 
876 163 164 484 
877 142 143 219 
878 138 139 816 
879 69 70 485 
880 68 69 819 
881 139 140 588 
882 93 94 483 
883 213 118 823 
884 118 119 823 
885 116 117 825 
886 119 218 823 
887 204 116 825 
888 117 118 213 
889 119 120 218 
890 48 49 217 
891 117 213 825 
892 20 21 177 
893 8 9 173 
894 4 5 172 
895 16 17 178 
896 115 116 204 
897 45 46 205 
898 325 328 788 
899 481 424 482 
900 1008 662 1119 
901 294 303 703 
902 211 813 814 
903 58 59 802 
904 263 267 309 
905 548 670 671 
906 124 125 176 
907 558 478 559 
908 525 514 526 
909 677 188 1009 
910 533 548 850 
911 415 435 453 
912 406 414 719 
913 533 535 548 
914 560 173 732 
915 312 277 313 
916 656 1059 1079 
917 536 457 615 
918 283 306 844 
919 47 822 871 
920 614 876 893 
921 322 581 633 
922 377 771 818 
923 59 60 207 
924 447 573 638 
925 303 296 964 
926 633 581 663 
927 306 455 456 
928 425 385 426 
929 521 489 522 
930 748 749 934 
931 371 375 421 
932 571 178 733 
933 281 283 284 
934 456 528 550 
935 638 573 669 
936 584 640 643 
937 579 839 852 
938 551 524 552 
939 37 38 189 
940 853 617 874 
941 686 688 690 
942 107 108 190 
943 547 569 579 
944 693 694 695 
945 792 459 847 
946 453 454 597 
947 754 169 755 
948 416 430 432 
949 745 746 940 
950 388 532 846 
951 270 312 881 
952 392 393 397 
953 36 37 837 
954 684 777 946 
955 130 131 842 
956 599 448 600 
957 127 128 191 
958 106 107 841 
959 499 423 500 
960 458 537 557 
961 509 530 641 
962 665 701 702 
963 422 437 438 
964 128 129 843 
965 464 321 467 
966 381 425 882 
967 208 757 758 
968 498 520 642 
969 641 655 656 
970 35 36 214 
971 431 417 444 
972 692 467 698 
973 105 106 215 
974 517 318 518 
975 599 600 601 
976 322 323 581 
977 550 528 619 
978 456 455 528 
979 306 456 844 
980 323 316 457 
981 129 130 216 
982 573 448 599 
983 601 600 602 
984 314 313 315 
985 541 539 542 
986 665 702 953 
987 205 46 871 
988 642 650 657 
989 576 500 635 
990 481 482 618 
991 461 664 665 
992 693 692 694 
993 464 692 693 
994 384 390 392 
995 664 511 666 
996 461 444 511 
997 299 278 301 
998 800 798 886 
999 640 639 1057 
1000 60 61 834 
1001 447 448 573 
1002 322 316 323 
1003 187 802 866 
1004 662 624 983 
1005 305 282 320 
1006 556 675 676 
1007 427 426 428 
1008 270 271 277 
1009 323 457 458 
1010 464 467 692 
1011 639 583 717 
1012 313 277 859 
1013 554 555 556 
1014 665 664 701 
1015 325 327 328 
1016 603 887 962 
1017 640 1057 1071 
1018 612 611 613 
1019 272 265 285 
1020 442 449 450 
1021 461 511 664 
1022 458 457 536 
1023 306 321 455 
1024 591 592 593 
1025 601 602 603 
1026 667 511 876 
1027 847 778 1093 
1028 259 269 270 
1029 885 443 980 
1030 438 439 440 
1031 519 518 631 
1032 579 569 765 
1033 414 408 986 
1034 615 457 859 
1035 545 699 716 
1036 532 412 533 
1037 252 259 881 
1038 458 536 537 
1039 37 189 837 
1040 431 444 461 
1041 316 313 859 
1042 328 330 331 
1043 315 316 322 
1044 455 321 464 
1045 331 451 452 
1046 107 190 841 
1047 283 305 306 
1048 381 382 385 
1049 306 305 321 
1050 243 245 288 
1051 34 35 838 
1052 472 18 1047 
1053 104 105 840 
1054 603 602 604 
1055 699 558 700 
1056 610 420 611 
1057 473 6 1048 
1058 581 323 845 
1059 785 209 786 
1060 545 478 558 
1061 537 536 546 
1062 309 267 310 
1063 351 353 396 
1064 367 380 381 
1065 430 431 490 
1066 207 60 834 
1067 458 557 845 
1068 643 640 644 
1069 547 579 852 
1070 477 307 478 
1071 635 500 924 
1072 450 513 514 
1073 323 458 845 
1074 360 367 882 
1075 389 383 395 
1076 416 432 851 
1077 576 635 696 
1078 324 310 325 
1079 545 558 699 
1080 440 441 442 
1081 447 434 448 
1082 411 446 614 
1083 191 128 843 
1084 537 546 547 
1085 397 393 851 
1086 430 417 431 
1087 386 376 391 
1088 547 549 569 
1089 214 36 837 
1090 563 177 734 
1091 547 546 549 
1092 280 275 287 
1093 499 500 576 
1094 452 488 489 
1095 492 317 763 
1096 215 106 841 
1097 552 553 554 
1098 556 555 675 
1099 216 130 842 
1100 557 537 852 
1101 548 535 670 
1102 393 390 394 
1103 603 604 607 
1104 27 203 884 
1105 607 604 608 
1106 392 390 393 
1107 526 531 629 
1108 477 478 545 
1109 428 434 447 
1110 504 429 764 
1111 256 254 879 
1112 129 216 843 
1113 675 555 720 
1114 416 394 417 
1115 302 307 318 
1116 528 455 849 
1117 283 282 305 
1118 402 391 415 
1119 416 417 430 
1120 393 394 416 
1121 411 395 424 
1122 445 499 501 
1123 419 445 463 
1124 607 608 739 
1125 315 313 316 
1126 540 543 567 
1127 574 575 582 
1128 464 693 849 
1129 226 228 1066 
1130 281 282 283 
1131 455 464 849 
1132 421 375 422 
1133 554 553 555 
1134 522 523 524 
1135 224 225 226 
1136 446 424 481 
1137 654 653 743 
1138 930 527 1055 
1139 445 423 499 
1140 270 269 271 
1141 318 307 477 
1142 276 280 281 
1143 582 583 584 
1144 279 300 302 
1145 532 850 920 
1146 497 494 1040 
1147 382 380 383 
1148 575 568 713 
1149 584 639 640 
1150 271 269 275 
1151 266 274 286 
1152 384 389 390 
1153 271 275 276 
1154 838 214 839 
1155 247 250 260 
1156 389 395 411 
1157 537 547 852 
1158 453 597 598 
1159 329 326 544 
1160 446 481 527 
1161 567 568 574 
1162 610 611 612 
1163 428 426 434 
1164 258 251 273 
1165 411 424 446 
1166 450 449 513 
1167 381 380 382 
1168 582 575 583 
1169 631 518 632 
1170 35 214 838 
1171 382 383 384 
1172 281 280 282 
1173 272 285 854 
1174 366 359 377 
1175 105 215 840 
1176 802 207 862 
1177 301 278 854 
1178 384 392 853 
1179 334 336 1067 
1180 634 531 738 
1181 552 524 553 
1182 332 333 334 
1183 384 383 389 
1184 419 399 423 
1185 584 583 639 
1186 331 330 451 
1187 355 358 368 
1188 574 568 575 
1189 791 373 891 
1190 276 275 280 
1191 378 387 388 
1192 526 514 531 
1193 817 690 1081 
1194 187 921 957 
1195 385 382 853 
1196 324 325 788 
1197 419 423 445 
1198 393 416 851 
1199 765 977 985 
1200 438 437 439 
1201 402 420 609 
1202 418 465 466 
1203 259 268 269 
1204 388 398 412 
1205 452 451 488 
1206 442 441 449 
1207 328 327 330 
1208 302 300 307 
1209 670 535 672 
1210 312 314 934 
1211 457 316 859 
1212 398 387 399 
1213 522 489 523 
1214 102 222 926 
1215 402 415 420 
1216 367 379 380 
1217 415 453 873 
1218 598 597 866 
1219 629 531 634 
1220 556 676 883 
1221 613 611 890 
1222 461 665 877 
1223 533 534 535 
1224 490 431 877 
1225 300 299 311 
1226 425 427 940 
1227 453 598 873 
1228 386 391 402 
1229 285 265 905 
1230 279 278 299 
1231 440 439 441 
1232 763 317 781 
1233 609 420 610 
1234 481 618 856 
1235 274 272 278 
1236 320 282 861 
1237 451 330 462 
1238 596 324 788 
1239 503 745 940 
1240 491 748 934 
1241 533 412 534 
1242 449 441 502 
1243 382 384 853 
1244 567 543 568 
1245 586 587 735 
1246 329 585 586 
1247 611 420 873 
1248 543 541 570 
1249 380 379 855 
1250 354 352 356 
1251 279 299 300 
1252 388 387 398 
1253 535 534 857 
1254 274 278 279 
1255 398 399 419 
1256 266 272 274 
1257 325 326 327 
1258 271 276 875 
1259 360 366 367 
1260 252 258 259 
1261 329 544 585 
1262 395 383 855 
1263 764 429 783 
1264 277 271 875 
1265 527 481 856 
1266 46 47 871 
1267 862 598 866 
1268 280 287 861 
1269 266 265 272 
1270 259 258 268 
1271 367 366 379 
1272 735 587 740 
1273 378 386 387 
1274 185 101 926 
1275 394 390 864 
1276 478 307 868 
1277 411 614 864 
1278 383 380 855 
1279 263 264 267 
1280 378 376 386 
1281 278 272 854 
1282 246 244 248 
1283 508 506 1063 
1284 672 535 857 
1285 325 310 326 
1286 693 695 909 
1287 540 541 543 
1288 586 585 587 
1289 439 437 443 
1290 431 461 877 
1291 120 121 817 
1292 422 436 437 
1293 859 277 875 
1294 385 853 874 
1295 371 372 375 
1296 327 326 329 
1297 281 284 908 
1298 282 280 861 
1299 444 417 893 
1300 511 444 876 
1301 390 389 864 
1302 365 370 371 
1303 436 880 920 
1304 620 622 1044 
1305 500 423 911 
1306 422 375 436 
1307 26 27 884 
1308 341 342 343 
1309 571 733 1010 
1310 374 373 376 
1311 798 799 886 
1312 374 376 378 
1313 389 411 864 
1314 1010 995 1131 
1315 394 864 893 
1316 702 821 953 
1317 419 463 869 
1318 360 359 366 
1319 615 859 875 
1320 721 556 883 
1321 543 570 860 
1322 372 370 373 
1323 264 262 265 
1324 595 593 658 
1325 358 359 360 
1326 426 385 874 
1327 250 251 252 
1328 495 492 763 
1329 369 364 413 
1330 681 682 712 
1331 29 30 919 
1332 264 265 266 
1333 826 855 892 
1334 420 415 873 
1335 266 286 865 
1336 463 445 889 
1337 528 849 894 
1338 590 413 591 
1339 568 543 860 
1340 252 251 258 
1341 793 361 922 
1342 713 568 860 
1343 559 797 1105 
1344 510 504 764 
1345 259 270 881 
1346 864 614 893 
1347 307 300 868 
1348 659 658 722 
1349 894 849 909 
1350 430 490 899 
1351 540 539 541 
1352 475 177 563 
1353 802 862 866 
1354 367 381 882 
1355 875 276 908 
1356 343 344 345 
1357 707 689 708 
1358 233 234 235 
1359 250 249 251 
1360 434 426 874 
1361 279 302 872 
1362 115 204 1008 
1363 300 311 868 
1364 412 398 869 
1365 247 249 250 
1366 257 262 263 
1367 221 765 985 
1368 358 357 359 
1369 469 173 560 
1370 546 916 938 
1371 467 948 1012 
1372 267 264 865 
1373 443 963 980 
1374 600 448 914 
1375 286 274 872 
1376 345 346 347 
1377 296 308 964 
1378 731 847 1093 
1379 235 236 237 
1380 635 924 951 
1381 595 658 659 
1382 534 412 869 
1383 310 267 878 
1384 850 548 963 
1385 240 255 744 
1386 402 609 867 
1387 71 72 942 
1388 622 623 718 
1389 399 387 867 
1390 398 419 869 
1391 386 402 867 
1392 445 501 889 
1393 667 876 915 
1394 372 373 374 
1395 304 256 879 
1396 814 815 942 
1397 538 539 540 
1398 387 386 867 
1399 345 347 349 
1400 371 370 372 
1401 237 238 239 
1402 559 868 898 
1403 544 326 878 
1404 867 609 911 
1405 330 327 870 
1406 374 846 880 
1407 880 846 920 
1408 355 357 358 
1409 516 508 1022 
1410 591 593 595 
1411 264 266 865 
1412 550 619 952 
1413 601 603 962 
1414 399 867 911 
1415 261 256 304 
1416 873 598 890 
1417 247 246 249 
1418 274 279 872 
1419 600 914 923 
1420 237 239 241 
1421 852 839 935 
1422 840 215 887 
1423 23 132 925 
1424 982 189 1021 
1425 95 96 944 
1426 355 354 357 
1427 348 362 529 
1428 25 26 943 
1429 879 254 912 
1430 263 262 264 
1431 239 238 240 
1432 231 232 233 
1433 11 62 929 
1434 369 413 590 
1435 329 586 870 
1436 462 330 870 
1437 365 369 370 
1438 327 329 870 
1439 207 834 913 
1440 339 340 341 
1441 353 354 355 
1442 546 536 916 
1443 56 57 957 
1444 615 875 908 
1445 33 2 932 
1446 103 14 933 
1447 821 199 953 
1448 454 435 903 
1449 598 862 890 
1450 855 379 892 
1451 619 528 894 
1452 353 352 354 
1453 245 246 247 
1454 50 51 863 
1455 706 689 707 
1456 237 236 238 
1457 538 304 539 
1458 347 346 348 
1459 611 873 890 
1460 614 446 915 
1461 131 23 925 
1462 213 823 1035 
1463 267 865 878 
1464 77 78 956 
1465 61 11 929 
1466 375 372 880 
1467 884 695 943 
1468 339 341 363 
1469 602 600 923 
1470 326 310 878 
1471 229 230 231 
1472 345 344 346 
1473 2 34 932 
1474 14 104 933 
1475 245 244 246 
1476 365 364 369 
1477 417 394 893 
1478 456 550 954 
1479 408 418 986 
1480 203 28 918 
1481 226 225 227 
1482 432 430 899 
1483 351 352 353 
1484 652 653 654 
1485 62 220 929 
1486 132 223 925 
1487 231 233 253 
1488 725 726 1014 
1489 243 244 245 
1490 502 441 885 
1491 235 234 236 
1492 620 621 622 
1493 337 338 339 
1494 602 923 937 
1495 678 476 910 
1496 874 617 914 
1497 343 342 344 
1498 441 439 885 
1499 736 235 1062 
1500 876 614 915 
1501 221 33 932 
1502 222 103 933 
1503 436 375 880 
1504 467 321 948 
1505 372 374 880 
1506 243 242 244 
1507 740 182 1068 
1508 839 214 935 
1509 362 364 365 
1510 351 350 352 
1511 261 304 538 
1512 439 443 885 
1513 32 221 985 
1514 929 220 979 
1515 257 261 262 
1516 434 874 914 
1517 193 90 966 
1518 732 332 972 
1519 305 320 948 
1520 832 831 896 
1521 91 212 966 
1522 803 856 1133 
1523 799 185 939 
1524 241 242 243 
1525 348 346 361 
1526 240 238 254 
1527 613 890 913 
1528 594 592 927 
1529 334 333 335 
1530 241 239 242 
1531 257 256 261 
1532 626 624 662 
1533 647 681 1109 
1534 203 894 909 
1535 255 256 257 
1536 409 407 410 
1537 512 497 1050 
1538 28 29 918 
1539 908 284 916 
1540 807 632 1034 
1541 286 779 936 
1542 184 31 985 
1543 1011 634 1122 
1544 582 584 974 
1545 349 347 350 
1546 349 350 351 
1547 276 281 908 
1548 187 866 921 
1549 297 295 298 
1550 341 340 342 
1551 868 311 898 
1552 540 567 950 
1553 604 602 937 
1554 849 693 909 
1555 423 399 911 
1556 233 232 234 
1557 770 377 1114 
1558 255 254 256 
1559 768 769 1070 
1560 365 371 901 
1561 213 743 1111 
1562 521 730 1093 
1563 597 454 1016 
1564 726 594 927 
1565 605 733 1090 
1566 950 567 970 
1567 362 361 364 
1568 292 291 293 
1569 608 961 967 
1570 201 44 715 
1571 735 741 1004 
1572 771 525 1076 
1573 404 403 405 
1574 373 370 891 
1575 240 254 255 
1576 916 284 938 
1577 448 434 914 
1578 826 892 987 
1579 536 615 916 
1580 348 361 362 
1581 236 234 289 
1582 437 436 945 
1583 655 750 1126 
1584 30 184 919 
1585 332 165 333 
1586 857 534 959 
1587 608 604 961 
1588 742 343 1059 
1589 688 689 706 
1590 446 527 915 
1591 890 862 913 
1592 914 617 923 
1593 650 751 1120 
1594 285 905 950 
1595 370 369 891 
1596 150 151 997 
1597 212 92 992 
1598 257 263 895 
1599 804 193 930 
1600 93 483 992 
1601 161 197 994 
1602 369 590 891 
1603 776 773 1070 
1604 265 262 905 
1605 894 203 918 
1606 617 397 923 
1607 549 546 938 
1608 601 962 1007 
1609 314 491 934 
1610 168 487 660 
1611 66 67 999 
1612 842 131 925 
1613 166 480 661 
1614 862 207 913 
1615 625 627 628 
1616 799 939 967 
1617 142 219 998 
1618 647 648 681 
1619 224 167 225 
1620 756 753 1015 
1621 487 691 728 
1622 557 852 935 
1623 480 680 737 
1624 158 188 1006 
1625 337 335 338 
1626 500 911 924 
1627 619 919 952 
1628 615 908 916 
1629 744 255 895 
1630 900 646 1029 
1631 680 566 1022 
1632 948 727 1012 
1633 240 744 900 
1634 691 572 1050 
1635 920 850 945 
1636 549 938 954 
1637 101 102 926 
1638 652 651 653 
1639 834 61 929 
1640 560 732 972 
1641 188 159 1009 
1642 427 503 940 
1643 644 1071 1086 
1644 887 215 962 
1645 923 397 937 
1646 239 240 900 
1647 229 227 230 
1648 362 365 901 
1649 34 838 932 
1650 261 538 905 
1651 529 362 901 
1652 104 840 933 
1653 72 814 942 
1654 609 610 924 
1655 182 1020 1053 
1656 958 952 977 
1657 654 1002 1036 
1658 262 261 905 
1659 344 342 401 
1660 231 230 232 
1661 866 597 921 
1662 284 844 938 
1663 347 348 902 
1664 846 532 920 
1665 348 529 902 
1666 255 257 895 
1667 644 640 1071 
1668 573 599 1001 
1669 76 77 1018 
1670 339 338 340 
1671 739 222 981 
1672 563 734 976 
1673 242 239 900 
1674 712 682 946 
1675 796 1085 1086 
1676 214 837 935 
1677 899 799 967 
1678 555 553 1003 
1679 350 347 902 
1680 410 407 904 
1681 96 821 944 
1682 604 937 961 
1683 619 894 918 
1684 766 525 1130 
1685 734 224 976 
1686 906 298 1103 
1687 397 851 937 
1688 436 920 945 
1689 356 769 1100 
1690 231 253 931 
1691 232 230 290 
1692 688 687 689 
1693 739 608 939 
1694 539 304 955 
1695 586 735 1004 
1696 443 437 945 
1697 495 728 1040 
1698 878 865 936 
1699 830 955 984 
1700 779 519 993 
1701 298 295 907 
1702 911 609 924 
1703 938 844 954 
1704 219 888 998 
1705 197 162 1025 
1706 39 40 1024 
1707 646 596 1056 
1708 291 229 931 
1709 1079 396 1113 
1710 163 484 1025 
1711 954 550 958 
1712 403 337 928 
1713 199 801 953 
1714 454 903 990 
1715 321 305 948 
1716 865 286 936 
1717 238 236 912 
1718 710 709 988 
1719 475 565 1042 
1720 544 878 936 
1721 924 610 951 
1722 622 621 623 
1723 820 501 1127 
1724 834 929 979 
1725 469 562 1043 
1726 705 704 991 
1727 590 591 990 
1728 229 231 931 
1729 567 574 970 
1730 299 301 1017 
1731 903 590 990 
1732 519 631 1013 
1733 170 762 965 
1734 339 363 928 
1735 285 950 970 
1736 78 180 956 
1737 1008 204 1028 
1738 675 720 1006 
1739 581 845 1021 
1740 610 612 951 
1741 124 176 1072 
1742 538 540 950 
1743 57 187 957 
1744 144 194 1041 
1745 831 830 968 
1746 476 647 910 
1747 219 143 1041 
1748 149 206 1068 
1749 454 990 1016 
1750 681 648 682 
1751 905 538 950 
1752 293 291 577 
1753 407 405 904 
1754 26 884 943 
1755 405 403 578 
1756 627 651 652 
1757 696 635 1082 
1758 869 463 959 
1759 844 456 954 
1760 961 432 967 
1761 902 776 1049 
1762 1031 685 1065 
1763 254 238 912 
1764 965 741 997 
1765 513 449 1015 
1766 109 110 1052 
1767 346 344 922 
1768 295 293 907 
1769 221 932 989 
1770 574 582 996 
1771 599 601 1007 
1772 337 339 928 
1773 526 630 1076 
1774 569 549 958 
1775 630 818 1076 
1776 794 796 1086 
1777 182 148 1068 
1778 170 965 997 
1779 548 671 963 
1780 973 906 1102 
1781 738 210 1075 
1782 936 779 993 
1783 851 432 961 
1784 550 952 958 
1785 477 545 1046 
1786 361 346 922 
1787 557 935 982 
1788 937 851 961 
1789 215 841 962 
1790 935 837 982 
1791 308 319 1109 
1792 466 465 605 
1793 236 289 912 
1794 90 91 966 
1795 318 477 1034 
1796 243 288 1080 
1797 534 869 959 
1798 717 842 1023 
1799 514 513 1033 
1800 888 588 998 
1801 227 225 969 
1802 351 396 1079 
1803 738 531 1033 
1804 190 108 1039 
1805 789 181 971 
1806 544 936 993 
1807 1013 631 1020 
1808 335 333 978 
1809 993 519 1013 
1810 343 345 1059 
1811 433 409 897 
1812 65 66 1098 
1813 632 518 1034 
1814 628 863 949 
1815 248 244 1029 
1816 340 338 400 
1817 466 606 620 
1818 569 958 977 
1819 819 485 1123 
1820 1 25 1087 
1821 164 1 1087 
1822 70 12 1088 
1823 12 71 1088 
1824 94 13 1089 
1825 13 95 1089 
1826 584 643 974 
1827 251 249 1060 
1828 627 626 651 
1829 319 297 906 
1830 289 234 941 
1831 235 237 1062 
1832 356 352 1049 
1833 686 687 688 
1834 488 451 1032 
1835 771 770 1130 
1836 589 165 1037 
1837 620 606 621 
1838 181 803 1133 
1839 168 486 487 
1840 919 184 952 
1841 854 285 970 
1842 409 410 897 
1843 879 912 984 
1844 166 479 480 
1845 784 641 1113 
1846 939 608 967 
1847 234 232 941 
1848 489 488 1064 
1849 121 196 817 
1850 625 626 627 
1851 558 559 1105 
1852 765 569 977 
1853 377 818 1051 
1854 708 689 1038 
1855 628 949 1128 
1856 863 195 949 
1857 366 377 1051 
1858 297 298 906 
1859 623 624 625 
1860 856 803 1055 
1861 932 838 989 
1862 304 879 955 
1863 1075 971 1122 
1864 140 24 1095 
1865 24 141 1095 
1866 344 401 922 
1867 979 220 1005 
1868 332 334 972 
1869 607 739 981 
1870 631 632 1053 
1871 623 621 624 
1872 377 359 1114 
1873 892 379 1051 
1874 122 123 975 
1875 970 574 996 
1876 549 954 958 
1877 770 767 1130 
1878 578 403 928 
1879 418 466 986 
1880 955 879 984 
1881 577 291 931 
1882 465 433 1010 
1883 727 677 1012 
1884 432 899 967 
1885 682 683 684 
1886 499 576 1127 
1887 682 684 946 
1888 31 32 985 
1889 342 340 960 
1890 913 834 979 
1891 613 979 1005 
1892 684 685 686 
1893 662 1008 1028 
1894 232 290 941 
1895 962 841 1007 
1896 845 557 982 
1897 696 1082 1098 
1898 625 624 626 
1899 224 226 976 
1900 912 289 984 
1901 797 559 1115 
1902 686 685 687 
1903 51 195 863 
1904 572 486 1102 
1905 553 524 1107 
1906 462 870 1004 
1907 837 189 982 
1908 682 648 683 
1909 482 826 987 
1910 301 974 1017 
1911 289 941 968 
1912 401 342 960 
1913 225 167 580 
1914 151 170 997 
1915 92 93 992 
1916 52 53 1037 
1917 466 620 986 
1918 975 123 1072 
1919 838 839 989 
1920 482 987 1011 
1921 160 161 994 
1922 887 607 981 
1923 787 179 1003 
1924 230 227 969 
1925 896 831 1074 
1926 220 780 1005 
1927 643 644 1026 
1928 634 738 1075 
1929 290 230 969 
1930 338 335 978 
1931 405 578 904 
1932 141 142 998 
1933 565 673 674 
1934 67 198 999 
1935 645 560 972 
1936 293 577 907 
1937 160 994 1009 
1938 606 605 917 
1939 591 595 990 
1940 759 589 1037 
1941 1017 643 1026 
1942 625 628 1128 
1943 669 573 1001 
1944 649 563 976 
1945 561 560 645 
1946 354 356 1100 
1947 758 757 1000 
1948 301 854 996 
1949 510 737 1063 
1950 585 544 993 
1951 1031 205 1038 
1952 564 563 649 
1953 854 970 996 
1954 759 725 1014 
1955 333 165 589 
1956 684 683 685 
1957 242 900 1029 
1958 157 158 1006 
1959 999 198 1019 
1960 720 555 1003 
1961 707 708 1129 
1962 159 160 1009 
1963 612 613 1005 
1964 433 897 995 
1965 38 39 1054 
1966 952 184 977 
1967 613 913 979 
1968 789 971 1075 
1969 201 715 1065 
1970 698 467 1012 
1971 618 482 1011 
1972 628 627 1027 
1973 841 190 1007 
1974 642 657 1116 
1975 114 115 1008 
1976 681 712 964 
1977 585 993 1013 
1978 225 580 969 
1979 173 9 732 
1980 990 595 1016 
1981 804 930 1055 
1982 668 516 1022 
1983 968 830 984 
1984 1023 223 1057 
1985 647 616 648 
1986 870 586 1004 
1987 350 902 1049 
1988 198 820 1019 
1989 449 502 1015 
1990 587 585 1013 
1991 475 563 564 
1992 707 743 1035 
1993 469 560 561 
1994 192 76 1018 
1995 656 1079 1113 
1996 340 400 960 
1997 177 21 734 
1998 785 523 1064 
1999 595 659 1016 
2000 400 338 978 
2001 731 273 1060 
2002 311 299 1017 
2003 476 616 647 
2004 333 589 978 
2005 715 1031 1065 
2006 637 668 1094 
2007 896 1074 1124 
2008 663 581 1021 
2009 780 186 1030 
2010 587 1013 1020 
2011 1001 190 1039 
2012 289 968 984 
2013 761 785 1064 
2014 688 706 1081 
2015 651 1028 1091 
2016 466 605 606 
2017 925 223 1023 
2018 433 995 1010 
2019 963 671 980 
2020 562 561 679 
2021 565 564 673 
2022 740 587 1020 
2023 40 174 1024 
2024 848 731 1060 
2025 636 723 1084 
2026 189 38 1054 
2027 311 1017 1026 
2028 162 163 1025 
2029 679 561 1132 
2030 946 674 1069 
2031 673 564 1125 
2032 751 636 1078 
2033 750 637 1092 
2034 612 1005 1030 
2035 165 52 1037 
2036 178 17 472 
2037 172 5 473 
2038 174 705 1058 
2039 974 643 1017 
2040 319 910 1109 
2041 193 966 1106 
2042 728 691 1040 
2043 576 1019 1127 
2044 781 633 1110 
2045 737 680 1063 
2046 764 783 1121 
2047 475 564 565 
2048 469 561 562 
2049 651 626 1028 
2050 180 1000 1108 
2051 730 731 1093 
2052 624 621 983 
2053 712 946 1069 
2054 494 495 1040 
2055 108 109 1039 
2056 1005 780 1030 
2057 1061 820 1123 
2058 463 889 1097 
2059 502 885 1045 
2060 244 242 1029 
2061 803 804 1055 
2062 805 182 1053 
2063 842 925 1023 
2064 708 1002 1129 
2065 706 707 1035 
2066 596 792 1056 
2067 662 983 1119 
2068 898 311 1026 
2069 580 896 1124 
2070 143 144 1041 
2071 627 652 1027 
2072 626 662 1028 
2073 531 514 1033 
2074 451 462 1032 
2075 518 318 1034 
2076 621 606 983 
2077 818 771 1076 
2078 965 762 1032 
2079 685 683 1065 
2080 743 707 1129 
2081 175 710 1077 
2082 652 654 1036 
2083 545 716 1046 
2084 1024 174 1058 
2085 889 812 1097 
2086 718 623 1128 
2087 223 782 1057 
2088 110 175 1052 
2089 689 687 1038 
2090 1027 652 1036 
2091 723 512 1050 
2092 773 768 1070 
2093 506 510 1063 
2094 1057 782 1071 
2095 606 917 983 
2096 949 718 1128 
2097 379 366 1051 
2098 815 813 1061 
2099 352 350 1049 
2100 273 251 1060 
2101 1085 644 1086 
2102 763 781 1110 
2103 782 183 1071 
2104 790 642 1116 
2105 856 618 1133 
2106 200 917 1047 
2107 527 856 1055 
2108 228 292 1066 
2109 210 789 1075 
2110 336 404 1067 
2111 634 1075 1122 
2112 172 473 476 
2113 246 248 1104 
2114 1071 183 1086 
2115 249 246 1104 
2116 345 349 1059 
2117 1028 204 1091 
2118 148 149 1068 
2119 951 612 1030 
2120 71 942 1088 
2121 562 679 1117 
2122 783 638 1121 
2123 237 241 1062 
2124 885 980 1045 
2125 523 489 1064 
2126 123 124 1072 
2127 1052 175 1077 
2128 622 718 1117 
2129 95 944 1089 
2130 966 666 1106 
2131 742 655 1126 
2132 25 943 1087 
2133 1065 683 1083 
2134 525 526 1076 
2135 736 650 1120 
2136 667 930 1106 
2137 204 825 1091 
2138 671 670 1108 
2139 687 685 1031 
2140 687 1031 1038 
2141 654 743 1129 
2142 992 483 1118 
2143 683 648 1083 
2144 930 193 1106 
2145 183 794 1086 
2146 778 521 1093 
2147 825 213 1111 
2148 812 811 1097 
2149 796 797 1115 
2150 1047 917 1090 
2151 931 253 1101 
2152 588 140 1095 
2153 947 196 1042 
2154 968 941 1074 
2155 484 164 1087 
2156 485 70 1088 
2157 483 94 1089 
2158 1009 994 1096 
2159 1062 241 1080 
2160 1059 349 1079 
2161 186 65 1098 
2162 959 463 1097 
2163 928 363 1112 
2164 1021 189 1054 
2165 241 243 1080 
2166 349 351 1079 
2167 618 971 1133 
2168 690 688 1081 
2169 767 766 1130 
2170 666 667 1106 
2171 700 558 1105 
2172 674 673 1069 
2173 820 819 1123 
2174 1091 825 1111 
2175 1056 792 1073 
2176 669 1001 1039 
2177 998 588 1095 
2178 743 653 1111 
2179 357 354 1100 
2180 917 605 1090 
2181 653 651 1091 
2182 811 959 1097 
2183 653 1091 1111 
2184 702 701 1118 
2185 476 473 616 
2186 616 473 1048 
2187 524 523 1107 
2188 942 485 1088 
2189 944 483 1089 
2190 943 484 1087 
2191 298 907 1084 
2192 357 1100 1114 
2193 359 357 1114 
2194 501 499 1127 
2195 410 904 1094 
2196 641 656 1113 
2197 831 968 1074 
2198 971 618 1122 
2199 1074 290 1124 
2200 917 200 1119 
2201 941 290 1074 
2202 815 1061 1123 
2203 1082 186 1098 
2204 1020 631 1053 
2205 635 951 1082 
2206 663 1021 1054 
2207 1030 186 1082 
2208 559 898 1115 
2209 633 1058 1110 
2210 1026 644 1085 
2211 907 577 1078 
2212 1012 677 1096 
2213 201 1065 1083 
2214 472 1047 1090 
2215 1019 820 1127 
2216 1000 671 1108 
2217 751 1078 1101 
2218 616 1048 1083 
2219 750 1092 1112 
2220 1078 577 1101 
2221 951 1030 1082 
2222 907 1078 1084 
2223 983 917 1119 
2224 623 625 1128 
2225 698 1012 1096 
2226 904 578 1092 
2227 618 1011 1122 
2228 904 1092 1094 
2229 648 616 1083 
2230 969 580 1124 
2231 701 992 1118 
2232 1092 578 1112 
2233 898 1085 1115 
2234 1085 796 1115 
2235 994 698 1096 
2236 248 1073 1104 
2237 141 998 1095 
2238 679 1044 1117 
2239 1078 636 1084 
2240 564 649 1125 
2241 577 931 1101 
2242 486 973 1102 
2243 910 647 1109 
2244 677 1009 1096 
2245 1092 637 1094 
2246 248 1056 1073 
2247 561 645 1132 
2248 578 928 1112 
2249 471 571 1131 
2250 898 1026 1085 
2251 971 181 1133 
2252 290 969 1124 
2253 1044 622 1117 
2254 1002 654 1129 
2255 638 1077 1121 
2256 995 479 1131 
2257 1048 201 1083 
2258 1058 705 1110 
2259 1073 848 1104 
2260 1102 906 1103 
2261 1077 710 1121 
2262 572 1102 1103 
$EndElements
