$MeshFormat
4.1 0 8
$EndMeshFormat
$Entities
32 24 1 0
1 0 0 0 0 
2 2 0 0 0 
3 2.9 1.9 0 0 
4 2.970710678118655 1.970710678118655 0 0 
5 3.04142135623731 2 0 0 
6 3.14142135623731 2 0 0 
7 4.858578643762691 2 0 0 
8 4.95857864376269 2 0 0 
9 5.029289321881345 1.970710678118655 0 0 
10 5.1 1.9 0 0 
11 6 0 0 0 
12 8 0 0 0 
13 8 5 0 0 
14 6 5 0 0 
15 5.1 3.1 0 0 
16 5.029289321881345 3.029289321881345 0 0 
17 4.95857864376269 3 0 0 
18 4.858578643762691 3 0 0 
19 3.14142135623731 3 0 0 
20 3.04142135623731 3 0 0 
21 2.970710678118655 3.029289321881345 0 0 
22 2.9 3.1 0 0 
23 2 5 0 0 
24 0 5 0 0 
101 3.04142135623731 1.9 0 0 
102 4.95857864376269 1.9 0 0 
103 4.95857864376269 3.1 0 0 
104 3.04142135623731 3.1 0 0 
1001 3 2 0 0 
1002 5 2 0 0 
1003 5 3 0 0 
1004 3 3 0 0 
1 0 0 0 2 0 0 1 3 2 1 -2 
2 2 0 0 2.9 1.9 0 1 3 2 2 -3 
3 2.9 1.9 0 2.970710678118655 1.970710678118655 0 1 3 2 3 -4 
4 2.970710678118655 1.970710678118655 0 3.04142135623731 2 0 1 3 2 4 -5 
5 3.04142135623731 2 0 3.14142135623731 2 0 1 3 2 5 -6 
6 3.14142135623731 2 0 4.858578643762691 2 0 1 3 2 6 -7 
7 4.858578643762691 2 0 4.95857864376269 2 0 1 3 2 7 -8 
8 4.95857864376269 1.970710678118655 0 5.029289321881345 2 0 1 3 2 8 -9 
9 5.029289321881345 1.9 0 5.1 1.970710678118655 0 1 3 2 9 -10 
10 5.1 0 0 6 1.9 0 1 3 2 10 -11 
11 6 0 0 8 0 0 1 3 2 11 -12 
12 8 0 0 8 5 0 1 2 2 12 -13 
13 6 5 0 8 5 0 1 3 2 13 -14 
14 5.1 3.1 0 6 5 0 1 3 2 14 -15 
15 5.029289321881345 3.029289321881345 0 5.1 3.1 0 1 3 2 15 -16 
16 4.95857864376269 3 0 5.029289321881345 3.029289321881345 0 0 2 16 -17 
17 4.858578643762691 3 0 4.95857864376269 3 0 0 2 17 -18 
18 3.14142135623731 3 0 4.858578643762691 3 0 1 3 2 18 -19 
19 3.04142135623731 3 0 3.14142135623731 3 0 1 3 2 19 -20 
20 2.970710678118655 3 0 3.04142135623731 3.029289321881345 0 1 3 2 20 -21 
21 2.9 3.029289321881345 0 2.970710678118655 3.1 0 1 3 2 21 -22 
22 2 3.1 0 2.9 5 0 1 3 2 22 -23 
23 0 5 0 2 5 0 1 3 2 23 -24 
24 0 0 0 0 5 0 1 1 2 24 -1 
1 0 0 0 8 5 0 1 1 24 1 2 3 4 5 6 7 8 9 10 11 12 13 14 15 16 17 18 19 20 21 22 23 24 
$EndEntities
$Nodes
47 406 1 406
0 1 0 1
1
0 0 0
0 2 0 1
2
2 0 0
0 3 0 1
3
2.9 1.9 0
0 4 0 1
4
2.970710678118655 1.970710678118655 0
0 5 0 1
5
3.04142135623731 2 0
0 6 0 1
6
3.14142135623731 2 0
0 7 0 1
7
4.858578643762691 2 0
0 8 0 1
8
4.95857864376269 2 0
0 9 0 1
9
5.029289321881345 1.970710678118655 0
0 10 0 1
10
5.1 1.9 0
0 11 0 1
11
6 0 0
0 12 0 1
12
8 0 0
0 13 0 1
13
8 5 0
0 14 0 1
14
6 5 0
0 15 0 1
15
5.1 3.1 0
0 16 0 1
16
5.029289321881345 3.029289321881345 0
0 17 0 1
17
4.95857864376269 3 0
0 18 0 1
18
4.858578643762691 3 0
0 19 0 1
19
3.14142135623731 3 0
0 20 0 1
20
3.04142135623731 3 0
0 21 0 1
21
2.970710678118655 3.029289321881345 0
0 22 0 1
22
2.9 3.1 0
0 23 0 1
23
2 5 0
0 24 0 1
24
0 5 0
1 1 0 4
25
26
27
28
0.3999999999991157 0 0
0.7999999999979498 0 0
1.199999999997894 0 0
1.599999999998947 0 0
1 2 0 5
29
30
31
32
33
2.149999999999609 0.3166666666658406 0
2.299999999999156 0.6333333333315526 0
2.449999999998678 0.9499999999972085 0
2.599999999999098 1.266666666664763 0
2.749999999999508 1.583333333332294 0
1 3 0 0
1 4 0 0
1 5 0 0
1 6 0 4
34
35
36
37
3.484852813741519 2 0
3.82828427124578 2 0
4.171715728751325 2 0
4.515147186256574 2 0
1 7 0 0
1 8 0 0
1 9 0 0
1 10 0 5
38
39
40
41
42
5.249999999999696 1.583333333333973 0
5.399999999999302 1.26666666666814 0
5.549999999998946 0.9500000000022252 0
5.699999999999426 0.6333333333345463 0
5.849999999999751 0.3166666666671931 0
1 11 0 4
43
44
45
46
6.399999999999999 0 0
6.799999999999999 0 0
7.199999999999999 0 0
7.6 0 0
1 12 0 12
47
48
49
50
51
52
53
54
55
56
57
58
8 0.3846153846150596 0
8 0.7692307692298551 0
8 1.153846153844117 0
8 1.538461538458379 0
8 1.923076923072641 0
8 2.307692307688217 0
8 2.692307692304186 0
8 3.076923076920155 0
8 3.461538461536123 0
8 3.846153846152092 0
8 4.230769230768061 0
8 4.615384615384031 0
1 13 0 4
59
60
61
62
7.600000000000001 5 0
7.200000000000001 5 0
6.800000000000001 5 0
6.4 5 0
1 14 0 5
63
64
65
66
67
5.850000000000275 4.683333333333914 0
5.700000000000519 4.366666666667763 0
5.550000000000794 4.050000000001677 0
5.400000000000412 3.733333333334204 0
5.250000000000238 3.41666666666717 0
1 15 0 0
1 18 0 4
68
69
70
71
4.515147186258517 3 0
4.171715728754516 3 0
3.828284271249474 3 0
3.484852813743392 3 0
1 19 0 0
1 20 0 0
1 21 0 0
1 22 0 5
72
73
74
75
76
2.750000000000026 3.416666666666612 0
2.600000000000237 3.733333333332832 0
2.45000000000033 4.049999999999303 0
2.300000000000156 4.366666666666338 0
2.15000000000004 4.683333333333248 0
1 23 0 4
77
78
79
80
1.6 5 0
1.200000000002774 5 0
0.8000000000033287 5 0
0.4000000000016644 5 0
1 24 0 12
81
82
83
84
85
86
87
88
89
90
91
92
0 4.615384615384615 0
0 4.230769230769229 0
0 3.846153846153845 0
0 3.46153846153846 0
0 3.076923076923076 0
0 2.692307692307692 0
0 2.307692307692307 0
0 1.923076923076923 0
0 1.538461538461538 0
0 1.153846153846153 0
0 0.7692307692307692 0
0 0.384615384615385 0
2 1 0 314
93
94
95
96
97
98
99
100
101
102
103
104
105
106
107
108
109
110
111
112
113
114
115
116
117
118
119
120
121
122
123
124
125
126
127
128
129
130
131
132
133
134
135
136
137
138
139
140
141
142
143
144
145
146
147
148
149
150
151
152
153
154
155
156
157
158
159
160
161
162
163
164
165
166
167
168
169
170
171
172
173
174
175
176
177
178
179
180
181
182
183
184
185
186
187
188
189
190
191
192
193
194
195
196
197
198
199
200
201
202
203
204
205
206
207
208
209
210
211
212
213
214
215
216
217
218
219
220
221
222
223
224
225
226
227
228
229
230
231
232
233
234
235
236
237
238
239
240
241
242
243
244
245
246
247
248
249
250
251
252
253
254
255
256
257
258
259
260
261
262
263
264
265
266
267
268
269
270
271
272
273
274
275
276
277
278
279
280
281
282
283
284
285
286
287
288
289
290
291
292
293
294
295
296
297
298
299
300
301
302
303
304
305
306
307
308
309
310
311
312
313
314
315
316
317
318
319
320
321
322
323
324
325
326
327
328
329
330
331
332
333
334
335
336
337
338
339
340
341
342
343
344
345
346
347
348
349
350
351
352
353
354
355
356
357
358
359
360
361
362
363
364
365
366
367
368
369
370
371
372
373
374
375
376
377
378
379
380
381
382
383
384
385
386
387
388
389
390
391
392
393
394
395
396
397
398
399
400
401
402
403
404
405
406
2.968940970883802 2.045870553596941 0
5.014412732875321 2.040436840615866 0
2.985587267124676 2.959563159384131 0
5.0311860229783 2.953744002836356 0
5.380450971435684 1.83035701172788 0
5.395203971758818 3.175888617276946 0
2.619537299367098 3.169650691684733 0
2.604500800235888 1.830208467496613 0
7.675267875318547 2.494245268255579 0
0.3313674035576907 2.894595477226588 0
5.702574177374544 1.244807540925883 0
2.298668529606767 3.748079251197046 0
0.3355783425857474 1.738998533613893 0
5.884663939652224 4.075320718101597 0
2.282356721526227 1.215724765258934 0
7.666913306237727 1.346153846151248 0
7.617460076907267 3.606730784031777 0
0.3235509651571347 3.64370485128576 0
0.9964901232734823 0.3461047959704667 0
1.402564406915501 4.680755274007613 0
6.600000000000001 0.346410161513775 0
4.629043107080691 2.762909229730049 0
3.303045860803548 2.783484593536338 0
6.956401383016563 4.683639990258274 0
1.967570495937307 0.6081243442032345 0
0.3077994232614031 0.9661858728974529 0
5.29515823666979 2.048827969601632 0
5.506537286963054 2.026630100721362 0
5.406280782885256 2.21969790720975 0
5.623490030848903 2.212483637519449 0
5.731794711642924 2.008796239017077 0
5.855702667645121 2.207612457180951 0
5.971935873728912 1.992512562097053 0
6.109728767897865 2.204095943426827 0
6.232569079007636 1.973573080203516 0
6.378208922268389 2.200324118977086 0
6.244619842449468 2.440750881224883 0
6.511735927949069 1.954910162177735 0
6.53199500808863 2.441114829194347 0
6.385177006365449 2.704037389553133 0
6.697342357014525 2.698771064369402 0
6.538999489059784 2.980083830984928 0
5.737436744343849 2.397764571999775 0
6.866289057638046 2.975220574861092 0
6.703024346934113 3.266147470156895 0
6.35146739164663 1.714538455666728 0
6.649771651746672 1.692539538271685 0
6.476908190880992 1.431588348899582 0
6.826295138317211 1.920820534533382 0
6.386233202268404 3.277475687869195 0
6.535177207599114 3.566317407828004 0
6.800819726483969 1.408080287322354 0
2.747255928060456 2.950408315642596 0
2.502065125688461 2.973297270965267 0
2.601818471658292 2.779919847398846 0
2.382791048515281 2.790121532569088 0
2.276453344970654 2.982918037502461 0
2.151810357978716 2.793580294430015 0
2.040959096817155 3.000904323282277 0
1.90932171258284 2.796042004840623 0
1.79046179407828 3.017431324616946 0
1.652502507361588 2.799009485628911 0
1.782040412531085 2.569258078654286 0
1.507824567588586 2.567687457043096 0
1.522439617801041 3.033087693252849 0
1.651362356279086 2.319370000508187 0
1.354299270191148 2.321297258551511 0
1.507664578856108 2.052569868599726 0
2.264885707990434 2.599274909482444 0
1.674857586731189 3.266167235579561 0
1.396747815104609 3.29293791167097 0
1.553263093040422 3.539722708611927 0
1.215390128962923 3.058993867387881 0
1.249736767029828 3.568461391892999 0
1.198234245953294 2.057016939369722 0
1.354086096474212 1.775823760050519 0
1.041832296424847 2.335211215930071 0
1.818532785802026 2.06639494966038 0
2.802344850084026 2.758343037047711 0
2.698506918781927 2.604842312646768 0
2.877489351763741 2.590271366341317 0
2.784327596304013 2.44492218858247 0
2.947308980081632 2.438574611067431 0
2.857895700576035 2.302741949614468 0
2.691774757671656 2.322778751412368 0
3.012382073759794 2.297754525964543 0
2.786585432655547 2.157184574114362 0
1.415851126277179 3.836368053361017 0
1.075626752834225 3.85212269624699 0
5.205438714313666 2.215456198519801 0
5.313992456619857 2.391577789064057 0
5.135847867736119 2.402032139964608 0
5.229103183752614 2.551348804291312 0
6.880509047287282 3.563662868941112 0
6.703323474866002 3.871343334606778 0
0.600216011324756 4.648685884677523 0
7.400000000000002 0.3464101615137757 0
4.69247326366771 2.226025431419481 0
6.619297120756671 1.148975783293477 0
6.960659360686211 1.127223225912879 0
4.000513683221867 2.698703582149582 0
5.062520005392704 2.557490169776648 0
5.148965869419822 2.69169719822299 0
5.289652496373346 2.69014185413823 0
5.214215525922031 2.844258909265516 0
4.994359194487528 2.692603866114495 0
3.119984520222735 2.424310421114549 0
0.9844295434179973 1.757601904243076 0
1.190187982493524 1.480060560541969 0
1.531438722047442 1.481891781867936 0
1.36544032100934 1.19352969500656 0
7.058931740466161 3.868947742122016 0
5.025781930529917 2.259989880581852 0
7.014025860344099 2.692475520967611 0
7.217462019250684 2.952300820472701 0
1.013048063351115 1.174502397051584 0
5.448817935747565 2.786733113392133 0
5.623195093893521 3.02269217137732 0
6.102881096602388 2.673485522041136 0
2.174616105037176 3.206611368396954 0
1.921022577353031 4.346599810731759 0
6.02644745904108 0.6059701742068501 0
2.565241513773393 2.179697340674444 0
7.669282558054146 4.410036104573274 0
5.821101645399414 1.782906532155448 0
4.871066960726929 2.550182533024419 0
6.229626760373547 3.554719661841627 0
2.390430770392718 1.975934929525474 0
2.982142561001195 2.737405423826186 0
0.951282789457447 3.538638022018477 0
6.282640756284066 1.161737808647445 0
3.611065835236198 2.292283116011267 0
3.178325355036855 2.276871805170155 0
1.71009449436157 1.190417681973039 0
1.736105416739484 3.80192813333636 0
4.939943558416013 2.915597115479189 0
3.05873585765462 2.080841163628031 0
3.079937099023365 2.875600409750898 0
4.928252900343481 2.127737516752155 0
5.134926926969891 2.97593191507756 0
2.864970472319003 2.024865765372805 0
5.621408005979122 3.376064305361259 0
7.133501325378686 1.383713341470558 0
1.485585826152093 0.9208247661577715 0
1.852926487096591 1.500247872233516 0
1.306210094236225 4.139834328300872 0
0.9377585213547818 4.156502944234245 0
6.491950333470307 0.8989173331997208 0
5.908404722835702 3.182652248684488 0
5.070877243796941 2.803481500791996 0
3.325816771328988 2.392854034839491 0
2.516153020445003 2.38123825437586 0
7.351944944404901 1.112531687702599 0
7.104534717927395 0.7648584225082429 0
2.432156123171955 3.419090429450891 0
5.753447706408751 3.724412520233858 0
2.395807138106776 1.687876435557492 0
2.931414980817509 2.19344564342553 0
4.36368835439649 2.260893800960899 0
5.690945042125372 2.777142828334208 0
5.566358475346483 1.577805986184435 0
6.880421440128861 4.187108495165692 0
6.529712075890644 4.149377390059692 0
7.301946540541827 4.200891021444623 0
3.630160648927657 2.757689001573105 0
4.372395743207012 2.741045619571732 0
4.594221153210622 2.523018680169227 0
2.903589355216685 2.986517396352651 0
5.08166782626501 2.016860783447201 0
5.076195371071936 2.117021542812032 0
7.223305581342199 3.565300809005289 0
5.400596236457691 2.556710969239008 0
7.484271862987736 0.7611857369197422 0
6.984061103337766 0.3675141688462994 0
2.064137720352911 1.818524801351557 0
3.996466838979361 2.330974242784238 0
0.3216740819297715 3.259047690792876 0
0.6344809255603423 3.067540261097889 0
0.6394959933137885 2.725102070719685 0
0.3370788767760369 2.521826034475406 0
0.3472064852045331 2.14053547852466 0
0.6509858825225117 1.938069541824462 0
0.6454819944366187 1.563358235765511 0
0.6920882075038551 2.334276906619602 0
2.497901758236173 2.593502514432982 0
0.9974684668539499 4.667179853875851 0
2.13570818412967 4.047964108639658 0
0.3277412053113125 1.353587868595396 0
7.670866518548456 2.121879468040575 0
7.374984138476617 2.297258789435897 0
7.375119352935844 1.96844414794845 0
7.679436113287797 1.75464143577305 0
7.610789471135138 2.911588180756521 0
7.716000777618468 3.260123265040646 0
5.86050586211589 0.9297487026240693 0
0.3158244238871912 4.034000905437368 0
0.6787015508286617 3.838852129307111 0
5.513539695837563 2.391492574903988 0
6.566815272589794 4.705537255759128 0
7.666848743396196 4.033361493855894 0
0.5924605409814201 0.3837615713546129 0
0.8314444727584688 0.6299636659286204 0
1.195403480191735 0.676688581338779 0
1.404152065412067 0.3121570619978429 0
2.916809510085067 2.877972957000695 0
6.039760407677217 4.398735652609686 0
6.199241377864707 4.711762856099532 0
1.796623419458637 4.706548237714962 0
6.199241377865507 0.2882371439015226 0
6.170025713315811 1.468654232088064 0
1.800758622135523 0.288237143900212 0
2.133782678322554 0.929663554204694 0
0.9192999733035616 2.916035072850031 0
6.196559783785561 3.008612990338947 0
1.845958452665415 3.508012829198956 0
6.372842151572503 3.848118704917695 0
6.846445846182473 2.427186456871329 0
1.929818740493837 2.332258903198604 0
7.333929318565329 2.629613901459757 0
1.22953321471654 2.573486744695265 0
7.037262708634573 3.25987831857591 0
1.602813623856105 4.111411620841518 0
0.9171914046864866 3.218819741064021 0
0.6464066601119133 1.153144037593119 0
6.717382555883391 0.6439891465097315 0
1.688131065104882 1.782575505627273 0
0.3070076860135769 4.410704006021181 0
2.039954731869351 2.572200497505568 0
7.358554134791265 4.629147695656964 0
6.97998206096559 1.652474853696708 0
0.2877907920288379 0.5937930770939976 0
5.983334704718337 2.411300254005965 0
5.909025535871744 2.896537945215729 0
1.392852097115479 2.805529273539365 0
2.400965599647069 3.150313559600061 0
7.052788710474191 2.150399002233521 0
6.69124492554666 2.1824591839979 0
5.601248618157512 1.845299173961241 0
3.048324928530039 2.577461246752839 0
2.112810984820696 3.472368878030296 0
1.939944003358318 3.245249326517498 0
6.058960936441697 1.740026941227602 0
0.6236106750624857 3.397096393609246 0
2.119833683091479 2.118351610423156 0
2.186364270812098 2.387604375154729 0
4.956305775185468 2.404922209750924 0
7.388652913791374 3.850388492623853 0
4.790994990808477 2.394684182168142 0
5.889766348508815 1.50659026974505 0
0.9337523323650974 2.607975439600217 0
7.363717502004761 1.629832690967008 0
7.378264084487748 3.251736097990195 0
7.700626022726073 1.028589638769512 0
6.061540358667175 3.801452408887246 0
4.224451753539649 2.526861932791924 0
7.718613439276407 0.4997182321494472 0
0.5935498314532422 4.229454285146839 0
1.618159577953374 0.6049579681876942 0
1.565712586346498 4.413617238502005 0
6.204248500831596 4.122906702309652 0
5.606199088939197 2.579335293857665 0
0.913514035164501 2.084435301597386 0
2.360953034793561 2.255346298298854 0
6.361971930380356 0.59898925398573 0
3.123661463978486 2.705884950210645 0
4.945418804771183 2.808750534050568 0
4.809271812868747 2.698841041972877 0
4.782900518859639 2.86434965353878 0
6.372153977405683 4.413440884456211 0
3.056947981473119 2.183549061979759 0
3.775530340663024 2.533297485795509 0
4.878761772107011 2.282671844134511 0
3.387477966956746 2.21257288378322 0
6.016691234018955 1.217962896826876 0
5.930717498809239 3.47534443717546 0
3.475079387915616 2.552513551490446 0
3.232652155463235 2.572751466324052 0
1.189683497673787 4.42926522456969 0
2.637732810287754 2.46945680429009 0
1.99518878775471 3.753741399274369 0
7.124434774808542 2.439386734193623 0
0.2759584969055079 4.72418788038585 0
2.68528816489609 2.011315179530616 0
0.2819592496418715 0.2832288909231262 0
5.849947313458267 2.605083527189135 0
1.82018970293974 0.9242326638723811 0
0.8234660664963549 4.433377051320516 0
7.716843906763574 4.721209970726262 0
6.170816061757861 0.9070266720020467 0
1.984989716781949 1.230622443332911 0
2.165238279268731 1.479914556696647 0
0.9098521744311971 1.433038193152681 0
5.092443271206029 2.890166860066713 0
5.011010636362984 2.873417972362138 0
2.908265212458002 2.109368820456043 0
1.144570515091987 2.797863991838461 0
5.320634959177649 2.99230359698668 0
3.217960221850028 2.125639152426861 0
1.18021263374987 0.9851620239670812 0
1.870389035726251 4.020009472757422 0
6.706024711523378 4.402858011785987 0
0.8568746906815742 0.9442040858385875 0
7.105787021862247 1.879862729615262 0
7.75632761435532 0.2360187586249596 0
1.1556962445175 3.334863516786872 0
7.379019269506518 1.368057891572853 0
2.430832274628029 1.440928257485868 0
2.37166395611009 2.456495558717685 0
0.5617963836309148 0.775289965651474 0
6.132037390337393 3.315059137731047 0
2.988228969005252 2.124732429068858 0
5.165082045835811 2.062988050458447 0
7.047736760046773 4.41145125421488 0
6.777200100475731 0.9212827623956206 0
$EndNodes
$Elements
23 808 1 808
1 1 1 5
1 1 25 
2 25 26 
3 26 27 
4 27 28 
5 28 2 
1 2 1 6
6 2 29 
7 29 30 
8 30 31 
9 31 32 
10 32 33 
11 33 3 
1 3 1 1
12 3 4 
1 4 1 1
13 4 5 
1 5 1 1
14 5 6 
1 6 1 5
15 6 34 
16 34 35 
17 35 36 
18 36 37 
19 37 7 
1 7 1 1
20 7 8 
1 8 1 1
21 8 9 
1 9 1 1
22 9 10 
1 10 1 6
23 10 38 
24 38 39 
25 39 40 
26 40 41 
27 41 42 
28 42 11 
1 11 1 5
29 11 43 
30 43 44 
31 44 45 
32 45 46 
33 46 12 
1 12 1 13
34 12 47 
35 47 48 
36 48 49 
37 49 50 
38 50 51 
39 51 52 
40 52 53 
41 53 54 
42 54 55 
43 55 56 
44 56 57 
45 57 58 
46 58 13 
1 13 1 5
47 13 59 
48 59 60 
49 60 61 
50 61 62 
51 62 14 
1 14 1 6
52 14 63 
53 63 64 
54 64 65 
55 65 66 
56 66 67 
57 67 15 
1 15 1 1
58 15 16 
1 18 1 5
59 18 68 
60 68 69 
61 69 70 
62 70 71 
63 71 19 
1 19 1 1
64 19 20 
1 20 1 1
65 20 21 
1 21 1 1
66 21 22 
1 22 1 6
67 22 72 
68 72 73 
69 73 74 
70 74 75 
71 75 76 
72 76 23 
1 23 1 5
73 23 77 
74 77 78 
75 78 79 
76 79 80 
77 80 24 
1 24 1 13
78 24 81 
79 81 82 
80 82 83 
81 83 84 
82 84 85 
83 85 86 
84 86 87 
85 87 88 
86 88 89 
87 89 90 
88 90 91 
89 91 92 
90 92 1 
2 1 2 718
91 22 145 260 
92 10 97 119 
93 22 99 145 
94 22 72 99 
95 10 38 97 
96 115 19 230 
97 207 285 344 
98 109 263 344 
99 205 231 262 
100 190 7 231 
101 66 234 248 
102 259 218 359 
103 286 109 344 
104 66 67 234 
105 260 145 297 
106 37 7 190 
107 71 19 115 
108 246 189 265 
109 189 246 266 
110 251 190 259 
111 261 10 404 
112 328 309 329 
113 256 216 321 
114 182 205 262 
115 141 328 329 
116 265 48 345 
117 48 265 348 
118 285 207 311 
119 302 334 341 
120 221 230 297 
121 243 224 368 
122 10 119 404 
123 216 256 292 
124 238 351 370 
125 285 286 344 
126 106 65 248 
127 238 314 351 
128 3 233 375 
129 73 104 247 
130 332 307 333 
131 198 195 242 
132 173 172 174 
133 212 332 333 
134 334 217 341 
135 273 274 276 
136 114 259 359 
137 247 104 332 
138 39 103 253 
139 237 267 318 
140 69 193 258 
141 289 110 335 
142 193 70 257 
143 175 174 176 
144 218 259 340 
145 253 103 341 
146 194 185 195 
147 195 197 242 
148 65 66 248 
149 200 274 275 
150 222 289 335 
151 256 321 405 
152 119 121 182 
153 68 114 360 
154 209 264 353 
155 181 239 289 
156 267 170 318 
157 251 259 347 
158 213 314 392 
159 171 221 297 
160 236 295 350 
161 182 121 183 
162 33 3 100 
163 67 15 98 
164 15 232 389 
165 224 363 368 
166 193 268 347 
167 259 258 347 
168 176 179 250 
169 44 45 266 
170 37 190 251 
171 178 176 250 
172 222 181 289 
173 182 262 404 
174 145 171 297 
175 276 274 354 
176 209 210 389 
177 314 213 351 
178 268 193 363 
179 258 193 347 
180 171 147 172 
181 113 44 266 
182 88 105 273 
183 295 296 350 
184 273 105 274 
185 247 212 327 
186 45 189 266 
187 193 257 363 
188 259 190 340 
189 108 50 284 
190 272 87 273 
191 145 146 147 
192 171 172 173 
193 33 249 399 
194 171 173 221 
195 210 209 252 
196 184 183 185 
197 245 108 398 
198 33 100 249 
199 108 245 345 
200 363 257 368 
201 269 102 270 
202 119 120 121 
203 86 87 272 
204 305 165 315 
205 317 240 356 
206 306 241 325 
207 114 258 259 
208 272 273 276 
209 108 284 343 
210 34 365 390 
211 16 96 232 
212 224 35 268 
213 215 220 375 
214 4 93 233 
215 224 243 365 
216 253 217 330 
217 281 101 282 
218 20 95 230 
219 36 37 251 
220 87 88 273 
221 212 247 332 
222 50 51 284 
223 200 275 384 
224 52 101 281 
225 36 251 268 
226 161 320 337 
227 67 98 234 
228 85 102 269 
229 242 197 385 
230 270 102 271 
231 292 256 339 
232 55 109 286 
233 182 183 184 
234 241 306 402 
235 302 341 366 
236 145 147 171 
237 112 78 278 
238 322 235 343 
239 173 174 175 
240 295 391 394 
241 322 343 395 
242 209 196 264 
243 8 94 231 
244 252 209 353 
245 294 295 394 
246 221 173 331 
247 190 231 364 
248 320 310 337 
249 289 239 349 
250 172 147 277 
251 113 317 356 
252 296 28 303 
253 27 28 296 
254 263 109 339 
255 294 111 295 
256 274 105 275 
257 211 132 306 
258 281 282 283 
259 90 118 280 
260 194 195 198 
261 119 182 404 
262 101 53 285 
263 73 74 104 
264 169 276 354 
265 293 111 294 
266 68 69 258 
267 52 53 101 
268 85 86 102 
269 51 52 281 
270 147 146 148 
271 102 86 272 
272 70 71 257 
273 115 230 357 
274 83 110 288 
275 110 84 269 
276 106 248 346 
277 77 78 112 
278 288 110 289 
279 89 90 280 
280 182 184 205 
281 43 44 113 
282 79 188 278 
283 39 40 103 
284 145 99 146 
285 285 54 286 
286 185 183 264 
287 275 280 316 
288 116 61 291 
289 54 55 286 
290 351 112 370 
291 266 246 317 
292 51 281 284 
293 104 74 279 
294 108 343 398 
295 84 85 269 
296 325 252 377 
297 83 84 110 
298 35 36 268 
299 202 226 237 
300 78 79 278 
301 79 80 188 
302 61 62 291 
303 271 272 276 
304 267 237 383 
305 26 111 293 
306 53 54 285 
307 217 253 341 
308 350 117 378 
309 49 50 108 
310 211 325 377 
311 276 169 342 
312 82 83 288 
313 122 135 290 
314 119 97 120 
315 103 40 287 
316 88 89 105 
317 34 35 224 
318 101 285 311 
319 45 46 189 
320 60 61 116 
321 140 138 302 
322 295 111 296 
323 302 138 334 
324 55 56 109 
325 219 143 308 
326 214 356 381 
327 25 26 293 
328 121 122 290 
329 26 27 111 
330 111 27 296 
331 121 120 122 
332 75 213 279 
333 230 221 357 
334 77 112 300 
335 147 148 277 
336 109 56 292 
337 43 113 301 
338 129 211 324 
339 291 62 299 
340 148 161 277 
341 69 70 193 
342 20 21 95 
343 8 9 94 
344 4 5 93 
345 16 17 96 
346 113 266 317 
347 31 32 107 
348 105 89 280 
349 57 216 292 
350 202 237 318 
351 270 271 305 
352 56 57 292 
353 282 101 311 
354 74 75 279 
355 41 214 287 
356 132 134 306 
357 90 91 118 
358 234 210 241 
359 40 41 287 
360 57 58 216 
361 271 102 272 
362 164 162 307 
363 64 65 106 
364 72 73 247 
365 187 254 255 
366 223 140 302 
367 142 143 219 
368 30 31 304 
369 31 107 304 
370 63 64 298 
371 129 132 211 
372 307 162 333 
373 143 187 308 
374 249 220 267 
375 110 269 335 
376 281 283 284 
377 134 137 142 
378 38 39 253 
379 275 105 280 
380 75 76 213 
381 184 185 194 
382 41 42 214 
383 202 203 226 
384 170 160 318 
385 195 185 196 
386 168 201 202 
387 356 240 381 
388 250 179 387 
389 204 186 263 
390 64 106 298 
391 210 98 389 
392 59 60 321 
393 29 30 117 
394 227 164 307 
395 248 234 367 
396 280 118 316 
397 175 176 178 
398 160 168 318 
399 188 319 349 
400 226 203 236 
401 275 316 384 
402 187 255 308 
403 134 142 306 
404 81 82 319 
405 62 14 299 
406 293 294 401 
407 23 77 300 
408 142 137 143 
409 11 43 301 
410 191 140 223 
411 172 277 371 
412 98 210 234 
413 155 158 310 
414 263 186 313 
415 254 204 256 
416 28 2 303 
417 117 30 304 
418 91 92 323 
419 180 164 227 
420 202 201 203 
421 166 181 222 
422 211 306 325 
423 270 305 315 
424 144 192 235 
425 47 48 348 
426 159 156 312 
427 136 133 206 
428 224 268 363 
429 203 201 208 
430 155 310 320 
431 309 328 373 
432 133 131 309 
433 239 370 379 
434 187 204 254 
435 183 121 290 
436 143 186 187 
437 143 137 186 
438 207 206 311 
439 176 174 177 
440 245 246 265 
441 82 288 319 
442 187 186 204 
443 245 192 246 
444 236 350 378 
445 158 170 310 
446 14 63 299 
447 288 289 349 
448 134 136 137 
449 114 68 258 
450 158 160 170 
451 76 23 300 
452 42 11 301 
453 191 223 240 
454 270 315 335 
455 148 149 150 
456 136 206 207 
457 274 200 354 
458 71 115 257 
459 2 29 303 
460 60 116 321 
461 170 267 336 
462 150 151 152 
463 167 159 169 
464 315 222 335 
465 235 192 245 
466 168 200 201 
467 157 163 165 
468 180 227 314 
469 168 202 318 
470 181 238 239 
471 245 265 345 
472 206 133 309 
473 63 298 299 
474 152 153 154 
475 134 133 136 
476 100 220 249 
477 271 276 342 
478 268 251 347 
479 130 139 141 
480 295 236 391 
481 122 123 124 
482 100 3 375 
483 126 127 128 
484 277 244 371 
485 104 279 372 
486 126 128 129 
487 283 282 328 
488 213 76 300 
489 160 167 168 
490 152 154 155 
491 181 180 238 
492 168 167 200 
493 214 42 301 
494 144 140 191 
495 118 91 323 
496 132 133 134 
497 48 49 345 
498 144 191 192 
499 148 150 161 
500 137 136 313 
501 124 125 126 
502 186 137 313 
503 80 24 374 
504 169 159 312 
505 296 303 350 
506 24 81 374 
507 1 25 376 
508 238 180 314 
509 136 207 313 
510 231 205 364 
511 29 117 303 
512 166 180 181 
513 92 1 376 
514 323 293 401 
515 144 235 322 
516 139 140 144 
517 160 159 167 
518 99 72 247 
519 173 175 331 
520 158 156 159 
521 265 189 348 
522 166 164 180 
523 239 238 370 
524 158 159 160 
525 32 33 399 
526 139 138 140 
527 132 131 133 
528 128 127 130 
529 122 124 135 
530 98 15 389 
531 279 213 392 
532 129 131 132 
533 315 165 397 
534 154 153 157 
535 97 38 253 
536 316 208 384 
537 155 156 158 
538 188 349 379 
539 130 127 138 
540 152 151 153 
541 307 332 372 
542 126 125 127 
543 174 172 371 
544 163 164 166 
545 99 247 327 
546 197 232 385 
547 306 142 402 
548 155 154 156 
549 256 204 339 
550 157 153 162 
551 249 267 383 
552 130 138 139 
553 163 162 164 
554 312 156 326 
555 148 146 149 
556 116 291 393 
557 150 152 320 
558 220 100 375 
559 210 252 325 
560 150 149 151 
561 122 120 123 
562 13 59 380 
563 129 128 131 
564 157 162 163 
565 355 244 400 
566 300 112 351 
567 141 139 322 
568 264 183 290 
569 58 13 380 
570 97 253 330 
571 269 270 335 
572 241 210 325 
573 309 131 329 
574 124 123 125 
575 321 116 405 
576 139 144 322 
577 301 113 356 
578 341 103 366 
579 220 215 355 
580 291 299 361 
581 372 279 392 
582 157 165 326 
583 166 222 397 
584 179 233 387 
585 125 123 217 
586 124 126 324 
587 282 311 373 
588 151 149 212 
589 205 338 364 
590 130 141 329 
591 240 317 406 
592 337 336 355 
593 311 206 373 
594 156 154 326 
595 126 129 324 
596 152 155 320 
597 154 157 326 
598 267 220 336 
599 394 316 401 
600 257 115 368 
601 103 287 366 
602 128 130 329 
603 246 192 406 
604 236 203 391 
605 116 393 405 
606 337 355 400 
607 316 118 401 
608 222 315 397 
609 346 248 367 
610 310 170 336 
611 201 200 384 
612 109 292 339 
613 175 199 331 
614 378 304 382 
615 115 357 369 
616 131 128 329 
617 317 246 406 
618 219 346 367 
619 219 308 346 
620 146 99 327 
621 161 150 320 
622 234 241 367 
623 200 167 354 
624 263 313 344 
625 49 108 345 
626 204 263 339 
627 304 107 382 
628 368 115 369 
629 290 135 353 
630 138 127 334 
631 324 211 377 
632 287 214 381 
633 310 336 337 
634 205 184 338 
635 189 46 396 
636 191 240 406 
637 284 283 343 
638 346 308 352 
639 135 124 324 
640 112 278 370 
641 336 220 355 
642 117 304 378 
643 120 97 330 
644 305 271 342 
645 162 153 333 
646 149 146 327 
647 244 177 371 
648 127 125 334 
649 366 287 381 
650 153 151 333 
651 34 224 365 
652 123 120 330 
653 106 346 352 
654 221 331 357 
655 165 163 397 
656 165 305 388 
657 370 278 379 
658 161 337 400 
659 308 255 352 
660 305 342 388 
661 298 106 352 
662 59 321 380 
663 217 123 330 
664 169 312 342 
665 215 177 244 
666 313 207 344 
667 125 217 334 
668 343 283 395 
669 342 312 388 
670 151 212 333 
671 212 149 327 
672 365 225 390 
673 199 178 225 
674 213 300 351 
675 319 288 349 
676 303 117 350 
677 353 135 377 
678 46 12 396 
679 352 255 361 
680 332 104 372 
681 298 352 361 
682 278 188 379 
683 188 80 374 
684 167 169 354 
685 25 293 376 
686 328 141 395 
687 175 178 199 
688 195 196 197 
689 176 177 179 
690 321 216 380 
691 12 47 396 
692 198 242 358 
693 264 290 353 
694 244 277 400 
695 338 340 364 
696 81 319 374 
697 299 298 361 
698 225 178 362 
699 237 226 382 
700 199 225 243 
701 194 198 218 
702 142 219 402 
703 223 302 366 
704 214 301 356 
705 323 92 376 
706 226 378 382 
707 216 58 380 
708 141 322 395 
709 328 282 373 
710 223 366 381 
711 107 32 399 
712 177 174 371 
713 226 236 378 
714 94 9 261 
715 95 21 260 
716 184 194 338 
717 348 189 396 
718 196 185 264 
719 232 96 385 
720 208 201 384 
721 277 161 400 
722 233 93 387 
723 94 261 262 
724 227 372 392 
725 240 223 381 
726 227 307 372 
727 178 250 362 
728 338 218 340 
729 235 245 398 
730 208 316 394 
731 319 188 374 
732 233 179 375 
733 255 254 393 
734 252 353 377 
735 203 208 391 
736 206 309 373 
737 314 227 392 
738 9 10 261 
739 21 22 260 
740 293 323 376 
741 232 197 389 
742 254 256 405 
743 393 254 405 
744 243 368 369 
745 243 225 365 
746 215 244 355 
747 163 166 397 
748 291 361 393 
749 361 255 393 
750 391 208 394 
751 192 191 406 
752 194 218 338 
753 93 5 229 
754 387 93 403 
755 5 6 229 
756 358 228 360 
757 312 326 388 
758 118 323 401 
759 95 260 297 
760 362 229 390 
761 294 394 401 
762 135 324 377 
763 228 18 360 
764 283 328 395 
765 326 165 388 
766 198 358 359 
767 218 198 359 
768 199 243 369 
769 385 96 386 
770 19 20 230 
771 197 196 209 
772 179 177 215 
773 17 18 228 
774 349 239 379 
775 15 16 232 
776 3 4 233 
777 237 382 383 
778 7 8 231 
779 96 17 228 
780 382 107 383 
781 331 199 369 
782 362 250 403 
783 343 235 398 
784 357 331 369 
785 359 358 360 
786 197 209 389 
787 47 348 396 
788 262 261 404 
789 358 242 386 
790 340 190 364 
791 367 241 402 
792 225 362 390 
793 249 383 399 
794 229 6 390 
795 179 215 375 
796 250 387 403 
797 93 229 403 
798 219 367 402 
799 383 107 399 
800 229 362 403 
801 242 385 386 
802 228 358 386 
803 96 228 386 
804 114 359 360 
805 6 34 390 
806 18 68 360 
807 231 94 262 
808 230 95 297 
$EndElements
