$MeshFormat
4.1 0 8
$EndMeshFormat
$Entities
10 9 1 0
1 0 0 0 0 
2 1 0 0 0 
3 1 0.95 0 0 
4 1.05 1 0 0 
5 2 1 0 0 
6 2 2 0 0 
7 0 2 0 0 
8 1 0.9 0 0 
9 1.1 1 0 0 
10 1.05 0.95 0 0 
1 0 0 0 1 0 0 1 1 2 1 -2 
2 1 0 0 1 0.9 0 1 3 2 2 -8 
3 1 0.9 0 1 0.95 0 1 3 2 8 -3 
4 1 0.95 0 1.05 1 0 1 3 2 3 -4 
5 1.05 1 0 1.1 1 0 1 3 2 4 -9 
6 1.1 1 0 2 1 0 1 3 2 9 -5 
7 2 1 0 2 2 0 1 2 2 5 -6 
8 0 2 0 2 2 0 1 3 2 6 -7 
9 0 0 0 0 2 0 1 3 2 7 -1 
1 0 0 0 2 2 0 1 1 9 1 2 3 4 5 6 7 8 9 
$EndEntities
$Nodes
19 1074 1 1074
0 1 0 1
1
0 0 0
0 2 0 1
2
1 0 0
0 3 0 1
3
1 0.95 0
0 4 0 1
4
1.05 1 0
0 5 0 1
5
2 1 0
0 6 0 1
6
2 2 0
0 7 0 1
7
0 2 0
0 8 0 1
8
1 0.9 0
0 9 0 1
9
1.1 1 0
1 1 0 14
10
11
12
13
14
15
16
17
18
19
20
21
22
23
0.06666666666653252 0 0
0.1333333333330849 0 0
0.1999999999995571 0 0
0.2666666666660293 0 0
0.3333333333325014 0 0
0.3999999999989736 0 0
0.4666666666654457 0 0
0.5333333333321028 0 0
0.5999999999989452 0 0
0.6666666666657877 0 0
0.7333333333326302 0 0
0.7999999999994725 0 0
0.866666666666315 0 0
0.9333333333331575 0 0
1 2 0 12
24
25
26
27
28
29
30
31
32
33
34
35
1 0.06923076923063858 0
1 0.1384615384612682 0
1 0.2076923076918363 0
1 0.2769230769224045 0
1 0.3461538461529727 0
1 0.4153846153835408 0
1 0.4846153846142909 0
1 0.5538461538452422 0
1 0.6230769230761938 0
1 0.6923076923071453 0
1 0.7615384615380968 0
1 0.8307692307690484 0
1 3 0 1
36
1 0.9288283977571195 0
1 4 0 3
37
38
39
1.003806023471334 0.9691341718521885 0
1.014644661119249 0.9853553392379037 0
1.030865828381203 0.9961939766253395 0
1 5 0 1
40
1.07117160224279 1 0
1 6 0 12
41
42
43
44
45
46
47
48
49
50
51
52
1.169230769230536 1 0
1.238461538461071 1 0
1.307692307691607 1 0
1.376923076922143 1 0
1.446153846152765 1 0
1.515384615383474 1 0
1.58461538461431 1 0
1.653846153845273 1 0
1.723076923076322 1 0
1.792307692307352 1 0
1.861538461538235 1 0
1.930769230769117 1 0
1 7 0 14
53
54
55
56
57
58
59
60
61
62
63
64
65
66
2 1.066666666666667 0
2 1.133333333333334 0
2 1.2 0
2 1.266666666666667 0
2 1.333333333333333 0
2 1.4 0
2 1.466666666666667 0
2 1.533333333333333 0
2 1.6 0
2 1.666666666666667 0
2 1.733333333333333 0
2 1.8 0
2 1.866666666666667 0
2 1.933333333333333 0
1 8 0 28
67
68
69
70
71
72
73
74
75
76
77
78
79
80
81
82
83
84
85
86
87
88
89
90
91
92
93
94
1.931034482758334 2 0
1.862068965516667 2 0
1.793103448275001 2 0
1.724137931033622 2 0
1.655172413792721 2 0
1.586206896551821 2 0
1.51724137931092 2 0
1.44827586207002 2 0
1.379310344829119 2 0
1.310344827588219 2 0
1.241379310347318 2 0
1.172413793106418 2 0
1.103448275865517 2 0
1.034482758624617 2 0
0.9655172413833331 2 0
0.896551724141667 2 0
0.8275862069000004 2 0
0.7586206896583336 2 0
0.6896551724166671 2 0
0.6206896551750003 2 0
0.5517241379333337 2 0
0.482758620691667 2 0
0.4137931034500002 2 0
0.3448275862083336 2 0
0.2758620689666669 2 0
0.2068965517250003 2 0
0.1379310344833333 2 0
0.06896551724166677 2 0
1 9 0 28
95
96
97
98
99
100
101
102
103
104
105
106
107
108
109
110
111
112
113
114
115
116
117
118
119
120
121
122
0 1.931034482758334 0
0 1.862068965516667 0
0 1.793103448275001 0
0 1.724137931033622 0
0 1.655172413792721 0
0 1.586206896551821 0
0 1.51724137931092 0
0 1.44827586207002 0
0 1.379310344829119 0
0 1.310344827588219 0
0 1.241379310347318 0
0 1.172413793106418 0
0 1.103448275865517 0
0 1.034482758624617 0
0 0.9655172413833331 0
0 0.896551724141667 0
0 0.8275862069000004 0
0 0.7586206896583336 0
0 0.6896551724166671 0
0 0.6206896551750003 0
0 0.5517241379333337 0
0 0.482758620691667 0
0 0.4137931034500002 0
0 0.3448275862083336 0
0 0.2758620689666669 0
0 0.2068965517250003 0
0 0.1379310344833333 0
0 0.06896551724166677 0
2 1 0 952
123
124
125
126
127
128
129
130
131
132
133
134
135
136
137
138
139
140
141
142
143
144
145
146
147
148
149
150
151
152
153
154
155
156
157
158
159
160
161
162
163
164
165
166
167
168
169
170
171
172
173
174
175
176
177
178
179
180
181
182
183
184
185
186
187
188
189
190
191
192
193
194
195
196
197
198
199
200
201
202
203
204
205
206
207
208
209
210
211
212
213
214
215
216
217
218
219
220
221
222
223
224
225
226
227
228
229
230
231
232
233
234
235
236
237
238
239
240
241
242
243
244
245
246
247
248
249
250
251
252
253
254
255
256
257
258
259
260
261
262
263
264
265
266
267
268
269
270
271
272
273
274
275
276
277
278
279
280
281
282
283
284
285
286
287
288
289
290
291
292
293
294
295
296
297
298
299
300
301
302
303
304
305
306
307
308
309
310
311
312
313
314
315
316
317
318
319
320
321
322
323
324
325
326
327
328
329
330
331
332
333
334
335
336
337
338
339
340
341
342
343
344
345
346
347
348
349
350
351
352
353
354
355
356
357
358
359
360
361
362
363
364
365
366
367
368
369
370
371
372
373
374
375
376
377
378
379
380
381
382
383
384
385
386
387
388
389
390
391
392
393
394
395
396
397
398
399
400
401
402
403
404
405
406
407
408
409
410
411
412
413
414
415
416
417
418
419
420
421
422
423
424
425
426
427
428
429
430
431
432
433
434
435
436
437
438
439
440
441
442
443
444
445
446
447
448
449
450
451
452
453
454
455
456
457
458
459
460
461
462
463
464
465
466
467
468
469
470
471
472
473
474
475
476
477
478
479
480
481
482
483
484
485
486
487
488
489
490
491
492
493
494
495
496
497
498
499
500
501
502
503
504
505
506
507
508
509
510
511
512
513
514
515
516
517
518
519
520
521
522
523
524
525
526
527
528
529
530
531
532
533
534
535
536
537
538
539
540
541
542
543
544
545
546
547
548
549
550
551
552
553
554
555
556
557
558
559
560
561
562
563
564
565
566
567
568
569
570
571
572
573
574
575
576
577
578
579
580
581
582
583
584
585
586
587
588
589
590
591
592
593
594
595
596
597
598
599
600
601
602
603
604
605
606
607
608
609
610
611
612
613
614
615
616
617
618
619
620
621
622
623
624
625
626
627
628
629
630
631
632
633
634
635
636
637
638
639
640
641
642
643
644
645
646
647
648
649
650
651
652
653
654
655
656
657
658
659
660
661
662
663
664
665
666
667
668
669
670
671
672
673
674
675
676
677
678
679
680
681
682
683
684
685
686
687
688
689
690
691
692
693
694
695
696
697
698
699
700
701
702
703
704
705
706
707
708
709
710
711
712
713
714
715
716
717
718
719
720
721
722
723
724
725
726
727
728
729
730
731
732
733
734
735
736
737
738
739
740
741
742
743
744
745
746
747
748
749
750
751
752
753
754
755
756
757
758
759
760
761
762
763
764
765
766
767
768
769
770
771
772
773
774
775
776
777
778
779
780
781
782
783
784
785
786
787
788
789
790
791
792
793
794
795
796
797
798
799
800
801
802
803
804
805
806
807
808
809
810
811
812
813
814
815
816
817
818
819
820
821
822
823
824
825
826
827
828
829
830
831
832
833
834
835
836
837
838
839
840
841
842
843
844
845
846
847
848
849
850
851
852
853
854
855
856
857
858
859
860
861
862
863
864
865
866
867
868
869
870
871
872
873
874
875
876
877
878
879
880
881
882
883
884
885
886
887
888
889
890
891
892
893
894
895
896
897
898
899
900
901
902
903
904
905
906
907
908
909
910
911
912
913
914
915
916
917
918
919
920
921
922
923
924
925
926
927
928
929
930
931
932
933
934
935
936
937
938
939
940
941
942
943
944
945
946
947
948
949
950
951
952
953
954
955
956
957
958
959
960
961
962
963
964
965
966
967
968
969
970
971
972
973
974
975
976
977
978
979
980
981
982
983
984
985
986
987
988
989
990
991
992
993
994
995
996
997
998
999
1000
1001
1002
1003
1004
1005
1006
1007
1008
1009
1010
1011
1012
1013
1014
1015
1016
1017
1018
1019
1020
1021
1022
1023
1024
1025
1026
1027
1028
1029
1030
1031
1032
1033
1034
1035
1036
1037
1038
1039
1040
1041
1042
1043
1044
1045
1046
1047
1048
1049
1050
1051
1052
1053
1054
1055
1056
1057
1058
1059
1060
1061
1062
1063
1064
1065
1066
1067
1068
1069
1070
1071
1072
1073
1074
1.059597786105874 1.018078310767308 0
0.9816802948926391 0.9398352931587367 0
0.05488964181016011 1.345045485902397 0
0.99497293545933 0.9854138406809786 0
0.6551734437691663 1.942586598149467 0
0.9310344827625 1.940274110083749 0
0.06792936808071201 1.06389906181127 0
0.4999999999987742 0.05773502691887417 0
1.940510278149161 1.509803841671197 0
1.412198157383214 1.941197135383945 0
0.05718114729992858 0.5864224581256803 0
1.205776610877707 1.058193814418099 0
0.9440564013361536 0.7902395044184864 0
1.480996823424838 1.059957443761676 0
0.9409881384688812 0.5119401660458668 0
0.05602570593380258 1.56026649854543 0
1.130521021608138 1.93191795975971 0
0.05740494237832856 0.8597472894595559 0
0.440715750700832 1.946472601029047 0
1.617567284981912 1.946913255839827 0
0.05650285957270954 0.3753464184646223 0
1.690193672999282 1.060508201331991 0
0.9369590531715766 0.3032459075818648 0
1.947060591509021 1.70767757310194 0
0.3001099875023394 0.05615916472306267 0
0.7000494169891167 0.05781108430982774 0
1.94545304574962 1.30519281457298 0
0.05972588991596081 1.758620689654311 0
0.2414848264881479 1.945810506297996 0
0.05882540578219211 1.206004116867039 0
0.7953962927985521 1.942922371932275 0
1.275862188324374 1.940526079361487 0
0.06242797175757234 0.7231752555127741 0
0.05965010485946537 0.2412244678346394 0
1.756358621476483 1.942473503376072 0
1.343254288103389 1.053893030779288 0
0.9416452051677223 0.6592183877856614 0
0.9409561068595417 0.1766907181692639 0
1.827700870974559 1.061476262775306 0
1.934363304905902 1.82547875871391 0
0.1682442113261958 0.04582331517098705 0
0.8396831763375401 0.06918364692985204 0
1.941016650934012 1.16333737071232 0
0.1061750895230708 1.941844817209398 0
1.006807088147645 1.002349231561078 0
0.9855832945634679 1.004535227645611 0
0.9972215812825925 1.022349311927943 0
0.9750009912094432 1.024107387451992 0
0.9882111662369697 1.044171496197264 0
0.9635862810108478 1.045714010706978 0
0.9779920935348472 1.067278438335948 0
0.9511779413888588 1.069122297526095 0
0.9665052582732292 1.092124952722884 0
0.9382034202173271 1.094023770918859 0
0.9541004019644898 1.118320361127639 0
0.92437536152524 1.120471221442151 0
0.9413424119580003 1.146069850888299 0
0.9098203826493846 1.148364269615682 0
0.8922634782403166 1.121138827091845 0
0.8763132306394953 1.15044450729094 0
0.8580481844378678 1.121499628541863 0
0.8413753511180567 1.152654481261631 0
0.9278962012093527 1.174775978705411 0
0.8217799339315787 1.122377430400544 0
0.8044687996268403 1.154714015890732 0
0.7844242891730894 1.123076186880841 0
0.7665570228015481 1.156775862205513 0
0.7874314205806235 1.189014049378176 0
0.7481718586991768 1.191554497584972 0
0.7456519515181501 1.123181090903528 0
0.7702916617828792 1.225308539215239 0
0.7292688166080011 1.227799878648339 0
0.7528070506195248 1.263327006915423 0
0.7095994131945914 1.265588567159965 0
0.7341317196063821 1.302583251010401 0
0.6891173871581153 1.304865459135747 0
0.664833255610867 1.267028166177632 0
0.6432701029497304 1.307467375690753 0
0.713931875562193 1.342725616263242 0
0.7595886375652162 1.339384929766557 0
0.6179194001959236 1.267898447307151 0
0.5959323709581895 1.31005188370748 0
0.7394333206223795 1.381064782123914 0
0.7858630201998534 1.377502692626331 0
0.8014827060241353 1.09127684097037 0
0.9525388708817727 1.024192908414005 0
0.5697929951668345 1.269157620773778 0
0.5471079001240352 1.312771078344053 0
0.7654934549285664 1.420317471671185 0
0.8140046416406168 1.416296924299963 0
0.5206390464757668 1.27089618648524 0
0.7924107655082624 1.460595878293387 0
0.8418734808670605 1.456680593929486 0
0.7432632404594245 1.463800067052938 0
0.4968242397947782 1.315645407799416 0
0.5419452302178864 1.227976504196948 0
0.4932964663619597 1.228985278829879 0
0.515436354445126 1.18496980353867 0
0.9612149728415226 1.172957419210371 0
0.8199244567932392 1.502136415862374 0
0.8703133739184791 1.498362938210504 0
0.5248211619943722 1.358396593592432 0
0.4728355191483464 1.361570740736455 0
0.5012557418928144 1.406078232759281 0
0.8921939039330322 1.45200970784526 0
0.921609560623236 1.493522940835365 0
0.9432457152096203 1.447395481259465 0
0.9742559917608333 1.489695558463458 0
0.9967165277138557 1.441712264241784 0
1.028232833532881 1.485943712078724 0
0.4657668353884565 1.186016057023219 0
0.4909284876585103 1.139647297029824 0
1.052775254372463 1.435148288043122 0
1.090316162110613 1.489676626154363 0
1.111864651634405 1.429986425378914 0
1.14665973372149 1.477657233021584 0
0.9944770426929578 1.089330673766157 0
0.848411950625154 1.545090615702678 0
0.4476367817769903 1.409337995918549 0
0.4779732671809412 1.455562930940084 0
1.004457686972488 1.533610043252586 0
0.4391139627600752 1.141252850651711 0
0.4642927213624239 1.093948657267722 0
1.170888047646049 1.422583606006659 0
1.207074662536702 1.475447318555905 0
1.23258178057462 1.416510656053011 0
1.269661969986906 1.470756093892104 0
0.4142453323357664 1.189232137277062 0
1.296251235508645 1.410534764480065 0
1.33331176174499 1.461978375085607 0
1.179502148624281 1.533742245179897 0
0.4220015537650453 1.458583026040389 0
0.4534724457233568 1.506497707697346 0
0.4102061290504825 1.095745719411268 0
0.436293190037382 1.0480664682124 0
0.4907056839584669 1.046543954888972 0
0.4633221158085097 1.000434558550728 0
0.5175775300957357 0.999191060686785 0
0.4896272580570169 0.9518514110478171 0
0.5447348202131175 0.9508426493263086 0
0.5160466235452175 0.9020233083828089 0
0.4625959542871989 0.8991024022355036 0
0.486889444290654 0.8516845151680517 0
0.5436808011169816 0.8519396794865551 0
0.5132540440212838 0.8009840043278281 0
0.4614247747194481 0.7943093298601372 0
0.4847191121813477 0.7477486932180311 0
0.5387687756463093 0.7486071264859647 0
0.5103272424986651 0.6935045611320584 0
0.4519504396822843 0.6961269329416362 0
0.4794526693784328 0.6448213978441276 0
0.5378581028445342 0.6418958432807081 0
0.5077423417171143 0.5889168819538936 0
0.4473204751165883 0.5963242815304993 0
0.4790204737548709 0.5323240692555207 0
0.5490168764369727 0.5398613890110936 0
0.5109777031520037 0.4774398794061364 0
1.36034773750466 1.403924337957654 0
1.397764152935731 1.455620218559146 0
1.425126271774577 1.397517719144715 0
1.462720410663007 1.450673955737856 0
1.435281870673047 1.509964096284909 0
1.500166906191567 1.50448260332889 0
1.527826100024837 1.444908289441489 0
0.4468210667891749 0.4777658976931742 0
1.565737404855046 1.498518507414996 0
0.3817634215705868 1.048542584184844 0
0.5754134153536037 0.4756548301296951 0
0.3955096733871529 1.509354336090185 0
0.427262315562099 1.55791670893687 0
0.4860558829072866 1.554761053993931 0
1.53783648710954 1.5584026128447 0
0.3918321366837885 1.411017320578705 0
1.593242039004721 1.438826617694234 0
1.134592601568368 1.37456375446565 0
0.9460101915601085 1.205888699477502 0
0.3682844285182149 1.561882141658833 0
1.603780952937035 1.552376323135211 0
0.5416387461759015 0.4195786343721046 0
0.4597400072745469 1.606812505947147 0
0.5188975732194387 1.603177442678773 0
0.606715801598312 0.4184601813714839 0
0.9846452383563569 1.202303145507404 0
1.575939806915777 1.612240449230701 0
0.5730539744965947 0.3620723586257176 0
0.6387911325842733 0.3611133119998289 0
1.641947433434912 1.606397607269189 0
0.645900090845989 0.48137335349065 0
0.5408494610409107 1.148391835891036 0
0.4925592148045728 1.656624555879515 0
0.5525119296855197 1.652719028176315 0
0.8051056682380262 1.334783351055615 0
1.259746304802288 1.360615874612497 0
0.9686184487366216 1.238343307243906 0
0.9226560820407206 1.069685123296526 0
1.387398194546605 1.344461893942914 0
0.5075005845842299 0.3632598097487366 0
1.309712340193223 1.521634106892333 0
1.669772505749576 1.546258182683868 0
1.509831063051833 1.618199328752957 0
1.555231558510039 1.385241475295165 0
1.620903097007678 1.378940906485775 0
1.582722391734898 1.324949265199353 0
1.648784790362422 1.318670350376804 0
0.5732383691676293 0.9989775810672564 0
1.687038694470813 1.372744280831025 0
0.4337195010275903 1.660536921377586 0
0.335959657330942 1.511120787121341 0
0.3078529158129482 1.565476319592674 0
0.5998629316208381 0.9504878162586198 0
0.3545217713268641 1.098785125133875 0
0.3240797905244631 1.050807689404787 0
0.2968263142833921 1.102371249040465 0
0.7963090197797948 1.548516344456759 0
0.8255854586240845 1.592841572266689 0
0.604981294014622 0.3044264578254611 0
0.6712190004180509 0.3034597205282877 0
0.7051246114197636 0.3605316978085476 0
1.547997575107127 1.672457969304036 0
1.481530121062647 1.678404176187511 0
0.5297927417397036 1.456459702979618 0
0.7070656381916745 1.193428574239376 0
0.7715663593008587 1.596242264516922 0
0.8016618201137456 1.642515408378422 0
0.8576373945362904 1.638433215247056 0
0.8331354837510074 1.689815902044323 0
0.8911248144969367 1.685280814659951 0
0.7757035606819178 1.693244554469883 0
1.010176085296243 1.234845748938295 0
1.026573206967074 1.195035103998171 0
0.5258141306617045 1.706928067852018 0
0.8604925087689717 1.180703224787227 0
0.2744379321760634 1.512689762516146 0
1.708155222716879 1.600428969859205 0
1.680193325025392 1.660809372925051 0
1.053620720177612 1.229945209738622 0
1.715142124401819 1.312510207631124 0
0.6279785045088617 0.9963089054106899 0
0.6530079527494103 0.9499079299023324 0
0.5729428000412746 1.600159683435565 0
0.2652625378433567 1.052263637267457 0
0.2943888187054339 0.9989988038775187 0
0.9275721648953559 1.241318867370134 0
0.9509085095651276 1.27602987149029 0
0.9743577676425672 0.9872201085309548 0
1.519975178256672 1.733052935319811 0
1.453441430169033 1.73891562888265 0
0.2332275017861004 1.001067551322878 0
0.2627200208648731 0.946927319569714 0
0.8656693535613489 1.738501749471164 0
0.9233475758805036 1.733204541456181 0
1.753576762168725 1.366867057378697 0
0.6902980422449524 1.380677442109207 0
1.610260121914146 1.264198912905669 0
0.5866309581322461 1.702916034627488 0
0.5596100380254911 1.758098957314213 0
0.4978148421412152 1.762050827469113 0
0.6209473204256971 1.753658412737315 0
0.7379446243226448 0.3024083678797727 0
1.07262895519275 1.187055577461736 0
1.100574337653565 1.226722469111462 0
0.2373830839534113 1.104817850269264 0
0.2697571769551068 1.155521957752022 0
0.2456456653454163 1.568266596485803 0
0.2799827633001583 1.621100556583172 0
1.414979989506878 1.684226167832966 0
1.386815801106456 1.744635100728387 0
1.348690280143984 1.690946827318771 0
1.320451589445403 1.750404096608511 0
1.282487801773814 1.697022298272715 0
1.254377325825902 1.756019373767946 0
1.216724990032032 1.702195720759513 0
0.6791131734137086 0.996201746805478 0
0.7059497592765758 0.9505474251558849 0
0.6787434647665993 0.9021894845977214 0
0.7341620956974702 0.9024341782450889 0
0.7058202521234915 0.8525642445358605 0
0.76096417260148 0.9501684943519065 0
1.544273220652006 1.270949167794982 0
1.735866252379347 1.540077029859103 0
1.188815161684412 1.761088953759067 0
1.151590073181276 1.708102957576048 0
1.124007440700371 1.766393521232013 0
1.035020981774468 1.267686910354033 0
0.6553200827662493 1.039501436754648 0
0.2162981948578501 1.624573006756153 0
0.2515722127956488 1.678707933861377 0
0.6372519118049541 0.2464971220750093 0
0.5709557397669175 0.2475178087349332 0
0.7702330829371746 0.3611493179375925 0
1.746634382162378 1.654812094672419 0
1.718571446828736 1.715400672790426 0
0.4458292064833054 1.317942872239477 0
0.7891998984548882 0.9027129466458649 0
0.816623729425739 0.9491656865061182 0
0.9170034642035263 1.397571896644278 0
1.011148138005125 1.039657225690821 0
0.9447828653697879 1.675821543608339 0
0.2120155375530969 1.515212605708502 0
0.2411935537887359 1.459426724898454 0
0.6032365079212121 0.1931739457542173 0
1.571753642529012 1.2121395510835 0
1.506107099589715 1.220563124329064 0
0.9083370298226467 1.278607054615677 0
1.491921187285667 1.79391879655335 0
1.558525947190489 1.787896217091871 0
0.1798861053999521 1.462640184166583 0
0.2101630844191927 1.407434844908138 0
1.781722294470495 1.306426536512758 0
1.743145822126847 1.251842730993051 0
0.5319705921023753 1.814207058565564 0
0.200229841316052 0.9486957533160383 0
0.2302359505472496 0.8936913926491669 0
0.2930828408196379 0.8927586112784969 0
0.261014445655701 0.8382535686875999 0
0.2114780917517586 1.156953077563112 0
0.2424857360361873 1.206605375145813 0
1.785342849914873 1.709459062412502 0
1.813331165055224 1.648644257836748 0
1.756983512830133 1.768801784947293 0
0.8989830189711716 1.788192133592724 0
0.956609429622831 1.781797221521775 0
0.8388204051671897 1.792276678818343 0
1.121050698842607 1.179848905633352 0
1.088726384668157 1.142565819911475 0
1.154116573079722 1.223217554903129 0
0.8429334130411347 0.9038199577412392 0
0.8183784484802429 0.8553740314085387 0
0.873279999687706 0.9507562557041415 0
0.8935658433001106 0.9062417401280828 0
0.8441804704803203 0.9896322537799428 0
1.820183885946231 1.361124008816211 0
0.5368038073864791 0.191221715815459 0
0.1972111060494389 0.8394236293393883 0
0.2296293791329549 0.7839082178535879 0
0.2929999246140426 0.7828394315497212 0
0.2602335393122588 0.7273101548606576 0
1.809977401634641 1.245595770164568 0
0.6695410934428276 0.1911668372318196 0
1.087503446670656 1.713790256192276 0
1.114329331460458 1.656227388946245 0
1.022288282670282 1.390865103519881 0
0.6505207822306104 1.698768077126499 0
0.7035000523781628 1.039905688370099 0
0.1863875520734604 1.682081239916914 0
0.2220295880692582 1.736909004564601 0
0.2875656244419886 1.733044060828736 0
0.2603154038755787 1.790440613212457 0
0.3229202165600794 1.788737823651305 0
0.1919164631120513 1.79584554793715 0
1.771182611669828 1.190706209575369 0
1.361012970853954 1.816014727209294 0
0.2707588635422758 1.404125035809785 0
0.2366052154601355 1.353057753039374 0
0.2939134598786827 1.35196939092375 0
0.6826285348130897 1.749149472649791 0
0.4731387523779594 1.824103591747982 0
0.8139660630850113 0.3072259210535702 0
0.1887182217718701 0.7242215410156873 0
0.2278347512728308 0.6705328849866814 0
0.2932476068978576 0.670647498930133 0
0.2577877811695296 0.6118796143584713 0
0.6556447816858479 1.80466586722411 0
0.5045652950078265 0.2486951565240866 0
0.4704197987016475 0.1918594481044736 0
0.4381992944498386 0.2499706753196808 0
0.4039947979524251 0.1928839568678411 0
0.3717134562557319 0.25123557167654 0
0.3373944680752901 0.1939732835459238 0
0.3050319643164936 0.2523302935928183 0
0.3394199948932716 0.3096930122766876 0
0.2726083534487154 0.3108611272314513 0
0.3077828682014179 0.3692925030493788 0
0.2403207038227517 0.3695859417060468 0
0.273019302885177 0.4391290168849096 0
0.2379430393433822 0.2534322708041947 0
0.2078594217674324 0.4279967319950452 0
0.3020152085958878 1.205809031812525 0
0.7964127487419164 1.25791493344733 0
1.247311201750206 1.64375739423715 0
0.3753700037392707 0.3680336384971312 0
0.1914811217932674 0.609899491320138 0
0.7385673002375831 0.4168478184837625 0
0.8041271726982815 0.4189499396668964 0
0.7731989958020545 0.4766108869216095 0
1.380211733299161 1.629682196415212 0
1.638267250964501 1.203534907695408 0
1.608206377418712 1.153417256769055 0
0.7722676286873178 0.2446238375880441 0
0.6798759347625637 1.080863488932303 0
0.6327893223408649 1.08191608058101 0
1.79182760934235 1.421201188081024 0
0.1758211927113581 1.204628001672276 0
1.690089312534147 1.774247074132686 0
0.914161046968607 0.9417236365698597 0
1.530133159673196 1.849154705086178 0
0.7168527869242781 1.79735338802122 0
1.824126977941148 1.764112785819827 0
0.6407300978308461 1.228710899650924 0
0.6573150973668864 1.12139621129132 0
1.224152633527711 1.816295187477117 0
0.9388892922140759 0.9112770751457681 0
0.7418718807434415 1.550838805533391 0
0.7167252131325372 1.598864717770737 0
0.6862206668952462 1.553334232139357 0
0.1717674114986592 1.003122436580387 0
0.9321621188981688 1.314760160236432 0
0.3255615578763615 0.6139676912040751 0
0.2902226045091131 0.5549312797772322 0
0.1794890371563578 1.104873056742202 0
0.6221121111266358 1.348391703827527 0
0.8924650267364223 1.319498455395381 0
1.175475565237132 1.161645472204738 0
1.214376433285136 1.214642325784183 0
1.238386719742612 1.158782828344042 0
1.280305162794676 1.201020833527735 0
1.186156626977165 1.269598433523561 0
0.177727102590754 1.358573007610724 0
0.440884282508901 1.773935251219338 0
0.8734924545754112 1.090899601174899 0
0.872309380359138 1.842375607248427 0
1.796312525346197 1.82504346909032 0
0.8381124997580498 0.2424602068351255 0
0.8109374116295516 0.184682050131581 0
0.1375713786698236 0.9508587700500516 0
1.857553244121226 1.415287330750446 0
1.828771466990603 1.474688521658251 0
0.649767655401285 0.8532724722207768 0
0.6761640541938024 0.8017396745406503 0
0.7360510634394275 0.8011894192891524 0
0.7056054021787139 0.7481506424215754 0
0.767071076113198 0.7476773928304832 0
0.7360440378969292 0.6935496600112838 0
0.6733041848467831 0.6944418806273324 0
0.7036049740116264 0.638893793980131 0
0.7678666355850934 0.6379904375192695 0
0.9744765388303943 1.311313714026043 0
0.1521906565641396 1.627611649481641 0
1.0530934539303 1.660902988250608 0
1.076940107324581 1.607060668148281 0
0.1670964446611373 0.3700492904959782 0
1.892977398763531 1.936338115893157 0
0.05520674034887099 0.1040916952723409 0
0.7348449750235286 0.5838759445152051 0
0.7987355985334293 0.5841189162441173 0
0.6732377504224859 0.585643109303536 0
1.452468546492431 1.338269452238515 0
1.414463223513236 1.285565965726406 0
0.8856670268012713 1.244628174429121 0
1.349852035977309 1.291427099650909 0
1.382544100958381 1.233615782303641 0
1.697280503432491 1.486388611243026 0
0.3698453045386429 0.1373918395727491 0
0.2966402145305493 1.845652095562882 0
0.3605197020879511 1.843240964142412 0
1.062237874595701 1.770161405373217 0
1.094726759491696 1.823385846199632 0
0.5690415173075345 0.1325070285974537 0
0.8334171649248785 0.63831311280179 0
1.599381610119918 1.837886228748472 0
0.1371929935910052 0.4355047625871196 0
0.1712765825563667 0.4863252066556732 0
0.1094117122709725 0.4956636749461377 0
1.836159808951637 1.185957342339843 0
0.8408565272121616 0.4728477522849893 0
0.8741344112064496 0.4169803569230157 0
0.3593757658934658 0.557661141646338 0
0.2765495808801423 1.253867228308637 0
0.33456438853139 1.254028088857019 0
0.8071286394954559 1.840030815552187 0
1.036752296181543 1.826993655096627 0
0.3558233324227295 0.6698456985085599 0
0.6614567117101393 1.602686516019717 0
0.3487282184164871 1.72756360340444 0
1.038854631189076 1.017155745514041 0
1.04686933411207 1.036333787979908 0
1.069329134762631 1.039871621565465 0
1.0536312044043 1.0597257064863 0
1.080193083356924 1.064819479543447 0
1.062004959625795 1.086985466088024 0
1.139023515513535 1.048032071762343 0
0.6187734771531103 0.803506092280531 0
0.8877857405111151 0.9927243823726427 0
0.8672606733033852 1.025446805529071 0
0.8266670534655903 1.02589245897035 0
0.956972926027852 1.35360010965018 0
1.302359932543358 1.148895046871866 0
0.6124734441324581 1.12267813256414 0
0.5816528670479808 1.083716149956319 0
1.465122001479774 1.848617104138686 0
0.1993413638364059 1.304128846606942 0
0.1454073199774166 1.307947694093045 0
0.3366876685896592 1.899175355643338 0
0.6998380874360554 1.848473479394862 0
0.637646453155521 1.85692134404316 0
0.151274777462334 1.516296581899327 0
0.1159960841601775 1.454458639355747 0
0.903811317167332 1.023259422537902 0
0.3190220796625726 0.4941337017126988 0
0.1152657668015428 1.699451134658984 0
1.068921456110158 1.88356018303635 0
0.8607938071985741 0.5824573563123956 0
0.5073693782189191 1.86782324954834 0
1.01846555059716 1.615869687050272 0
0.637325317709977 1.159930044101747 0
0.9833261658988223 0.965315491883819 0
0.9659964310793147 0.950625770879633 0
1.011342685826774 1.887611167105706 0
0.9235405081861054 0.9948071951613146 0
1.870833294444245 1.2397556788326 0
1.142059484542264 1.586545380921921 0
1.501382405708492 1.899977912058125 0
0.6321023857850778 1.555119388931023 0
0.6561396999840651 1.506982866030264 0
0.605019099101946 1.507969613212362 0
0.6286131820138104 1.461931315334145 0
0.1503018214466804 0.5507632082229319 0
0.7075220998624607 0.5238842293419831 0
0.9185413878019377 0.8687189387204725 0
1.667668753725172 1.156945203690225 0
1.029048043779677 1.080812049818197 0
1.039533618423457 1.11169765466871 0
0.3029677209431078 0.1390336094463917 0
0.6826448133412788 1.460545093664248 0
0.08945505739261489 1.62847170576777 0
1.100064421128889 1.102492385354946 0
1.153221609628928 1.09823944488768 0
0.2628173576066865 0.5014254910910908 0
1.863016648114762 1.819423392969822 0
1.83464785677476 1.88072199097427 0
0.1076305628135105 1.005318296295705 0
1.891400151928146 1.347811249447808 0
0.3455577245745655 0.4299210727140645 0
0.5897139306570891 1.156071011289543 0
1.895445714448353 1.753316521945107 0
1.096150973980326 1.549846661248367 0
1.923354798877108 1.406552430024891 0
1.083990323995915 1.020654022742072 0
0.9634416088880898 0.8769772679799958 0
0.715025367919859 1.695916721597464 0
0.7242672105251137 1.082614213819159 0
0.7551365121312698 1.04184678293656 0
0.7899060845447811 0.9934634222969679 0
1.798856258004043 1.128289487797388 0
1.876601099426789 1.127086954058414 0
0.0748838205263265 0.9557562561367333 0
1.204241241749765 1.590026407942137 0
0.05446756164860794 1.275068806277107 0
0.05941622861116955 1.136753820727669 0
0.1144586162080405 1.173455296218773 0
0.8670009731178114 1.943637612117199 0
0.7243141699222759 1.946134690728368 0
0.330793790478613 1.405529538210188 0
0.3588265851281974 1.350478344038886 0
0.3031908157518408 1.458995584546932 0
0.1158108255698058 1.247957044254375 0
1.758743727544285 1.070467458742316 0
0.9077110210223621 1.209938132479846 0
1.030773449378717 1.716134301611951 0
1.077506986890361 1.382459602275445 0
1.099257947120846 1.330088037230694 0
1.045925643468333 1.342725406093652 0
0.7324282923909963 0.9953555933194829 0
0.546644539899956 1.044775344500113 0
1.243381265639334 1.529129271182829 0
1.277937628282375 1.581888363774453 0
1.343425968217728 1.575956157596595 0
0.05664833097436141 1.414859882946145 0
0.5408230219186237 1.552199541058354 0
0.5872824798087807 1.940895098365168 0
0.5126285900180344 1.929666658465153 0
0.3282377141201938 1.151709903444906 0
0.6194057757523229 1.64263201774085 0
0.314117783296196 1.674104135972545 0
1.158099805154082 1.321758150484218 0
1.196128689029445 1.368843601589062 0
0.8640450051275161 1.410118983283251 0
0.8791612918475782 1.3627858828054 0
0.8905717072629797 1.058175539088602 0
0.7459490236523455 1.74509550295999 0
1.444350807360018 1.624386106718201 0
0.5270395387146014 1.096621988745974 0
1.897299908892546 1.05843752328078 0
0.3253764863859872 0.7269257076131006 0
0.354632392581972 0.7818405458202445 0
0.3921683559052299 0.7223173657329066 0
0.8734293432067652 0.1836282403157318 0
0.9035923942182384 0.239529003950895 0
0.8968869123094906 0.1195321775208145 0
0.3240377486203242 0.8376595976014168 0
0.3539662507315324 0.8910571100496606 0
0.3244565331032147 0.9451521879716397 0
0.3816407401995672 0.9459138623134122 0
0.3813013929144975 0.8368719888767377 0
0.2157215404290661 0.5431460919955541 0
0.1241787757746758 0.6142050141237309 0
0.06592684380250903 0.6540565869538711 0
0.1238446145531328 0.6886766311263338 0
0.1226250307891274 0.7584653434737719 0
0.06262389163810259 0.7933153219937497 0
0.1265670452483955 0.8333158755647045 0
1.259953971566583 1.099677097214017 0
0.6615703731194933 1.419915718819277 0
0.6081978702986717 1.417307256516797 0
0.4060208620777117 0.3086840679451802 0
0.4418286461833739 0.3650253881167789 0
0.8663050016585242 1.283032582044907 0
0.8413969887657152 1.250187769886049 0
0.05881381966328883 0.1725899431375336 0
0.1181294035103304 0.2068898487794204 0
0.1134156007399279 0.2760988359349422 0
0.1141073330458711 0.1379310790799722 0
0.1722681838607804 0.173890441013417 0
0.05806353489916645 0.3097225450383047 0
0.1144728832184151 1.372201500332786 0
1.179376053786 1.647809208397169 0
0.8325080709994769 1.371371540788886 0
1.205674332016677 1.93919228432223 0
1.178189548074309 1.877804546912216 0
1.688833249436021 1.941866976517683 0
1.71147211608615 1.883376117554938 0
1.645035127183265 1.887196831058196 0
1.849163431269224 1.700714534276014 0
1.875330200163666 1.639939602775595 0
1.841078120867612 1.587773675298339 0
1.904761552682465 1.577964246951386 0
1.043120487118295 1.150639529885049 0
1.008242984141749 1.131591549011251 0
1.61934602352312 1.057126852625357 0
1.550084649127066 1.055858600744928 0
1.510890315150314 1.112720788245654 0
1.44394227080401 1.116825017298307 0
1.41155033362678 1.058454862390755 0
1.3684890655633 1.118624518235638 0
0.9389234658346663 0.3801452962418687 0
0.8796186000224999 0.3455289756318665 0
0.9407973525926493 0.4469970097626366 0
0.4723521916113678 0.3067128015843349 0
0.9304141107018734 0.5835065836367224 0
0.3597408830325297 1.201973653655811 0
0.3906917181787595 1.242075795025218 0
1.344549116532373 1.940516932217484 0
1.31416891859282 1.878969706204473 0
1.378900561421105 1.885808098290581 0
0.1728919731183054 1.941478501842095 0
0.1355115061647096 1.882893164126904 0
0.06313309402381759 1.888032557290823 0
0.101352540683848 1.822572580022981 0
0.2021035744239724 1.876833661386456 0
0.9409960316736583 0.7261926935822293 0
0.8902331359628027 0.7645254691358269 0
0.8743261435143024 0.6940812814378802 0
0.9139293459219944 1.631552619032751 0
0.7134831401033598 1.506659485212055 0
0.7028929333348711 1.120733341782749 0
0.538994283173287 0.3052842857965456 0
0.5026034533412974 0.1336511346330997 0
0.5686184474293113 0.06252088916546027 0
0.4333333333322095 0.05773502691879411 0
0.3666666666657375 0.05773502691879392 0
0.8514629030756471 1.059202839408477 0
0.2299330104739699 0.0644951472337434 0
1.844889437025522 1.297693563983285 0
1.774318855613816 1.594394786393106 0
0.6361500735361495 0.0571663829922985 0
0.6701216336811867 0.1069606275403617 0
0.7336298352720784 0.1156410989953456 0
0.7677826269883848 0.05962758935929627 0
1.631377194050998 1.492516313077299 0
0.352593447928945 0.9985581963656297 0
0.3881747745506051 0.6104240037388845 0
1.24637053212854 1.87848452220385 0
1.473223641163756 1.564617871526397 0
0.4362758800065674 0.134907441511816 0
0.476989669000262 0.4209947973492789 0
0.2731104325453942 0.1968365080070595 0
0.2360369238385117 0.1376434261541084 0
1.652127954588542 1.720970389186746 0
0.7383073993092503 0.1830569786598791 0
1.676742068502418 1.258006949006881 0
0.6428856773706874 0.6414578642250343 0
0.618160095495919 0.6961347546596007 0
0.6095575305085059 0.583101033329628 0
1.614025813771627 1.666593850167145 0
0.5075062458934878 1.505172093988975 0
0.7044219429975077 0.2452021439938021 0
1.324472604392311 1.352317914354825 0
0.7575991137069205 1.886018701021213 0
1.119835090497919 1.276877318089632 0
1.490062844588735 1.391657349654164 0
0.2077626025019554 0.3096353224664641 0
1.428559487584007 1.798047180869652 0
1.659202982612328 1.432635897137817 0
1.289399104253163 1.813130852252854 0
0.6721966986729395 0.4175825383156705 0
0.5906366790727864 1.229973140903551 0
0.6477477322809518 0.7501581214195973 0
0.3409448113390786 1.616565709561045 0
0.5709903103846945 0.902551575025811 0
0.8006103559481934 0.6927539961082133 0
1.252789335708534 1.257920273721131 0
1.9349880140134 1.235445000384124 0
1.58618623541841 1.727027973478463 0
0.7999999999994716 0.1151297059207523 0
1.705029698690231 1.199522323416486 0
1.517630594344246 1.331790308079327 0
1.725376367707269 1.426398653495541 0
0.3971438453919283 1.897827221736559 0
0.1655043708712336 1.736612610077345 0
1.763328365058919 1.480564449194961 0
0.8793823047438233 1.588764118058474 0
0.9334808646437195 1.58019914847495 0
0.5953066432304112 1.808917244561505 0
0.4413915709197104 1.233159146702062 0
0.9779503068865998 0.9144098842748025 0
0.7780451234322566 1.792077849864381 0
0.7784143314260233 1.298421418865096 0
0.8224172562955794 1.291846910993625 0
0.1832595531827341 1.570852760777758 0
0.7461757359405502 1.645287001782074 0
1.801711525326595 1.534477883210014 0
0.1665533655489588 0.894051218246541 0
0.1216910846980657 1.114801471698058 0
0.9006404681265155 1.539776060366784 0
1.720788696639728 1.12869003065189 0
1.479583203228455 1.27948435446496 0
0.4665523935502476 1.712156887892661 0
1.624493337091293 1.778778234038983 0
0.9309775869030095 1.836967339702778 0
0.8099908529821682 1.221860056923602 0
0.8066550921918165 1.741714890268447 0
0.2057551733651825 1.053851011181498 0
1.412602763017957 1.176023632174302 0
1.867922752698109 1.525390803696946 0
0.3632146045662304 1.459100098764623 0
0.4007600757759814 1.611668378565714 0
0.4200090464905027 1.364143246055313 0
0.5735826964499248 1.351669180974995 0
0.6066346662427335 1.040607766379655 0
0.4126941616125895 0.4232038931551261 0
0.6822145371020776 1.157813350575448 0
0.3843442987709852 1.146449898262439 0
0.9852552570038036 1.112567607617855 0
0.6679526377853275 1.343595706038813 0
0.7254256569412496 1.157247786215264 0
0.7678770838979203 1.505424499401817 0
1.941411948518239 1.634934680456787 0
0.416943845569021 0.5362806987856549 0
0.9697473696681387 1.398238170956822 0
0.06656129523170712 0.4457615523141832 0
0.825528128913088 1.184832705780682 0
1.156654178887044 1.819162542646575 0
0.6863702249064236 1.229627963771935 0
0.713783874119349 1.421053429240128 0
0.8999999999997359 0.05515887830463656 0
0.8704056840720344 0.8621885414789466 0
0.938930169297594 1.045645547599656 0
0.8940312720140398 1.177931222255878 0
0.1747391479646343 0.2481995728264153 0
0.5704474853450027 1.875186652710888 0
0.05001974731152747 1.681090588346613 0
0.6247768644946465 0.9025077649270586 0
1.574203954266359 1.896305292169181 0
0.4709600425045768 1.273709863224212 0
0.5572456445241981 1.403930576613018 0
0.9743515689424171 1.141582133076228 0
1.943851400358267 1.897252227353326 0
0.1068289803460739 0.06232232837653978 0
0.765567158650603 1.086802367824198 0
0.9069270839769992 1.09239901383548 0
1.94396353456999 1.101234163983325 0
0.992079364791446 1.271591790438357 0
0.9613510702351432 0.93249832171417 0
1.018921198788748 1.018635406561345 0
0.7931878367179716 0.8020994732666389 0
1.823593134935138 1.943198818977079 0
0.4092313834704046 1.001934050441576 0
0.1093848554123729 0.3395928569795816 0
1.313344102244544 1.636542206269149 0
0.8488627896713641 1.327083108175527 0
0.9959533857449385 1.167986010601957 0
0.3834024406835648 0.4864944009511761 0
0.9645962067725624 1.005922603696876 0
1.005451928197112 1.062166207746355 0
0.05345135357861205 1.482758620690467 0
0.950665803251591 0.988460693817207 0
0.7620115738237356 0.8536149403256772 0
0.1214348436345269 1.56932426176737 0
1.063431766783228 1.94446671356876 0
0.3746093909343591 1.6662962839128 0
0.6067980159879759 0.5236449856871426 0
0.4076986148084358 1.721656097055757 0
1.444058098956996 1.22783627083159 0
0.663123950014664 1.194631402469951 0
1.410798978880411 1.571408353721971 0
1.371715845440855 1.51609355135676 0
0.05529813126327246 0.5214278132172357 0
1.89513751622988 1.463858667751271 0
0.4358423956685888 0.9476292545616194 0
0.3700696378699575 1.291199883127581 0
0.1474014679532091 1.056961534906802 0
0.8377790214798966 1.091410256871874 0
0.1045537454803932 0.8994601130128327 0
0.8505956077055179 0.8093425406343336 0
0.6848849311143363 1.647359175339556 0
1.224360146614312 1.313613308235897 0
0.7074770370842054 0.4632597653107351 0
0.9953708624691441 1.944537428169967 0
1.955373922172655 1.763961237418858 0
0.5809647755948908 1.458858348653409 0
1.001126936818317 1.348918220706437 0
0.3820723562450012 1.787864267484399 0
0.9520932172683267 1.53475638770994 0
0.8807790579039361 0.5245054078532487 0
0.8280801359920725 0.749793949324994 0
0.9001918466846491 1.889212739317418 0
0.9653440996976079 1.621782827471929 0
0.5957737126550366 0.8541174323693185 0
0.9978007854384305 1.669080329042747 0
1.292093625153624 1.302966090443256 0
1.050815492978916 1.525836366295816 0
0.4087756043906315 0.8923071559884038 0
1.350601854392278 1.180311530026467 0
1.731193234278811 1.82583000648506 0
0.1729501565983573 0.7878669214494279 0
0.7672346562340264 0.5380871119582356 0
1.029129762370855 1.052133654295071 0
1.074163092106461 1.260454249697729 0
0.417815448349652 1.83828925557368 0
0.3153671526566101 1.301268799695193 0
1.893771321783444 1.871842897180897 0
1.952041599310975 1.358577965475802 0
0.04925267535992996 1.004933899063092 0
0.1713993481496793 0.1069839065875719 0
0.7834452451523894 1.059471644164322 0
0.9333459807435306 0.9689128649808548 0
0.9530605883474881 0.1038461538459533 0
0.8744497220510752 0.2875980030106643 0
1.321794078748604 1.242286966094052 0
0.3779068806889326 1.952639015106988 0
0.8623528075662674 1.214024024212794 0
0.5674549984016839 0.8026883364896817 0
0.8230741126307217 0.5298089211962473 0
0.4102952607521948 0.7842735638085131 0
1.206562895410592 1.115307731413715 0
0.04484230492472528 1.824879648151956 0
0.8332710410270876 1.890699641198119 0
1.47347551425542 1.171047773181559 0
1.666944122882264 1.831219082003056 0
0.8888471068175041 0.631844283674177 0
0.5920653204609359 0.7478860299818521 0
0.9770101911553517 1.723929549520608 0
0.9422390261030862 0.9463435851119093 0
0.1596490519576983 1.411061635274796 0
0.8284158659898833 0.3699669022425882 0
0.2582792636512909 1.306069862915288 0
0.4127776669391786 0.6619881283577513 0
0.3095929960915306 1.952304881177323 0
1.007924633315957 1.772554776338293 0
1.778411645426671 1.887182287922129 0
0.9155529655427094 1.349643300946334 0
0.6130941448557602 1.193087832618826 0
0.4352137385591041 0.8430914926562245 0
0.4525290887851739 1.886523832828846 0
0.5575675569024721 1.505401854652771 0
1.127707735901143 1.136958405598438 0
0.9029502844188926 0.8219498597923652 0
1.018398966018616 1.307212563802236 0
1.01498164942899 1.102755117034089 0
1.543765813151192 1.948858371661377 0
1.274308835099795 1.045478609512157 0
0.2714424332423914 1.893592385731265 0
1.891919773554017 1.19031646926546 0
0.9832249688956161 1.57633605837903 0
0.4199970316143871 1.280418385350585 0
0.5629237554199568 1.18983039547047 0
1.542512231487108 1.161379240766881 0
0.2138412593741458 1.24950159049162 0
1.95865254555545 1.566666666666665 0
1.124269246764698 1.868482660770707 0
0.8164674312029809 1.059799619929394 0
0.7518927501989932 1.832790846770773 0
0.402401647863768 1.321861176340252 0
0.0987127696160752 1.515428192931848 0
0.6152803304921819 0.1053086452752859 0
1.950586996478604 1.950980679834835 0
0.04986534194187369 0.05046370027572181 0
1.954406534846331 1.045267670786154 0
0.9831521568668224 1.831370707993245 0
0.5648317963379642 0.6960024928674732 0
1.098707724576015 1.044046279410452 0
1.113050712073669 1.070203634628182 0
0.2444836178369086 1.840472860766043 0
0.05048626259116774 1.949513737408831 0
0.125797086936635 1.772573652944234 0
1.06176433042874 1.301039341194896 0
0.2191664115843392 0.2039278740111336 0
0.5886802379363946 0.6422898809142753 0
0.9594401957114372 0.2423076923071203 0
0.6416413946930906 1.381550400709816 0
1.469354020991746 1.948877431266496 0
0.9518768193020046 0.04885745985534379 0
1.034919808298272 1.570104788745044 0
0.1741149556487993 0.6616242490687247 0
1.1181904666632 1.022546474782973 0
0.8451515458467582 0.1350879000722893 0
0.1614517901789052 1.15286605978163 0
0.5880827961629439 1.552863920084451 0
1.069833827970806 1.115272674102688 0
0.2703933852578213 0.09724781514174838 0
0.1690980587358261 1.261461844889411 0
0.1513362342642433 1.830143721283545 0
0.5703458483186079 1.121495823689402 0
0.3357108455669288 0.09783111074915889 0
0.1544079089703385 0.311339406700496 0
0.5585710178887043 0.5992130056979197 0
0.4387471522184323 0.7436382099901838 0
0.9586782702521497 1.888328915395477 0
0.9583218624531519 0.9678130858673962 0
0.4021874181538095 0.09730329259777049 0
0.9294109505314541 1.020507515318952 0
1.583644462204359 1.100320709634973 0
0.0949634578202007 1.310560526098575 0
0.9152219681161846 1.04667651167064 0
0.4687299646940015 0.09681009092233946 0
0.6876553601900045 1.903385771804361 0
0.7939034542611233 1.033468869283407 0
0.531701680774852 0.0962851592910224 0
0.9441504679246971 1.006778183281671 0
1.952712556543072 1.451429078705895 0
0.6512965192084179 0.5388950468399226 0
0.9064226552194129 0.9697848669577627 0
1.440000113598915 1.895109901473897 0
1.310257413591923 1.095126076539064 0
0.6186769040295198 1.594865005758094 0
1.895816531178045 1.285378252922098 0
0.8919805504392031 0.4733686287900596 0
1.028722253706419 1.033762356201541 0
0.6365626718556369 0.1509524092924374 0
0.6003163406084926 1.380239753219529 0
0.7002081734637925 0.1508182136813633 0
0.03567176975904628 1.620689655172272 0
0.1068639655608127 0.3934959256560934 0
0.04735256999224716 0.9117080986689423 0
0.6233746105794897 1.906388735247765 0
0.2225855771274157 0.4753570935497381 0
1.133807235578443 1.524218464813724 0
1.649890328064164 1.105184219848354 0
0.09927431761110594 0.5536964337271433 0
1.413479679022527 1.846842305248986 0
1.898564886641422 1.686831147321829 0
0.9457979364890147 0.8377309603360735 0
$EndNodes
$Elements
10 2146 1 2146
1 1 1 15
1 1 10 
2 10 11 
3 11 12 
4 12 13 
5 13 14 
6 14 15 
7 15 16 
8 16 17 
9 17 18 
10 18 19 
11 19 20 
12 20 21 
13 21 22 
14 22 23 
15 23 2 
1 2 1 13
16 2 24 
17 24 25 
18 25 26 
19 26 27 
20 27 28 
21 28 29 
22 29 30 
23 30 31 
24 31 32 
25 32 33 
26 33 34 
27 34 35 
28 35 8 
1 3 1 2
29 8 36 
30 36 3 
1 4 1 4
31 3 37 
32 37 38 
33 38 39 
34 39 4 
1 5 1 2
35 4 40 
36 40 9 
1 6 1 13
37 9 41 
38 41 42 
39 42 43 
40 43 44 
41 44 45 
42 45 46 
43 46 47 
44 47 48 
45 48 49 
46 49 50 
47 50 51 
48 51 52 
49 52 5 
1 7 1 15
50 5 53 
51 53 54 
52 54 55 
53 55 56 
54 56 57 
55 57 58 
56 58 59 
57 59 60 
58 60 61 
59 61 62 
60 62 63 
61 63 64 
62 64 65 
63 65 66 
64 66 6 
1 8 1 29
65 6 67 
66 67 68 
67 68 69 
68 69 70 
69 70 71 
70 71 72 
71 72 73 
72 73 74 
73 74 75 
74 75 76 
75 76 77 
76 77 78 
77 78 79 
78 79 80 
79 80 81 
80 81 82 
81 82 83 
82 83 84 
83 84 85 
84 85 86 
85 86 87 
86 87 88 
87 88 89 
88 89 90 
89 90 91 
90 91 92 
91 92 93 
92 93 94 
93 94 7 
1 9 1 29
94 7 95 
95 95 96 
96 96 97 
97 97 98 
98 98 99 
99 99 100 
100 100 101 
101 101 102 
102 102 103 
103 103 104 
104 104 105 
105 105 106 
106 106 107 
107 107 108 
108 108 109 
109 109 110 
110 110 111 
111 111 112 
112 112 113 
113 113 114 
114 114 115 
115 115 116 
116 116 117 
117 117 118 
118 118 119 
119 119 120 
120 120 121 
121 121 122 
122 122 1 
2 1 2 2024
123 801 789 826 
124 852 873 963 
125 546 801 826 
126 150 622 1017 
127 665 664 685 
128 162 651 657 
129 622 150 883 
130 129 653 923 
131 621 497 655 
132 531 484 717 
133 497 621 650 
134 608 418 983 
135 167 39 896 
136 276 273 979 
137 502 669 688 
138 664 665 1049 
139 465 695 927 
140 734 890 956 
141 692 693 882 
142 880 680 963 
143 131 748 856 
144 765 474 766 
145 845 129 923 
146 695 595 927 
147 153 810 969 
148 725 375 876 
149 701 317 892 
150 704 611 1035 
151 890 163 956 
152 810 592 969 
153 354 880 963 
154 162 657 931 
155 649 648 1014 
156 35 8 661 
157 276 793 870 
158 669 687 688 
159 144 847 1070 
160 646 725 876 
161 582 744 885 
162 686 611 704 
163 474 765 816 
164 418 608 871 
165 501 730 840 
166 784 799 956 
167 793 589 870 
168 689 508 901 
169 744 142 885 
170 165 667 893 
171 887 726 932 
172 765 794 816 
173 693 625 882 
174 253 633 1069 
175 847 642 1070 
176 400 665 685 
177 643 239 906 
178 793 276 979 
179 542 701 892 
180 614 540 737 
181 139 623 1002 
182 623 139 911 
183 126 367 628 
184 688 689 901 
185 633 253 669 
186 619 690 737 
187 507 640 929 
188 164 711 1028 
189 748 131 1001 
190 761 624 936 
191 794 523 816 
192 640 507 948 
193 451 452 517 
194 711 164 877 
195 730 852 963 
196 630 623 911 
197 343 887 932 
198 484 504 717 
199 247 249 687 
200 144 679 847 
201 871 608 933 
202 630 911 930 
203 639 504 718 
204 137 761 936 
205 614 737 1045 
206 39 597 896 
207 278 805 1038 
208 720 481 721 
209 38 39 167 
210 805 278 913 
211 504 639 717 
212 448 539 811 
213 295 676 859 
214 650 531 717 
215 510 999 1044 
216 999 753 1044 
217 464 871 933 
218 619 737 976 
219 49 50 679 
220 741 523 794 
221 667 165 995 
222 648 649 988 
223 295 675 676 
224 95 96 769 
225 480 758 977 
226 758 480 960 
227 155 720 721 
228 873 354 963 
229 646 216 776 
230 625 693 986 
231 603 134 649 
232 538 945 961 
233 762 250 763 
234 730 729 840 
235 596 914 934 
236 652 564 898 
237 822 774 937 
238 523 741 874 
239 633 658 1069 
240 672 515 678 
241 453 607 665 
242 750 749 903 
243 620 605 631 
244 921 715 944 
245 37 126 628 
246 564 652 953 
247 606 605 620 
248 771 472 1015 
249 611 686 861 
250 472 771 1034 
251 693 141 986 
252 934 541 951 
253 216 646 876 
254 453 451 605 
255 581 774 822 
256 762 694 864 
257 417 453 665 
258 723 456 844 
259 686 327 861 
260 763 250 836 
261 914 541 934 
262 946 544 982 
263 541 479 951 
264 930 128 1040 
265 973 270 1012 
266 524 661 837 
267 734 565 890 
268 677 675 857 
269 1017 472 1034 
270 517 452 524 
271 583 585 872 
272 264 921 944 
273 396 400 685 
274 589 621 904 
275 163 784 956 
276 644 749 750 
277 538 609 945 
278 870 589 904 
279 992 73 1023 
280 716 966 985 
281 946 743 971 
282 239 643 991 
283 155 719 720 
284 804 973 1012 
285 984 818 998 
286 643 906 949 
287 730 501 852 
288 524 837 895 
289 634 992 1023 
290 250 762 864 
291 603 649 1014 
292 663 192 777 
293 743 744 971 
294 647 138 910 
295 966 268 985 
296 831 472 1017 
297 249 320 687 
298 95 769 1016 
299 675 295 857 
300 922 676 952 
301 253 247 687 
302 417 451 453 
303 453 605 606 
304 656 984 998 
305 722 721 723 
306 749 352 903 
307 749 644 1031 
308 525 776 868 
309 447 648 988 
310 113 114 719 
311 144 49 679 
312 743 946 982 
313 539 697 811 
314 622 831 1017 
315 495 503 655 
316 311 704 1035 
317 640 310 929 
318 50 161 679 
319 497 495 655 
320 682 464 684 
321 725 726 1022 
322 284 917 918 
323 111 112 722 
324 1022 726 1062 
325 583 872 1065 
326 451 517 1054 
327 447 382 749 
328 383 448 811 
329 185 298 680 
330 676 477 952 
331 950 811 1018 
332 630 930 1040 
333 700 739 902 
334 534 700 902 
335 417 449 451 
336 310 640 1053 
337 658 562 1025 
338 776 216 868 
339 666 161 667 
340 116 872 919 
341 663 664 891 
342 350 662 842 
343 799 784 1032 
344 667 705 893 
345 701 542 783 
346 670 152 678 
347 400 417 665 
348 662 350 702 
349 661 8 837 
350 502 688 901 
351 811 683 1018 
352 975 629 1041 
353 655 503 862 
354 840 729 902 
355 138 647 1064 
356 757 588 758 
357 670 678 1045 
358 517 524 975 
359 609 756 945 
360 515 672 1029 
361 400 416 417 
362 678 614 1045 
363 709 160 710 
364 41 134 603 
365 863 777 867 
366 155 113 719 
367 606 620 701 
368 131 856 920 
369 161 666 679 
370 723 721 947 
371 464 231 871 
372 756 609 1056 
373 498 813 881 
374 334 364 792 
375 140 111 722 
376 662 465 927 
377 29 30 759 
378 590 978 1000 
379 212 206 739 
380 777 192 867 
381 906 419 949 
382 588 757 759 
383 943 658 1025 
384 683 682 684 
385 651 162 953 
386 360 395 407 
387 235 464 682 
388 942 823 961 
389 667 161 705 
390 152 671 672 
391 114 133 719 
392 311 234 704 
393 273 272 979 
394 512 466 663 
395 124 3 628 
396 451 449 452 
397 206 314 739 
398 750 865 991 
399 407 466 512 
400 315 928 942 
401 112 155 722 
402 407 395 466 
403 535 649 967 
404 657 146 931 
405 4 123 597 
406 723 844 925 
407 512 663 777 
408 197 195 839 
409 447 749 1031 
410 690 619 907 
411 620 631 1043 
412 826 164 1028 
413 41 603 1027 
414 255 242 807 
415 315 248 698 
416 105 152 670 
417 152 106 671 
418 128 82 673 
419 153 84 674 
420 865 239 991 
421 881 813 1037 
422 234 245 704 
423 327 332 360 
424 692 882 1067 
425 653 129 955 
426 481 720 1026 
427 289 334 792 
428 774 773 937 
429 446 382 447 
430 729 534 902 
431 628 367 1041 
432 272 708 979 
433 260 327 686 
434 872 585 919 
435 242 343 807 
436 297 682 683 
437 616 810 1048 
438 149 654 1058 
439 917 689 918 
440 928 823 942 
441 155 721 722 
442 757 29 759 
443 88 141 693 
444 195 501 839 
445 617 1048 1067 
446 298 365 680 
447 330 677 857 
448 30 137 759 
449 103 125 690 
450 699 212 739 
451 636 646 776 
452 710 145 960 
453 330 355 677 
454 500 694 762 
455 146 657 1073 
456 617 616 1048 
457 364 714 792 
458 475 675 677 
459 891 664 957 
460 313 362 695 
461 404 463 738 
462 702 350 853 
463 636 638 646 
464 456 723 947 
465 418 227 699 
466 675 477 676 
467 654 149 954 
468 215 212 699 
469 297 237 682 
470 649 535 988 
471 562 561 626 
472 672 671 845 
473 721 481 947 
474 58 659 954 
475 335 333 694 
476 152 672 678 
477 125 104 670 
478 107 129 671 
479 83 153 673 
480 85 127 674 
481 714 713 715 
482 153 674 810 
483 475 477 675 
484 772 773 774 
485 319 728 760 
486 669 253 687 
487 236 658 943 
488 633 669 738 
489 663 466 664 
490 362 303 691 
491 500 385 694 
492 360 361 395 
493 605 451 1054 
494 140 722 723 
495 258 260 686 
496 355 422 677 
497 475 476 477 
498 838 702 853 
499 636 637 638 
500 303 293 691 
501 458 706 707 
502 133 718 719 
503 436 712 713 
504 418 699 700 
505 385 335 694 
506 103 104 125 
507 105 106 152 
508 81 82 128 
509 107 108 129 
510 422 475 677 
511 590 500 591 
512 463 561 562 
513 823 538 961 
514 83 84 153 
515 85 86 127 
516 958 975 1041 
517 396 398 400 
518 245 258 704 
519 422 430 475 
520 409 387 696 
521 527 635 636 
522 395 396 685 
523 364 371 714 
524 463 633 738 
525 229 227 418 
526 127 86 692 
527 365 571 680 
528 463 462 561 
529 706 594 708 
530 404 405 462 
531 436 713 714 
532 439 385 500 
533 327 262 332 
534 669 502 738 
535 311 656 998 
536 690 125 737 
537 227 215 699 
538 465 377 695 
539 248 246 698 
540 606 701 783 
541 260 262 327 
542 145 710 1021 
543 377 313 695 
544 521 203 818 
545 394 403 404 
546 658 236 1069 
547 458 459 706 
548 404 462 463 
549 158 755 756 
550 293 255 807 
551 371 436 714 
552 237 235 682 
553 978 613 1000 
554 810 616 1004 
555 804 556 819 
556 394 404 738 
557 458 707 712 
558 525 527 776 
559 469 409 696 
560 199 521 875 
561 102 103 690 
562 206 202 314 
563 596 469 696 
564 313 303 362 
565 322 342 703 
566 160 709 711 
567 327 360 861 
568 597 123 598 
569 246 237 297 
570 772 135 773 
571 922 997 1005 
572 285 294 795 
573 513 512 522 
574 941 681 974 
575 150 770 968 
576 692 87 693 
577 713 712 716 
578 258 686 704 
579 478 465 662 
580 220 234 311 
581 471 469 596 
582 392 394 502 
583 719 718 720 
584 235 231 464 
585 104 105 670 
586 106 107 671 
587 82 83 673 
588 84 85 674 
589 459 483 706 
590 728 319 797 
591 707 706 708 
592 87 88 693 
593 483 594 706 
594 365 426 571 
595 712 707 716 
596 483 530 594 
597 731 565 734 
598 417 416 449 
599 571 729 730 
600 462 578 681 
601 740 139 741 
602 143 118 736 
603 159 772 774 
604 436 437 712 
605 646 638 725 
606 407 512 513 
607 475 430 476 
608 694 333 864 
609 437 458 712 
610 128 673 938 
611 319 760 778 
612 202 197 839 
613 561 462 681 
614 728 727 760 
615 659 58 1052 
616 392 393 394 
617 380 377 465 
618 687 320 688 
619 158 44 755 
620 766 474 1072 
621 591 762 763 
622 740 741 794 
623 633 562 658 
624 502 394 738 
625 388 390 508 
626 490 488 727 
627 580 780 1007 
628 121 565 731 
629 764 765 766 
630 4 40 123 
631 36 3 124 
632 767 768 771 
633 404 403 405 
634 697 539 928 
635 727 488 760 
636 161 51 705 
637 418 700 983 
638 136 752 753 
639 803 556 804 
640 233 219 836 
641 439 500 590 
642 136 753 754 
643 636 635 637 
644 342 388 703 
645 760 486 778 
646 497 650 1068 
647 462 405 578 
648 495 493 503 
649 284 285 795 
650 390 391 392 
651 44 45 755 
652 639 584 717 
653 765 154 794 
654 86 87 692 
655 100 101 138 
656 88 89 141 
657 732 734 735 
658 710 160 1021 
659 732 731 734 
660 493 490 727 
661 118 119 736 
662 755 754 756 
663 322 703 795 
664 78 139 740 
665 388 389 390 
666 156 731 732 
667 644 750 991 
668 503 728 862 
669 145 757 758 
670 51 52 705 
671 742 142 744 
672 764 154 765 
673 331 299 820 
674 503 727 728 
675 591 500 762 
676 922 763 997 
677 157 742 743 
678 767 166 768 
679 440 441 745 
680 461 801 808 
681 394 393 403 
682 503 493 727 
683 151 767 771 
684 508 689 917 
685 132 764 766 
686 745 441 746 
687 121 122 565 
688 67 68 564 
689 388 508 703 
690 48 144 751 
691 71 142 742 
692 530 589 793 
693 349 347 775 
694 294 322 795 
695 673 153 969 
696 437 457 458 
697 156 120 731 
698 520 440 745 
699 136 46 752 
700 743 742 744 
701 527 636 776 
702 156 732 733 
703 530 531 589 
704 801 511 808 
705 50 51 161 
706 25 26 160 
707 488 486 760 
708 145 28 757 
709 78 79 139 
710 110 111 140 
711 691 293 807 
712 657 520 745 
713 355 421 422 
714 768 166 769 
715 478 662 702 
716 47 48 751 
717 157 70 742 
718 120 121 731 
719 360 332 361 
720 47 751 752 
721 154 77 740 
722 342 369 388 
723 69 70 157 
724 119 120 156 
725 651 520 657 
726 245 257 258 
727 483 484 530 
728 137 31 761 
729 572 318 809 
730 338 307 778 
731 746 441 747 
732 48 49 144 
733 27 28 145 
734 380 465 478 
735 768 769 770 
736 314 839 840 
737 28 29 757 
738 496 495 497 
739 494 493 495 
740 371 435 436 
741 77 78 740 
742 307 319 778 
743 117 118 143 
744 71 72 142 
745 185 680 880 
746 610 522 627 
747 459 482 483 
748 76 77 154 
749 112 113 155 
750 455 411 486 
751 422 429 430 
752 45 46 136 
753 30 31 137 
754 420 349 775 
755 70 71 742 
756 132 75 764 
757 32 159 761 
758 159 33 772 
759 76 154 764 
760 460 586 632 
761 46 47 752 
762 700 699 739 
763 392 391 393 
764 390 389 391 
765 93 166 767 
766 570 318 572 
767 486 411 778 
768 696 387 820 
769 97 98 150 
770 91 92 151 
771 31 32 761 
772 32 33 159 
773 43 44 158 
774 119 156 736 
775 151 92 767 
776 410 338 411 
777 548 654 659 
778 440 413 441 
779 594 530 793 
780 374 454 514 
781 34 135 772 
782 33 34 772 
783 514 548 549 
784 746 747 748 
785 714 715 792 
786 192 663 891 
787 340 505 817 
788 585 584 639 
789 492 490 493 
790 92 93 767 
791 75 76 764 
792 41 42 134 
793 34 35 135 
794 93 94 166 
795 487 486 488 
796 249 252 320 
797 413 356 786 
798 114 115 133 
799 74 75 132 
800 545 511 546 
801 388 369 389 
802 356 402 786 
803 583 499 584 
804 455 486 487 
805 460 632 785 
806 463 562 633 
807 514 454 548 
808 288 296 791 
809 250 233 836 
810 470 469 471 
811 199 203 521 
812 17 18 780 
813 514 549 832 
814 747 441 786 
815 45 136 755 
816 300 288 791 
817 309 300 321 
818 374 431 454 
819 544 520 651 
820 387 331 820 
821 468 409 469 
822 15 16 781 
823 489 491 575 
824 522 512 777 
825 402 321 574 
826 548 454 654 
827 476 540 613 
828 344 863 867 
829 136 754 755 
830 411 338 778 
831 441 413 786 
832 566 557 568 
833 156 733 736 
834 423 411 455 
835 340 412 505 
836 328 359 374 
837 14 15 782 
838 839 501 840 
839 505 506 507 
840 487 488 489 
841 18 19 787 
842 442 440 520 
843 589 531 621 
844 747 843 856 
845 203 209 818 
846 454 431 785 
847 574 321 791 
848 356 321 402 
849 492 493 494 
850 374 359 431 
851 324 326 328 
852 654 454 785 
853 410 411 423 
854 309 321 356 
855 294 306 322 
856 16 17 130 
857 59 60 131 
858 480 381 511 
859 62 63 146 
860 13 14 147 
861 494 495 496 
862 780 18 787 
863 285 283 286 
864 530 484 531 
865 218 219 220 
866 288 286 296 
867 788 148 789 
868 258 259 260 
869 423 455 580 
870 455 487 779 
871 15 781 782 
872 281 282 283 
873 576 471 577 
874 431 460 785 
875 307 301 319 
876 130 17 780 
877 557 556 803 
878 787 148 788 
879 281 283 284 
880 339 338 410 
881 336 525 868 
882 12 13 784 
883 679 666 847 
884 496 497 499 
885 575 491 645 
886 19 20 148 
887 56 57 149 
888 489 488 490 
889 16 130 781 
890 252 280 281 
891 357 356 413 
892 568 557 803 
893 321 300 791 
894 414 413 440 
895 489 575 796 
896 410 423 461 
897 322 341 342 
898 64 65 162 
899 11 12 163 
900 328 326 359 
901 376 325 401 
902 580 455 779 
903 431 432 460 
904 680 571 963 
905 583 584 585 
906 460 473 586 
907 242 226 343 
908 209 213 218 
909 545 546 709 
910 306 300 309 
911 546 511 801 
912 489 490 491 
913 309 356 357 
914 442 520 544 
915 292 255 293 
916 586 666 667 
917 147 14 782 
918 296 286 323 
919 424 401 425 
920 20 21 790 
921 322 306 341 
922 285 286 288 
923 294 288 300 
924 483 482 484 
925 518 428 582 
926 414 442 516 
927 302 293 303 
928 525 526 527 
929 246 297 698 
930 570 572 573 
931 154 740 794 
932 487 489 796 
933 431 359 432 
934 427 368 428 
935 308 307 338 
936 544 651 652 
937 357 414 800 
938 480 511 545 
939 124 628 629 
940 815 328 829 
941 357 413 414 
942 19 148 787 
943 458 457 459 
944 491 490 492 
945 779 487 796 
946 21 22 164 
947 54 55 165 
948 285 288 294 
949 414 440 442 
950 505 412 506 
951 342 368 369 
952 294 300 306 
953 555 553 556 
954 13 147 784 
955 357 800 806 
956 286 283 812 
957 645 798 799 
958 336 345 525 
959 445 592 838 
960 296 323 324 
961 688 320 689 
962 509 510 642 
963 297 683 697 
964 492 494 498 
965 427 518 612 
966 284 283 285 
967 507 506 587 
968 414 516 800 
969 339 410 808 
970 312 303 313 
971 612 518 634 
972 308 338 339 
973 596 696 912 
974 373 349 420 
975 578 579 593 
976 832 549 843 
977 460 432 473 
978 342 341 368 
979 324 325 326 
980 281 280 282 
981 425 401 848 
982 410 461 808 
983 427 428 518 
984 574 815 829 
985 163 12 784 
986 511 381 808 
987 568 803 805 
988 376 424 509 
989 563 499 583 
990 645 491 798 
991 304 301 307 
992 376 401 424 
993 725 638 726 
994 283 282 812 
995 290 279 301 
996 308 339 340 
997 427 612 814 
998 586 473 666 
999 379 479 541 
1000 391 389 474 
1001 545 709 710 
1002 319 301 797 
1003 369 368 427 
1004 148 20 790 
1005 309 357 806 
1006 359 326 802 
1007 301 279 797 
1008 324 323 325 
1009 251 248 315 
1010 509 424 510 
1011 436 435 437 
1012 340 381 412 
1013 279 277 287 
1014 775 833 834 
1015 569 318 570 
1016 571 426 729 
1017 290 304 310 
1018 374 514 829 
1019 412 381 480 
1020 340 339 381 
1021 326 325 376 
1022 496 499 563 
1023 491 492 798 
1024 587 506 588 
1025 527 595 635 
1026 384 335 385 
1027 306 309 806 
1028 324 328 815 
1029 468 469 470 
1030 282 280 318 
1031 403 393 523 
1032 438 385 439 
1033 282 318 569 
1034 252 251 280 
1035 627 522 863 
1036 593 623 630 
1037 621 531 650 
1038 353 313 377 
1039 102 690 907 
1040 304 307 308 
1041 323 286 812 
1042 407 513 861 
1043 290 301 304 
1044 470 471 576 
1045 201 197 202 
1046 519 478 702 
1047 432 359 802 
1048 378 377 380 
1049 621 655 904 
1050 492 498 798 
1051 789 148 790 
1052 223 215 227 
1053 209 218 818 
1054 249 251 252 
1055 21 164 790 
1056 341 306 806 
1057 381 339 808 
1058 513 522 610 
1059 422 421 429 
1060 566 568 640 
1061 574 791 815 
1062 376 509 802 
1063 258 257 259 
1064 56 149 824 
1065 791 296 815 
1066 279 287 797 
1067 326 376 802 
1068 485 478 519 
1069 278 279 290 
1070 389 369 814 
1071 510 1044 1070 
1072 476 430 540 
1073 282 569 812 
1074 494 496 813 
1075 251 315 809 
1076 576 577 615 
1077 400 398 416 
1078 275 277 278 
1079 271 273 274 
1080 55 56 824 
1081 401 325 828 
1082 369 427 814 
1083 428 368 825 
1084 296 324 815 
1085 792 715 899 
1086 498 494 813 
1087 595 695 1057 
1088 278 277 279 
1089 271 269 272 
1090 555 556 557 
1091 275 273 276 
1092 323 812 828 
1093 165 55 824 
1094 274 273 275 
1095 671 129 845 
1096 379 541 849 
1097 484 482 504 
1098 474 389 814 
1099 453 606 607 
1100 318 280 809 
1101 275 276 277 
1102 747 786 843 
1103 843 549 856 
1104 496 563 813 
1105 459 481 482 
1106 739 314 902 
1107 634 1023 1055 
1108 613 540 614 
1109 509 642 827 
1110 205 202 206 
1111 393 391 816 
1112 578 405 579 
1113 271 272 273 
1114 280 251 809 
1115 698 697 928 
1116 181 183 542 
1117 812 569 828 
1118 314 202 839 
1119 926 897 937 
1120 806 800 825 
1121 865 750 888 
1122 437 456 457 
1123 391 474 816 
1124 308 340 817 
1125 267 269 270 
1126 672 845 1029 
1127 341 806 825 
1128 195 193 501 
1129 310 304 817 
1130 432 802 827 
1131 267 265 268 
1132 468 470 472 
1133 448 536 539 
1134 467 409 468 
1135 220 233 234 
1136 270 269 271 
1137 655 862 904 
1138 408 387 409 
1139 304 308 817 
1140 292 293 302 
1141 732 735 881 
1142 508 390 901 
1143 380 478 485 
1144 523 393 816 
1145 408 467 560 
1146 551 550 604 
1147 697 683 811 
1148 392 502 901 
1149 368 341 825 
1150 238 247 253 
1151 558 567 581 
1152 551 604 819 
1153 81 128 930 
1154 556 553 819 
1155 302 303 312 
1156 802 509 827 
1157 328 374 829 
1158 610 627 656 
1159 582 428 850 
1160 332 262 821 
1161 775 347 833 
1162 116 117 872 
1163 560 622 647 
1164 267 268 269 
1165 372 443 445 
1166 312 313 353 
1167 593 579 623 
1168 581 567 624 
1169 459 457 481 
1170 360 407 861 
1171 558 557 566 
1172 218 213 219 
1173 260 259 261 
1174 615 577 830 
1175 395 361 396 
1176 138 101 907 
1177 829 514 832 
1178 668 109 1066 
1179 249 248 251 
1180 736 733 900 
1181 408 409 467 
1182 330 331 355 
1183 291 299 330 
1184 898 157 982 
1185 708 594 979 
1186 525 345 526 
1187 426 534 729 
1188 353 377 378 
1189 789 790 826 
1190 384 385 438 
1191 473 432 827 
1192 355 386 421 
1193 220 219 233 
1194 485 519 616 
1195 371 434 435 
1196 150 98 883 
1197 211 206 212 
1198 888 750 903 
1199 438 439 515 
1200 558 566 567 
1201 402 574 832 
1202 1043 879 1046 
1203 263 265 266 
1204 485 616 617 
1205 434 370 528 
1206 386 331 387 
1207 325 323 828 
1208 445 543 592 
1209 560 467 622 
1210 266 265 267 
1211 790 164 826 
1212 247 248 249 
1213 564 68 898 
1214 378 380 835 
1215 555 557 558 
1216 547 528 653 
1217 37 38 126 
1218 527 526 595 
1219 715 713 944 
1220 386 387 408 
1221 343 226 887 
1222 241 254 295 
1223 554 553 555 
1224 353 378 379 
1225 852 190 873 
1226 429 618 619 
1227 607 606 783 
1228 337 240 833 
1229 827 642 847 
1230 437 435 456 
1231 334 363 364 
1232 214 212 215 
1233 260 261 262 
1234 189 187 190 
1235 428 825 850 
1236 507 587 965 
1237 245 256 257 
1238 600 602 643 
1239 69 157 898 
1240 302 312 329 
1241 379 433 479 
1242 277 276 870 
1243 372 349 373 
1244 228 227 229 
1245 553 551 819 
1246 429 421 618 
1247 364 370 371 
1248 379 378 433 
1249 201 202 205 
1250 223 227 228 
1251 247 246 248 
1252 703 508 917 
1253 222 215 223 
1254 786 402 843 
1255 61 62 869 
1256 263 264 265 
1257 479 433 625 
1258 756 754 855 
1259 289 256 333 
1260 234 244 245 
1261 171 419 906 
1262 402 832 843 
1263 513 611 861 
1264 445 443 543 
1265 612 634 1055 
1266 554 555 822 
1267 183 182 184 
1268 399 551 552 
1269 217 210 224 
1270 825 800 850 
1271 443 373 444 
1272 238 246 247 
1273 501 193 852 
1274 196 198 199 
1275 574 829 832 
1276 139 79 911 
1277 473 827 847 
1278 355 331 386 
1279 334 333 335 
1280 684 464 933 
1281 263 261 264 
1282 363 335 384 
1283 642 510 1070 
1284 372 373 443 
1285 380 485 835 
1286 291 255 292 
1287 254 242 255 
1288 330 299 331 
1289 241 226 242 
1290 384 438 532 
1291 263 266 821 
1292 426 529 534 
1293 468 472 831 
1294 10 11 890 
1295 65 66 889 
1296 552 551 553 
1297 199 200 203 
1298 244 233 250 
1299 569 570 848 
1300 434 528 547 
1301 547 653 668 
1302 371 370 434 
1303 348 349 372 
1304 164 22 877 
1305 224 860 887 
1306 225 224 226 
1307 346 348 350 
1308 203 204 209 
1309 467 468 831 
1310 204 200 533 
1311 346 337 347 
1312 348 347 349 
1313 748 747 856 
1314 186 184 187 
1315 53 54 893 
1316 518 582 885 
1317 403 523 874 
1318 238 237 246 
1319 666 473 847 
1320 217 225 415 
1321 262 261 263 
1322 257 256 289 
1323 209 210 213 
1324 334 335 363 
1325 230 232 243 
1326 466 395 685 
1327 401 828 848 
1328 552 553 554 
1329 205 206 211 
1330 222 240 336 
1331 519 702 838 
1332 193 190 852 
1333 505 507 929 
1334 364 363 370 
1335 236 237 238 
1336 289 333 334 
1337 558 581 822 
1338 211 212 214 
1339 800 516 850 
1340 62 146 869 
1341 336 337 345 
1342 291 292 299 
1343 828 569 848 
1344 234 233 244 
1345 555 558 822 
1346 213 210 217 
1347 317 701 1046 
1348 399 397 550 
1349 214 215 222 
1350 433 378 835 
1351 622 467 831 
1352 254 255 291 
1353 241 242 254 
1354 188 187 189 
1355 225 226 241 
1356 399 550 551 
1357 222 223 240 
1358 345 337 346 
1359 209 204 210 
1360 728 797 862 
1361 420 941 974 
1362 203 200 204 
1363 408 560 841 
1364 780 580 1050 
1365 783 542 924 
1366 245 244 256 
1367 211 214 216 
1368 609 537 724 
1369 737 125 1045 
1370 365 366 426 
1371 284 795 917 
1372 485 617 835 
1373 471 596 934 
1374 708 272 1039 
1375 228 229 230 
1376 175 173 239 
1377 624 761 972 
1378 336 240 337 
1379 217 224 225 
1380 579 405 874 
1381 716 707 966 
1382 199 198 200 
1383 647 622 883 
1384 220 311 998 
1385 236 235 237 
1386 538 537 609 
1387 820 299 858 
1388 292 302 858 
1389 191 194 344 
1390 173 171 906 
1391 196 195 197 
1392 807 343 987 
1393 201 205 375 
1394 298 316 365 
1395 191 190 193 
1396 456 435 844 
1397 539 536 823 
1398 230 229 231 
1399 797 287 862 
1400 198 197 201 
1401 746 748 869 
1402 618 421 841 
1403 513 610 611 
1404 346 347 348 
1405 435 434 844 
1406 181 542 892 
1407 421 386 841 
1408 718 504 1026 
1409 445 838 853 
1410 561 681 941 
1411 552 897 909 
1412 372 445 853 
1413 188 189 192 
1414 405 403 874 
1415 320 252 918 
1416 278 290 913 
1417 196 197 198 
1418 194 193 195 
1419 656 311 1035 
1420 420 775 939 
1421 186 187 188 
1422 287 277 870 
1423 291 330 857 
1424 386 408 841 
1425 117 143 872 
1426 115 116 919 
1427 232 235 236 
1428 262 263 821 
1429 194 195 196 
1430 230 231 232 
1431 189 190 191 
1432 536 537 538 
1433 845 532 1029 
1434 347 337 833 
1435 560 647 910 
1436 183 184 186 
1437 302 329 858 
1438 184 182 354 
1439 548 659 920 
1440 22 23 877 
1441 528 370 854 
1442 689 320 918 
1443 299 292 858 
1444 232 231 235 
1445 353 379 849 
1446 726 638 932 
1447 536 538 823 
1448 312 353 849 
1449 191 193 194 
1450 600 643 949 
1451 361 332 884 
1452 281 284 918 
1453 652 898 982 
1454 329 312 849 
1455 314 840 902 
1456 426 366 529 
1457 295 254 857 
1458 396 397 398 
1459 443 444 851 
1460 180 179 185 
1461 126 38 167 
1462 178 177 179 
1463 241 295 859 
1464 543 443 851 
1465 842 662 927 
1466 434 547 844 
1467 176 175 177 
1468 981 593 1011 
1469 382 352 749 
1470 627 916 984 
1471 733 732 881 
1472 145 758 960 
1473 348 372 853 
1474 363 384 854 
1475 664 466 685 
1476 289 792 899 
1477 526 345 842 
1478 384 532 854 
1479 570 573 915 
1480 178 179 180 
1481 176 177 178 
1482 834 833 846 
1483 899 715 921 
1484 398 397 399 
1485 350 348 853 
1486 396 361 397 
1487 333 256 864 
1488 297 697 698 
1489 810 674 1048 
1490 370 363 854 
1491 859 676 1005 
1492 174 175 176 
1493 229 418 871 
1494 945 573 961 
1495 615 962 980 
1496 346 350 842 
1497 665 607 1049 
1498 3 37 628 
1499 479 625 986 
1500 836 219 886 
1501 223 228 846 
1502 433 835 882 
1503 804 819 973 
1504 758 588 977 
1505 345 346 842 
1506 98 99 883 
1507 146 63 931 
1508 254 291 857 
1509 174 173 175 
1510 141 89 962 
1511 634 518 885 
1512 219 213 886 
1513 351 305 352 
1514 160 711 959 
1515 835 617 882 
1516 64 162 931 
1517 224 210 860 
1518 140 723 925 
1519 151 771 994 
1520 109 668 955 
1521 240 223 846 
1522 578 593 981 
1523 39 4 597 
1524 522 777 863 
1525 181 182 183 
1526 833 240 846 
1527 415 225 859 
1528 650 717 1068 
1529 733 881 1037 
1530 196 199 875 
1531 244 250 864 
1532 653 528 923 
1533 162 65 889 
1534 11 163 890 
1535 217 415 886 
1536 257 289 899 
1537 225 241 859 
1538 770 150 1017 
1539 36 124 837 
1540 397 361 884 
1541 231 229 871 
1542 332 821 884 
1543 533 200 866 
1544 529 366 559 
1545 351 358 406 
1546 143 736 900 
1547 168 169 170 
1548 25 160 959 
1549 6 67 1008 
1550 122 1 1009 
1551 172 173 174 
1552 204 533 860 
1553 210 204 860 
1554 174 176 317 
1555 754 753 970 
1556 168 167 169 
1557 54 165 893 
1558 126 167 168 
1559 615 830 962 
1560 66 6 1008 
1561 1 10 1009 
1562 938 673 969 
1563 256 244 864 
1564 52 5 1010 
1565 908 958 1041 
1566 711 877 959 
1567 222 336 868 
1568 573 855 915 
1569 741 139 1002 
1570 542 183 924 
1571 858 329 912 
1572 862 287 904 
1573 627 863 916 
1574 5 53 1010 
1575 187 184 873 
1576 809 315 942 
1577 181 180 182 
1578 57 58 954 
1579 190 187 873 
1580 226 224 887 
1581 625 433 882 
1582 771 768 1034 
1583 201 375 866 
1584 200 198 866 
1585 365 316 366 
1586 390 392 901 
1587 68 69 898 
1588 799 735 956 
1589 198 201 866 
1590 186 188 207 
1591 529 559 608 
1592 596 912 914 
1593 536 535 537 
1594 214 222 868 
1595 830 141 962 
1596 442 544 946 
1597 213 217 886 
1598 720 718 1026 
1599 717 584 1068 
1600 97 150 968 
1601 897 450 909 
1602 91 151 980 
1603 425 848 915 
1604 724 134 993 
1605 818 218 998 
1606 216 214 868 
1607 170 172 208 
1608 770 1017 1034 
1609 211 216 876 
1610 310 817 929 
1611 315 698 928 
1612 100 138 1064 
1613 916 521 984 
1614 419 169 896 
1615 192 189 867 
1616 205 211 876 
1617 259 257 899 
1618 753 752 1044 
1619 737 540 976 
1620 657 745 1073 
1621 820 858 912 
1622 191 344 867 
1623 43 158 993 
1624 875 521 916 
1625 189 191 867 
1626 194 196 875 
1627 142 72 992 
1628 700 534 983 
1629 134 42 993 
1630 566 640 948 
1631 109 110 1066 
1632 344 194 875 
1633 948 507 965 
1634 480 545 960 
1635 550 397 884 
1636 375 205 876 
1637 448 535 536 
1638 399 552 909 
1639 160 26 1021 
1640 101 102 907 
1641 586 667 995 
1642 354 182 880 
1643 352 305 903 
1644 351 352 358 
1645 481 457 947 
1646 994 771 1015 
1647 27 145 1021 
1648 524 895 975 
1649 126 168 367 
1650 298 305 316 
1651 61 869 1001 
1652 537 535 967 
1653 889 564 953 
1654 73 74 1023 
1655 552 554 897 
1656 499 497 1068 
1657 94 7 1016 
1658 7 95 1016 
1659 267 270 964 
1660 769 166 1016 
1661 131 60 1001 
1662 856 549 920 
1663 588 506 977 
1664 343 932 987 
1665 780 787 1007 
1666 412 480 977 
1667 79 80 911 
1668 547 668 925 
1669 182 180 880 
1670 264 261 921 
1671 58 59 1052 
1672 316 305 351 
1673 824 149 1058 
1674 129 108 955 
1675 539 823 928 
1676 178 180 181 
1677 439 590 1000 
1678 171 169 419 
1679 290 310 913 
1680 423 580 1061 
1681 540 430 976 
1682 654 785 1058 
1683 911 80 930 
1684 568 805 1053 
1685 735 799 1019 
1686 416 398 909 
1687 477 476 978 
1688 510 424 999 
1689 624 567 965 
1690 869 748 1001 
1691 2 24 1024 
1692 184 354 873 
1693 358 352 382 
1694 639 718 1071 
1695 230 243 935 
1696 643 602 644 
1697 188 192 891 
1698 632 824 1058 
1699 270 271 1012 
1700 774 581 972 
1701 773 926 937 
1702 887 860 1062 
1703 799 798 1019 
1704 165 824 995 
1705 265 264 985 
1706 208 879 1043 
1707 239 173 906 
1708 647 883 1064 
1709 169 167 896 
1710 849 541 914 
1711 429 619 976 
1712 980 151 994 
1713 23 2 1024 
1714 252 281 918 
1715 172 171 173 
1716 236 238 1069 
1717 180 185 880 
1718 275 278 1038 
1719 287 870 904 
1720 158 756 1056 
1721 175 239 865 
1722 696 820 912 
1723 482 481 1026 
1724 444 373 974 
1725 591 763 922 
1726 795 703 917 
1727 448 446 535 
1728 616 519 1004 
1729 383 446 448 
1730 449 416 450 
1731 824 632 995 
1732 993 158 1056 
1733 232 236 943 
1734 951 479 986 
1735 177 175 865 
1736 269 268 1039 
1737 123 40 660 
1738 351 406 894 
1739 133 115 919 
1740 398 399 909 
1741 549 548 920 
1742 885 142 992 
1743 172 174 879 
1744 526 842 927 
1745 604 550 940 
1746 718 133 1071 
1747 841 560 910 
1748 618 841 910 
1749 472 470 1015 
1750 882 617 1067 
1751 761 159 972 
1752 358 382 383 
1753 744 582 971 
1754 848 570 915 
1755 869 146 1073 
1756 701 620 1046 
1757 563 583 1065 
1758 559 366 894 
1759 174 317 879 
1760 366 316 894 
1761 638 637 932 
1762 259 899 921 
1763 817 505 929 
1764 579 874 1002 
1765 805 803 1020 
1766 648 447 1031 
1767 593 630 1011 
1768 773 135 989 
1769 524 641 661 
1770 970 753 999 
1771 383 382 446 
1772 591 922 952 
1773 746 869 1073 
1774 532 845 923 
1775 604 940 964 
1776 261 259 921 
1777 420 939 941 
1778 582 850 971 
1779 546 826 1028 
1780 897 554 937 
1781 528 854 923 
1782 329 849 914 
1783 80 81 930 
1784 298 221 305 
1785 883 99 1064 
1786 186 207 924 
1787 63 64 931 
1788 854 532 923 
1789 846 228 935 
1790 208 172 879 
1791 872 143 1065 
1792 207 188 891 
1793 316 351 894 
1794 170 171 172 
1795 176 178 892 
1796 438 515 1029 
1797 452 449 878 
1798 805 913 1053 
1799 544 652 982 
1800 185 179 221 
1801 863 344 916 
1802 910 138 1006 
1803 534 529 983 
1804 185 221 298 
1805 838 592 1004 
1806 108 109 955 
1807 450 416 909 
1808 595 526 927 
1809 183 186 924 
1810 610 656 1035 
1811 678 515 1033 
1812 713 716 944 
1813 659 654 954 
1814 577 471 934 
1815 598 123 599 
1816 572 942 961 
1817 170 169 171 
1818 577 934 951 
1819 572 809 942 
1820 683 684 1018 
1821 769 96 968 
1822 759 137 1059 
1823 592 810 1004 
1824 179 177 888 
1825 631 605 1054 
1826 844 547 925 
1827 474 814 1072 
1828 805 1020 1038 
1829 170 208 905 
1830 317 176 892 
1831 40 9 660 
1832 383 811 950 
1833 626 561 941 
1834 168 170 905 
1835 524 452 641 
1836 874 741 1002 
1837 884 821 940 
1838 912 329 914 
1839 900 563 1065 
1840 590 591 952 
1841 964 270 973 
1842 344 875 916 
1843 756 855 945 
1844 554 822 937 
1845 709 546 1028 
1846 634 885 992 
1847 562 626 1025 
1848 159 774 972 
1849 516 442 946 
1850 959 877 1024 
1851 375 725 1022 
1852 920 659 1052 
1853 228 230 935 
1854 629 628 1041 
1855 726 887 1062 
1856 571 730 963 
1857 775 834 939 
1858 834 846 935 
1859 444 981 1011 
1860 614 678 1033 
1861 821 266 940 
1862 457 456 947 
1863 567 566 948 
1864 695 362 1057 
1865 608 559 933 
1866 620 1043 1046 
1867 652 651 953 
1868 178 181 892 
1869 550 884 940 
1870 124 629 895 
1871 830 577 951 
1872 855 573 945 
1873 264 944 985 
1874 735 734 956 
1875 305 221 903 
1876 940 266 964 
1877 243 232 943 
1878 162 889 953 
1879 535 446 988 
1880 936 624 965 
1881 149 57 954 
1882 449 450 878 
1883 618 910 1006 
1884 924 207 1003 
1885 707 708 966 
1886 221 888 903 
1887 543 851 938 
1888 425 915 970 
1889 8 36 837 
1890 476 613 978 
1891 580 1007 1061 
1892 585 639 1071 
1893 367 168 905 
1894 358 383 950 
1895 516 946 971 
1896 135 35 1074 
1897 649 134 967 
1898 24 25 959 
1899 783 924 1003 
1900 444 974 981 
1901 600 601 602 
1902 935 243 996 
1903 598 599 600 
1904 450 897 926 
1905 362 691 1030 
1906 89 90 962 
1907 684 933 990 
1908 952 477 978 
1909 134 724 967 
1910 573 572 961 
1911 406 358 950 
1912 789 801 1063 
1913 545 710 960 
1914 446 447 988 
1915 962 90 980 
1916 268 966 1039 
1917 668 653 955 
1918 367 905 908 
1919 177 865 888 
1920 770 769 968 
1921 656 627 984 
1922 1011 630 1040 
1923 96 97 968 
1924 1048 127 1067 
1925 913 310 1053 
1926 543 938 969 
1927 681 578 981 
1928 915 855 970 
1929 1032 147 1036 
1930 926 773 989 
1931 521 818 984 
1932 645 1032 1036 
1933 878 450 926 
1934 266 267 964 
1935 881 735 1019 
1936 138 907 1006 
1937 594 793 979 
1938 90 91 980 
1939 157 743 982 
1940 430 429 976 
1941 724 537 967 
1942 506 412 977 
1943 581 624 972 
1944 641 452 878 
1945 592 543 969 
1946 613 614 1033 
1947 218 220 998 
1948 125 670 1045 
1949 373 420 974 
1950 819 604 973 
1951 813 563 1037 
1952 933 559 990 
1953 674 127 1048 
1954 600 599 601 
1955 588 759 1059 
1956 850 516 971 
1957 72 73 992 
1958 599 123 660 
1959 42 43 993 
1960 141 830 986 
1961 691 807 987 
1962 855 754 970 
1963 632 586 995 
1964 268 265 985 
1965 900 733 1037 
1966 127 692 1067 
1967 221 179 888 
1968 705 52 1010 
1969 565 122 1009 
1970 67 564 1008 
1971 60 61 1001 
1972 803 804 1020 
1973 957 664 1049 
1974 866 375 1022 
1975 137 936 1059 
1976 424 425 999 
1977 576 615 994 
1978 131 920 1052 
1979 711 709 1028 
1980 896 597 1060 
1981 787 788 1007 
1982 587 588 1059 
1983 645 799 1032 
1984 837 124 895 
1985 615 980 994 
1986 515 439 1000 
1987 166 94 1016 
1988 597 598 1060 
1989 529 608 983 
1990 925 668 1066 
1991 1036 782 1042 
1992 997 415 1005 
1993 763 836 997 
1994 147 782 1036 
1995 207 891 957 
1996 724 993 1056 
1997 782 781 1042 
1998 271 274 1012 
1999 26 27 1021 
2000 598 600 949 
2001 889 66 1008 
2002 10 890 1009 
2003 74 132 1023 
2004 908 631 958 
2005 919 585 1071 
2006 834 935 996 
2007 602 601 648 
2008 53 893 1010 
2009 768 770 1034 
2010 684 990 1018 
2011 623 579 1002 
2012 576 994 1015 
2013 1023 132 1055 
2014 362 1030 1057 
2015 1044 751 1070 
2016 781 130 1047 
2017 752 751 1044 
2018 563 900 1037 
2019 128 938 1040 
2020 498 881 1019 
2021 470 576 1015 
2022 798 498 1019 
2023 425 970 999 
2024 130 780 1050 
2025 575 1036 1042 
2026 575 645 1036 
2027 132 766 1055 
2028 603 1013 1027 
2029 110 140 1066 
2030 1047 130 1050 
2031 751 144 1070 
2032 784 147 1032 
2033 504 482 1026 
2034 1042 781 1047 
2035 619 618 1006 
2036 939 626 941 
2037 584 499 1068 
2038 796 575 1042 
2039 785 632 1058 
2040 801 461 1063 
2041 519 838 1004 
2042 836 886 997 
2043 958 631 1054 
2044 99 100 1064 
2045 59 131 1052 
2046 637 635 1030 
2047 779 1047 1050 
2048 35 661 1074 
2049 580 779 1050 
2050 987 637 1030 
2051 604 964 973 
2052 779 796 1047 
2053 272 269 1039 
2054 745 746 1073 
2055 640 568 1053 
2056 788 789 1063 
2057 886 415 997 
2058 274 275 1038 
2059 461 423 1061 
2060 238 253 1069 
2061 796 1042 1047 
2062 990 406 1018 
2063 814 612 1072 
2064 643 644 991 
2065 1030 635 1057 
2066 1020 274 1038 
2067 532 438 1029 
2068 691 987 1030 
2069 533 1022 1062 
2070 415 859 1005 
2071 851 444 1011 
2072 611 610 1035 
2073 635 595 1057 
2074 587 936 965 
2075 907 619 1006 
2076 877 23 1024 
2077 567 948 965 
2078 533 866 1022 
2079 890 565 1009 
2080 564 889 1008 
2081 676 922 1005 
2082 607 783 1003 
2083 893 705 1010 
2084 609 724 1056 
2085 974 681 981 
2086 140 925 1066 
2087 944 716 985 
2088 878 926 989 
2089 559 894 990 
2090 894 406 990 
2091 830 951 986 
2092 1013 603 1014 
2093 626 996 1025 
2094 461 1061 1063 
2095 1061 788 1063 
2096 996 243 1025 
2097 851 1011 1040 
2098 590 952 978 
2099 1003 957 1049 
2100 932 637 987 
2101 860 533 1062 
2102 641 878 989 
2103 644 602 1031 
2104 626 939 996 
2105 939 834 996 
2106 607 1003 1049 
2107 419 896 1060 
2108 602 648 1031 
2109 895 629 975 
2110 367 908 1041 
2111 143 900 1065 
2112 1000 613 1033 
2113 207 957 1003 
2114 879 317 1046 
2115 406 950 1018 
2116 243 943 1025 
2117 24 959 1024 
2118 938 851 1040 
2119 966 708 1039 
2120 133 919 1071 
2121 936 587 1059 
2122 598 949 1060 
2123 908 905 1051 
2124 631 908 1051 
2125 804 1012 1020 
2126 949 419 1060 
2127 905 208 1051 
2128 661 641 1074 
2129 601 599 1013 
2130 648 601 1014 
2131 1012 274 1020 
2132 515 1000 1033 
2133 958 517 975 
2134 641 989 1074 
2135 1007 788 1061 
2136 599 660 1013 
2137 517 958 1054 
2138 601 1013 1014 
2139 208 1043 1051 
2140 660 9 1027 
2141 612 1055 1072 
2142 1043 631 1051 
2143 1055 766 1072 
2144 1013 660 1027 
2145 989 135 1074 
2146 9 41 1027 
$EndElements
