$MeshFormat
4.1 0 8
$EndMeshFormat
$Entities
16 14 1 0
1 0 2 0 0 
2 0.1 2 0 0 
3 0.15 2 0 0 
4 0.2 1.95 0 0 
5 0.2 1.9 0 0 
6 0.2 0 0 0 
7 2.2 0 0 0 
8 2.2 4.2 0 0 
9 0.2 4.2 0 0 
10 0.2 2.3 0 0 
11 0.2 2.25 0 0 
12 0.15 2.2 0 0 
13 0.1 2.2 0 0 
14 0 2.2 0 0 
101 0.15 1.95 0 0 
102 0.15 2.25 0 0 
1 0 2 0 0.1 2 0 1 3 2 1 -2 
2 0.1 2 0 0.15 2 0 1 3 2 2 -3 
3 0.15 1.95 0 0.2000000000000001 2 0 1 3 2 3 -4 
4 0.2 1.9 0 0.2 1.95 0 1 3 2 4 -5 
5 0.2 0 0 0.2 1.9 0 1 3 2 5 -6 
6 0.2 0 0 2.2 0 0 1 3 2 6 -7 
7 2.2 0 0 2.2 4.2 0 1 2 2 7 -8 
8 0.2000000000000002 4.2 0 2.2 4.2 0 1 3 2 8 -9 
9 0.2 2.3 0 0.2 4.2 0 1 3 2 9 -10 
10 0.2 2.25 0 0.2 2.3 0 1 3 2 10 -11 
11 0.15 2.2 0 0.2 2.25 0 1 3 2 11 -12 
12 0.1 2.2 0 0.15 2.2 0 1 3 2 12 -13 
13 0 2.2 0 0.1 2.2 0 1 3 2 13 -14 
14 0 2 0 0 2.2 0 1 1 2 14 -1 
1 0 0 0 2.2 4.2 0 1 1 14 1 2 3 4 5 6 7 8 9 10 11 12 13 14 
$EndEntities
$Nodes
29 969 1 969
0 1 0 1
1
0 2 0
0 2 0 1
2
0.1 2 0
0 3 0 1
3
0.15 2 0
0 4 0 1
4
0.2 1.95 0
0 5 0 1
5
0.2 1.9 0
0 6 0 1
6
0.2 0 0
0 7 0 1
7
2.2 0 0
0 8 0 1
8
2.2 4.2 0
0 9 0 1
9
0.2 4.2 0
0 10 0 1
10
0.2 2.3 0
0 11 0 1
11
0.2 2.25 0
0 12 0 1
12
0.15 2.2 0
0 13 0 1
13
0.1 2.2 0
0 14 0 1
14
0 2.2 0
1 1 0 1
15
0.04999999999986848 2 0
1 2 0 1
16
0.1288283977570691 2 0
1 3 0 3
17
18
19
0.1691341717850872 1.99619397655646 0
0.1853553391934198 1.985355338925235 0
0.1961939766385155 1.969134171586988 0
1 4 0 1
20
0.2 1.92882839775721 0
1 5 0 18
21
22
23
24
25
26
27
28
29
30
31
32
33
34
35
36
37
38
0.2 1.831957167079699 0
0.2 1.761129489550613 0
0.2 1.68740297821222 0
0.2 1.610658987840413 0
0.2 1.530774024837608 0
0.2 1.44761951213404 0
0.2 1.361061661192848 0
0.2 1.270961170163047 0
0.2 1.177173036118319 0
0.2 1.079546345944795 0
0.2 0.9779239912817661 0
0.2 0.8721424290282611 0
0.2 0.7620314188909345 0
0.2 0.6474138271097232 0
0.2 0.528105140674568 0
0.2 0.4039133876373571 0
0.2 0.2746387471089531 0
0.2 0.1400731253769316 0
1 6 0 13
39
40
41
42
43
44
45
46
47
48
49
50
51
0.3428571428568443 0 0
0.4857142857138604 0 0
0.6285714285705792 0 0
0.7714285714272979 0 0
0.9142857142840168 0 0
1.057142857140736 0 0
1.199999999997498 0 0
1.34285714285501 0 0
1.485714285712522 0 0
1.628571428570035 0 0
1.771428571427548 0 0
1.914285714285061 0 0
2.057142857142574 0 0
1 7 0 27
52
53
54
55
56
57
58
59
60
61
62
63
64
65
66
67
68
69
70
71
72
73
74
75
76
77
78
2.2 0.1499999999997139 0
2.2 0.2999999999994244 0
2.2 0.4499999999992069 0
2.2 0.599999999998847 0
2.2 0.7499999999984098 0
2.2 0.8999999999979726 0
2.2 1.049999999997557 0
2.2 1.199999999997077 0
2.2 1.349999999996596 0
2.2 1.49999999999619 0
2.2 1.649999999995778 0
2.2 1.799999999995371 0
2.2 1.949999999994891 0
2.2 2.099999999994757 0
2.2 2.249999999994964 0
2.2 2.399999999995258 0
2.2 2.549999999995577 0
2.2 2.699999999995933 0
2.2 2.849999999996413 0
2.2 2.999999999996917 0
2.2 3.149999999997422 0
2.2 3.299999999997926 0
2.2 3.449999999998429 0
2.2 3.599999999998909 0
2.2 3.749999999999265 0
2.2 3.899999999999584 0
2.2 4.049999999999669 0
1 8 0 13
79
80
81
82
83
84
85
86
87
88
89
90
91
2.057142857143694 4.2 0
1.914285714286781 4.2 0
1.771428571430475 4.2 0
1.628571428574169 4.2 0
1.485714285717863 4.2 0
1.342857142861557 4.2 0
1.200000000005208 4.2 0
1.057142857147359 4.2 0
0.914285714289466 4.2 0
0.771428571431573 4.2 0
0.6285714285736796 4.2 0
0.4857142857157863 4.2 0
0.3428571428578935 4.2 0
1 9 0 18
92
93
94
95
96
97
98
99
100
101
102
103
104
105
106
107
108
109
0.2 4.059926874623832 0
0.2 3.925361252892475 0
0.2 3.796086612364571 0
0.2 3.671894859327822 0
0.2 3.55258617289309 0
0.2 3.437968581112318 0
0.2 3.327857570975463 0
0.2 3.222076008722066 0
0.2 3.120453654058472 0
0.2 3.022826963884347 0
0.2 2.92903882983925 0
0.2 2.838938338809128 0
0.2 2.75238048786761 0
0.2 2.669225975163762 0
0.2 2.589341012160705 0
0.2 2.512597021788633 0
0.2 2.438870510449933 0
0.2 2.368042832920561 0
1 10 0 1
110
0.2 2.271171602243074 0
1 11 0 3
111
112
113
0.1961939767340068 2.230865828643549 0
0.1853553389334957 2.214644660814841 0
0.1691341715356584 2.203806023340223 0
1 12 0 1
114
0.1288283977571567 2.2 0
1 13 0 1
115
0.05000000000013689 2.2 0
1 14 0 2
116
117
0 2.133333333333362 0
0 2.066666666667158 0
2 1 0 852
118
119
120
121
122
123
124
125
126
127
128
129
130
131
132
133
134
135
136
137
138
139
140
141
142
143
144
145
146
147
148
149
150
151
152
153
154
155
156
157
158
159
160
161
162
163
164
165
166
167
168
169
170
171
172
173
174
175
176
177
178
179
180
181
182
183
184
185
186
187
188
189
190
191
192
193
194
195
196
197
198
199
200
201
202
203
204
205
206
207
208
209
210
211
212
213
214
215
216
217
218
219
220
221
222
223
224
225
226
227
228
229
230
231
232
233
234
235
236
237
238
239
240
241
242
243
244
245
246
247
248
249
250
251
252
253
254
255
256
257
258
259
260
261
262
263
264
265
266
267
268
269
270
271
272
273
274
275
276
277
278
279
280
281
282
283
284
285
286
287
288
289
290
291
292
293
294
295
296
297
298
299
300
301
302
303
304
305
306
307
308
309
310
311
312
313
314
315
316
317
318
319
320
321
322
323
324
325
326
327
328
329
330
331
332
333
334
335
336
337
338
339
340
341
342
343
344
345
346
347
348
349
350
351
352
353
354
355
356
357
358
359
360
361
362
363
364
365
366
367
368
369
370
371
372
373
374
375
376
377
378
379
380
381
382
383
384
385
386
387
388
389
390
391
392
393
394
395
396
397
398
399
400
401
402
403
404
405
406
407
408
409
410
411
412
413
414
415
416
417
418
419
420
421
422
423
424
425
426
427
428
429
430
431
432
433
434
435
436
437
438
439
440
441
442
443
444
445
446
447
448
449
450
451
452
453
454
455
456
457
458
459
460
461
462
463
464
465
466
467
468
469
470
471
472
473
474
475
476
477
478
479
480
481
482
483
484
485
486
487
488
489
490
491
492
493
494
495
496
497
498
499
500
501
502
503
504
505
506
507
508
509
510
511
512
513
514
515
516
517
518
519
520
521
522
523
524
525
526
527
528
529
530
531
532
533
534
535
536
537
538
539
540
541
542
543
544
545
546
547
548
549
550
551
552
553
554
555
556
557
558
559
560
561
562
563
564
565
566
567
568
569
570
571
572
573
574
575
576
577
578
579
580
581
582
583
584
585
586
587
588
589
590
591
592
593
594
595
596
597
598
599
600
601
602
603
604
605
606
607
608
609
610
611
612
613
614
615
616
617
618
619
620
621
622
623
624
625
626
627
628
629
630
631
632
633
634
635
636
637
638
639
640
641
642
643
644
645
646
647
648
649
650
651
652
653
654
655
656
657
658
659
660
661
662
663
664
665
666
667
668
669
670
671
672
673
674
675
676
677
678
679
680
681
682
683
684
685
686
687
688
689
690
691
692
693
694
695
696
697
698
699
700
701
702
703
704
705
706
707
708
709
710
711
712
713
714
715
716
717
718
719
720
721
722
723
724
725
726
727
728
729
730
731
732
733
734
735
736
737
738
739
740
741
742
743
744
745
746
747
748
749
750
751
752
753
754
755
756
757
758
759
760
761
762
763
764
765
766
767
768
769
770
771
772
773
774
775
776
777
778
779
780
781
782
783
784
785
786
787
788
789
790
791
792
793
794
795
796
797
798
799
800
801
802
803
804
805
806
807
808
809
810
811
812
813
814
815
816
817
818
819
820
821
822
823
824
825
826
827
828
829
830
831
832
833
834
835
836
837
838
839
840
841
842
843
844
845
846
847
848
849
850
851
852
853
854
855
856
857
858
859
860
861
862
863
864
865
866
867
868
869
870
871
872
873
874
875
876
877
878
879
880
881
882
883
884
885
886
887
888
889
890
891
892
893
894
895
896
897
898
899
900
901
902
903
904
905
906
907
908
909
910
911
912
913
914
915
916
917
918
919
920
921
922
923
924
925
926
927
928
929
930
931
932
933
934
935
936
937
938
939
940
941
942
943
944
945
946
947
948
949
950
951
952
953
954
955
956
957
958
959
960
961
962
963
964
965
966
967
968
969
0.2241972908542321 1.913603148386799 0
0.2246614661448266 2.284341776404626 0
0.2626197875865558 1.726165457913272 0
0.2558605897326471 2.479655325232694 0
0.2067586128431521 1.985512776600696 0
0.2734876091263326 1.404340586663444 0
0.2661311183334007 2.794643344814852 0
0.2941436976357654 3.169094825881442 0
0.2862773672541198 1.028735168613281 0
0.2054536283033869 2.215840464148829 0
2.0730955898915 2.022982205425194 0
2.084756309677742 2.623275237309161 0
2.070096189432751 1.274999999996836 0
2.070096189431898 3.224999999997674 0
1.135502243751368 4.081182871919056 0
1.118953819979545 0.1330995875766299 0
0.2859504638068218 0.7055710064425262 0
0.296989046892726 3.494551334236998 0
0.1620941734417589 2.185316521229025 0
2.067951795639403 0.824657893197697 0
0.1628860637942582 2.014782616853412 0
1.557142857146016 4.076282085174377 0
1.558387129014077 0.1272876590680902 0
0.6957912144393221 4.081051726938417 0
0.6967740191093392 0.1230169405631991 0
0.1161939672004814 2.021644763649449 0
0.1144073066508479 2.177476645824865 0
2.070367159438985 3.664977931102015 0
0.2738465189984385 1.578722931529908 0
0.2718633839849013 2.627756529540986 0
0.2765618269863683 3.73683651814985 0
0.2973804638902925 0.4735525858933776 0
0.2829567929510016 1.21891542936749 0
0.2765557007166958 2.974980099480773 0
2.071639163589391 1.729189947920244 0
2.076684731591001 2.320539669662622 0
2.055794324137829 2.922736899029846 0
2.075077485941368 0.5470804232465055 0
1.843349921751349 4.072116850484218 0
1.845650988996322 0.117325583661783 0
0.4212182687408561 0.1252334431735161 0
0.4048091027866644 4.09070071942464 0
0.04704945630788729 2.090563798864394 0
0.1816808220840495 2.190232303217719 0
0.1757737095730061 2.170143028203082 0
0.1959550757457694 2.174107903938162 0
0.1895280291327247 2.153795014167967 0
0.2108839321396758 2.158244590995769 0
0.2038794224942982 2.13576091245727 0
0.227369531269118 2.140975635316385 0
0.2195916072699663 2.116907916522401 0
0.2451912249495725 2.122618865203949 0
0.2530859653519012 2.148652123845646 0
0.2738544424512906 2.127299519861616 0
0.2832388579861603 2.157492629105626 0
0.3074309582198003 2.13266879668658 0
0.288327576765616 2.096546538084152 0
0.3321313701248241 2.104183194023392 0
0.3458986675367129 2.14265746524492 0
0.3757292366845025 2.110282834357717 0
0.3914212386608751 2.153179549216563 0
0.4229553220475705 2.118538050153892 0
0.4403158914025276 2.168022605035534 0
0.4743804481324614 2.127688014801654 0
0.4935895969696539 2.180943442530685 0
0.5293877595283852 2.137564462013478 0
0.5489824787108806 2.192964173201271 0
0.5878618457206857 2.148056436949582 0
0.6082230954734114 2.203512224661523 0
0.649721941518576 2.158720773156984 0
0.6711003972517482 2.217299322563864 0
0.7149404741269272 2.170266548744988 0
0.7358549113616557 2.235316848930474 0
0.7815051885302583 2.181422348519515 0
0.7594040395218626 2.115445695491696 0
0.8051556447805442 2.24288090116531 0
0.8304289512197562 2.126135952382127 0
0.8064908390365174 2.054913790095222 0
0.8839780009858296 2.069828017150023 0
0.8572030777619567 1.992124294038132 0
0.9398322914317064 2.007361567064242 0
0.9076893977334612 1.923728860164131 0
0.9977184721089081 1.94126621717499 0
0.9616718460920439 1.85229013254323 0
1.026625582831779 2.019963447579913 0
0.7575300826690191 2.304713962338633 0
0.8455787782965964 2.309170968416206 0
0.7797801036360206 2.378762661209096 0
0.8583115525379548 2.395866773086743 0
0.8004736320378415 2.459067742541551 0
0.8835778156687375 2.47522620104297 0
0.823671382943673 2.541332169052595 0
0.9123996572410074 2.558963112253842 0
0.8492203848130854 2.628141335795195 0
0.9402509194441376 2.650022493252616 0
1.005439498261512 2.57677230451166 0
1.035409917674027 2.671756835616581 0
0.9677235143946061 2.74502255493949 0
1.065541898856824 2.769405267866198 0
0.997096473021197 2.845554629536992 0
0.5035732842384502 2.084630234458913 0
1.058605032504577 1.871650288095016 0
1.02399275656346 1.780321633919151 0
1.099017040864335 2.870307952108795 0
1.027727113970172 2.944048660998606 0
1.10162630027621 2.597431612371386 0
1.133515394621216 2.974033183737249 0
1.03627950826595 3.05679967295413 0
1.123348887670079 1.79896933886927 0
1.08962626430783 1.705148819556877 0
0.9855732932141629 1.686335318681585 0
1.052824847990895 1.609094853300906 0
1.165609339351977 3.083063195875559 0
1.156666293087897 1.626708475433975 0
1.120150681464749 1.528321119812526 0
1.014313085597368 1.511151311962768 0
1.08204809994876 1.429027030729322 0
0.8245073107483296 1.909510940719315 0
0.9763002348634189 1.413149006540497 0
1.043252665368691 1.328348818083999 0
1.148195857522929 1.345254465038324 0
1.108506466870205 1.241427340021648 0
1.081612389069895 3.173081115721984 0
1.203789192797548 3.195570257305873 0
0.9955277153502557 1.225408079138375 0
1.064237250231307 1.133350636377536 0
1.197694074639182 1.161230993242345 0
1.142525110988724 1.043360689656008 0
1.207595879470731 2.89627728319154 0
0.5759058363372307 2.246297217240344 0
1.011321105721865 1.021920513452272 0
0.3577458879978241 2.074254512204268 0
1.25821176491574 1.059015569475423 0
1.213130511891355 0.9461343565224807 0
1.122892374710205 3.282908062925733 0
1.241728199540636 3.309188507775315 0
1.000732819915863 3.262928970431243 0
0.9271530798384511 2.912427913890491 0
0.4021058896921481 2.198165926080519 0
1.321857047888887 3.221085309975365 0
1.361936377850482 3.337992183094726 0
1.042322852885238 3.369290202154934 0
0.7663613923596955 2.605928239808151 0
1.335772017775192 0.9634767084129761 0
1.288004529899603 0.8467113860025629 0
1.380433165106611 1.079339512245253 0
0.1806119340619949 2.132138923189601 0
0.9246668657801889 3.34272311888663 0
0.9606229370558328 3.457972097869147 0
0.9096829095582555 2.337805640429323 0
1.41522014617614 0.8650583433276241 0
1.367794209995178 0.7460133690674838 0
1.238477950262038 0.7282471335421326 0
1.444539612268809 3.245922386516892 0
1.4861395377518 3.365707602263357 0
1.398853352091002 3.46096847629491 0
0.8441525993252459 3.429831145630055 0
0.810055180303906 3.322044483995701 0
1.497246568737464 0.7638823593244348 0
0.9100088554713157 1.494870993918076 0
1.526137487149842 3.490190603080416 0
0.8766970025472054 3.545890615700309 0
0.9972930623043399 3.575354935971353 0
0.872113439162284 1.399106643072032 0
0.8084047500613242 1.4790841362747 0
0.7708486323820265 1.38542134946016 0
0.7097706412067952 1.465188223335097 0
0.6720338787660777 1.370825632137988 0
1.544777991969442 0.8861780052081567 0
1.22648304273356 1.544846557613712 0
1.263326692212913 1.647541901380491 0
1.335573127164461 1.56297582677648 0
1.374717052346807 1.668321280100782 0
1.449156675534871 1.581207723854662 0
1.488425358171635 1.691131887414828 0
1.56652592232704 1.601394089231003 0
1.41133100075019 1.773812170906476 0
1.527540644984841 1.801145594559675 0
1.44630350667677 1.879032546783956 0
1.566149712883261 1.913868223443486 0
1.46943896462117 1.998525770748435 0
1.605153753082373 2.031023991871459 0
1.521276311673414 2.117588578288696 0
0.6248955069644982 2.100894694550256 0
1.318649680105126 0.625831542714834 0
1.189177941677391 0.610039507607771 0
0.7281112646002518 2.439686991188733 0
0.731702852626738 1.292194852752799 0
0.7462511875448763 1.555419521434926 0
0.651257563963951 1.541886203365805 0
0.7590804206833097 3.517400474592364 0
1.436472097117217 3.586874140708565 0
1.566435270459041 3.616904328390204 0
0.6853316213416459 1.627278039001523 0
0.5944628289473957 1.613655134366871 0
0.6273142453530431 1.69615521701414 0
0.632416417184351 1.275973480783677 0
0.6935663803253549 1.197145799309577 0
1.406313702855172 2.104672848118057 0
1.448340497097048 2.205185545443876 0
1.561742096433094 2.231220498087755 0
1.485067021395143 2.314537888719676 0
1.601741166242941 2.3448855065862 0
1.521626338601687 2.420899862543133 0
1.374006024061068 2.284408427370483 0
1.524570065900661 1.487580205155661 0
1.572625946161715 3.270255759038353 0
1.516915971393299 3.146479732233809 0
1.647363143992705 1.508158344526137 0
0.542619779393113 1.682318935861153 0
0.5751181817544906 1.76143875651811 0
1.602505435797447 1.38394536679929 0
0.5561279571093469 1.528981624993099 0
1.64117204694492 2.459608973128925 0
1.533964198368551 2.544482494372432 0
1.657434811401028 3.51801361065187 0
0.9098148177538055 3.667398215206315 0
1.628812953495344 0.7832499623005859 0
1.579906294346186 0.6579235024708383 0
1.677485696076153 0.9088249040316935 0
0.5920039400541819 1.182776176976667 0
0.6557425666318371 1.100437373577363 0
1.645282486981648 1.823461488387953 0
0.4972373642284019 1.746120166097885 0
0.5243111533192319 1.820846688782402 0
0.4422086577565587 1.799877617179993 0
1.676966501013231 2.580024260182987 0
1.590193260148207 2.673214715783921 0
1.034324002951819 3.696297081953123 0
0.4724583420730828 1.87409586517933 0
0.4069050850844405 1.865268531046449 0
0.5442605666208279 1.889360092678268 0
1.110004750721001 0.7114699660176625 0
1.060714387214607 0.5945312988674352 0
0.9836775877080935 0.6950674645130699 0
0.934227523566908 0.5778748827179665 0
0.8580772509927687 0.6781069694910579 0
0.8089281552753205 0.5638655863843657 0
0.7344177631406541 0.6621626821891022 0
0.6834174380771971 0.5552403058406112 0
0.8815845666190654 0.4656200555561424 0
1.271784371026863 0.5062668986024444 0
0.236794663199319 2.098295677295133 0
0.2114734212011149 2.092446045629246 0
0.2283871424773967 2.073533781091275 0
1.674528839709736 2.258713894769727 0
0.7866116957484217 2.695574929433326 0
0.6939072890626123 2.657817697378887 0
0.7209335268031732 2.760686744269437 0
0.630117951712369 2.737630451273662 0
0.6558584097168354 2.8305824962647 0
0.6031106727705934 2.649169130948565 0
0.56438114909927 2.807945800531411 0
0.5897839224219099 2.900560975224029 0
1.651859405334378 3.168263506277847 0
1.466726595408554 2.648881897026988 0
1.508822721581683 2.761254026600759 0
1.631858210178038 2.795231677951115 0
1.155957121164309 1.892855590716105 0
0.7835821400422801 0.7693678460080503 0
0.6754467169078354 0.7461331253610789 0
0.946407748064345 3.78995372002035 0
0.8199708451692043 3.760055115306106 0
1.069677008346745 2.501295585976969 0
1.169858834784684 2.520593184562929 0
1.134986107288214 2.424580502031509 0
0.2034334692581927 2.069231527120929 0
0.4293335972791087 1.923356392759053 0
0.3731375831007481 1.915120030911679 0
1.699202598694034 3.64780922470121 0
0.4651576593266127 1.672563880221921 0
1.481844053267406 3.718262711169339 0
0.2207317270458839 2.049695852530999 0
0.2457925200946919 2.053650257381893 0
0.5309437623864396 1.261778502689367 0
0.7136477689430152 1.711415630671057 0
0.5513378354653337 1.086438476885563 0
0.9132936556812965 2.150049227684969 0
1.713844756259702 0.6765103349948342 0
1.664365239891802 0.5489057112415699 0
1.727744720787368 1.409517997009116 0
1.684384796716568 1.280167403358161 0
0.6841517835904589 2.924263483722225 0
0.6156678103143551 2.996083355965712 0
0.7140448886230982 3.020574324345582 0
0.6423751461916928 3.09462339085146 0
0.5433338168426414 3.068753150196286 0
0.5696437850506068 3.169057863050407 0
1.478037915246422 1.364816726681056 0
1.773663467216017 1.531870875573007 0
1.203976025783409 2.619681812042643 0
0.1873072870934499 2.088531495578882 0
0.3439837372075397 1.866370615339178 0
0.1793685634071604 2.065563152724029 0
0.1635101312279226 2.085065441819352 0
1.766021706722702 2.486369798463106 0
0.4977267509055117 2.876477664406305 0
0.473078714450635 2.786478173423871 0
0.1564590699141928 2.058943823640716 0
0.7542869151871634 1.121519429665255 0
0.2609065395810014 2.177346647817887 0
0.291868038156983 2.190251059736882 0
0.2620938103622354 2.211185285778857 0
0.3002155854475055 2.224502142093226 0
1.119718084929749 3.603036339963989 0
1.147000634081964 3.724549492600988 0
1.792097915071077 3.546097298584744 0
0.2364189922984838 2.028516440464942 0
0.2647301375874948 2.033017305785962 0
0.2522200240848236 2.003544889193559 0
0.2864001895764996 2.010137498192313 0
0.2755855225062456 1.979113300500004 0
0.1551546400468044 2.166138511749863 0
0.1380819149025398 2.077173179568474 0
0.3082738775460103 1.985172185417431 0
0.2979170073125078 1.949140293413222 0
1.276706195883798 2.537995990378868 0
0.6163437645146743 1.001938042958979 0
0.5094585474162896 0.9875050741521956 0
0.3926570260338154 1.96767553837281 0
0.4483130595030063 1.97941122667325 0
1.592390755764719 1.011516994371222 0
1.725864484247396 1.038433354468359 0
1.817647765881585 2.621057730983918 0
1.537158937803675 2.885707247357896 0
1.669672178516843 2.91930363934928 0
1.379493226701684 2.737463760255872 0
1.529381175308495 0.5323476059166633 0
1.619164379254671 0.4248042575047877 0
1.752836958192235 0.4399517761434003 0
1.489632352147182 0.3971936835136934 0
0.2746296184566248 2.250080339208104 0
0.3137101309691406 2.26115505801153 0
0.2837603810896279 2.286745851881984 0
0.3286403479736896 2.303799409012406 0
0.2164673750030451 2.230759544478026 0
0.1817233542341509 2.009674163633282 0
0.2146049121382076 1.963697514184689 0
1.753079511244098 2.827158893192384 0
1.798623188379201 2.951141811761555 0
1.748235074589433 3.417626842412578 0
1.878822365420519 3.433054969925453 0
1.842816119129585 3.309166103351723 0
1.812745797045144 0.9299196652171734 0
1.861937727308116 1.06303665106749 0
0.7328817914220292 2.052361263790728 0
1.294698374752784 1.457840693946457 0
0.7437674794470901 3.119877311255868 0
0.8569875874163524 3.883606609660103 0
0.7302947188950585 3.850957669211157 0
0.6940421451878543 3.728836713727134 0
0.6046658997318739 3.819750064378082 0
0.5695615522159649 3.698092395530769 0
0.147098046550171 2.105658726981769 0
1.857894868038271 1.430415571529546 0
0.2915219166175752 2.333132371727079 0
0.3400190989373114 2.355722226689691 0
0.3808421579812658 2.316532176879724 0
0.396529993338946 2.373238604629657 0
0.438730374366227 2.330233057302713 0
0.4571276767127126 2.390528130271061 0
0.4110331851465188 2.435944275649106 0
0.4753275955767792 2.454669907773232 0
0.523431314365419 2.405819213257245 0
0.4259721576107275 2.50325873254586 0
0.543698301153781 2.473825102002207 0
0.4695557924054122 3.141731200945108 0
0.495798148217862 3.244033093617845 0
0.5987094432819429 3.272146500406647 0
0.5267565816299208 3.346985736440616 0
0.412539202164832 3.329487951231401 0
0.4488902941833782 3.042964578655103 0
1.831306537494368 3.680195085021206 0
1.739207576002114 3.781719769869554 0
1.868779908570602 3.816475144237769 0
0.2987977464775996 2.040028467795467 0
1.035199260754514 0.8122863227911234 0
1.22542354056044 1.82030318626287 0
1.257260053311261 1.915928157085468 0
1.181382344479536 1.985449083396124 0
2.062169964967024 3.965023720097219 0
2.069904718281364 0.2272710730450155 0
0.4111239047113026 2.855622806006441 0
0.8112071236477264 2.786060557896411 0
1.701156181423517 0.3209590478763493 0
1.908888689005281 1.554599335601342 0
1.814460233087369 1.651029850264148 0
1.839645780316636 0.3381743082752044 0
0.4488620213633383 1.077132400481669 0
0.5924026724937151 2.420005147479563 0
0.6129924927813675 2.48915196804379 0
0.1189521404842878 2.100666129174745 0
0.1106971631813507 2.070381783884331 0
0.1306738519468364 2.131652855639615 0
1.906408643334204 2.496763396555255 0
1.853721547205596 2.383836719888803 0
0.1770812405537084 2.029963377644311 0
0.6301890706801107 3.37808424944756 0
0.5495118552357902 3.45466393081293 0
0.9756656269436181 3.926390971199602 0
0.3278614833350669 2.202465663427438 0
0.2180177914225053 2.179918472416748 0
1.036298196111337 2.410557360344011 0
1.100327180792271 2.330222654704911 0
1.199295102590988 2.34643795248305 0
1.163625324454067 2.251473753083359 0
1.065468758106287 2.236845243346979 0
1.120688318783589 2.145438609729764 0
1.226263726189162 2.172011720753656 0
0.4872944012573787 3.786613016868926 0
0.2271766372147817 2.210079510648724 0
0.8120981600873783 3.045773900912963 0
0.8474376832175866 3.144548609455684 0
0.1409780177619833 2.018467393699236 0
1.312750627052119 3.552187508370596 0
0.5735077495224226 0.9048742042088467 0
0.4670578995108006 0.8872288165753847 0
0.6960267520258073 0.9217234407304093 0
0.5179305785506447 3.913330850783684 0
0.3979014756184907 3.878694042872838 0
0.5690254972396592 2.35591035525025 0
0.6416426149526755 2.36246476122862 0
0.4110498441647019 2.021609809506113 0
1.98218724432913 1.460150456902178 0
0.1940991221461783 2.023677784652029 0
0.4474068835802787 3.661373404556433 0
0.2215869120873918 2.256651678510391 0
1.896581737070285 2.844909835132146 0
0.2614420548268803 1.946736578345943 0
0.2825445267544842 1.915365931025208 0
0.5593228737286186 2.559262994085749 0
0.3905128806508774 2.768276745374891 0
0.4496093109283983 2.69138437759247 0
0.3641569990988352 2.477403274915599 0
0.3717623903539696 2.55296821932568 0
0.4431847085215777 2.570285737798324 0
0.893124018821486 4.012163673243073 0
0.2985282518395119 2.386980917032544 0
0.2191855909762438 1.941318339300788 0
0.07870557799744728 2.170865518262982 0
0.08305489377420595 2.030219440181939 0
0.3485246216192586 2.683625242490482 0
0.1317654902123908 2.04393615898512 0
0.2392938701099573 1.869295603458305 0
0.2245807867957061 2.321950105911941 0
1.281637688070987 2.012065046839672 0
0.2293016772552604 1.982715220684861 0
0.2624452036191058 1.80449223089937 0
0.3210327847833474 1.769934605141018 0
0.3293825752770865 1.70353949909213 0
0.3808458872358561 1.749162991208537 0
0.1029567215381257 2.122913315442327 0
1.015379039163638 2.15441604052805 0
1.886515169072018 0.4566211218620543 0
0.3573362883794082 2.008182277173902 0
0.4199771699566722 2.277379065700923 0
0.4778909695919969 2.285461114787459 0
0.5296420912212452 0.8039719681213576 0
0.4303098018346411 0.7796644435314874 0
0.5013300865959072 0.6972069562415939 0
0.3674054119412468 0.8603695152356226 0
1.781357979514817 3.919732685059351 0
1.656343663656598 3.883432103229126 0
1.951721932074008 0.9505874666057227 0
1.979700461170957 1.068447027760099 0
1.932830705982636 1.197767325662526 0
1.905076437700064 0.8166194223074986 0
1.988569869020457 0.6903761879344517 0
0.924002967480599 3.067008141427682 0
1.63988778425368 1.141507254806377 0
0.4757271886426893 2.031901024011237 0
0.5083026170127104 1.982469017000044 0
0.2712084092438153 1.656606556388238 0
0.3384821815014041 1.628127979314826 0
0.3454496117954472 1.545642892464498 0
0.4190294691811012 1.600312701567845 0
0.4172765418680663 1.515583907127756 0
0.3482919947882314 1.464885845776346 0
0.4246511632729482 1.423573543441906 0
0.5406871904619008 2.716888687386072 0
0.5190380241493718 2.6372115611236 0
0.195644037921112 2.113029078807972 0
0.3426082638987762 1.956495127874502 0
0.6658285819397914 3.607711984985999 0
0.6434275634012261 2.573932018918625 0
1.581044969574725 3.014009217969875 0
1.451067329673799 3.04200905616179 0
1.405609129688111 2.913947816520283 0
0.6213818106316527 2.297859803124652 0
1.931919144377618 2.989714712751216 0
1.835770575735983 3.081198131879879 0
2.041978789474266 2.752246511082337 0
2.067888150455636 3.074768399402123 0
0.1407864883416272 2.181511247671154 0
0.1333584000503757 2.159591081433383 0
0.8450965497052435 1.57210561990405 0
0.9481172005970252 1.59027793576885 0
0.8836792071451162 1.667023432727821 0
0.9228908642966706 1.760420015858939 0
0.8135193280877832 1.749080805461231 0
0.2591858220218634 2.54732492111055 0
0.907502910304297 0.7921311246869074 0
0.8178425073603048 0.8848550232395926 0
0.9564689316665183 0.9086767718617054 0
0.8852107258675586 0.9950883335171752 0
0.929629210804954 1.113427631437976 0
0.888039072845433 1.218803145974635 0
0.2236662230887798 2.005153001146313 0
0.9952252013784679 2.316832108753206 0
0.9690688773641898 2.224266937869706 0
2.07355819430565 1.875846068973701 0
1.949753158552324 1.949040961144034 0
1.948445129981126 2.090124627896074 0
1.83010600154821 2.018651837446003 0
1.837620174430797 1.888285158420918 0
1.828469353232833 2.146617468353567 0
1.936034063098432 2.256352011251452 0
0.6594010352739174 1.776867973745496 0
0.7396499173635707 1.79860233440301 0
0.6812987038260485 1.860504142047983 0
1.952415995538911 1.814988222224588 0
1.163547921638811 0.8296003125314548 0
1.706461648657191 1.942833658883178 0
0.2410778061110896 2.23614856771679 0
0.5433380338369508 4.057520157019577 0
0.557415133088493 0.1218969148675977 0
0.4872641406211975 0.2407707158770762 0
0.3563626816686628 0.2485166890334886 0
0.4286461783195333 0.3507902191138578 0
0.553653057072959 0.3536008074866571 0
0.4882770201502885 0.4680039275171 0
0.6249147589573589 0.2405413761340848 0
0.7607821633651369 0.2434662586435919 0
0.6861403544566982 0.3523793414787724 0
0.8360007894094634 0.1255133355303384 0
0.8972581109162144 0.2465861126895982 0
0.9757114281686847 0.1294806608496077 0
1.040286181660794 0.2506904893131499 0
1.180695783265267 0.258153924112145 0
1.094345779518915 0.3692647190563088 0
1.260779370650943 0.1390429501748045 0
1.308665678224264 0.2761457477143722 0
1.403898440532467 0.1666996122279599 0
1.514087979903041 0.2591466013749318 0
0.2959765598488723 3.383102419275138 0
0.3892072383711646 3.442111135227307 0
0.3966779470566098 3.548366509706604 0
2.060893138722284 2.483447488632705 0
0.6052968194110729 0.646682467091279 0
0.3082120535447456 3.275050986640556 0
0.5068891706642187 1.609273324563398 0
0.4894273476279937 1.170646180073863 0
0.4344312560235779 1.254686268682538 0
0.3780276264448236 1.169779738363282 0
0.4750002726924953 1.340544868063057 0
0.3843606341612554 1.331534619265753 0
0.5219461613440939 1.426238424437078 0
1.508845592425184 1.102123108294947 0
1.537521351598934 1.23984700602152 0
1.419778983905446 1.271441695069052 0
1.776304844910989 1.171294610190264 0
1.917897495772263 3.951972666947413 0
1.69703488844315 4.042734064802952 0
0.5998777773680682 1.837902373477253 0
0.6092663677643565 1.918749814376118 0
0.6946100471660487 1.939933691458663 0
0.6374074867817189 1.987708913997525 0
1.318342208524024 2.639819159946297 0
1.250089497977234 2.717386195851665 0
1.393496390950934 2.554598583982687 0
1.341477459939712 2.457692301993879 0
0.3626989310045464 2.265283105190341 0
0.4490418241620113 2.22657558654251 0
0.2713810446212789 1.491432263049168 0
0.2681240330725101 2.709638270169572 0
0.6138803694828203 1.449729206461755 0
2.06821062738503 1.575713132939834 0
0.3885300164477946 0.9795023972017292 0
0.5344102105942543 3.571218356838185 0
0.7804528331349212 1.644011846041936 0
0.2942252154440557 0.5889740752246599 0
1.973850881967373 0.3472512672408506 0
1.270895615891619 4.078262055607221 0
1.203017880118253 3.957730520646768 0
1.339453831544023 3.957096645225953 0
1.275548251553637 3.86911937440739 0
1.386843634050016 3.823012479885258 0
0.4306125971778213 2.948385824142353 0
2.076124855465847 3.809171157718331 0
1.474516830041413 3.956828653524372 0
0.2909809849599801 1.320172155197379 0
0.2708354246474063 2.883452229786396 0
2.077061907603725 3.374883457744033 0
2.070755762406385 3.523857586095557 0
0.282954186935029 3.070512625161321 0
0.2835381002027594 1.126619342013129 0
0.9345500680627308 1.315145927366639 0
2.072376585760343 2.173333085704177 0
0.2495600579097974 2.268713260732304 0
1.334708032619443 2.189900246833556 0
1.305897496866707 2.828312603342312 0
0.3744154217370153 3.109685462308072 0
0.3165018038472052 3.630204019921426 0
1.356659863352699 1.351645805094411 0
1.3092126154801 1.245260325454282 0
0.4000499038974278 2.073942503758992 0
0.8855025209666976 2.225884510097963 0
1.351035542381539 3.67549229969802 0
1.903229978006094 2.713891116488834 0
0.9733979468509514 2.489428396376701 0
1.699999999998792 0.1237179148266697 0
1.27797813370043 3.42818131775731 0
0.8703949955495454 1.838939732750406 0
1.265396219210978 2.267232378425681 0
0.747515077120436 2.519709420093954 0
1.690488565115632 1.628817328136351 0
1.798926447689875 0.5668147221830397 0
1.448149508783693 0.6433355222345858 0
0.7875723022135285 3.637882186586371 0
1.411763427200415 4.078078239921987 0
0.6813017060813131 2.289297644480277 0
1.708665999425598 3.049732484574366 0
0.6433423146408366 3.949015850513915 0
1.089728822118124 0.9286411275673436 0
0.5210025319742695 2.972204258098297 0
1.721663843333621 2.079405954223413 0
0.7660781073802628 1.977766684841555 0
0.317132333121416 3.984209409293118 0
1.61205688503238 3.747945136421954 0
1.28066976912603 3.108089592986377 0
1.011643471637288 0.4773648394293653 0
1.059598094824422 3.827288223121512 0
0.7748835891687669 2.948447598527979 0
1.941320399727267 3.573405102958814 0
1.079546515134913 3.485765377467704 0
0.04426480734245676 2.044534357465468 0
0.4991709026773484 2.344559934275277 0
0.670688242180792 3.195166554097808 0
0.56820339137159 1.984057657914377 0
0.5957657209181348 2.0421590352032 0
1.61289652867724 3.393514688452063 0
1.187156891789913 1.44517330281057 0
1.764189028642414 0.801776371968023 0
1.462906611536214 0.9846154453100298 0
0.393849051820846 3.211894371638326 0
1.814874329650446 1.305874290652002 0
1.713010764641162 2.706237396519592 0
1.236280967912611 2.442621151786615 0
0.1944999065620713 2.045494777529802 0
1.239639829381741 3.000372534939518 0
1.159549614218057 3.398041156420753 0
1.603962790433419 1.713215663922804 0
0.1560324050581972 2.129970270664195 0
0.8764720121746101 2.720378866623368 0
0.7228954928300682 1.029305101559627 0
1.406449336991983 1.467677830251454 0
1.132270647020696 2.692841914235404 0
0.3762125622036197 1.81247950935745 0
0.7467550412678282 2.853745784678972 0
1.4016508103498 0.5190349315508335 0
1.72066300263622 2.370312029511094 0
1.193322904174107 1.724170926876134 0
1.08878475994203 1.958890938604612 0
0.1717006403188079 2.109065656173629 0
0.8308782964851325 1.304245115209449 0
1.947943692168272 1.334474568195544 0
1.301545747205486 1.746353839753323 0
0.6911225968022738 2.110663182995387 0
0.1692335226876854 2.150596114119019 0
0.702759905169911 3.297858152891944 0
0.3263278010201674 1.913680441957965 0
1.699067177452036 3.295920628890397 0
0.2906271584070818 1.854899561221808 0
1.980412141292589 4.079343279683902 0
1.980412141290663 0.120656720316679 0
0.9589876245262342 0.3608980314390104 0
1.928170618747982 3.169064476754898 0
0.3898539661090996 0.6647458247356739 0
0.4876751240550827 0.5877589597093724 0
0.973295584150915 2.081041497421442 0
0.4930723140095971 2.521244280815487 0
0.1089502897695357 2.152512396592416 0
1.849905761792989 0.6892437475479789 0
0.8239122949484827 0.3544565367247965 0
0.2554571554350817 2.08072764383976 0
1.137731898773686 0.4962197678878359 0
0.7337292176987162 3.404609608375985 0
0.6247437193056042 0.4573180629287625 0
2.082594788928171 0.9875345266749941 0
1.358077907079542 1.938237893767507 0
1.224255214256072 0.3858808989493144 0
0.7720800468267883 3.978391673140115 0
0.3122089222537124 0.3654680132509053 0
0.9038184349996836 2.817451328423175 0
0.1566231846657877 2.035688306714605 0
0.5728776330068468 1.348180071085494 0
0.3533072377258169 2.41132813851972 0
0.2021102746521641 2.196319396087806 0
0.4494429001869351 2.077397982791205 0
1.942724741642478 1.682692559691572 0
0.9998885855320795 4.084465620986061 0
0.4896779794466135 1.931172501231389 0
1.722812362019541 1.737728475291436 0
0.3142324564649458 2.069965787332371 0
0.7760633215336368 3.2204064259247 0
1.201720018398262 2.077169337712387 0
0.5623818706544681 2.09153383118537 0
0.6561381300298141 3.482439143698288 0
0.3602195637843162 3.011962584817912 0
0.9619561344720712 3.157884992306987 0
0.3472972896526542 2.9187115651414 0
0.7497058854705406 1.887487572537686 0
1.326195561381691 1.843361277407424 0
0.2859770958899288 0.9259209009171474 0
0.3369674340785251 2.613267725886071 0
0.3921336647092464 1.682709898152132 0
1.304391716070742 2.362721366363145 0
0.7514544214470613 0.4581466481522417 0
1.176735410176087 2.795755202765986 0
1.195370863237683 3.5159755078765 0
0.2355217332325901 1.957651915352285 0
0.9427489370176173 2.404286080005492 0
1.778867797701181 3.190995264759752 0
0.7107753491334401 2.360587890605003 0
0.7908887433839134 1.211990181354466 0
1.113310993207739 2.045257016924042 0
1.250550109878144 1.355616845839041 0
0.3165217774892575 2.166033071260074 0
0.1041843825969682 2.045538648871299 0
1.352425218105485 0.4020198795106084 0
0.8868186675372087 3.241756100166824 0
0.2786905484550984 0.8170869239595981 0
0.5129611477409886 2.236508610798735 0
1.791498054901263 2.265429444362341 0
0.2534471521370023 2.308989656036753 0
0.3567720920749577 1.081389496027378 0
0.3913793332154342 0.5374053039664302 0
1.932639742857264 0.5668352306242076 0
0.3217656554700595 2.018021126241743 0
0.2599250125601759 2.105097648856922 0
1.391195694176265 3.133283185310233 0
1.530823993977342 3.845090328222343 0
0.8370624388699677 2.882143052864287 0
0.5387340931830529 2.297159109815822 0
0.234765195943302 2.16589329222187 0
1.966782637731865 3.313685449383902 0
1.915280241458022 0.2292499801581177 0
0.6666683575404451 2.051427174075177 0
1.633728358720026 2.147755809342575 0
0.08742424614674318 2.096679610543349 0
1.345249671311118 3.019678371477326 0
0.2778895988042382 2.062322666703267 0
1.972616292590212 2.397952980989927 0
0.3651395865034425 2.220897378892036 0
1.230899563455477 3.634644644907778 0
0.3045625456672834 2.44663932665439 0
1.95645411142696 3.725071696222948 0
0.4031367480445171 2.62787914677895 0
0.4817850362757749 1.490883624325863 0
0.2013530054578096 2.005718359146005 0
1.835329976994898 1.768989319621791 0
0.06562476057196244 2.133659990903096 0
0.03724612688472598 2.16574055719191 0
0.2525947108588563 2.355363610923012 0
0.3541514589081277 1.259017642175288 0
1.086058752462246 3.969673850304294 0
1.299299001514157 2.098802064108864 0
0.5356590121396737 2.036125133295523 0
0.2519886260862631 1.910020642135124 0
0.2982454263567881 3.84450119602534 0
0.07944582489160201 2.062986273301797 0
1.300798401343681 2.931717721894196 0
1.203571478832345 1.268172005190376 0
0.3341778098068275 2.828279053873131 0
0.656958326764007 2.429321292752903 0
0.2519243496830498 2.412592087202189 0
2.094161587269237 0.381163090518561 0
0.3581581072029172 2.180566509020258 0
1.779197807061765 0.2248576800949013 0
0.8093419131617271 4.094321414664321 0
1.965210625835251 2.614029864418266 0
0.1711515787523596 2.047800687026752 0
1.629156049051359 0.2235793278514673 0
0.6824573436748469 2.504478256283553 0
0.3124812112407807 2.511201363810434 0
1.410016323435332 2.379886263159649 0
0.3446006028428951 1.394938394052372 0
0.215286582873836 2.025311659366937 0
0.8368457625273632 1.14525908616817 0
2.108172796086321 1.424999999996394 0
0.239944972330721 2.189266824965952 0
0.3080365357823731 0.1436044837405073 0
0.1501778235466027 2.148254831122392 0
2.107316932118407 0.6749999999986286 0
1.314476029015677 1.140510931062287 0
0.5781181201504637 0.5518312255494815 0
2.083700281076656 1.144432149374126 0
0.2929597157531947 4.106967400668318 0
0.4674811428223912 3.48491514106649 0
0.3214108719730782 1.820850276567656 0
0.4362913959615932 1.72795490128676 0
0.4362223047828334 3.984891035878771 0
1.440116142259243 2.471511901210356 0
0.2735612703500935 1.88718929191737 0
2.093848669027284 4.091930705195757 0
2.10149194334292 0.09958555867228169 0
0.794811438111932 1.837921284400902 0
0.3339251434519404 2.234860669522914 0
0.25081420238116 1.973952380815331 0
0.6966285079046532 2.001695995611904 0
0.7900766464157487 0.9758345002128284 0
1.171790873681722 3.847498030336253 0
0.320014583356713 2.751855714924495 0
1.415199880340647 0.3031100521584462 0
0.7202469049636967 0.8317745023567501 0
1.745800934110763 1.835664696880417 0
0.8423256430248908 2.186000217840076 0
0.3839866403702178 3.751202517017935 0
0.9256161455641128 2.277979644605943 0
1.432548562727234 2.820109249276288 0
1.260519749867393 3.762386053639281 0
1.582070169982831 3.973015332112291 0
0.3726679642585173 2.044854103448548 0
0.8723831983278788 2.974995435594448 0
1.365664232436759 2.027466458260972 0
0.3371578968532248 2.046281414599467 0
1.992996108407664 3.449771876992847 0
0.9575091735766101 2.991055964973071 0
0.6310427331576987 2.250389243613417 0
0.8205885720429662 1.062009449560722 0
1.490375885832326 2.961674711328531 0
0.6293454408302721 0.8227214511642807 0
0.5847788592450343 0.7357554087524849 0
0.4702048325746606 1.553317551056281 0
1.590639388355954 0.3251365836242459 0
0.5397581075849629 1.939780884293111 0
0.3442407943704626 0.7702243130964437 0
0.3034088987478734 1.887501168292306 0
1.972608844642817 3.857686220009029 0
1.419115649759153 1.16895596312394 0
0.3908642096437863 0.4413964507183977 0
0.2382060061835285 1.933086118421356 0
1.729977689979496 2.179584514210324 0
0.310452048336008 2.570503751934744 0
0.3983455203494182 2.239706510439205 0
1.808319339381813 2.740737101023231 0
0.7067337331237634 2.572373126496634 0
0.4605794631347555 2.629603763947604 0
0.4681453801976801 3.409461037400603 0
1.052947055394306 2.08791114017516 0
1.995242138275045 0.4541241043411941 0
0.4993882410244063 2.578668361233089 0
$EndNodes
$Elements
15 1936 1 1936
1 1 1 2
1 1 15 
2 15 2 
1 2 1 2
3 2 16 
4 16 3 
1 3 1 4
5 3 17 
6 17 18 
7 18 19 
8 19 4 
1 4 1 2
9 4 20 
10 20 5 
1 5 1 19
11 5 21 
12 21 22 
13 22 23 
14 23 24 
15 24 25 
16 25 26 
17 26 27 
18 27 28 
19 28 29 
20 29 30 
21 30 31 
22 31 32 
23 32 33 
24 33 34 
25 34 35 
26 35 36 
27 36 37 
28 37 38 
29 38 6 
1 6 1 14
30 6 39 
31 39 40 
32 40 41 
33 41 42 
34 42 43 
35 43 44 
36 44 45 
37 45 46 
38 46 47 
39 47 48 
40 48 49 
41 49 50 
42 50 51 
43 51 7 
1 7 1 28
44 7 52 
45 52 53 
46 53 54 
47 54 55 
48 55 56 
49 56 57 
50 57 58 
51 58 59 
52 59 60 
53 60 61 
54 61 62 
55 62 63 
56 63 64 
57 64 65 
58 65 66 
59 66 67 
60 67 68 
61 68 69 
62 69 70 
63 70 71 
64 71 72 
65 72 73 
66 73 74 
67 74 75 
68 75 76 
69 76 77 
70 77 78 
71 78 8 
1 8 1 14
72 8 79 
73 79 80 
74 80 81 
75 81 82 
76 82 83 
77 83 84 
78 84 85 
79 85 86 
80 86 87 
81 87 88 
82 88 89 
83 89 90 
84 90 91 
85 91 9 
1 9 1 19
86 9 92 
87 92 93 
88 93 94 
89 94 95 
90 95 96 
91 96 97 
92 97 98 
93 98 99 
94 99 100 
95 100 101 
96 101 102 
97 102 103 
98 103 104 
99 104 105 
100 105 106 
101 106 107 
102 107 108 
103 108 109 
104 109 10 
1 10 1 2
105 10 110 
106 110 11 
1 11 1 4
107 11 111 
108 111 112 
109 112 113 
110 113 12 
1 12 1 2
111 12 114 
112 114 13 
1 13 1 2
113 13 115 
114 115 14 
1 14 1 3
115 14 116 
116 116 117 
117 117 1 
2 1 2 1819
118 193 724 204 
119 543 935 720 
120 431 560 416 
121 10 562 109 
122 720 935 148 
123 432 600 572 
124 15 753 1 
125 510 560 431 
126 47 660 46 
127 570 627 395 
128 724 936 204 
129 70 609 69 
130 240 827 225 
131 802 869 174 
132 545 609 154 
133 634 870 513 
134 225 827 586 
135 369 598 548 
136 110 544 119 
137 542 905 766 
138 325 603 372 
139 626 839 267 
140 559 692 147 
141 393 697 617 
142 572 600 437 
143 540 816 723 
144 520 839 626 
145 685 687 373 
146 687 920 332 
147 444 685 373 
148 146 591 590 
149 154 607 545 
150 174 869 821 
151 248 623 622 
152 161 815 112 
153 460 840 794 
154 427 625 564 
155 528 908 420 
156 554 818 87 
157 248 622 621 
158 87 897 554 
159 373 687 332 
160 572 856 432 
161 99 667 98 
162 603 739 372 
163 783 907 541 
164 120 566 565 
165 513 851 634 
166 543 720 664 
167 704 938 725 
168 140 660 47 
169 147 832 559 
170 420 641 528 
171 395 797 570 
172 548 602 369 
173 13 557 144 
174 146 592 591 
175 174 857 802 
176 536 740 642 
177 150 713 671 
178 120 565 22 
179 130 907 783 
180 46 660 658 
181 82 680 81 
182 766 905 390 
183 696 825 601 
184 199 730 201 
185 516 825 696 
186 665 898 512 
187 703 938 704 
188 583 914 130 
189 528 815 519 
190 39 909 6 
191 69 609 129 
192 561 886 118 
193 11 544 110 
194 406 676 329 
195 154 609 70 
196 444 686 685 
197 16 531 143 
198 6 909 38 
199 1 753 117 
200 617 636 393 
201 160 879 116 
202 642 919 536 
203 37 909 645 
204 18 877 454 
205 242 623 243 
206 674 693 330 
207 153 870 634 
208 330 876 674 
209 444 718 686 
210 437 600 386 
211 693 813 285 
212 662 667 488 
213 488 663 662 
214 24 590 23 
215 588 816 540 
216 606 738 539 
217 146 590 24 
218 409 781 412 
219 343 775 568 
220 113 161 112 
221 340 640 297 
222 369 602 365 
223 671 882 150 
224 560 812 416 
225 606 861 247 
226 5 561 118 
227 637 683 682 
228 581 584 137 
229 146 691 592 
230 328 681 342 
231 115 557 13 
232 18 454 17 
233 2 558 15 
234 204 936 267 
235 148 935 887 
236 550 598 597 
237 126 831 695 
238 674 813 693 
239 125 667 99 
240 585 855 155 
241 821 869 493 
242 621 741 248 
243 46 658 45 
244 617 697 615 
245 406 677 676 
246 117 160 116 
247 425 625 427 
248 21 561 5 
249 201 730 616 
250 794 863 460 
251 243 623 248 
252 596 673 672 
253 298 942 807 
254 264 599 166 
255 130 783 583 
256 694 817 503 
257 538 861 606 
258 494 741 621 
259 166 599 168 
260 887 935 537 
261 133 655 654 
262 607 794 608 
263 155 911 585 
264 235 730 199 
265 38 909 37 
266 297 640 299 
267 127 815 528 
268 298 807 296 
269 577 796 666 
270 535 932 620 
271 602 964 365 
272 246 836 718 
273 593 668 388 
274 582 914 583 
275 620 928 535 
276 642 740 141 
277 568 918 343 
278 58 914 806 
279 557 799 144 
280 385 386 348 
281 637 682 681 
282 738 841 539 
283 695 853 126 
284 133 656 655 
285 718 836 686 
286 610 794 607 
287 242 624 623 
288 342 681 349 
289 139 680 82 
290 799 879 569 
291 664 696 543 
292 329 676 399 
293 704 725 389 
294 81 680 156 
295 794 840 608 
296 599 781 409 
297 133 654 44 
298 72 610 71 
299 726 898 609 
300 388 833 593 
301 739 840 372 
302 512 870 665 
303 592 691 595 
304 609 898 129 
305 156 680 579 
306 634 715 153 
307 806 914 582 
308 111 453 11 
309 98 667 662 
310 584 585 137 
311 145 751 711 
312 517 818 554 
313 517 883 818 
314 608 840 739 
315 228 616 615 
316 510 846 560 
317 131 610 72 
318 651 835 805 
319 201 616 220 
320 112 815 127 
321 722 890 244 
322 347 348 343 
323 595 691 123 
324 550 597 415 
325 450 689 452 
326 541 694 503 
327 399 676 587 
328 757 865 301 
329 531 560 143 
330 540 572 437 
331 579 679 156 
332 587 678 399 
333 636 829 637 
334 228 615 614 
335 912 957 722 
336 576 954 795 
337 462 678 440 
338 129 898 665 
339 579 680 580 
340 244 912 722 
341 635 681 328 
342 347 385 348 
343 722 957 677 
344 805 835 357 
345 557 879 799 
346 576 795 577 
347 137 806 581 
348 168 599 361 
349 385 437 386 
350 550 965 598 
351 684 865 757 
352 803 808 359 
353 596 904 673 
354 44 654 43 
355 180 690 256 
356 563 823 497 
357 23 590 120 
358 220 616 228 
359 449 641 420 
360 45 658 133 
361 673 904 708 
362 683 829 744 
363 152 817 694 
364 254 827 240 
365 121 618 107 
366 675 761 439 
367 558 753 15 
368 683 684 682 
369 117 753 160 
370 621 622 620 
371 13 144 114 
372 16 143 2 
373 210 727 213 
374 440 678 587 
375 744 927 683 
376 140 661 660 
377 406 773 721 
378 325 604 603 
379 228 614 229 
380 634 851 633 
381 296 830 294 
382 852 881 562 
383 649 651 647 
384 524 627 570 
385 415 597 370 
386 796 913 666 
387 208 727 210 
388 677 957 676 
389 342 343 341 
390 645 810 37 
391 564 926 427 
392 342 347 343 
393 766 899 514 
394 542 766 514 
395 708 904 123 
396 263 761 675 
397 125 762 667 
398 308 736 601 
399 544 716 119 
400 619 621 620 
401 388 668 327 
402 632 638 629 
403 616 617 615 
404 71 610 154 
405 619 620 377 
406 640 743 299 
407 593 833 591 
408 12 611 136 
409 719 762 125 
410 489 742 404 
411 412 781 471 
412 721 773 464 
413 313 635 328 
414 879 880 116 
415 636 924 829 
416 354 619 377 
417 332 920 321 
418 361 409 384 
419 449 716 641 
420 588 885 218 
421 525 967 843 
422 229 614 233 
423 153 715 66 
424 182 690 180 
425 327 668 312 
426 43 654 652 
427 695 831 578 
428 628 638 152 
429 328 342 341 
430 627 724 395 
431 328 341 327 
432 629 638 628 
433 361 384 362 
434 586 945 225 
435 748 793 657 
436 271 858 325 
437 145 874 751 
438 159 919 642 
439 107 618 106 
440 63 628 152 
441 681 682 349 
442 644 649 647 
443 657 808 803 
444 583 678 462 
445 409 411 384 
446 313 328 327 
447 19 455 122 
448 705 742 489 
449 392 670 669 
450 313 327 312 
451 615 697 613 
452 676 957 675 
453 282 613 306 
454 43 652 42 
455 251 639 262 
456 639 741 494 
457 563 884 823 
458 549 559 550 
459 420 908 418 
460 566 917 565 
461 643 649 644 
462 656 657 655 
463 568 775 566 
464 392 669 338 
465 545 726 609 
466 311 697 393 
467 311 312 307 
468 597 598 369 
469 311 313 312 
470 136 611 430 
471 144 611 114 
472 664 916 696 
473 460 863 459 
474 142 649 643 
475 612 799 511 
476 626 627 524 
477 453 544 11 
478 122 877 18 
479 3 531 16 
480 826 828 705 
481 452 689 475 
482 262 639 270 
483 89 642 141 
484 142 643 41 
485 218 816 588 
486 556 838 455 
487 306 697 311 
488 306 307 284 
489 651 805 647 
490 67 665 153 
491 506 695 436 
492 284 693 285 
493 549 550 415 
494 128 629 628 
495 657 793 655 
496 306 311 307 
497 434 688 687 
498 525 843 823 
499 23 120 22 
500 108 121 107 
501 672 674 596 
502 807 830 296 
503 565 917 790 
504 604 868 605 
505 521 626 524 
506 334 736 279 
507 128 715 630 
508 282 306 284 
509 669 671 506 
510 524 570 525 
511 506 853 695 
512 500 549 415 
513 242 714 624 
514 630 715 634 
515 352 619 354 
516 438 540 437 
517 644 646 645 
518 106 618 147 
519 83 737 139 
520 381 520 383 
521 489 826 705 
522 643 644 158 
523 348 775 343 
524 520 626 521 
525 367 369 365 
526 277 613 282 
527 630 631 629 
528 349 819 347 
529 325 858 604 
530 406 721 677 
531 22 565 21 
532 470 696 601 
533 386 410 348 
534 613 697 306 
535 756 885 589 
536 455 564 122 
537 636 637 635 
538 631 640 632 
539 393 635 313 
540 282 284 283 
541 277 282 281 
542 392 672 670 
543 279 736 308 
544 672 673 670 
545 207 732 304 
546 631 743 640 
547 434 687 685 
548 463 744 195 
549 300 316 298 
550 841 892 539 
551 128 628 64 
552 497 780 376 
553 521 524 523 
554 414 415 370 
555 644 645 158 
556 394 669 506 
557 429 926 546 
558 508 602 548 
559 592 593 591 
560 377 378 356 
561 304 892 841 
562 354 377 356 
563 531 812 560 
564 721 844 722 
565 338 669 394 
566 128 630 629 
567 494 621 619 
568 647 648 646 
569 637 681 635 
570 213 727 381 
571 631 632 629 
572 133 658 656 
573 384 766 390 
574 470 601 468 
575 361 599 409 
576 494 619 352 
577 65 128 64 
578 863 944 459 
579 484 489 404 
580 367 597 369 
581 350 494 352 
582 630 633 631 
583 475 689 573 
584 154 610 607 
585 680 939 580 
586 717 731 526 
587 534 695 578 
588 587 675 439 
589 233 277 236 
590 527 543 470 
591 319 322 317 
592 793 801 653 
593 159 642 90 
594 40 643 158 
595 370 597 367 
596 650 651 649 
597 104 692 124 
598 152 694 62 
599 712 719 125 
600 436 695 534 
601 469 470 468 
602 481 754 538 
603 429 546 433 
604 583 763 678 
605 139 737 707 
606 274 275 265 
607 168 361 360 
608 25 146 24 
609 106 147 105 
610 374 444 373 
611 601 736 468 
612 614 615 613 
613 322 717 317 
614 587 676 675 
615 63 152 62 
616 757 885 756 
617 95 720 148 
618 341 388 327 
619 73 710 131 
620 439 761 286 
621 129 665 68 
622 264 786 770 
623 314 392 338 
624 414 500 415 
625 67 153 66 
626 605 937 442 
627 312 668 330 
628 538 606 539 
629 91 159 90 
630 40 158 39 
631 233 614 277 
632 312 330 307 
633 601 825 308 
634 511 910 612 
635 42 652 142 
636 352 354 353 
637 354 356 355 
638 644 647 646 
639 123 904 595 
640 270 639 350 
641 132 701 700 
642 670 671 669 
643 350 352 351 
644 690 962 256 
645 89 141 88 
646 42 142 41 
647 345 373 332 
648 394 506 436 
649 775 917 566 
650 142 650 649 
651 573 690 574 
652 543 696 470 
653 450 925 689 
654 467 468 380 
655 559 930 692 
656 520 521 383 
657 583 783 763 
658 300 317 316 
659 145 711 75 
660 418 862 170 
661 546 926 838 
662 25 691 146 
663 277 281 236 
664 519 908 528 
665 534 578 576 
666 708 882 673 
667 264 781 599 
668 580 746 491 
669 488 762 485 
670 498 706 77 
671 265 848 254 
672 282 283 281 
673 475 573 477 
674 701 703 702 
675 69 129 68 
676 60 130 59 
677 64 628 63 
678 270 350 303 
679 86 132 85 
680 384 390 362 
681 45 133 44 
682 524 525 523 
683 326 733 293 
684 668 951 330 
685 481 538 507 
686 682 953 349 
687 284 285 283 
688 71 154 70 
689 672 813 674 
690 132 700 85 
691 95 148 94 
692 36 149 35 
693 322 731 717 
694 258 729 253 
695 68 665 67 
696 469 527 470 
697 90 642 89 
698 41 643 40 
699 342 349 347 
700 97 135 96 
701 34 134 33 
702 323 773 406 
703 73 131 72 
704 884 942 316 
705 749 929 883 
706 508 901 602 
707 551 814 479 
708 467 469 468 
709 74 710 73 
710 62 694 61 
711 74 711 710 
712 311 393 313 
713 144 612 611 
714 358 801 793 
715 116 880 14 
716 350 639 494 
717 192 785 463 
718 98 662 97 
719 65 715 128 
720 149 698 35 
721 102 709 151 
722 440 587 439 
723 35 698 34 
724 345 374 373 
725 76 706 145 
726 84 737 83 
727 393 636 635 
728 78 498 77 
729 53 499 52 
730 356 666 357 
731 343 918 341 
732 34 698 134 
733 378 666 356 
734 749 883 517 
735 701 702 700 
736 445 777 448 
737 97 662 135 
738 381 727 520 
739 100 712 125 
740 496 497 376 
741 616 730 617 
742 658 659 656 
743 598 969 548 
744 27 123 26 
745 104 124 103 
746 473 881 852 
747 26 691 25 
748 443 739 603 
749 623 947 622 
750 380 736 334 
751 350 351 303 
752 277 614 613 
753 463 927 744 
754 317 717 316 
755 57 137 56 
756 29 150 28 
757 102 151 101 
758 721 722 677 
759 76 145 75 
760 641 716 544 
761 352 353 351 
762 579 580 491 
763 295 296 294 
764 55 155 54 
765 337 439 286 
766 354 355 353 
767 703 704 702 
768 31 126 30 
769 100 125 99 
770 5 118 20 
771 110 119 10 
772 292 294 290 
773 32 849 831 
774 77 706 76 
775 667 762 488 
776 684 757 756 
777 756 953 682 
778 75 711 74 
779 547 788 433 
780 85 700 84 
781 605 948 604 
782 288 784 779 
783 356 357 355 
784 484 719 489 
785 309 725 532 
786 93 745 92 
787 654 655 653 
788 368 370 367 
789 309 532 273 
790 273 729 258 
791 96 720 95 
792 684 756 682 
793 323 406 329 
794 66 715 65 
795 652 653 650 
796 164 264 166 
797 120 567 566 
798 582 583 462 
799 209 732 207 
800 364 365 260 
801 662 663 135 
802 259 265 254 
803 28 708 27 
804 237 714 242 
805 727 839 520 
806 407 733 326 
807 445 448 446 
808 392 813 672 
809 569 879 867 
810 30 713 29 
811 17 138 3 
812 12 136 113 
813 503 504 407 
814 252 254 240 
815 123 691 26 
816 600 788 386 
817 207 304 205 
818 366 367 365 
819 371 414 370 
820 717 884 316 
821 222 255 217 
822 740 809 141 
823 83 139 82 
824 266 274 265 
825 251 741 639 
826 279 308 274 
827 336 445 397 
828 297 298 296 
829 405 484 404 
830 48 140 47 
831 458 789 460 
832 403 404 401 
833 419 420 418 
834 49 728 48 
835 307 693 284 
836 233 236 234 
837 211 260 209 
838 404 742 401 
839 118 556 20 
840 336 735 445 
841 361 362 360 
842 333 758 458 
843 192 463 195 
844 213 381 223 
845 442 948 605 
846 81 156 80 
847 50 157 49 
848 195 744 197 
849 487 488 485 
850 492 579 491 
851 299 300 298 
852 457 739 443 
853 262 270 269 
854 423 938 929 
855 27 708 123 
856 333 458 424 
857 458 460 459 
858 779 784 495 
859 150 708 28 
860 48 728 140 
861 229 233 232 
862 220 228 227 
863 285 314 305 
864 131 794 610 
865 271 325 324 
866 105 692 104 
867 532 729 273 
868 466 467 380 
869 630 634 633 
870 270 303 302 
871 490 491 387 
872 318 319 317 
873 29 713 150 
874 259 752 266 
875 126 713 30 
876 237 242 239 
877 337 440 439 
878 652 654 653 
879 718 937 605 
880 584 800 585 
881 381 383 382 
882 617 924 636 
883 389 725 309 
884 375 442 374 
885 541 907 694 
886 157 728 49 
887 243 248 245 
888 504 733 407 
889 607 608 457 
890 379 380 334 
891 142 652 650 
892 633 743 631 
893 706 874 145 
894 795 954 134 
895 658 660 659 
896 443 603 442 
897 620 932 377 
898 468 736 380 
899 536 537 527 
900 197 235 199 
901 445 446 397 
902 538 539 507 
903 260 732 209 
904 103 709 102 
905 314 338 315 
906 446 502 447 
907 285 813 314 
908 101 712 100 
909 294 784 290 
910 394 436 435 
911 252 259 254 
912 292 295 294 
913 320 321 319 
914 344 345 332 
915 280 422 346 
916 704 707 702 
917 502 505 447 
918 413 513 512 
919 338 394 339 
920 436 534 533 
921 492 679 579 
922 386 788 410 
923 331 332 321 
924 521 523 522 
925 411 766 384 
926 573 574 477 
927 175 249 177 
928 498 791 679 
929 618 961 147 
930 700 737 84 
931 310 389 309 
932 505 571 447 
933 534 576 575 
934 259 266 265 
935 505 699 571 
936 266 752 280 
937 270 302 269 
938 303 359 302 
939 713 853 671 
940 135 720 96 
941 678 763 399 
942 496 563 497 
943 414 705 500 
944 385 438 437 
945 490 492 491 
946 276 286 268 
947 850 861 574 
948 896 900 728 
949 471 770 511 
950 413 778 513 
951 266 279 274 
952 281 714 236 
953 482 551 479 
954 433 788 600 
955 325 372 324 
956 434 765 688 
957 458 459 424 
958 278 309 273 
959 272 273 258 
960 236 237 234 
961 366 368 367 
962 438 588 540 
963 295 297 296 
964 873 893 555 
965 147 692 105 
966 461 584 581 
967 368 371 370 
968 330 951 876 
969 336 397 396 
970 379 466 380 
971 446 447 397 
972 278 310 309 
973 745 887 537 
974 405 485 484 
975 657 803 748 
976 278 333 310 
977 491 746 387 
978 335 337 286 
979 233 234 232 
980 421 449 420 
981 403 405 404 
982 345 375 374 
983 469 536 527 
984 197 744 235 
985 242 243 239 
986 57 806 137 
987 844 890 722 
988 261 263 250 
989 228 229 227 
990 241 252 240 
991 355 358 353 
992 422 423 346 
993 276 336 335 
994 379 517 466 
995 461 462 440 
996 248 741 245 
997 285 305 283 
998 211 364 260 
999 702 737 700 
1000 236 714 237 
1001 364 366 365 
1002 397 734 396 
1003 230 240 225 
1004 608 739 457 
1005 297 299 298 
1006 241 257 253 
1007 333 387 310 
1008 300 318 317 
1009 529 586 530 
1010 581 582 462 
1011 375 443 442 
1012 333 424 387 
1013 424 490 387 
1014 280 346 334 
1015 461 760 584 
1016 314 315 305 
1017 346 379 334 
1018 685 686 408 
1019 262 269 268 
1020 679 791 156 
1021 230 747 241 
1022 336 396 335 
1023 266 280 279 
1024 280 334 279 
1025 276 335 286 
1026 121 893 873 
1027 337 461 440 
1028 567 568 566 
1029 402 529 465 
1030 558 888 753 
1031 329 399 398 
1032 269 276 268 
1033 114 611 12 
1034 255 811 217 
1035 241 253 252 
1036 653 801 650 
1037 517 554 466 
1038 330 693 307 
1039 436 533 435 
1040 707 737 702 
1041 257 271 258 
1042 287 288 231 
1043 571 734 447 
1044 318 320 319 
1045 400 750 402 
1046 310 746 389 
1047 371 742 414 
1048 447 734 397 
1049 271 324 272 
1050 399 763 398 
1051 394 435 339 
1052 441 898 726 
1053 224 225 222 
1054 271 272 258 
1055 272 278 273 
1056 323 329 326 
1057 534 575 533 
1058 257 258 253 
1059 302 735 269 
1060 338 339 315 
1061 663 664 135 
1062 230 241 240 
1063 37 810 36 
1064 576 577 575 
1065 243 245 244 
1066 398 407 326 
1067 331 344 332 
1068 80 791 79 
1069 51 792 50 
1070 461 581 462 
1071 467 740 469 
1072 245 251 250 
1073 251 262 261 
1074 320 331 321 
1075 485 762 484 
1076 291 323 293 
1077 243 244 239 
1078 289 290 288 
1079 304 841 205 
1080 280 752 422 
1081 471 511 509 
1082 533 535 435 
1083 525 526 523 
1084 664 720 135 
1085 901 964 602 
1086 472 503 407 
1087 288 779 231 
1088 375 456 443 
1089 521 522 383 
1090 545 607 457 
1091 87 818 86 
1092 744 829 235 
1093 694 907 61 
1094 387 746 310 
1095 381 382 223 
1096 237 239 238 
1097 402 403 401 
1098 353 748 351 
1099 344 764 345 
1100 515 516 487 
1101 162 164 163 
1102 245 250 244 
1103 229 232 231 
1104 269 735 276 
1105 251 261 250 
1106 291 292 290 
1107 262 268 261 
1108 200 202 198 
1109 287 464 289 
1110 224 230 225 
1111 456 457 443 
1112 486 487 485 
1113 276 735 336 
1114 221 246 224 
1115 402 750 529 
1116 221 222 217 
1117 124 709 103 
1118 237 238 234 
1119 456 545 457 
1120 729 768 253 
1121 158 909 39 
1122 241 747 257 
1123 339 417 315 
1124 151 712 101 
1125 405 486 485 
1126 573 962 690 
1127 245 741 251 
1128 529 530 465 
1129 136 162 161 
1130 329 398 326 
1131 400 401 371 
1132 340 933 640 
1133 401 742 371 
1134 686 774 408 
1135 229 231 227 
1136 226 376 219 
1137 216 217 215 
1138 286 761 268 
1139 331 413 344 
1140 32 831 31 
1141 252 768 259 
1142 301 824 757 
1143 486 515 487 
1144 414 742 705 
1145 318 363 320 
1146 495 496 376 
1147 398 763 472 
1148 398 472 407 
1149 214 215 212 
1150 295 340 297 
1151 365 964 260 
1152 379 749 517 
1153 287 289 288 
1154 472 541 503 
1155 423 749 346 
1156 733 769 293 
1157 413 441 344 
1158 166 168 167 
1159 413 512 441 
1160 134 849 33 
1161 323 326 293 
1162 402 465 403 
1163 346 749 379 
1164 281 782 714 
1165 308 804 274 
1166 424 751 490 
1167 136 161 113 
1168 592 595 594 
1169 289 291 290 
1170 459 751 424 
1171 585 911 137 
1172 469 740 536 
1173 291 293 292 
1174 358 748 353 
1175 552 902 551 
1176 220 227 226 
1177 559 875 550 
1178 232 287 231 
1179 383 765 382 
1180 735 777 445 
1181 400 402 401 
1182 221 224 222 
1183 259 768 752 
1184 482 552 551 
1185 670 882 671 
1186 210 213 212 
1187 368 400 371 
1188 216 221 217 
1189 523 731 522 
1190 592 594 593 
1191 193 203 190 
1192 771 811 501 
1193 564 625 122 
1194 484 762 719 
1195 261 761 263 
1196 213 223 214 
1197 337 760 461 
1198 929 938 703 
1199 345 764 375 
1200 120 590 567 
1201 441 764 344 
1202 481 507 483 
1203 364 501 366 
1204 164 786 264 
1205 556 959 838 
1206 770 781 264 
1207 638 817 152 
1208 335 760 337 
1209 502 900 896 
1210 278 758 333 
1211 478 481 480 
1212 499 894 699 
1213 690 850 574 
1214 303 803 359 
1215 17 454 138 
1216 214 216 215 
1217 283 782 281 
1218 400 776 750 
1219 324 758 272 
1220 201 220 219 
1221 210 211 209 
1222 714 782 624 
1223 185 301 187 
1224 758 789 458 
1225 769 820 340 
1226 254 848 827 
1227 181 816 218 
1228 60 907 130 
1229 359 777 302 
1230 272 758 278 
1231 182 850 690 
1232 208 209 207 
1233 189 192 191 
1234 512 898 441 
1235 253 768 252 
1236 396 760 335 
1237 526 731 523 
1238 190 738 188 
1239 226 495 376 
1240 206 207 205 
1241 812 899 416 
1242 589 885 588 
1243 215 811 771 
1244 403 755 405 
1245 382 434 408 
1246 234 759 232 
1247 730 924 617 
1248 831 849 578 
1249 180 256 178 
1250 172 418 170 
1251 390 425 391 
1252 181 218 183 
1253 204 205 203 
1254 302 777 735 
1255 382 408 223 
1256 199 201 200 
1257 220 226 219 
1258 213 214 212 
1259 186 247 184 
1260 183 185 184 
1261 522 765 383 
1262 268 761 261 
1263 185 187 186 
1264 197 199 198 
1265 434 685 408 
1266 528 641 453 
1267 595 596 594 
1268 187 189 188 
1269 705 828 500 
1270 698 795 134 
1271 497 843 780 
1272 565 790 561 
1273 191 193 190 
1274 189 191 190 
1275 656 808 657 
1276 230 767 747 
1277 201 219 200 
1278 508 548 483 
1279 733 820 769 
1280 93 887 745 
1281 189 190 188 
1282 674 876 596 
1283 199 200 198 
1284 210 212 211 
1285 175 821 249 
1286 454 514 138 
1287 375 764 456 
1288 305 782 283 
1289 208 210 209 
1290 465 755 403 
1291 292 769 295 
1292 187 188 186 
1293 206 208 207 
1294 204 206 205 
1295 475 477 476 
1296 156 791 80 
1297 50 792 157 
1298 195 197 196 
1299 274 804 275 
1300 287 759 464 
1301 197 198 196 
1302 389 859 704 
1303 409 412 411 
1304 232 759 287 
1305 482 553 552 
1306 181 183 182 
1307 185 186 184 
1308 192 195 194 
1309 196 395 194 
1310 754 861 538 
1311 53 894 499 
1312 291 773 323 
1313 760 800 584 
1314 150 882 708 
1315 193 204 203 
1316 211 771 364 
1317 699 864 499 
1318 535 772 435 
1319 162 163 161 
1320 321 903 319 
1321 238 759 234 
1322 655 793 653 
1323 411 899 766 
1324 405 755 486 
1325 706 956 874 
1326 467 809 740 
1327 293 769 292 
1328 546 547 433 
1329 611 612 430 
1330 204 267 206 
1331 507 508 483 
1332 155 894 54 
1333 88 897 87 
1334 650 801 651 
1335 195 196 194 
1336 246 767 224 
1337 574 754 477 
1338 224 767 230 
1339 478 479 476 
1340 748 803 351 
1341 231 779 227 
1342 590 591 567 
1343 148 887 94 
1344 480 482 479 
1345 435 772 339 
1346 179 181 180 
1347 372 789 324 
1348 203 738 190 
1349 162 786 164 
1350 177 179 178 
1351 349 953 819 
1352 137 911 56 
1353 183 184 182 
1354 366 776 368 
1355 382 765 434 
1356 647 805 648 
1357 324 789 758 
1358 8 922 78 
1359 192 194 191 
1360 339 772 417 
1361 52 923 7 
1362 55 911 155 
1363 561 921 886 
1364 712 826 719 
1365 464 773 289 
1366 486 787 515 
1367 215 771 212 
1368 661 952 448 
1369 295 769 340 
1370 554 809 466 
1371 396 800 760 
1372 477 478 476 
1373 412 416 411 
1374 376 780 219 
1375 92 915 9 
1376 481 483 480 
1377 290 784 288 
1378 596 876 594 
1379 168 169 167 
1380 59 914 58 
1381 679 956 498 
1382 478 754 481 
1383 79 922 8 
1384 7 923 51 
1385 267 936 626 
1386 314 813 392 
1387 218 885 824 
1388 637 829 683 
1389 331 778 413 
1390 659 808 656 
1391 412 471 431 
1392 249 723 177 
1393 289 773 291 
1394 227 779 226 
1395 537 935 527 
1396 320 778 331 
1397 452 475 474 
1398 605 889 718 
1399 200 780 202 
1400 168 360 169 
1401 363 778 320 
1402 351 803 303 
1403 368 776 400 
1404 202 797 198 
1405 442 937 374 
1406 364 771 501 
1407 734 800 396 
1408 212 771 211 
1409 419 421 420 
1410 478 480 479 
1411 540 940 572 
1412 355 835 358 
1413 709 828 151 
1414 661 931 660 
1415 223 774 214 
1416 425 427 426 
1417 185 824 301 
1418 164 166 165 
1419 553 875 552 
1420 358 793 748 
1421 177 723 179 
1422 214 774 216 
1423 535 928 772 
1424 294 830 784 
1425 444 937 718 
1426 472 783 541 
1427 593 951 668 
1428 308 825 804 
1429 408 774 223 
1430 451 716 449 
1431 563 942 884 
1432 763 783 472 
1433 86 818 132 
1434 428 856 493 
1435 743 866 299 
1436 777 847 448 
1437 501 776 366 
1438 719 826 489 
1439 226 779 495 
1440 151 828 826 
1441 299 866 300 
1442 316 942 298 
1443 147 961 832 
1444 136 430 162 
1445 179 816 181 
1446 495 830 496 
1447 477 754 478 
1448 247 946 606 
1449 247 861 850 
1450 181 182 180 
1451 466 809 467 
1452 203 841 738 
1453 144 799 612 
1454 646 810 645 
1455 500 891 549 
1456 454 542 514 
1457 179 180 178 
1458 257 858 271 
1459 530 822 465 
1460 581 806 582 
1461 418 908 862 
1462 496 807 563 
1463 755 787 486 
1464 530 848 822 
1465 425 905 625 
1466 390 391 362 
1467 138 531 3 
1468 184 850 182 
1469 219 780 200 
1470 58 806 57 
1471 256 895 178 
1472 746 859 389 
1473 221 836 246 
1474 172 419 418 
1475 789 840 460 
1476 112 127 111 
1477 19 122 18 
1478 255 860 811 
1479 171 174 173 
1480 347 819 385 
1481 36 810 149 
1482 9 915 91 
1483 513 870 512 
1484 511 799 569 
1485 671 853 506 
1486 784 830 495 
1487 891 930 549 
1488 427 429 428 
1489 448 952 446 
1490 438 589 588 
1491 108 893 121 
1492 410 775 348 
1493 417 842 315 
1494 208 839 727 
1495 183 824 185 
1496 552 875 832 
1497 660 931 659 
1498 795 796 577 
1499 498 956 706 
1500 4 556 455 
1501 177 178 176 
1502 532 837 729 
1503 906 947 623 
1504 189 785 192 
1505 570 967 525 
1506 250 912 244 
1507 473 852 451 
1508 877 905 542 
1509 275 848 265 
1510 529 941 586 
1511 166 167 165 
1512 845 895 518 
1513 217 811 215 
1514 855 968 155 
1515 432 856 428 
1516 503 817 504 
1517 464 844 721 
1518 818 883 132 
1519 187 785 189 
1520 725 872 532 
1521 808 847 359 
1522 225 945 222 
1523 548 798 483 
1524 275 804 787 
1525 475 476 474 
1526 595 904 596 
1527 121 902 618 
1528 4 455 19 
1529 666 950 577 
1530 696 916 516 
1531 659 847 808 
1532 804 825 515 
1533 795 854 796 
1534 198 797 196 
1535 787 804 515 
1536 698 854 795 
1537 175 177 176 
1538 665 870 153 
1539 797 967 570 
1540 828 891 500 
1541 164 165 163 
1542 800 855 585 
1543 482 798 553 
1544 109 893 108 
1545 301 785 187 
1546 753 888 160 
1547 509 510 431 
1548 686 836 774 
1549 751 874 490 
1550 768 837 752 
1551 632 878 638 
1552 648 913 796 
1553 202 967 797 
1554 318 866 363 
1555 193 934 724 
1556 20 556 4 
1557 244 890 239 
1558 729 837 768 
1559 480 798 482 
1560 586 827 530 
1561 785 865 463 
1562 305 842 782 
1563 580 859 746 
1564 525 823 526 
1565 765 834 688 
1566 196 797 395 
1567 817 878 504 
1568 31 831 126 
1569 151 826 712 
1570 751 944 711 
1571 474 555 473 
1572 425 426 391 
1573 515 825 516 
1574 551 873 814 
1575 805 913 648 
1576 504 820 733 
1577 357 835 355 
1578 479 814 476 
1579 499 864 792 
1580 390 905 425 
1581 626 936 627 
1582 555 881 473 
1583 532 872 837 
1584 522 834 765 
1585 483 798 480 
1586 33 849 32 
1587 723 816 179 
1588 537 919 745 
1589 358 835 801 
1590 868 889 605 
1591 704 859 707 
1592 206 839 208 
1593 465 822 755 
1594 774 836 216 
1595 218 824 183 
1596 163 815 161 
1597 514 812 138 
1598 864 896 157 
1599 165 519 163 
1600 149 854 698 
1601 176 895 845 
1602 131 863 794 
1603 710 863 131 
1604 549 930 559 
1605 545 963 726 
1606 359 847 777 
1607 471 509 431 
1608 14 880 115 
1609 452 474 473 
1610 511 569 509 
1611 171 857 174 
1612 493 943 821 
1613 174 175 173 
1614 429 433 432 
1615 139 939 680 
1616 169 170 167 
1617 734 855 800 
1618 755 822 787 
1619 216 836 221 
1620 456 963 545 
1621 822 848 275 
1622 723 940 540 
1623 738 946 188 
1624 867 879 160 
1625 792 864 157 
1626 488 966 663 
1627 731 834 522 
1628 778 851 513 
1629 507 892 508 
1630 315 842 305 
1631 427 428 426 
1632 526 884 717 
1633 824 885 757 
1634 235 924 730 
1635 205 841 203 
1636 638 878 817 
1637 419 518 421 
1638 421 450 449 
1639 430 786 162 
1640 428 493 426 
1641 175 176 173 
1642 455 838 564 
1643 429 432 428 
1644 624 906 623 
1645 160 888 867 
1646 127 453 111 
1647 423 929 749 
1648 567 833 568 
1649 752 837 422 
1650 724 934 395 
1651 780 843 202 
1652 856 943 493 
1653 126 853 713 
1654 782 842 624 
1655 837 872 422 
1656 871 895 256 
1657 433 600 432 
1658 552 961 902 
1659 941 945 586 
1660 395 934 194 
1661 519 815 163 
1662 476 814 474 
1663 267 839 206 
1664 496 830 807 
1665 604 948 603 
1666 505 864 699 
1667 606 946 738 
1668 726 963 441 
1669 362 802 360 
1670 385 819 438 
1671 571 855 734 
1672 474 814 555 
1673 247 850 184 
1674 454 877 542 
1675 554 897 809 
1676 770 910 511 
1677 372 840 789 
1678 859 939 707 
1679 801 835 651 
1680 710 944 863 
1681 834 903 688 
1682 747 868 858 
1683 157 896 728 
1684 94 887 93 
1685 788 955 410 
1686 471 781 770 
1687 709 891 828 
1688 452 473 451 
1689 322 834 731 
1690 412 431 416 
1691 823 884 526 
1692 591 833 567 
1693 625 877 122 
1694 21 565 561 
1695 810 958 149 
1696 459 944 751 
1697 132 883 701 
1698 673 882 670 
1699 174 821 175 
1700 321 920 903 
1701 322 903 834 
1702 787 822 275 
1703 675 957 263 
1704 255 941 860 
1705 124 930 891 
1706 846 888 558 
1707 732 901 304 
1708 300 866 318 
1709 238 844 759 
1710 422 872 423 
1711 666 913 357 
1712 622 928 620 
1713 759 844 464 
1714 747 858 257 
1715 191 934 193 
1716 169 171 170 
1717 796 854 648 
1718 155 968 894 
1719 640 933 632 
1720 578 954 576 
1721 363 851 778 
1722 186 946 247 
1723 560 846 143 
1724 862 908 519 
1725 692 930 124 
1726 772 947 417 
1727 767 868 747 
1728 575 950 949 
1729 490 874 492 
1730 505 896 864 
1731 438 819 589 
1732 589 953 756 
1733 625 905 877 
1734 416 899 411 
1735 141 897 88 
1736 858 868 604 
1737 732 964 901 
1738 91 915 159 
1739 127 528 453 
1740 776 860 750 
1741 683 927 684 
1742 391 802 362 
1743 580 939 859 
1744 883 929 701 
1745 171 173 172 
1746 728 900 140 
1747 138 812 531 
1748 140 900 661 
1749 555 893 881 
1750 341 918 388 
1751 574 861 754 
1752 453 641 544 
1753 851 960 633 
1754 319 903 322 
1755 646 958 810 
1756 603 948 442 
1757 450 452 451 
1758 809 897 141 
1759 448 931 661 
1760 718 889 246 
1761 171 172 170 
1762 827 848 530 
1763 238 890 844 
1764 441 963 764 
1765 54 894 53 
1766 571 968 855 
1767 301 865 785 
1768 811 860 501 
1769 501 860 776 
1770 130 914 59 
1771 546 886 547 
1772 875 965 550 
1773 502 896 505 
1774 377 932 378 
1775 745 919 159 
1776 823 843 497 
1777 645 909 158 
1778 518 895 871 
1779 360 857 169 
1780 940 943 572 
1781 648 958 646 
1782 61 907 60 
1783 659 931 847 
1784 239 890 238 
1785 124 891 709 
1786 78 922 498 
1787 499 923 52 
1788 487 966 488 
1789 860 941 750 
1790 417 906 842 
1791 450 451 449 
1792 176 845 173 
1793 56 911 55 
1794 562 881 109 
1795 263 912 250 
1796 701 929 703 
1797 172 845 419 
1798 539 892 507 
1799 790 921 561 
1800 427 926 429 
1801 249 940 723 
1802 170 862 167 
1803 419 845 518 
1804 134 954 849 
1805 159 915 745 
1806 527 935 543 
1807 514 899 812 
1808 575 949 533 
1809 707 939 139 
1810 829 924 235 
1811 874 956 492 
1812 949 950 378 
1813 493 869 426 
1814 928 947 772 
1815 374 937 444 
1816 688 920 687 
1817 711 944 710 
1818 246 889 767 
1819 516 966 487 
1820 378 950 666 
1821 689 962 573 
1822 167 862 165 
1823 786 910 770 
1824 791 922 79 
1825 51 923 792 
1826 533 949 535 
1827 881 893 109 
1828 745 915 92 
1829 504 878 820 
1830 536 919 537 
1831 767 889 868 
1832 357 913 805 
1833 663 916 664 
1834 867 888 510 
1835 509 867 510 
1836 814 873 555 
1837 410 955 790 
1838 838 959 546 
1839 169 857 171 
1840 143 558 2 
1841 892 901 508 
1842 446 952 502 
1843 178 895 176 
1844 363 960 851 
1845 173 845 172 
1846 802 857 360 
1847 572 943 856 
1848 165 862 519 
1849 577 950 575 
1850 849 954 578 
1851 222 945 255 
1852 557 880 879 
1853 832 875 559 
1854 866 960 363 
1855 426 869 391 
1856 842 906 624 
1857 821 943 249 
1858 115 880 557 
1859 143 846 558 
1860 699 968 571 
1861 492 956 679 
1862 833 918 568 
1863 498 922 791 
1864 792 923 499 
1865 878 933 820 
1866 263 957 912 
1867 410 917 775 
1868 790 917 410 
1869 388 918 833 
1870 518 925 421 
1871 873 902 121 
1872 194 934 191 
1873 260 964 732 
1874 633 960 743 
1875 627 936 724 
1876 725 938 872 
1877 612 910 430 
1878 716 852 119 
1879 391 869 802 
1880 750 941 529 
1881 188 946 186 
1882 551 902 873 
1883 632 933 878 
1884 819 953 589 
1885 548 969 798 
1886 569 867 509 
1887 847 931 448 
1888 249 943 940 
1889 594 951 593 
1890 871 925 518 
1891 451 852 716 
1892 430 910 786 
1893 119 562 10 
1894 547 955 788 
1895 820 933 340 
1896 684 927 865 
1897 510 888 846 
1898 255 945 941 
1899 807 942 563 
1900 838 926 564 
1901 689 925 871 
1902 764 963 456 
1903 421 925 450 
1904 854 958 648 
1905 832 961 552 
1906 118 959 556 
1907 894 968 699 
1908 876 951 594 
1909 743 960 866 
1910 903 920 688 
1911 798 969 553 
1912 872 938 423 
1913 843 967 202 
1914 304 901 892 
1915 886 959 118 
1916 865 927 463 
1917 535 949 932 
1918 916 966 516 
1919 546 959 886 
1920 149 958 854 
1921 119 852 562 
1922 886 921 547 
1923 622 947 928 
1924 871 962 689 
1925 553 965 875 
1926 256 962 871 
1927 417 947 906 
1928 900 952 661 
1929 553 969 965 
1930 502 952 900 
1931 902 961 618 
1932 663 966 916 
1933 921 955 547 
1934 965 969 598 
1935 932 949 378 
1936 790 955 921 
$EndElements
