$MeshFormat
4.1 0 8
$EndMeshFormat
$Entities
33 28 2 0
1 0 0 0 0 
2 0.7 0 0 0 
3 0 0.7 0 0 
4 -0.7 0 0 0 
5 0 -0.7 0 0 
100 -1 -0.9 0 0 
101 -1 -1.04 0 0 
102 -0.9 -1.04 0 0 
103 -0.9 -1.02 0 0 
104 -0.88 -1 0 0 
105 -0.78 -1 0 0 
106 0.78 -1 0 0 
107 0.88 -1 0 0 
108 0.9 -1.02 0 0 
109 0.9 -1.04 0 0 
110 1 -1.04 0 0 
111 1 -0.9 0 0 
112 1 0.9 0 0 
113 1 1.04 0 0 
114 0.9 1.04 0 0 
115 0.9 1.02 0 0 
116 0.88 1 0 0 
117 0.78 1 0 0 
118 -0.78 1 0 0 
119 -0.88 1 0 0 
120 -0.9 1.02 0 0 
121 -0.9 1.04 0 0 
122 -1 1.04 0 0 
123 -1 0.9 0 0 
1001 -0.88 -1.02 0 0 
1002 0.88 -1.02 0 0 
1003 0.88 1.02 0 0 
1004 -0.88 1.02 0 0 
1 5.551115123125783e-17 0 0 0.7 0.7 0 0 2 2 -3 
2 -0.7 5.551115123125783e-17 0 0 0.7 0 0 2 3 -4 
3 -0.7 -0.7 0 -5.551115123125783e-17 0 0 0 2 4 -5 
4 0 -0.7 0 0.7 -5.551115123125783e-17 0 0 2 5 -2 
100 -1 -1.04 0 -1 -0.9 0 1 5 2 100 -101 
101 -1 -1.04 0 -0.9 -1.04 0 1 1 2 101 -102 
102 -0.9 -1.04 0 -0.9 -1.02 0 1 5 2 102 -103 
103 -0.9 -1.02 0 -0.88 -1 0 1 5 2 103 -104 
104 -0.88 -1 0 -0.78 -1 0 1 5 2 104 -105 
105 -0.78 -1 0 0.78 -1 0 1 5 2 105 -106 
106 0.78 -1 0 0.88 -1 0 1 5 2 106 -107 
107 0.88 -1.02 0 0.9 -1 0 1 5 2 107 -108 
108 0.9 -1.04 0 0.9 -1.02 0 1 5 2 108 -109 
109 0.9 -1.04 0 1 -1.04 0 1 2 2 109 -110 
110 1 -1.04 0 1 -0.9 0 1 5 2 110 -111 
111 1 -0.9 0 1 0.9 0 1 5 2 111 -112 
112 1 0.9 0 1 1.04 0 1 5 2 112 -113 
113 0.9 1.04 0 1 1.04 0 1 3 2 113 -114 
114 0.9 1.02 0 0.9 1.04 0 1 5 2 114 -115 
115 0.88 1 0 0.9 1.02 0 1 5 2 115 -116 
116 0.78 1 0 0.88 1 0 1 5 2 116 -117 
117 -0.78 1 0 0.78 1 0 1 5 2 117 -118 
118 -0.88 1 0 -0.78 1 0 1 5 2 118 -119 
119 -0.9 1 0 -0.88 1.02 0 1 5 2 119 -120 
120 -0.9 1.02 0 -0.9 1.04 0 1 5 2 120 -121 
121 -1 1.04 0 -0.9 1.04 0 1 4 2 121 -122 
122 -1 0.9 0 -1 1.04 0 1 5 2 122 -123 
123 -1 -0.9 0 -1 0.9 0 1 5 2 123 -100 
1 -1 -1.04 0 1 1.04 0 1 1 28 100 101 102 103 104 105 106 107 108 109 110 111 112 113 114 115 116 117 118 119 120 121 122 123 1 2 3 4 
2 -0.7 -0.7 0 0.7 0.7 0 1 2 4 1 2 3 4 
$EndEntities
$Nodes
58 709 1 709
0 2 0 1
1
0.7 0 0
0 3 0 1
2
0 0.7 0
0 4 0 1
3
-0.7 0 0
0 5 0 1
4
0 -0.7 0
0 100 0 1
5
-1 -0.9 0
0 101 0 1
6
-1 -1.04 0
0 102 0 1
7
-0.9 -1.04 0
0 103 0 1
8
-0.9 -1.02 0
0 104 0 1
9
-0.88 -1 0
0 105 0 1
10
-0.78 -1 0
0 106 0 1
11
0.78 -1 0
0 107 0 1
12
0.88 -1 0
0 108 0 1
13
0.9 -1.02 0
0 109 0 1
14
0.9 -1.04 0
0 110 0 1
15
1 -1.04 0
0 111 0 1
16
1 -0.9 0
0 112 0 1
17
1 0.9 0
0 113 0 1
18
1 1.04 0
0 114 0 1
19
0.9 1.04 0
0 115 0 1
20
0.9 1.02 0
0 116 0 1
21
0.88 1 0
0 117 0 1
22
0.78 1 0
0 118 0 1
23
-0.78 1 0
0 119 0 1
24
-0.88 1 0
0 120 0 1
25
-0.9 1.02 0
0 121 0 1
26
-0.9 1.04 0
0 122 0 1
27
-1 1.04 0
0 123 0 1
28
-1 0.9 0
1 1 0 10
29
30
31
32
33
34
35
36
37
38
0.6928750092802883 0.09962038704422065 0
0.6716450813681384 0.1972127903407551 0
0.6367423963819454 0.2907905099032247 0
0.5888774723726585 0.3784485731668025 0
0.5290247010657466 0.4584025148952581 0
0.4584025126417869 0.5290247030183907 0
0.3784485712503317 0.5888774736042995 0
0.2907905082858739 0.6367423971205648 0
0.1972127892118739 0.6716450816996079 0
0.09962038648577498 0.6928750093605807 0
1 2 0 10
39
40
41
42
43
44
45
46
47
48
-0.09962038704422065 0.6928750092802883 0
-0.1972127903407551 0.6716450813681384 0
-0.2907905099032247 0.6367423963819454 0
-0.3784485731668025 0.5888774723726585 0
-0.4584025148952581 0.5290247010657466 0
-0.5290247030183907 0.4584025126417869 0
-0.5888774736042995 0.3784485712503317 0
-0.6367423971205648 0.2907905082858739 0
-0.6716450816996079 0.1972127892118739 0
-0.6928750093605807 0.09962038648577498 0
1 3 0 10
49
50
51
52
53
54
55
56
57
58
-0.6928750092802883 -0.09962038704422065 0
-0.6716450813681384 -0.1972127903407551 0
-0.6367423963819454 -0.2907905099032247 0
-0.5888774723726585 -0.3784485731668025 0
-0.5290247010657466 -0.4584025148952581 0
-0.4584025126417869 -0.5290247030183907 0
-0.3784485712503317 -0.5888774736042995 0
-0.2907905082858739 -0.6367423971205648 0
-0.1972127892118739 -0.6716450816996079 0
-0.09962038648577498 -0.6928750093605807 0
1 4 0 10
59
60
61
62
63
64
65
66
67
68
0.09962038704422065 -0.6928750092802883 0
0.1972127903407551 -0.6716450813681384 0
0.2907905099032247 -0.6367423963819454 0
0.3784485731668025 -0.5888774723726585 0
0.4584025148952581 -0.5290247010657466 0
0.5290247030183907 -0.4584025126417869 0
0.5888774736042995 -0.3784485712503317 0
0.6367423971205648 -0.2907905082858739 0
0.6716450816996079 -0.1972127892118739 0
0.6928750093605807 -0.09962038648577498 0
1 100 0 3
69
70
71
-1 -0.9522381773144879 0
-1 -0.9907319532965499 0
-1 -1.019097626600258 0
1 101 0 4
72
73
74
75
-0.9800000000002038 -1.04 0
-0.9600000000004033 -1.04 0
-0.9400000000003773 -1.04 0
-0.92000000000023 -1.04 0
1 102 0 0
1 103 0 1
76
-0.8941421354484586 -1.005857864200997 0
1 104 0 2
77
78
-0.8569415359463739 -1 0
-0.8248006757399046 -1 0
1 105 0 15
79
80
81
82
83
84
85
86
87
88
89
90
91
92
93
-0.6825000000002061 -1 0
-0.5850000000003687 -1 0
-0.4875000000006723 -1 0
-0.3900000000009544 -1 0
-0.2925000000012361 -1 0
-0.1950000000015177 -1 0
-0.09750000000183201 -1 0
-2.059463710679665e-12 -1 0
0.09749999999821157 -1 0
0.1949999999984392 -1 0
0.2924999999987752 -1 0
0.3899999999989594 -1 0
0.4874999999991438 -1 0
0.5849999999995881 -1 0
0.6824999999997292 -1 0
1 106 0 2
94
95
0.8248006757395742 -1 0
0.8569415359460021 -1 0
1 107 0 1
96
0.8941421355296979 -1.005857864282236 0
1 108 0 0
1 109 0 4
97
98
99
100
0.9199999999999263 -1.04 0
0.9400000000000304 -1.04 0
0.9600000000001432 -1.04 0
0.9800000000001171 -1.04 0
1 110 0 3
101
102
103
1 -1.019097626600362 0
1 -0.9907319532967631 0
1 -0.9522381773147536 0
1 111 0 17
104
105
106
107
108
109
110
111
112
113
114
115
116
117
118
119
120
1 -0.8000000000002193 0
1 -0.7000000000004555 0
1 -0.6000000000007013 0
1 -0.5000000000009859 0
1 -0.40000000000127 0
1 -0.3000000000015542 0
1 -0.2000000000018384 0
1 -0.1000000000021226 0
1 -2.406741472782414e-12 0
1 0.09999999999783638 0
1 0.199999999998106 0
1 0.299999999998395 0
1 0.3999999999986404 0
1 0.4999999999989294 0
1 0.5999999999991895 0
1 0.6999999999994641 0
1 0.7999999999997539 0
1 112 0 3
121
122
123
1 0.9522381773144879 0
1 0.9907319532965499 0
1 1.019097626600258 0
1 113 0 4
124
125
126
127
0.9800000000002038 1.04 0
0.9600000000004033 1.04 0
0.9400000000003773 1.04 0
0.92000000000023 1.04 0
1 114 0 0
1 115 0 1
128
0.8941421354484586 1.005857864200997 0
1 116 0 2
129
130
0.8569415359463739 1 0
0.8248006757399046 1 0
1 117 0 15
131
132
133
134
135
136
137
138
139
140
141
142
143
144
145
0.6825000000002061 1 0
0.5850000000003687 1 0
0.4875000000006723 1 0
0.3900000000009544 1 0
0.2925000000012361 1 0
0.1950000000015177 1 0
0.09750000000183201 1 0
2.059463710679665e-12 1 0
-0.09749999999821157 1 0
-0.1949999999984392 1 0
-0.2924999999987752 1 0
-0.3899999999989594 1 0
-0.4874999999991438 1 0
-0.5849999999995881 1 0
-0.6824999999997292 1 0
1 118 0 2
146
147
-0.8248006757395742 1 0
-0.8569415359460021 1 0
1 119 0 1
148
-0.8941421355296979 1.005857864282236 0
1 120 0 0
1 121 0 4
149
150
151
152
-0.9199999999999263 1.04 0
-0.9400000000000304 1.04 0
-0.9600000000001432 1.04 0
-0.9800000000001171 1.04 0
1 122 0 3
153
154
155
-1 1.019097626600362 0
-1 0.9907319532967631 0
-1 0.9522381773147536 0
1 123 0 17
156
157
158
159
160
161
162
163
164
165
166
167
168
169
170
171
172
-1 0.8000000000002193 0
-1 0.7000000000004555 0
-1 0.6000000000007013 0
-1 0.5000000000009859 0
-1 0.40000000000127 0
-1 0.3000000000015542 0
-1 0.2000000000018384 0
-1 0.1000000000021226 0
-1 2.406741472782414e-12 0
-1 -0.09999999999783638 0
-1 -0.199999999998106 0
-1 -0.299999999998395 0
-1 -0.3999999999986404 0
-1 -0.4999999999989294 0
-1 -0.5999999999991895 0
-1 -0.6999999999994641 0
-1 -0.7999999999997539 0
2 1 0 370
173
174
175
176
177
178
179
180
181
182
183
184
185
186
187
188
189
190
191
192
193
194
195
196
197
198
199
200
201
202
203
204
205
206
207
208
209
210
211
212
213
214
215
216
217
218
219
220
221
222
223
224
225
226
227
228
229
230
231
232
233
234
235
236
237
238
239
240
241
242
243
244
245
246
247
248
249
250
251
252
253
254
255
256
257
258
259
260
261
262
263
264
265
266
267
268
269
270
271
272
273
274
275
276
277
278
279
280
281
282
283
284
285
286
287
288
289
290
291
292
293
294
295
296
297
298
299
300
301
302
303
304
305
306
307
308
309
310
311
312
313
314
315
316
317
318
319
320
321
322
323
324
325
326
327
328
329
330
331
332
333
334
335
336
337
338
339
340
341
342
343
344
345
346
347
348
349
350
351
352
353
354
355
356
357
358
359
360
361
362
363
364
365
366
367
368
369
370
371
372
373
374
375
376
377
378
379
380
381
382
383
384
385
386
387
388
389
390
391
392
393
394
395
396
397
398
399
400
401
402
403
404
405
406
407
408
409
410
411
412
413
414
415
416
417
418
419
420
421
422
423
424
425
426
427
428
429
430
431
432
433
434
435
436
437
438
439
440
441
442
443
444
445
446
447
448
449
450
451
452
453
454
455
456
457
458
459
460
461
462
463
464
465
466
467
468
469
470
471
472
473
474
475
476
477
478
479
480
481
482
483
484
485
486
487
488
489
490
491
492
493
494
495
496
497
498
499
500
501
502
503
504
505
506
507
508
509
510
511
512
513
514
515
516
517
518
519
520
521
522
523
524
525
526
527
528
529
530
531
532
533
534
535
536
537
538
539
540
541
542
-0.8671216414240708 -0.9814830953047644 0
0.8671216414240707 0.9814830953047644 0
0.8659979137150835 -0.9799763955455703 0
-0.8659979137150832 0.9799763955455703 0
-0.8116125247108746 -0.9586467947177809 0
0.8116125247108746 0.958646794717781 0
0.7981244394836773 -0.9599614012665415 0
-0.7981244394836771 0.9599614012665416 0
-0.5542487292804433 0.5524519477115631 0
0.5542487292804433 -0.5524519477115631 0
0.5648010790387009 0.5607759280750011 0
-0.5648010790387007 -0.5607759280750009 0
-0.9109491354169372 -1.008180513721315 0
0.910949135416937 1.008180513721315 0
0.9109491354900668 -1.008180513793595 0
-0.9109491354900667 1.008180513793595 0
0.9241573733454187 0.7595995907128954 0
-0.9241573733454187 -0.7595995907128954 0
0.9203998896270963 -0.7535143587822288 0
-0.9203998896270963 0.7535143587822288 0
0.636602937079043 -0.9192490259315624 0
-0.636602937079043 0.9192490259315624 0
-0.6286700380491994 -0.9112163430545053 0
0.6286700380491995 0.9112163430545055 0
0.9059185131976928 0.5399235205678914 0
-0.9059185131976931 -0.5399235205678914 0
0.9045256107248225 -0.5575876094535476 0
-0.9045256107248225 0.5575876094535476 0
-0.9475049349346043 -1.023081840866286 0
0.9475049349346052 1.023081840866287 0
0.9480776957758825 -1.025634606291267 0
-0.9480776957758821 1.025634606291267 0
-0.4518122896977779 -0.9156661324283824 0
0.4518122896977778 0.9156661324283824 0
0.439488447614703 -0.9183357359363322 0
-0.439488447614703 0.918335735936332 0
-0.9021269496340139 -0.992163648093034 0
0.9021269496340139 0.9921636480930343 0
-0.9021269497270432 0.9921636481065376 0
0.902126949727043 -0.9921636481065376 0
-0.6861695461948951 0.3871138782239318 0
0.6861695461948951 -0.3871138782239318 0
0.688444212246905 0.3759188205471639 0
-0.688444212246905 -0.3759188205471639 0
0.9610826582443266 0.9313806683142811 0
-0.9610826582443264 -0.9313806683142807 0
0.9607119117550099 -0.9261190886573766 0
-0.9607119117550099 0.9261190886573765 0
0.9279250818336944 0.9933706557688659 0
-0.927925081833694 -0.9933706557688653 0
-0.9252345339127428 0.9909715570208735 0
0.9252345339127428 -0.9909715570208733 0
0.2700236808124847 0.7358647123802626 0
-0.270023680812485 -0.7358647123802627 0
-0.2754496943129632 0.733154858218971 0
0.2754496943129632 -0.733154858218971 0
-0.9237048512154618 0.2506727086081887 0
0.9237048512154618 -0.2506727086081887 0
-0.9097100607339466 -0.264119540256523 0
0.9097100607339464 0.264119540256523 0
0.1491157047940382 0.9234562698432438 0
-0.1491157047940382 -0.923456269843244 0
-0.1506334819544574 0.9211040306006937 0
0.1506334819544574 -0.9211040306006937 0
-0.775094653296944 0.04801082053868069 0
0.7750946532969443 -0.04801082053868058 0
0.9128039659038754 0.9679389197780786 0
-0.9128039659038746 -0.967938919778078 0
0.9152772395789914 -0.9687097442970884 0
-0.9152772395789923 0.9687097442970882 0
0.9724075076157803 0.9731223348433553 0
-0.9724075076157801 -0.9731223348433549 0
-0.9723457165628844 0.9722454049131095 0
0.9723457165628844 -0.9722454049131095 0
-0.9180237641008497 -0.05336158349419887 0
0.9180237641008496 0.05336158349419889 0
0.7594359645291799 0.1674204781028005 0
-0.7594359645291799 -0.1674204781028005 0
0.05155009933897135 0.7770926479432304 0
-0.05155009933897132 -0.7770926479432305 0
0.9775846433027132 1.004783030278692 0
-0.9775846433027132 -1.004783030278692 0
0.9775783381012138 -1.004693547632297 0
-0.9775783381012138 1.004693547632297 0
-0.9252264787241123 -0.8424429721192419 0
-0.8615288482098715 -0.816119771417272 0
-0.8365350624686984 -0.7356785865874946 0
-0.7806784951548417 -0.8139862666837897 0
-0.7473765036899922 -0.724280719994896 0
-0.8744521545998551 -0.891007922404248 0
-0.7973452605658271 -0.6552333121973138 0
-0.7090388625440922 -0.6254684867613443 0
-0.6530272433395222 -0.7122286140661245 0
-0.775936355142834 -0.5838707305695218 0
0.9252264787241122 0.8424429721192419 0
0.8615288482098717 0.8161197714172723 0
0.8365350624686984 0.7356785865874949 0
0.7806784951548418 0.81398626668379 0
0.7473765036899922 0.7242807199948964 0
0.8744521545998559 0.8910079224042483 0
0.7973452605658272 0.6552333121973144 0
0.7090388625440923 0.6254684867613446 0
0.6530272433395223 0.7122286140661248 0
0.7759363551428337 0.5838707305695219 0
0.9564678665747446 -0.8760808633519876 0
0.9144171069940601 -0.9044433047633774 0
-0.9564678665747446 0.8760808633519876 0
-0.9144171069940605 0.904443304763377 0
0.6400421077475049 0.4690060234741409 0
-0.6400421077475049 -0.4690060234741408 0
-0.6223039560724264 0.4712908573108027 0
-0.6508156090263337 0.5678963964099243 0
-0.5815421680633426 0.6423044201555637 0
-0.6754221065005575 0.6612798962475118 0
-0.7229558149362246 0.4785066787849144 0
-0.7876002530048241 0.393587861686391 0
-0.6099656560087909 0.7327297579839556 0
-0.6999898913475889 0.7539454289695412 0
-0.5199257005046986 0.71072840293657 0
-0.7650572916284233 0.6845942827636754 0
-0.5483081368885886 0.7930861579489701 0
-0.4476260479248468 0.7677844735087745 0
-0.7827696318799198 0.7737583463662892 0
-0.7324753919953229 0.8320985188591392 0
-0.8053815934988695 0.8513688331332374 0
-0.7347690347780782 0.2971598521816807 0
-0.7800231259266899 0.1954087914947333 0
0.6223039560724264 -0.4712908573108027 0
0.6508156090263337 -0.5678963964099243 0
0.5815421680633426 -0.6423044201555637 0
0.6754221065005575 -0.6612798962475118 0
0.7229558149362246 -0.4785066787849144 0
0.7876002530048241 -0.393587861686391 0
0.6099656560087909 -0.7327297579839556 0
0.6999898913475889 -0.7539454289695412 0
0.5199257005046986 -0.71072840293657 0
0.7650572916284233 -0.6845942827636754 0
0.5483081368885886 -0.7930861579489701 0
0.4476260479248468 -0.7677844735087747 0
0.7827696318799198 -0.7737583463662894 0
0.7324753919953229 -0.8320985188591392 0
0.8053815934988698 -0.8513688331332376 0
0.7347690347780782 -0.2971598521816807 0
0.7800231259266899 -0.1954087914947332 0
0.4702595617603385 0.6281932326890374 0
-0.4702595617603385 -0.6281932326890374 0
-0.7525589151557541 0.5766220037185289 0
0.7525589151557541 -0.5766220037185289 0
-0.9184905863875725 0.8357499954730925 0
0.9184905863875727 -0.8357499954730928 0
0.3695186039954192 0.693473091626706 0
0.4677858646411163 0.7338297245546165 0
0.3530884542040255 0.7935498492709536 0
0.2570226020460039 0.8290719516644494 0
-0.3695186039954192 -0.693473091626706 0
-0.4677858646411163 -0.7338297245546165 0
-0.353088454204026 -0.7935498492709536 0
-0.2570226020460042 -0.8290719516644494 0
-0.05884738705571203 0.7736654071651723 0
-0.003533304862406339 0.8457688861956587 0
-0.1807943362465958 0.7699629520474066 0
-0.2624723960140148 0.8300531845894709 0
0.05884738705571205 -0.7736654071651724 0
0.003533304862406418 -0.8457688861956588 0
0.1807943362465958 -0.7699629520474066 0
0.2624723960140148 -0.8300531845894709 0
0.7412256301407073 0.2831064729154249 0
0.7887509414486195 0.3781328546865416 0
-0.7412256301407073 -0.2831064729154248 0
-0.7887509414486195 -0.3781328546865416 0
-0.7681243577391257 -0.05653119471484248 0
0.7681243577391257 0.05653119471484254 0
0.8368272042393219 -0.6282567111799552 0
-0.8368272042393219 0.6282567111799552 0
-0.751101372788032 -0.9589884174097061 0
-0.7755948122291894 -0.9023409808933187 0
0.7511013727880319 0.9589884174097062 0
0.7755948122291894 0.902340980893319 0
0.7312499999998647 -0.9441472522548949 0
-0.7312499999998647 0.9441472522548949 0
-0.3652988326220536 0.7016445070923659 0
0.3652988326220536 -0.701644507092366 0
-0.1672734648283324 -0.7715047559629218 0
0.1672734648283323 0.7715047559629218 0
0.5613503728388678 0.665161955349843 0
-0.5613503728388678 -0.6651619553498429 0
0.8260924396127628 -0.4843123350027255 0
0.8853650552470352 -0.4031715393592754 0
-0.8260924396127628 0.4843123350027255 0
-0.8853650552470352 0.4031715393592754 0
0.9541245391878828 0.9922962220578084 0
-0.9541245391878825 -0.9922962220578082 0
-0.9511868507907578 0.9927432819699391 0
0.9511868507907578 -0.9927432819699389 0
0.3469598526311896 0.8977055306139402 0
-0.3469598526311898 -0.8977055306139402 0
0.9010191480007392 0.6542292189539156 0
-0.9010191480007391 -0.6542292189539156 0
0.6523429873043931 0.5622683600916979 0
-0.6523429873043929 -0.5622683600916976 0
0.929200883579562 1.013813119100335 0
-0.9292008835795621 -1.013813119100335 0
0.9328829364200886 -1.011821199909759 0
-0.9328829364200881 1.011821199909759 0
0.6436130650440319 -0.8264074209743966 0
-0.6436130650440319 0.8264074209743966 0
0.5635094645407372 0.7512188065560104 0
0.6356820424813807 0.8122855894955148 0
0.5375622387664564 0.8480026654936129 0
-0.5635094645407371 -0.7512188065560101 0
-0.6356820424813805 -0.8122855894955141 0
-0.5375622387664564 -0.8480026654936127 0
0.348628876474314 -0.7959824428615041 0
0.3371615048996518 -0.899037508996244 0
-0.348628876474314 0.795982442861504 0
-0.3371615048996519 0.8990375089962439 0
-0.7042326011803747 -0.8592486942278752 0
0.7042326011803748 0.8592486942278756 0
0.747596986620312 0.4552608153542315 0
0.8456935613792715 0.4539010027001662 0
0.8972679683399888 0.3683455531246706 0
-0.7475969866203124 -0.4552608153542314 0
-0.845693561379272 -0.4539010027001662 0
-0.8972679683399888 -0.3683455531246706 0
0.8439914418289045 0.9787056711363604 0
0.858752139059595 0.9483072659673505 0
-0.8439914418289045 -0.9787056711363604 0
-0.8587521390595949 -0.9483072659673505 0
0.8408711058427891 -0.9765401779168372 0
0.8663128608323964 -0.9508699132723128 0
-0.8408711058427891 0.9765401779168382 0
-0.8663128608323969 0.9508699132723125 0
0.535846284556612 -0.9251548592191822 0
-0.535846284556612 0.9251548592191822 0
0.9138360551125744 0.1636991836662303 0
-0.9138360551125744 -0.1636991836662304 0
0.9154312990566187 -0.04985349810966762 0
0.9211335950959431 -0.1500572676970187 0
-0.9154312990566187 0.04985349810966762 0
-0.9211335950959431 0.1500572676970187 0
-0.4902799446189636 0.6180033190468166 0
0.4902799446189636 -0.6180033190468166 0
0.85527109002478 -0.8013808700929107 0
-0.8552710900247794 0.8013808700929104 0
0.8311961479267727 -0.9189580750263129 0
-0.8311961479267722 0.9189580750263127 0
-0.9418307678028681 -0.9666755338811377 0
-0.9268841198919248 -0.9414364706061731 0
0.941830767802869 0.9666755338811381 0
0.9268841198919251 0.9414364706061735 0
0.9427455705567149 -0.9646433980467553 0
-0.9427455705567154 0.9646433980467554 0
-0.8419789169081092 0.2964578764445986 0
0.8419789169081092 -0.2964578764445986 0
-0.4439458190115322 -0.8303033853578961 0
0.443945819011532 0.8303033853578962 0
0.8446955999181129 -0.7157371335686277 0
-0.8446955999181127 0.7157371335686274 0
0.9197714484636085 -0.6610400725215313 0
-0.9197714484636085 0.6610400725215313 0
0.8291109283301077 0.2265060888444845 0
-0.8291109283301077 -0.2265060888444845 0
0.9237739520393253 0.9059517013751865 0
-0.923773952039325 -0.9059517013751872 0
0.2406263349035482 0.9198758672858721 0
-0.2406263349035482 -0.9198758672858722 0
0.238109900009692 -0.9182941134396532 0
-0.2381099000096921 0.9182941134396533 0
0.9156761642755425 -1.023294615771391 0
-0.9156761642755418 1.02329461577139 0
-0.9148869876424279 -1.025084399681888 0
0.9148869876424288 1.025084399681888 0
0.9684530129742439 1.023635188476001 0
-0.9684530129742437 -1.023635188476001 0
0.9685474222474268 -1.024045735607832 0
-0.9685474222474268 1.024045735607832 0
0.9297760085833908 0.4524340152780596 0
-0.9297760085833908 -0.4524340152780596 0
-0.5381089133028949 -0.9349770281953002 0
0.5381089133028949 0.9349770281953002 0
-0.8656444864467869 0.8778547268716617 0
0.865644486446788 -0.8778547268716623 0
-0.8902221556812018 0.9727388984392087 0
-0.8999307636537717 0.9426378374746429 0
0.8902221556812018 -0.9727388984392102 0
0.8999307636537699 -0.9426378374746434 0
0.8902221556051467 0.9727388985662615 0
-0.8902221556051474 -0.9727388985662615 0
-0.1199828296158329 0.8374818723702919 0
0.1199828296158329 -0.8374818723702919 0
0.05256463129132849 0.9229661165145049 0
-0.05256463129132841 -0.9229661165145049 0
-0.06041405649712175 0.9231035910384351 0
0.06041405649712189 -0.923103591038435 0
-0.8228611337449389 -0.8613517364202343 0
0.8228611337449391 0.861351736420235 0
0.8286545528688907 0.9123309400805868 0
-0.8286545528688904 -0.9123309400805865 0
-0.8437651382895136 -0.005364565888696772 0
0.8437651382895136 0.005364565888696817 0
0.8396882512589001 0.5916418969853185 0
-0.8396882512589005 -0.5916418969853184 0
-0.7653575149941574 0.8996878338247014 0
0.7653575149941575 -0.8996878338247014 0
0.8378574962298827 0.1144357370735279 0
-0.8378574962298826 -0.1144357370735279 0
0.8959363930492186 0.9388833104663348 0
-0.8959363930492178 -0.9388833104663352 0
0.1103171569194071 0.8428844601281299 0
-0.110317156919407 -0.84288446012813 0
0.9291161592316821 -0.3315333130103104 0
-0.9291161592316821 0.3315333130103104 0
0.8360460687567892 -0.1090363023397703 0
-0.836046068756789 0.1090363023397704 0
0.4881488368225602 -0.8517721854141533 0
-0.4881488368225602 0.8517721854141533 0
0.9264204549034719 -0.4725564894957096 0
-0.9264204549034719 0.4725564894957096 0
-0.7074851436357334 -0.7862111309048994 0
0.7074851436357337 0.7862111309049 0
0.6281121090131153 0.6251806688688022 0
-0.6281121090131152 -0.6251806688688021 0
-0.9303185612314405 -1.028395871929702 0
0.9303185612314409 1.028395871929702 0
0.9307115157393671 -1.028253707524224 0
-0.9307115157393661 1.028253707524224 0
0.9620166178015529 0.8759550683616928 0
-0.9620166178015528 -0.8759550683616926 0
-0.4073441482601448 0.8474506088662581 0
0.4073441482601447 -0.8474506088662586 0
0.9291147971520496 -0.9392342518434224 0
-0.9291147971520506 0.9392342518434227 0
-0.700607993589685 -0.9279209286193919 0
0.7006079935896845 0.9279209286193928 0
-0.184871052698266 -0.8573586609769234 0
0.1848710526982659 0.8573586609769234 0
-0.8605773115805987 0.200326589316862 0
0.8605773115805985 -0.2003265893168619 0
-0.8300010424331653 0.5616946648386894 0
0.8300010424331653 -0.5616946648386894 0
-0.5772278061272857 0.8626520710348964 0
0.5772278061272857 -0.8626520710348964 0
0.8344784137341686 0.3078049004410035 0
-0.8344784137341686 -0.3078049004410035 0
-0.440315819767473 0.6774076349914371 0
0.440315819767473 -0.6774076349914373 0
-0.9583471000760482 -1.010312306046155 0
-0.9440683699807967 -1.007765248551987 0
0.9583471000760486 1.010312306046155 0
0.9440683699807975 1.007765248551987 0
-0.9556546486670737 1.011787674282219 0
0.9556546486670741 -1.011787674282219 0
-0.9852075312554321 -1.02550316907099 0
0.9852075312554321 1.02550316907099 0
0.9852251520697515 -1.025567381968098 0
-0.9852251520697515 1.025567381968098 0
0.5032008467399605 0.790838645490534 0
-0.5032008467399605 -0.7908386454905338 0
0.6995334204618995 -0.8863965566658371 0
-0.6995334204618995 0.8863965566658371 0
0.757320824483583 -0.1269606666298533 0
-0.7573208244835827 0.1269606666298534 0
0.7162584030338812 0.5290029854807606 0
-0.7162584030338812 -0.5290029854807605 0
-0.8773492151308635 0.9166577480002263 0
0.8773492151308627 -0.9166577480002274 0
-0.1903985887681186 0.8553792306095032 0
0.1903985887681185 -0.8553792306095032 0
0.8182219793874072 0.52495270263795 0
-0.8182219793874087 -0.5249527026379501 0
2 2 0 167
543
544
545
546
547
548
549
550
551
552
553
554
555
556
557
558
559
560
561
562
563
564
565
566
567
568
569
570
571
572
573
574
575
576
577
578
579
580
581
582
583
584
585
586
587
588
589
590
591
592
593
594
595
596
597
598
599
600
601
602
603
604
605
606
607
608
609
610
611
612
613
614
615
616
617
618
619
620
621
622
623
624
625
626
627
628
629
630
631
632
633
634
635
636
637
638
639
640
641
642
643
644
645
646
647
648
649
650
651
652
653
654
655
656
657
658
659
660
661
662
663
664
665
666
667
668
669
670
671
672
673
674
675
676
677
678
679
680
681
682
683
684
685
686
687
688
689
690
691
692
693
694
695
696
697
698
699
700
701
702
703
704
705
706
707
708
709
-0.3623020719417966 -0.5082332145805031 0
0.3632385215330919 0.4853546389454659 0
-0.4938194338430422 0.3730404364956698 0
0.4811196338201884 -0.3638704445211373 0
-0.1300309318071237 0.5977425448855386 0
0.5997590343857341 0.1294935954636536 0
0.1330127892207348 -0.5957286374126537 0
-0.5982381730367786 -0.1361596352014186 0
0.1298673906899014 0.5975065772848007 0
0.6046748157514982 -0.1443997472745165 0
-0.1349804019474153 -0.5980235272677605 0
-0.6093056652208644 0.1237119881825767 0
-0.3636242764957539 0.5014609119503385 0
0.489708942229177 0.3665915237267295 0
0.3794123531396409 -0.4954678110188109 0
-0.4985155903720364 -0.3692082650804794 0
-0.03598037811368723 0.618771267394557 0
-0.06201167225957269 0.5283905768222299 0
-0.1575352604021488 0.5027620119367189 0
-0.08860681286542604 0.4322956442288862 0
-0.1860535339099614 0.4070391225625829 0
-0.116719074892301 0.3353922467891743 0
-0.0192225315641259 0.3608622871814068 0
-0.04722353878276179 0.2637642115873145 0
-0.1441895788371173 0.2391879773523867 0
-0.07465773214524388 0.1674962579831744 0
0.02218308138585293 0.1919020077690198 0
-0.005136858969144537 0.09578019443481491 0
-0.1019784074861908 0.07137571410695435 0
-0.0324221077914616 -0.0002979460225398811 0
0.06442287166504032 0.02411058784528805 0
0.03713889063757252 -0.07196596974610983 0
-0.05970719718185667 -0.09637583794570921 0
0.1339846532033507 -0.0475564964617607 0
0.1067010140070449 -0.1436326336723209 0
0.1612681328821807 0.04851944634944449 0
0.2035469640430629 -0.1192229337610282 0
0.1762634130844378 -0.2152989631043676 0
0.0794173969421401 -0.2397087432947068 0
0.1489798617728395 -0.3113749928290024 0
0.05213385482829087 -0.3357847618394576 0
0.2731094090523232 -0.1908892074297932 0
0.3003929276076303 -0.09481321758926944 0
0.3699554096769565 -0.1664794460779799 0
0.3972389290478603 -0.07040345529986874 0
-0.01742863454045054 -0.2641185421250206 0
-0.04471215902786175 -0.36019453923885 0
-0.1142746495290609 -0.288528320897452 0
-0.1415581712828645 -0.3846043146676839 0
-0.2111206615168895 -0.3129380959973107 0
0.3276764387500426 0.001262763225161424 0
-0.1838371404494762 -0.2168621030440532 0
-0.2806831518339994 -0.2412718774264287 0
-0.2533996307090598 -0.1451958843737573 0
-0.3502456419223108 -0.169605658529643 0
-0.3229621208149712 -0.07352966551660246 0
0.424522447653173 0.02567253456163892 0
0.354959957786899 0.09733875364162425 0
0.02485033052601775 -0.4318607588370161 0
0.3419285745980032 -0.2596063404198513 0
-0.4181591236144319 -0.09840772265932088 0
-0.3922497761595987 -0.001941493829106513 0
-0.295632793952346 0.02253331958217467 0
-0.3651876496939385 0.09419737045197873 0
-0.4454448316118348 -0.1921826679814871 0
-0.485255954401053 -0.02568345468055085 0
-0.2683785468440364 0.1186176412478463 0
-0.3379459138915046 0.1902852320742417 0
-0.4318055193674604 0.165027380697795 0
-0.304527935944936 -0.3340100759473554 0
0.4475662997861479 0.1229525022881703 0
0.3815368670366723 0.1936154086284162 0
0.2852796988061556 0.169038415796795 0
0.3125435917220241 0.2651199825946446 0
0.215823907017167 0.2406743344924922 0
0.2431919073362009 0.3390975727856289 0
0.1462383008699896 0.3129057321712443 0
0.1742456126817934 0.4171404854897264 0
0.4790894895835637 0.2178245200857639 0
0.4502589116138081 -0.2518691774123517 0
0.4884261485983571 -0.04438670930217531 0
0.3387825738781755 0.3642831071326986 0
-0.405555897070235 0.2560096584363674 0
-0.3103453142206152 0.2854003538295098 0
-0.4968239440743158 0.2320058896814958 0
-0.3847107071661486 0.3555343219769996 0
-0.2655647148347879 0.4768938150628855 0
0.03251176934172869 0.5557370071958274 0
0.01154124433934149 0.4609803368413083 0
0.1061685590878581 0.4928032801003903 0
0.2007030628630551 0.5170188420395663 0
0.2704361268016365 0.4460030049213447 0
-0.2841901244043544 0.3760923868266739 0
0.07806618328588211 0.3887702014470387 0
-0.2137682044914358 0.3096350688169573 0
0.04942591430043603 0.2879290868981564 0
0.1189880174611226 0.2163652971669661 0
-0.1715247424365958 0.1430553363001166 0
-0.1292683383856258 -0.02470799500172881 0
0.4232522877560074 0.3028208367838534 0
0.245701995561017 -0.2864736921381479 0
0.2173116039979165 -0.382615647635624 0
-0.4571476883268283 0.06869312562137278 0
0.4619896661312855 -0.1424821232570824 0
0.5335043809085414 -0.1956319871915049 0
0.1214912169656171 -0.4073800574474502 0
0.1864838338817191 -0.4813780096549929 0
0.08943617618628172 -0.5074355970263844 0
-0.00243319150087129 -0.5279367530092582 0
-0.06902308401994471 -0.4533851956127877 0
-0.1641877823570027 -0.495744995270382 0
-0.1988210894573521 0.04695818673410804 0
0.009854945444956813 -0.1680424776938077 0
-0.3761445505408474 -0.2617501309468603 0
-0.2261062654847412 -0.04912135814325627 0
0.52855826070284 0.05976487121995488 0
0.5956739864829051 -0.04054801312675918 0
-0.2347049970029694 -0.4086871552945539 0
-0.2681907162851423 -0.4970990234330825 0
0.2308305104424254 -0.02314690987212623 0
-0.08699104930749668 -0.1924522319982957 0
-0.156551603586376 -0.1207859017511334 0
0.3157275876241236 -0.3497788225985693 0
0.2580943658084737 0.07293461116995911 0
0.1885265944975416 0.1446195881279475 0
0.09170863982043227 0.1202161869489135 0
-0.2410500169480408 0.2144592370143402 0
-0.5462437635495401 0.0509832404499199 0
0.2218647723299717 -0.5700282271961963 0
-0.2239793521760459 0.5726008084327354 0
0.2893728067580683 -0.4610797624820796 0
0.4008046216700877 -0.4008046199960482 0
-0.401837961519463 -0.352055116681553 0
-0.5099086889495197 -0.1204310661555402 0
-0.5564780429827634 -0.2168877552667965 0
-0.5952756876282987 -0.04079107586778127 0
0.4184359010976391 0.4142739118984492 0
-0.4723508490231032 -0.2825850701989684 0
0.04584825836805571 -0.607803167200855 0
0.5337889742743173 0.2957822128598486 0
0.574039823798562 0.2140809633070653 0
-0.429036164361311 0.439725095044105 0
0.2878838846208915 0.5456205199627004 0
-0.4285384274077982 -0.4394431969959212 0
-0.04543822358829609 -0.610278826104617 0
-0.2273244341966184 -0.5773975290632 0
0.5495070090274478 -0.2844730224197689 0
-0.5885184457451661 0.2195060307523497 0
-0.3044814853153229 0.5553150808401126 0
0.3119778030595416 -0.5504391338903382 0
0.3979678658652422 -0.3251858809895916 0
-0.517764340863492 0.1399210595585579 0
-0.3333503516836843 -0.4232546304888282 0
-0.5455148314251177 0.2987660845818152 0
0.6233732581703534 0.04966616812021398 0
-0.5530865421702597 -0.3055476839542975 0
-0.6287400251518568 0.04670490785009807 0
-0.08144361996377064 -0.5350344997892488 0
0.04548547230653114 0.635970004731678 0
0.5232139667976737 0.153382151189146 0
0.2224645833908292 0.5966552940003119 0
0.4518180079730102 -0.4516961970972874 0
-0.3054112603919526 -0.56166992756033 0
-0.3450383337611088 0.4255068800310846 0
0.5333472977922482 -0.1108097188037447 0
0.599214736901532 -0.2225016108767076 0
-0.4683072941633182 0.2988050710251705 0
$EndNodes
$Elements
26 1416 1 1416
1 100 1 4
1 5 69 
2 69 70 
3 70 71 
4 71 6 
1 101 1 5
5 6 72 
6 72 73 
7 73 74 
8 74 75 
9 75 7 
1 102 1 1
10 7 8 
1 103 1 2
11 8 76 
12 76 9 
1 104 1 3
13 9 77 
14 77 78 
15 78 10 
1 105 1 16
16 10 79 
17 79 80 
18 80 81 
19 81 82 
20 82 83 
21 83 84 
22 84 85 
23 85 86 
24 86 87 
25 87 88 
26 88 89 
27 89 90 
28 90 91 
29 91 92 
30 92 93 
31 93 11 
1 106 1 3
32 11 94 
33 94 95 
34 95 12 
1 107 1 2
35 12 96 
36 96 13 
1 108 1 1
37 13 14 
1 109 1 5
38 14 97 
39 97 98 
40 98 99 
41 99 100 
42 100 15 
1 110 1 4
43 15 101 
44 101 102 
45 102 103 
46 103 16 
1 111 1 18
47 16 104 
48 104 105 
49 105 106 
50 106 107 
51 107 108 
52 108 109 
53 109 110 
54 110 111 
55 111 112 
56 112 113 
57 113 114 
58 114 115 
59 115 116 
60 116 117 
61 117 118 
62 118 119 
63 119 120 
64 120 17 
1 112 1 4
65 17 121 
66 121 122 
67 122 123 
68 123 18 
1 113 1 5
69 18 124 
70 124 125 
71 125 126 
72 126 127 
73 127 19 
1 114 1 1
74 19 20 
1 115 1 2
75 20 128 
76 128 21 
1 116 1 3
77 21 129 
78 129 130 
79 130 22 
1 117 1 16
80 22 131 
81 131 132 
82 132 133 
83 133 134 
84 134 135 
85 135 136 
86 136 137 
87 137 138 
88 138 139 
89 139 140 
90 140 141 
91 141 142 
92 142 143 
93 143 144 
94 144 145 
95 145 23 
1 118 1 3
96 23 146 
97 146 147 
98 147 24 
1 119 1 2
99 24 148 
100 148 25 
1 120 1 1
101 25 26 
1 121 1 5
102 26 149 
103 149 150 
104 150 151 
105 151 152 
106 152 27 
1 122 1 4
107 27 153 
108 153 154 
109 154 155 
110 155 28 
1 123 1 18
111 28 156 
112 156 157 
113 157 158 
114 158 159 
115 159 160 
116 160 161 
117 161 162 
118 162 163 
119 163 164 
120 164 165 
121 165 166 
122 166 167 
123 167 168 
124 168 169 
125 169 170 
126 170 171 
127 171 172 
128 172 5 
2 1 2 912
129 16 104 277 
130 28 156 279 
131 316 315 426 
132 299 298 425 
133 231 167 396 
134 232 115 393 
135 287 284 319 
136 304 301 320 
137 316 426 510 
138 299 425 509 
139 259 263 370 
140 269 273 369 
141 381 206 428 
142 384 205 427 
143 76 9 209 
144 128 21 210 
145 12 96 212 
146 24 148 211 
147 399 177 400 
148 397 178 398 
149 365 376 523 
150 366 375 524 
151 283 284 287 
152 300 301 304 
153 115 116 393 
154 167 168 396 
155 206 381 452 
156 205 384 451 
157 323 324 325 
158 327 328 329 
159 407 433 477 
160 408 434 478 
161 47 46 298 
162 67 66 315 
163 47 298 299 
164 67 315 316 
165 260 348 389 
166 270 350 390 
167 286 292 319 
168 303 309 320 
169 183 33 281 
170 184 53 282 
171 277 104 322 
172 279 156 321 
173 325 324 428 
174 329 328 427 
175 213 283 287 
176 214 300 304 
177 189 267 268 
178 190 257 258 
179 104 191 322 
180 156 192 321 
181 10 79 347 
182 22 131 349 
183 324 317 357 
184 328 318 358 
185 365 223 376 
186 366 224 375 
187 183 281 371 
188 184 282 372 
189 213 45 283 
190 214 65 300 
191 226 330 355 
192 225 326 356 
193 13 14 441 
194 25 26 442 
195 19 20 444 
196 7 8 443 
197 348 260 467 
198 350 270 468 
199 189 269 369 
200 190 259 370 
201 268 267 272 
202 258 257 262 
203 323 317 324 
204 327 318 328 
205 284 286 319 
206 301 303 320 
207 407 232 433 
208 408 231 434 
209 324 357 379 
210 328 358 382 
211 35 317 323 
212 55 318 327 
213 403 404 418 
214 401 402 417 
215 206 367 428 
216 205 368 427 
217 39 331 333 
218 59 335 337 
219 57 226 355 
220 37 225 356 
221 461 332 465 
222 462 336 466 
223 400 262 480 
224 398 272 479 
225 30 249 339 
226 50 250 341 
227 262 257 436 
228 272 267 435 
229 367 325 428 
230 368 329 427 
231 311 354 385 
232 294 353 387 
233 257 172 500 
234 267 120 499 
235 463 138 465 
236 464 86 466 
237 331 332 461 
238 335 336 462 
239 190 172 257 
240 189 120 267 
241 82 83 368 
242 134 135 367 
243 217 121 243 
244 218 69 244 
245 155 220 245 
246 103 219 246 
247 141 142 388 
248 89 90 386 
249 243 122 253 
250 244 70 254 
251 102 246 255 
252 154 245 256 
253 217 243 421 
254 218 244 419 
255 245 220 424 
256 246 219 423 
257 332 463 465 
258 336 464 466 
259 93 11 351 
260 145 23 352 
261 287 319 361 
262 304 320 359 
263 319 292 346 
264 320 309 345 
265 361 319 511 
266 359 320 512 
267 243 253 363 
268 244 254 364 
269 256 245 365 
270 255 246 366 
271 142 208 388 
272 90 207 386 
273 206 134 367 
274 205 82 368 
275 209 9 460 
276 210 21 459 
277 333 331 461 
278 337 335 462 
279 354 228 385 
280 353 227 387 
281 370 263 474 
282 369 273 473 
283 317 183 357 
284 318 184 358 
285 24 211 455 
286 12 212 457 
287 322 191 415 
288 321 192 416 
289 339 249 433 
290 341 250 434 
291 364 222 419 
292 363 221 421 
293 223 365 424 
294 224 366 423 
295 121 122 243 
296 69 70 244 
297 102 103 246 
298 154 155 245 
299 127 19 444 
300 75 7 443 
301 26 149 442 
302 14 97 441 
303 231 396 516 
304 232 393 515 
305 434 250 478 
306 433 249 477 
307 5 69 218 
308 17 121 217 
309 103 16 219 
310 155 28 220 
311 180 403 418 
312 179 401 417 
313 400 177 470 
314 398 178 469 
315 70 71 254 
316 122 123 253 
317 101 102 255 
318 153 154 256 
319 383 195 384 
320 380 196 381 
321 199 345 431 
322 200 346 432 
323 34 183 317 
324 54 184 318 
325 274 371 535 
326 264 372 536 
327 350 349 506 
328 348 347 505 
329 413 42 517 
330 414 62 518 
331 11 179 351 
332 23 180 352 
333 381 428 529 
334 384 427 530 
335 335 252 336 
336 331 251 332 
337 276 274 535 
338 266 264 536 
339 46 213 298 
340 66 214 315 
341 436 420 480 
342 435 422 479 
343 262 436 480 
344 272 435 479 
345 471 247 478 
346 472 248 477 
347 295 296 297 
348 312 313 314 
349 390 350 506 
350 389 348 505 
351 106 199 431 
352 158 200 432 
353 53 52 282 
354 33 32 281 
355 180 418 475 
356 179 417 476 
357 196 380 390 
358 195 383 389 
359 197 392 449 
360 198 395 450 
361 45 44 283 
362 65 64 300 
363 357 275 379 
364 358 265 382 
365 41 227 353 
366 61 228 354 
367 2 251 331 
368 4 252 335 
369 36 35 323 
370 56 55 327 
371 183 371 493 
372 184 372 494 
373 357 183 493 
374 358 184 494 
375 40 39 333 
376 60 59 337 
377 58 57 355 
378 38 37 356 
379 42 353 517 
380 62 354 518 
381 31 30 339 
382 51 50 341 
383 344 472 477 
384 343 471 478 
385 249 29 344 
386 250 49 343 
387 3 237 343 
388 1 238 344 
389 415 314 454 
390 416 297 453 
391 353 294 517 
392 354 311 518 
393 355 330 507 
394 356 326 508 
395 197 118 369 
396 198 170 370 
397 392 197 541 
398 395 198 542 
399 363 253 521 
400 364 254 519 
401 256 365 523 
402 255 366 524 
403 43 42 413 
404 63 62 414 
405 213 287 288 
406 214 304 305 
407 272 398 469 
408 262 400 470 
409 104 105 191 
410 156 157 192 
411 119 120 189 
412 171 172 190 
413 426 230 510 
414 425 229 509 
415 322 415 454 
416 321 416 453 
417 486 299 509 
418 485 316 510 
419 368 83 438 
420 367 135 437 
421 292 290 295 
422 309 307 312 
423 374 201 495 
424 373 202 496 
425 204 376 498 
426 203 375 497 
427 119 189 369 
428 171 190 370 
429 286 289 290 
430 303 306 307 
431 299 486 534 
432 316 485 533 
433 141 388 440 
434 89 386 439 
435 289 293 378 
436 306 310 377 
437 67 316 533 
438 47 299 534 
439 332 251 481 
440 336 252 482 
441 108 360 489 
442 160 362 490 
443 44 43 181 
444 64 63 182 
445 34 33 183 
446 54 53 184 
447 283 181 284 
448 300 182 301 
449 44 181 283 
450 64 182 300 
451 221 363 522 
452 222 364 520 
453 360 108 483 
454 362 160 484 
455 295 290 296 
456 312 307 313 
457 286 290 292 
458 303 307 309 
459 285 181 413 
460 302 182 414 
461 393 116 449 
462 396 168 450 
463 463 332 481 
464 464 336 482 
465 193 351 531 
466 194 352 532 
467 379 275 380 
468 382 265 383 
469 288 287 361 
470 305 304 359 
471 32 215 281 
472 52 216 282 
473 281 215 391 
474 282 216 394 
475 384 195 451 
476 381 196 452 
477 193 93 351 
478 194 145 352 
479 375 187 441 
480 376 188 442 
481 185 374 443 
482 186 373 444 
483 312 314 415 
484 295 297 416 
485 284 181 285 
486 301 182 302 
487 118 119 369 
488 170 171 370 
489 35 34 317 
490 55 54 318 
491 213 288 298 
492 214 305 315 
493 291 285 413 
494 308 302 414 
495 290 289 378 
496 307 306 377 
497 391 340 392 
498 394 342 395 
499 68 67 533 
500 48 47 534 
501 228 338 385 
502 227 334 387 
503 225 36 323 
504 226 56 327 
505 215 340 391 
506 216 342 394 
507 106 107 199 
508 158 159 200 
509 117 118 197 
510 169 170 198 
511 225 323 325 
512 226 327 329 
513 222 240 419 
514 221 239 421 
515 242 223 424 
516 241 224 423 
517 385 338 386 
518 387 334 388 
519 227 333 334 
520 228 337 338 
521 330 329 368 
522 326 325 367 
523 284 285 286 
524 301 302 303 
525 42 41 353 
526 62 61 354 
527 92 193 405 
528 144 194 406 
529 181 43 413 
530 182 63 414 
531 252 58 355 
532 251 38 356 
533 92 93 193 
534 144 145 194 
535 79 80 195 
536 131 132 196 
537 227 40 333 
538 228 60 337 
539 217 421 422 
540 218 419 420 
541 39 2 331 
542 59 4 335 
543 2 38 251 
544 4 58 252 
545 226 329 330 
546 225 325 326 
547 41 40 227 
548 61 60 228 
549 37 36 225 
550 57 56 226 
551 32 31 215 
552 52 51 216 
553 46 45 213 
554 66 65 214 
555 215 31 339 
556 216 51 341 
557 91 92 405 
558 143 144 406 
559 215 339 340 
560 216 341 342 
561 247 165 408 
562 248 113 407 
563 230 110 410 
564 229 162 412 
565 112 248 409 
566 164 247 411 
567 111 409 410 
568 163 411 412 
569 114 232 407 
570 166 231 408 
571 111 112 409 
572 163 164 411 
573 112 113 248 
574 164 165 247 
575 109 110 230 
576 161 162 229 
577 114 115 232 
578 166 167 231 
579 113 114 407 
580 165 166 408 
581 110 111 410 
582 162 163 412 
583 30 29 249 
584 50 49 250 
585 1 68 238 
586 3 48 237 
587 29 1 344 
588 49 3 343 
589 351 179 476 
590 352 180 475 
591 207 91 405 
592 208 143 406 
593 254 71 525 
594 253 123 526 
595 101 255 527 
596 153 256 528 
597 288 361 362 
598 305 359 360 
599 81 82 205 
600 133 134 206 
601 90 91 207 
602 142 143 208 
603 359 199 489 
604 361 200 490 
605 84 85 234 
606 136 137 233 
607 87 88 236 
608 139 140 235 
609 286 285 289 
610 303 302 306 
611 392 340 393 
612 395 342 396 
613 379 380 381 
614 382 383 384 
615 73 74 201 
616 125 126 202 
617 98 99 203 
618 150 151 204 
619 223 188 376 
620 224 187 375 
621 185 222 374 
622 186 221 373 
623 9 173 460 
624 21 174 459 
625 197 369 473 
626 198 370 474 
627 289 291 293 
628 306 308 310 
629 293 291 294 
630 310 308 311 
631 536 394 542 
632 535 391 541 
633 345 199 512 
634 346 200 511 
635 289 285 291 
636 306 302 308 
637 264 261 265 
638 274 271 275 
639 269 268 270 
640 259 258 260 
641 189 268 269 
642 190 258 259 
643 176 24 455 
644 175 12 457 
645 373 221 522 
646 374 222 520 
647 263 261 264 
648 273 271 274 
649 105 106 431 
650 157 158 432 
651 263 264 266 
652 273 274 276 
653 201 74 495 
654 202 126 496 
655 150 204 498 
656 98 203 497 
657 269 271 273 
658 259 261 263 
659 312 415 429 
660 295 416 430 
661 343 237 471 
662 344 238 472 
663 191 105 431 
664 192 157 432 
665 84 234 438 
666 136 233 437 
667 269 270 271 
668 259 260 261 
669 235 140 440 
670 236 88 439 
671 298 288 425 
672 315 305 426 
673 199 359 512 
674 200 361 511 
675 266 536 542 
676 276 535 541 
677 249 344 477 
678 250 343 478 
679 235 461 465 
680 236 462 466 
681 288 362 425 
682 305 360 426 
683 247 408 478 
684 248 407 477 
685 195 80 451 
686 196 132 452 
687 346 292 430 
688 345 309 429 
689 330 368 438 
690 326 367 437 
691 429 191 431 
692 430 192 432 
693 296 290 378 
694 313 307 377 
695 81 205 451 
696 133 206 452 
697 275 357 493 
698 265 358 494 
699 117 197 449 
700 169 198 450 
701 386 338 439 
702 388 334 440 
703 8 76 185 
704 20 128 186 
705 96 13 187 
706 148 25 188 
707 292 295 430 
708 309 312 429 
709 137 138 463 
710 85 86 464 
711 86 87 466 
712 138 139 465 
713 416 192 430 
714 415 191 429 
715 72 73 446 
716 124 125 445 
717 99 100 447 
718 151 152 448 
719 107 108 489 
720 159 160 490 
721 340 339 515 
722 342 341 516 
723 135 136 437 
724 83 84 438 
725 388 208 501 
726 386 207 502 
727 125 202 445 
728 73 201 446 
729 203 99 447 
730 204 151 448 
731 140 141 440 
732 88 89 439 
733 241 423 503 
734 242 424 504 
735 345 429 431 
736 346 430 432 
737 360 359 489 
738 362 361 490 
739 202 373 522 
740 201 374 520 
741 314 313 476 
742 297 296 475 
743 418 404 537 
744 417 402 538 
745 239 459 479 
746 240 460 480 
747 394 395 542 
748 391 392 541 
749 260 389 491 
750 270 390 492 
751 108 109 483 
752 160 161 484 
753 9 77 173 
754 21 129 174 
755 147 24 176 
756 95 12 175 
757 383 265 491 
758 380 275 492 
759 187 13 441 
760 188 25 442 
761 8 185 443 
762 20 186 444 
763 339 433 515 
764 341 434 516 
765 71 6 525 
766 123 18 526 
767 15 101 527 
768 27 153 528 
769 275 271 492 
770 265 261 491 
771 244 364 419 
772 243 363 421 
773 366 246 423 
774 365 245 424 
775 94 95 401 
776 146 147 403 
777 6 72 525 
778 18 124 526 
779 100 15 527 
780 152 27 528 
781 423 219 503 
782 424 220 504 
783 116 117 449 
784 168 169 450 
785 371 281 535 
786 372 282 536 
787 78 10 177 
788 130 22 178 
789 11 94 179 
790 23 146 180 
791 220 279 280 
792 219 277 278 
793 77 78 399 
794 129 130 397 
795 268 272 468 
796 258 262 467 
797 78 177 399 
798 130 178 397 
799 219 278 503 
800 220 280 504 
801 487 405 514 
802 488 406 513 
803 378 293 513 
804 377 310 514 
805 392 393 449 
806 395 396 450 
807 281 391 535 
808 282 394 536 
809 293 488 513 
810 310 487 514 
811 132 133 452 
812 80 81 451 
813 294 291 517 
814 311 308 518 
815 434 231 516 
816 433 232 515 
817 218 420 436 
818 217 422 435 
819 438 234 507 
820 437 233 508 
821 79 195 505 
822 131 196 506 
823 220 28 279 
824 219 16 277 
825 371 274 493 
826 372 264 494 
827 177 348 470 
828 178 350 469 
829 233 137 463 
830 234 85 464 
831 139 235 465 
832 87 236 466 
833 173 400 460 
834 174 398 459 
835 377 193 531 
836 378 194 532 
837 311 385 502 
838 294 387 501 
839 270 268 468 
840 260 258 467 
841 409 248 472 
842 411 247 471 
843 387 388 501 
844 385 386 502 
845 109 230 483 
846 161 229 484 
847 422 239 479 
848 420 240 480 
849 338 337 540 
850 334 333 539 
851 314 417 454 
852 297 418 453 
853 207 405 487 
854 208 406 488 
855 319 346 511 
856 320 345 512 
857 472 238 485 
858 471 237 486 
859 409 472 485 
860 411 471 486 
861 251 356 481 
862 252 355 482 
863 273 276 473 
864 263 266 474 
865 296 378 532 
866 313 377 531 
867 390 380 492 
868 389 383 491 
869 264 265 494 
870 274 275 493 
871 410 409 485 
872 412 411 486 
873 278 277 322 
874 280 279 321 
875 229 425 484 
876 230 426 483 
877 199 107 489 
878 200 159 490 
879 347 79 505 
880 349 131 506 
881 330 438 507 
882 326 437 508 
883 404 455 456 
884 402 457 458 
885 402 175 457 
886 404 176 455 
887 197 473 541 
888 198 474 542 
889 412 486 509 
890 410 485 510 
891 293 294 488 
892 310 311 487 
893 234 464 482 
894 233 463 481 
895 458 241 503 
896 456 242 504 
897 235 440 539 
898 236 439 540 
899 74 75 495 
900 126 127 496 
901 149 150 498 
902 97 98 497 
903 180 146 403 
904 179 94 401 
905 405 193 514 
906 406 194 513 
907 419 240 420 
908 421 239 422 
909 426 360 483 
910 425 362 484 
911 230 410 510 
912 229 412 509 
913 177 347 348 
914 178 349 350 
915 196 390 506 
916 195 389 505 
917 193 377 514 
918 194 378 513 
919 324 379 529 
920 328 382 530 
921 280 321 453 
922 278 322 454 
923 393 340 515 
924 396 342 516 
925 238 68 533 
926 237 48 534 
927 271 270 492 
928 261 260 491 
929 291 413 517 
930 308 414 518 
931 417 314 476 
932 418 297 475 
933 379 381 529 
934 382 384 530 
935 453 418 537 
936 454 417 538 
937 445 253 526 
938 446 254 525 
939 255 447 527 
940 256 448 528 
941 95 175 401 
942 147 176 403 
943 468 272 469 
944 467 262 470 
945 459 398 479 
946 460 400 480 
947 439 338 540 
948 440 334 539 
949 333 461 539 
950 337 462 540 
951 127 444 496 
952 75 443 495 
953 441 97 497 
954 442 149 498 
955 186 128 210 
956 185 76 209 
957 96 187 212 
958 148 188 211 
959 211 188 223 
960 212 187 224 
961 186 210 221 
962 185 209 222 
963 486 237 534 
964 485 238 533 
965 211 223 242 
966 212 224 241 
967 221 210 239 
968 222 209 240 
969 427 328 530 
970 428 324 529 
971 72 446 525 
972 124 445 526 
973 447 100 527 
974 448 152 528 
975 17 217 499 
976 5 218 500 
977 239 210 459 
978 240 209 460 
979 401 175 402 
980 403 176 404 
981 446 201 519 
982 445 202 521 
983 203 447 524 
984 204 448 523 
985 173 399 400 
986 174 397 398 
987 211 242 455 
988 212 241 457 
989 475 296 532 
990 476 313 531 
991 177 10 347 
992 178 22 349 
993 435 267 499 
994 436 257 500 
995 280 453 537 
996 278 454 538 
997 404 456 537 
998 402 458 538 
999 481 356 508 
1000 482 355 507 
1001 444 373 496 
1002 443 374 495 
1003 375 441 497 
1004 376 442 498 
1005 455 242 456 
1006 457 241 458 
1007 348 467 470 
1008 350 468 469 
1009 487 311 502 
1010 488 294 501 
1011 352 475 532 
1012 351 476 531 
1013 253 445 521 
1014 254 446 519 
1015 448 256 523 
1016 447 255 524 
1017 217 435 499 
1018 218 436 500 
1019 234 482 507 
1020 233 481 508 
1021 461 235 539 
1022 462 236 540 
1023 173 77 399 
1024 174 129 397 
1025 207 487 502 
1026 208 488 501 
1027 278 458 503 
1028 280 456 504 
1029 473 276 541 
1030 474 266 542 
1031 458 278 538 
1032 456 280 537 
1033 519 201 520 
1034 521 202 522 
1035 364 519 520 
1036 363 521 522 
1037 172 5 500 
1038 120 17 499 
1039 375 203 524 
1040 376 204 523 
2 2 2 376
1041 622 546 689 
1042 3 49 678 
1043 546 622 693 
1044 642 621 682 
1045 556 642 682 
1046 50 51 677 
1047 33 34 679 
1048 624 544 634 
1049 549 649 650 
1050 649 549 671 
1051 68 1 659 
1052 550 50 677 
1053 552 68 659 
1054 650 651 681 
1055 544 624 679 
1056 649 671 673 
1057 665 673 674 
1058 673 671 692 
1059 673 557 674 
1060 549 650 681 
1061 3 678 699 
1062 553 653 688 
1063 49 550 678 
1064 632 620 633 
1065 633 620 634 
1066 642 556 679 
1067 647 622 689 
1068 34 544 679 
1069 556 33 679 
1070 675 686 695 
1071 624 642 679 
1072 618 624 634 
1073 653 553 700 
1074 620 632 636 
1075 620 618 634 
1076 686 543 695 
1077 551 630 632 
1078 632 631 636 
1079 653 661 688 
1080 677 51 698 
1081 562 565 631 
1082 551 632 633 
1083 633 634 685 
1084 675 656 680 
1085 631 565 636 
1086 545 628 684 
1087 560 562 631 
1088 627 690 694 
1089 682 621 683 
1090 548 658 697 
1091 676 608 678 
1092 619 636 638 
1093 634 544 685 
1094 681 651 687 
1095 549 60 671 
1096 60 61 671 
1097 619 620 636 
1098 636 565 638 
1099 635 626 637 
1100 628 626 635 
1101 563 635 637 
1102 567 637 669 
1103 637 626 669 
1104 567 564 637 
1105 638 569 639 
1106 619 638 639 
1107 566 569 638 
1108 571 640 654 
1109 640 567 669 
1110 640 609 654 
1111 571 568 640 
1112 639 569 668 
1113 569 570 668 
1114 641 571 654 
1115 42 43 555 
1116 32 33 556 
1117 62 63 557 
1118 52 53 558 
1119 589 591 652 
1120 650 601 651 
1121 39 40 547 
1122 29 30 548 
1123 59 60 549 
1124 49 50 550 
1125 648 601 650 
1126 652 591 653 
1127 601 589 652 
1128 572 571 641 
1129 658 623 659 
1130 651 601 652 
1131 614 621 642 
1132 583 601 648 
1133 618 616 624 
1134 611 610 625 
1135 579 580 584 
1136 611 625 627 
1137 623 587 646 
1138 586 584 602 
1139 615 614 616 
1140 586 602 622 
1141 653 591 660 
1142 606 610 611 
1143 606 611 645 
1144 604 605 606 
1145 617 616 618 
1146 606 609 610 
1147 603 598 604 
1148 582 583 648 
1149 653 660 661 
1150 576 577 579 
1151 643 582 644 
1152 663 575 664 
1153 608 604 645 
1154 604 598 605 
1155 574 575 655 
1156 605 598 657 
1157 600 614 615 
1158 604 606 645 
1159 615 616 617 
1160 579 584 585 
1161 585 584 586 
1162 646 622 647 
1163 655 575 663 
1164 580 582 643 
1165 612 595 656 
1166 654 605 657 
1167 600 613 614 
1168 641 654 657 
1169 594 663 664 
1170 597 596 598 
1171 570 573 668 
1172 573 576 578 
1173 583 588 589 
1174 603 604 608 
1175 606 605 609 
1176 583 581 588 
1177 619 618 620 
1178 579 577 580 
1179 592 595 612 
1180 625 610 626 
1181 575 572 641 
1182 598 596 657 
1183 573 574 576 
1184 577 574 655 
1185 616 614 642 
1186 599 587 623 
1187 625 626 628 
1188 582 581 583 
1189 589 590 591 
1190 597 598 603 
1191 617 618 619 
1192 586 622 646 
1193 576 574 577 
1194 575 641 664 
1195 44 45 545 
1196 581 577 655 
1197 579 585 662 
1198 593 600 666 
1199 578 576 662 
1200 589 588 590 
1201 591 592 660 
1202 641 657 664 
1203 592 612 660 
1204 662 593 666 
1205 34 35 544 
1206 588 581 655 
1207 574 572 575 
1208 584 580 643 
1209 624 616 642 
1210 595 597 656 
1211 614 613 621 
1212 595 594 596 
1213 578 662 666 
1214 64 65 546 
1215 580 577 581 
1216 580 581 582 
1217 583 589 601 
1218 597 607 656 
1219 599 623 658 
1220 587 586 646 
1221 596 594 664 
1222 602 584 643 
1223 576 579 662 
1224 585 586 587 
1225 644 582 648 
1226 595 596 597 
1227 597 603 607 
1228 591 590 592 
1229 593 599 600 
1230 600 599 613 
1231 609 605 654 
1232 585 593 662 
1233 592 594 595 
1234 592 590 594 
1235 644 648 649 
1236 573 572 574 
1237 649 648 650 
1238 602 643 665 
1239 667 639 668 
1240 578 667 668 
1241 588 655 663 
1242 590 588 663 
1243 617 619 639 
1244 594 590 663 
1245 593 587 599 
1246 600 615 666 
1247 585 587 593 
1248 613 599 658 
1249 573 578 668 
1250 657 596 664 
1251 643 644 665 
1252 615 617 667 
1253 37 38 551 
1254 67 68 552 
1255 47 48 554 
1256 617 639 667 
1257 578 666 667 
1258 666 615 667 
1259 57 58 553 
1260 54 55 543 
1261 570 572 573 
1262 570 571 572 
1263 570 568 571 
1264 569 568 570 
1265 609 640 669 
1266 610 609 669 
1267 568 567 640 
1268 566 568 569 
1269 626 610 669 
1270 566 567 568 
1271 565 566 638 
1272 566 564 567 
1273 565 564 566 
1274 563 629 635 
1275 564 563 637 
1276 562 564 565 
1277 563 561 629 
1278 562 563 564 
1279 629 555 706 
1280 658 548 702 
1281 630 631 632 
1282 562 561 563 
1283 630 560 631 
1284 560 561 562 
1285 558 675 680 
1286 628 545 709 
1287 552 659 707 
1288 559 560 630 
1289 560 547 561 
1290 629 561 672 
1291 690 554 694 
1292 547 40 672 
1293 40 41 672 
1294 550 676 678 
1295 665 644 673 
1296 659 1 697 
1297 555 629 691 
1298 676 550 677 
1299 603 608 676 
1300 608 645 670 
1301 656 607 680 
1302 543 661 695 
1303 647 552 707 
1304 658 659 697 
1305 602 665 693 
1306 611 627 694 
1307 661 660 695 
1308 561 547 672 
1309 644 649 673 
1310 607 676 677 
1311 652 653 700 
1312 613 658 702 
1313 635 629 706 
1314 625 628 709 
1315 659 623 707 
1316 646 647 707 
1317 612 656 675 
1318 559 547 560 
1319 630 551 701 
1320 665 674 693 
1321 554 670 694 
1322 670 645 694 
1323 687 651 700 
1324 607 603 676 
1325 684 628 706 
1326 683 621 702 
1327 678 670 699 
1328 552 647 708 
1329 4 59 681 
1330 2 39 559 
1331 43 44 684 
1332 39 547 559 
1333 59 549 681 
1334 44 545 684 
1335 53 54 686 
1336 555 43 684 
1337 32 556 682 
1338 548 30 683 
1339 558 53 686 
1340 30 31 683 
1341 31 32 682 
1342 54 543 686 
1343 58 4 687 
1344 35 36 685 
1345 544 35 685 
1346 553 58 687 
1347 56 57 688 
1348 57 553 688 
1349 65 66 689 
1350 612 675 695 
1351 675 558 686 
1352 47 554 690 
1353 557 673 692 
1354 607 677 680 
1355 546 65 689 
1356 61 62 692 
1357 551 633 703 
1358 661 543 705 
1359 674 546 693 
1360 545 45 696 
1361 608 670 678 
1362 1 29 697 
1363 52 558 698 
1364 629 672 691 
1365 41 42 691 
1366 554 48 699 
1367 42 555 691 
1368 551 38 701 
1369 46 47 690 
1370 37 551 703 
1371 557 63 704 
1372 64 546 704 
1373 67 552 708 
1374 543 55 705 
1375 62 557 692 
1376 671 61 692 
1377 559 630 701 
1378 622 602 693 
1379 645 611 694 
1380 633 685 703 
1381 660 612 695 
1382 670 554 699 
1383 45 46 696 
1384 29 548 697 
1385 51 52 698 
1386 674 557 704 
1387 546 674 704 
1388 672 41 691 
1389 4 681 687 
1390 31 682 683 
1391 555 684 706 
1392 553 687 700 
1393 48 3 699 
1394 651 652 700 
1395 38 2 701 
1396 621 613 702 
1397 558 680 698 
1398 688 661 705 
1399 36 37 703 
1400 63 64 704 
1401 55 56 705 
1402 689 66 708 
1403 680 677 698 
1404 2 559 701 
1405 628 635 706 
1406 623 646 707 
1407 66 67 708 
1408 627 625 709 
1409 46 690 696 
1410 690 627 696 
1411 685 36 703 
1412 647 689 708 
1413 56 688 705 
1414 548 683 702 
1415 545 696 709 
1416 696 627 709 
$EndElements
