$MeshFormat
4.1 0 8
$EndMeshFormat
$Entities
33 28 2 0
1 0 0 0 0 
2 0.7 0 0 0 
3 0 0.7 0 0 
4 -0.7 0 0 0 
5 0 -0.7 0 0 
100 -1 -0.9 0 0 
101 -1 -1.04 0 0 
102 -0.9 -1.04 0 0 
103 -0.9 -1.02 0 0 
104 -0.88 -1 0 0 
105 -0.78 -1 0 0 
106 0.78 -1 0 0 
107 0.88 -1 0 0 
108 0.9 -1.02 0 0 
109 0.9 -1.04 0 0 
110 1 -1.04 0 0 
111 1 -0.9 0 0 
112 1 0.9 0 0 
113 1 1.04 0 0 
114 0.9 1.04 0 0 
115 0.9 1.02 0 0 
116 0.88 1 0 0 
117 0.78 1 0 0 
118 -0.78 1 0 0 
119 -0.88 1 0 0 
120 -0.9 1.02 0 0 
121 -0.9 1.04 0 0 
122 -1 1.04 0 0 
123 -1 0.9 0 0 
1001 -0.88 -1.02 0 0 
1002 0.88 -1.02 0 0 
1003 0.88 1.02 0 0 
1004 -0.88 1.02 0 0 
1 5.551115123125783e-17 0 0 0.7 0.7 0 0 2 2 -3 
2 -0.7 5.551115123125783e-17 0 0 0.7 0 0 2 3 -4 
3 -0.7 -0.7 0 -5.551115123125783e-17 0 0 0 2 4 -5 
4 0 -0.7 0 0.7 -5.551115123125783e-17 0 0 2 5 -2 
100 -1 -1.04 0 -1 -0.9 0 1 5 2 100 -101 
101 -1 -1.04 0 -0.9 -1.04 0 1 1 2 101 -102 
102 -0.9 -1.04 0 -0.9 -1.02 0 1 5 2 102 -103 
103 -0.9 -1.02 0 -0.88 -1 0 1 5 2 103 -104 
104 -0.88 -1 0 -0.78 -1 0 1 5 2 104 -105 
105 -0.78 -1 0 0.78 -1 0 1 5 2 105 -106 
106 0.78 -1 0 0.88 -1 0 1 5 2 106 -107 
107 0.88 -1.02 0 0.9 -1 0 1 5 2 107 -108 
108 0.9 -1.04 0 0.9 -1.02 0 1 5 2 108 -109 
109 0.9 -1.04 0 1 -1.04 0 1 2 2 109 -110 
110 1 -1.04 0 1 -0.9 0 1 5 2 110 -111 
111 1 -0.9 0 1 0.9 0 1 5 2 111 -112 
112 1 0.9 0 1 1.04 0 1 5 2 112 -113 
113 0.9 1.04 0 1 1.04 0 1 3 2 113 -114 
114 0.9 1.02 0 0.9 1.04 0 1 5 2 114 -115 
115 0.88 1 0 0.9 1.02 0 1 5 2 115 -116 
116 0.78 1 0 0.88 1 0 1 5 2 116 -117 
117 -0.78 1 0 0.78 1 0 1 5 2 117 -118 
118 -0.88 1 0 -0.78 1 0 1 5 2 118 -119 
119 -0.9 1 0 -0.88 1.02 0 1 5 2 119 -120 
120 -0.9 1.02 0 -0.9 1.04 0 1 5 2 120 -121 
121 -1 1.04 0 -0.9 1.04 0 1 4 2 121 -122 
122 -1 0.9 0 -1 1.04 0 1 5 2 122 -123 
123 -1 -0.9 0 -1 0.9 0 1 5 2 123 -100 
1 -1 -1.04 0 1 1.04 0 1 1 28 100 101 102 103 104 105 106 107 108 109 110 111 112 113 114 115 116 117 118 119 120 121 122 123 1 2 3 4 
2 -0.7 -0.7 0 0.7 0.7 0 1 2 4 1 2 3 4 
$EndEntities
$Nodes
58 921 1 921
0 2 0 1
1
0.7 0 0
0 3 0 1
2
0 0.7 0
0 4 0 1
3
-0.7 0 0
0 5 0 1
4
0 -0.7 0
0 100 0 1
5
-1 -0.9 0
0 101 0 1
6
-1 -1.04 0
0 102 0 1
7
-0.9 -1.04 0
0 103 0 1
8
-0.9 -1.02 0
0 104 0 1
9
-0.88 -1 0
0 105 0 1
10
-0.78 -1 0
0 106 0 1
11
0.78 -1 0
0 107 0 1
12
0.88 -1 0
0 108 0 1
13
0.9 -1.02 0
0 109 0 1
14
0.9 -1.04 0
0 110 0 1
15
1 -1.04 0
0 111 0 1
16
1 -0.9 0
0 112 0 1
17
1 0.9 0
0 113 0 1
18
1 1.04 0
0 114 0 1
19
0.9 1.04 0
0 115 0 1
20
0.9 1.02 0
0 116 0 1
21
0.88 1 0
0 117 0 1
22
0.78 1 0
0 118 0 1
23
-0.78 1 0
0 119 0 1
24
-0.88 1 0
0 120 0 1
25
-0.9 1.02 0
0 121 0 1
26
-0.9 1.04 0
0 122 0 1
27
-1 1.04 0
0 123 0 1
28
-1 0.9 0
1 1 0 10
29
30
31
32
33
34
35
36
37
38
0.6928750092802883 0.09962038704422065 0
0.6716450813681384 0.1972127903407551 0
0.6367423963819454 0.2907905099032247 0
0.5888774723726585 0.3784485731668025 0
0.5290247010657466 0.4584025148952581 0
0.4584025126417869 0.5290247030183907 0
0.3784485712503317 0.5888774736042995 0
0.2907905082858739 0.6367423971205648 0
0.1972127892118739 0.6716450816996079 0
0.09962038648577498 0.6928750093605807 0
1 2 0 10
39
40
41
42
43
44
45
46
47
48
-0.09962038704422065 0.6928750092802883 0
-0.1972127903407551 0.6716450813681384 0
-0.2907905099032247 0.6367423963819454 0
-0.3784485731668025 0.5888774723726585 0
-0.4584025148952581 0.5290247010657466 0
-0.5290247030183907 0.4584025126417869 0
-0.5888774736042995 0.3784485712503317 0
-0.6367423971205648 0.2907905082858739 0
-0.6716450816996079 0.1972127892118739 0
-0.6928750093605807 0.09962038648577498 0
1 3 0 10
49
50
51
52
53
54
55
56
57
58
-0.6928750092802883 -0.09962038704422065 0
-0.6716450813681384 -0.1972127903407551 0
-0.6367423963819454 -0.2907905099032247 0
-0.5888774723726585 -0.3784485731668025 0
-0.5290247010657466 -0.4584025148952581 0
-0.4584025126417869 -0.5290247030183907 0
-0.3784485712503317 -0.5888774736042995 0
-0.2907905082858739 -0.6367423971205648 0
-0.1972127892118739 -0.6716450816996079 0
-0.09962038648577498 -0.6928750093605807 0
1 4 0 10
59
60
61
62
63
64
65
66
67
68
0.09962038704422065 -0.6928750092802883 0
0.1972127903407551 -0.6716450813681384 0
0.2907905099032247 -0.6367423963819454 0
0.3784485731668025 -0.5888774723726585 0
0.4584025148952581 -0.5290247010657466 0
0.5290247030183907 -0.4584025126417869 0
0.5888774736042995 -0.3784485712503317 0
0.6367423971205648 -0.2907905082858739 0
0.6716450816996079 -0.1972127892118739 0
0.6928750093605807 -0.09962038648577498 0
1 100 0 5
69
70
71
72
73
-1 -0.9429260695075623 0
-1 -0.9749663190224687 0
-1 -0.9988813473809648 0
-1 -1.016731651074645 0
-1 -1.030055217097808 0
1 101 0 9
74
75
76
77
78
79
80
81
82
-0.9900000000001085 -1.04 0
-0.9800000000002038 -1.04 0
-0.9700000000003166 -1.04 0
-0.9600000000004033 -1.04 0
-0.9500000000003903 -1.04 0
-0.9400000000003773 -1.04 0
-0.9300000000003643 -1.04 0
-0.92000000000023 -1.04 0
-0.9100000000001215 -1.04 0
1 102 0 1
83
-0.9 -1.030000000000043 0
1 103 0 3
84
85
86
-0.8984775905849895 -1.012346331195204 0
-0.894142135501484 -1.005857864254022 0
-0.8876536685856886 -1.001522409324253 0
1 104 0 4
87
88
89
90
-0.8698752354348515 -1 0
-0.8562482827242435 -1 0
-0.8379077231294756 -1 0
-0.8132231034156352 -1 0
1 105 0 15
91
92
93
94
95
96
97
98
99
100
101
102
103
104
105
-0.6825000000002061 -1 0
-0.5850000000003687 -1 0
-0.4875000000006723 -1 0
-0.3900000000009544 -1 0
-0.2925000000012361 -1 0
-0.1950000000015177 -1 0
-0.09750000000183201 -1 0
-2.059463710679665e-12 -1 0
0.09749999999821157 -1 0
0.1949999999984392 -1 0
0.2924999999987752 -1 0
0.3899999999989594 -1 0
0.4874999999991438 -1 0
0.5849999999995881 -1 0
0.6824999999997292 -1 0
1 106 0 4
106
107
108
109
0.8132231034154374 -1 0
0.8379077231290823 -1 0
0.8562482827238604 -1 0
0.8698752354346525 -1 0
1 107 0 3
110
111
112
0.8876536686543022 -1.001522409352674 0
0.8941421355794774 -1.005857864332016 0
0.8984775905953096 -1.012346331220119 0
1 108 0 1
113
0.9 -1.029999999999957 0
1 109 0 9
114
115
116
117
118
119
120
121
122
0.909999999999935 -1.04 0
0.9199999999999263 -1.04 0
0.9299999999999871 -1.04 0
0.9400000000000304 -1.04 0
0.9500000000000868 -1.04 0
0.9600000000001432 -1.04 0
0.9700000000001865 -1.04 0
0.9800000000001171 -1.04 0
0.9900000000000651 -1.04 0
1 110 0 5
123
124
125
126
127
1 -1.030055217097867 0
1 -1.016731651074755 0
1 -0.9988813473811256 0
1 -0.9749663190227905 0
1 -0.9429260695077897 0
1 111 0 17
128
129
130
131
132
133
134
135
136
137
138
139
140
141
142
143
144
1 -0.8000000000002193 0
1 -0.7000000000004555 0
1 -0.6000000000007013 0
1 -0.5000000000009859 0
1 -0.40000000000127 0
1 -0.3000000000015542 0
1 -0.2000000000018384 0
1 -0.1000000000021226 0
1 -2.406741472782414e-12 0
1 0.09999999999783638 0
1 0.199999999998106 0
1 0.299999999998395 0
1 0.3999999999986404 0
1 0.4999999999989294 0
1 0.5999999999991895 0
1 0.6999999999994641 0
1 0.7999999999997539 0
1 112 0 5
145
146
147
148
149
1 0.9429260695075623 0
1 0.9749663190224687 0
1 0.9988813473809648 0
1 1.016731651074645 0
1 1.030055217097808 0
1 113 0 9
150
151
152
153
154
155
156
157
158
0.9900000000001085 1.04 0
0.9800000000002038 1.04 0
0.9700000000003166 1.04 0
0.9600000000004033 1.04 0
0.9500000000003903 1.04 0
0.9400000000003773 1.04 0
0.9300000000003643 1.04 0
0.92000000000023 1.04 0
0.9100000000001215 1.04 0
1 114 0 1
159
0.9 1.030000000000043 0
1 115 0 3
160
161
162
0.8984775905849895 1.012346331195204 0
0.894142135501484 1.005857864254022 0
0.8876536685856886 1.001522409324253 0
1 116 0 4
163
164
165
166
0.8698752354348515 1 0
0.8562482827242435 1 0
0.8379077231294756 1 0
0.8132231034156352 1 0
1 117 0 15
167
168
169
170
171
172
173
174
175
176
177
178
179
180
181
0.6825000000002061 1 0
0.5850000000003687 1 0
0.4875000000006723 1 0
0.3900000000009544 1 0
0.2925000000012361 1 0
0.1950000000015177 1 0
0.09750000000183201 1 0
2.059463710679665e-12 1 0
-0.09749999999821157 1 0
-0.1949999999984392 1 0
-0.2924999999987752 1 0
-0.3899999999989594 1 0
-0.4874999999991438 1 0
-0.5849999999995881 1 0
-0.6824999999997292 1 0
1 118 0 4
182
183
184
185
-0.8132231034154374 1 0
-0.8379077231290823 1 0
-0.8562482827238604 1 0
-0.8698752354346525 1 0
1 119 0 3
186
187
188
-0.8876536686543022 1.001522409352674 0
-0.8941421355794774 1.005857864332016 0
-0.8984775905953096 1.012346331220119 0
1 120 0 1
189
-0.9 1.029999999999957 0
1 121 0 9
190
191
192
193
194
195
196
197
198
-0.909999999999935 1.04 0
-0.9199999999999263 1.04 0
-0.9299999999999871 1.04 0
-0.9400000000000304 1.04 0
-0.9500000000000868 1.04 0
-0.9600000000001432 1.04 0
-0.9700000000001865 1.04 0
-0.9800000000001171 1.04 0
-0.9900000000000651 1.04 0
1 122 0 5
199
200
201
202
203
-1 1.030055217097867 0
-1 1.016731651074755 0
-1 0.9988813473811256 0
-1 0.9749663190227905 0
-1 0.9429260695077897 0
1 123 0 17
204
205
206
207
208
209
210
211
212
213
214
215
216
217
218
219
220
-1 0.8000000000002193 0
-1 0.7000000000004555 0
-1 0.6000000000007013 0
-1 0.5000000000009859 0
-1 0.40000000000127 0
-1 0.3000000000015542 0
-1 0.2000000000018384 0
-1 0.1000000000021226 0
-1 2.406741472782414e-12 0
-1 -0.09999999999783638 0
-1 -0.199999999998106 0
-1 -0.299999999998395 0
-1 -0.3999999999986404 0
-1 -0.4999999999989294 0
-1 -0.5999999999991895 0
-1 -0.6999999999994641 0
-1 -0.7999999999997539 0
2 1 0 534
221
222
223
224
225
226
227
228
229
230
231
232
233
234
235
236
237
238
239
240
241
242
243
244
245
246
247
248
249
250
251
252
253
254
255
256
257
258
259
260
261
262
263
264
265
266
267
268
269
270
271
272
273
274
275
276
277
278
279
280
281
282
283
284
285
286
287
288
289
290
291
292
293
294
295
296
297
298
299
300
301
302
303
304
305
306
307
308
309
310
311
312
313
314
315
316
317
318
319
320
321
322
323
324
325
326
327
328
329
330
331
332
333
334
335
336
337
338
339
340
341
342
343
344
345
346
347
348
349
350
351
352
353
354
355
356
357
358
359
360
361
362
363
364
365
366
367
368
369
370
371
372
373
374
375
376
377
378
379
380
381
382
383
384
385
386
387
388
389
390
391
392
393
394
395
396
397
398
399
400
401
402
403
404
405
406
407
408
409
410
411
412
413
414
415
416
417
418
419
420
421
422
423
424
425
426
427
428
429
430
431
432
433
434
435
436
437
438
439
440
441
442
443
444
445
446
447
448
449
450
451
452
453
454
455
456
457
458
459
460
461
462
463
464
465
466
467
468
469
470
471
472
473
474
475
476
477
478
479
480
481
482
483
484
485
486
487
488
489
490
491
492
493
494
495
496
497
498
499
500
501
502
503
504
505
506
507
508
509
510
511
512
513
514
515
516
517
518
519
520
521
522
523
524
525
526
527
528
529
530
531
532
533
534
535
536
537
538
539
540
541
542
543
544
545
546
547
548
549
550
551
552
553
554
555
556
557
558
559
560
561
562
563
564
565
566
567
568
569
570
571
572
573
574
575
576
577
578
579
580
581
582
583
584
585
586
587
588
589
590
591
592
593
594
595
596
597
598
599
600
601
602
603
604
605
606
607
608
609
610
611
612
613
614
615
616
617
618
619
620
621
622
623
624
625
626
627
628
629
630
631
632
633
634
635
636
637
638
639
640
641
642
643
644
645
646
647
648
649
650
651
652
653
654
655
656
657
658
659
660
661
662
663
664
665
666
667
668
669
670
671
672
673
674
675
676
677
678
679
680
681
682
683
684
685
686
687
688
689
690
691
692
693
694
695
696
697
698
699
700
701
702
703
704
705
706
707
708
709
710
711
712
713
714
715
716
717
718
719
720
721
722
723
724
725
726
727
728
729
730
731
732
733
734
735
736
737
738
739
740
741
742
743
744
745
746
747
748
749
750
751
752
753
754
-0.8651940366149762 0.9867978139106249 0
0.8651940366149762 -0.9867978139106249 0
0.8630617590795473 0.9897152047278446 0
-0.8630617590795473 -0.9897152047278446 0
0.9451744252900229 -1.031549570417326 0
0.9017048434231552 -1.004011733295239 0
-0.9451744252900229 1.031549570417326 0
-0.9017048434231552 1.004011733295239 0
-0.9446757599022673 -1.031868953806498 0
-0.9016111942877992 -1.004855532529648 0
0.9446757599022667 1.031868953806498 0
0.9016111942877992 1.004855532529648 0
0.8853553019941975 -0.9935271230233518 0
-0.8853553019941975 0.9935271230233518 0
0.8864222666357661 0.9929142063396963 0
-0.8864222666357661 -0.9929142063396963 0
-0.7980839351867226 0.9702034761426204 0
0.7980839351867226 -0.9702034761426206 0
0.7966115517078174 0.968201876905327 0
-0.7966115517078175 -0.968201876905327 0
-0.5543003683786316 0.5523649573474769 0
0.5543003683786317 -0.5523649573474769 0
0.5511475089881486 0.5483977780080435 0
-0.5511475089881486 -0.5483977780080435 0
0.977994923556404 -0.957980444262963 0
-0.977994923556404 0.9579804442629631 0
-0.9757706539429081 -0.9589461942650155 0
0.9757706539429081 0.9589461942650155 0
-0.925011054132203 -1.031748009980948 0
0.9250110541322029 1.031748009980949 0
0.925408164235091 -1.031374193967255 0
-0.925408164235091 1.031374193967255 0
-0.9650000000001628 1.031508854298137 0
0.9650000000001628 -1.031508854298137 0
0.9650000000003603 1.031339745962242 0
-0.9650000000003603 -1.031339745962242 0
0.9176941203914295 0.7535108539070021 0
-0.9176941203914295 -0.7535108539070021 0
-0.9160164048221815 0.7509362802278418 0
0.9160164048221813 -0.7509362802278418 0
0.6417813030780557 -0.9158002422964544 0
-0.6417813030780565 0.9158002422964537 0
-0.6266404557813531 -0.9026819047621674 0
0.6266404557813531 0.9026819047621674 0
0.8985457717119433 0.5428512066247033 0
-0.8985457717119433 -0.5428512066247033 0
0.9174189427440249 -0.5534056363199098 0
-0.9174189427440248 0.55340563631991 0
-0.4387500000008134 -0.9155625231312708 0
0.4387500000008133 0.9155625231312708 0
0.4398106631853747 -0.918236925363297 0
-0.4398106631853745 0.9182369253632969 0
-0.6861718384658675 0.3871096562685359 0
0.6861718384658674 -0.3871096562685359 0
0.6898287835329702 0.3720325680748804 0
-0.6898287835329702 -0.3720325680748804 0
-0.9863514269625241 1.010340560279488 0
0.9863514269625241 -1.010340560279488 0
0.9862813164792572 1.008400890176439 0
-0.9862813164792572 -1.008400890176439 0
0.2700234247830382 0.7358612313906567 0
-0.2700234247830384 -0.7358612313906567 0
-0.2754496943129632 0.733154858218971 0
0.2754496943129632 -0.733154858218971 0
-0.9236375981324711 0.2506502923796516 0
0.9236375981324714 -0.2506502923796516 0
-0.9204260717809644 -0.2437478558323327 0
0.9204260717809644 0.2437478558323326 0
0.1491161527545104 0.9234555170971721 0
-0.1491161527545105 -0.9234555170971723 0
-0.1506334819544574 0.9211040306006937 0
0.1506334819544574 -0.9211040306006937 0
0.9850000000000905 -1.031339745962214 0
-0.9850000000000905 1.031339745962214 0
0.9850000000001575 1.031339745962252 0
-0.9850000000001575 -1.031339745962252 0
-0.7750967207791926 0.0480150766315573 0
0.7750967207791926 -0.04801507663155717 0
-0.9090259032671422 1.025897602175231 0
0.9090259032671422 -1.025897602175231 0
-0.90770919058927 -1.025000000000022 0
0.90770919058927 1.025000000000022 0
0.8947395843122312 -0.9971794529508307 0
0.8962072947691071 -0.9853140258208732 0
-0.8947395843122312 0.9971794529508307 0
-0.8962072947691071 0.9853140258208732 0
-0.9183068729772916 -0.05296809476930576 0
0.9183068729772914 0.05296809476930579 0
-0.9066400673058469 -1.012021162023439 0
-0.9119811634875605 -1.004340767318641 0
-0.9048454848716082 -0.995357201350179 0
-0.9159908962041264 -0.9947702913986549 0
-0.9093596452548462 -0.9819942023893615 0
-0.9234953417754421 -1.004590368989879 0
-0.9290371760144875 -0.9933965610140488 0
-0.9359544798755208 -1.004940122647517 0
-0.9431169301866975 -0.9926622342201119 0
-0.9342265361971824 -0.9796799946831157 0
-0.9496800172547762 -1.005602042207066 0
-0.9583063395345498 -0.9933789817523657 0
0.9066400673058469 1.012021162023439 0
0.9119811634875605 1.004340767318641 0
0.9048454848716082 0.995357201350179 0
0.9159908962041264 0.9947702913986549 0
0.9093596452548462 0.9819942023893615 0
0.9234953417754421 1.004590368989879 0
0.9290371760144875 0.9933965610140488 0
0.9359544798755208 1.004940122647517 0
0.9431169301866975 0.9926622342201119 0
0.9342265361971827 0.9796799946831157 0
0.9496800172547762 1.005602042207066 0
0.9583063395345498 0.9933789817523657 0
0.9063720165363054 -1.011780905336144 0
0.9108162949704728 -1.002933310061642 0
0.9160279438253901 -1.011751441769528 0
0.9208441199267489 -1.00234179633312 0
0.9270778582365866 -1.012524449457346 0
0.9333618395622469 -1.00171903661523 0
0.9249025909925727 -0.9903968702990062 0
0.9392999697127211 -0.9883404369683225 0
0.9295313479854965 -0.9755689381898184 0
0.9481455033832185 -1.001383495823148 0
-0.9063720165363054 1.011780905336144 0
-0.9108162949704728 1.002933310061642 0
-0.9160279438253901 1.011751441769528 0
-0.9208441199267489 1.00234179633312 0
-0.9270778582365866 1.012524449457346 0
-0.9333618395622469 1.00171903661523 0
-0.9249025909925727 0.9903968702990062 0
-0.9392999697127211 0.9883404369683225 0
-0.9295313479854965 0.9755689381898184 0
-0.9481455033832185 1.001383495823148 0
0.7625078230267239 0.1558365345078051 0
-0.7625078230267239 -0.1558365345078051 0
0.05155009933897127 0.7770926479432305 0
-0.05155009933897128 -0.7770926479432305 0
0.9553856661287372 -0.9871434337935342 0
-0.9553856661287372 0.9871434337935342 0
0.8815754242376491 -0.981234957280572 0
0.8674989640838477 -0.9680700210170468 0
0.8865782706104948 -0.9559143310019698 0
0.8599885316875043 -0.9384405667913108 0
0.89305264971821 -0.9218954923877414 0
0.8549725855088202 -0.8912441362360103 0
-0.8815754242376491 0.981234957280572 0
-0.8674989640838477 0.9680700210170468 0
-0.886578270610495 0.9559143310019698 0
-0.8599885316875047 0.9384405667913104 0
-0.8930526497182107 0.9218954923877414 0
-0.8549725855088218 0.8912441362360098 0
-0.9039975719138069 0.871775292357289 0
-0.8556353374617631 0.8219888232640054 0
-0.7910553979527953 0.8619985700362025 0
-0.782967713542031 0.782951203270416 0
0.9039975719138053 -0.8717752923572886 0
0.8556353374617607 -0.8219888232640056 0
0.7910553979527937 -0.8619985700362038 0
0.7829677135420277 -0.7829512032704177 0
-0.9159471994650611 -0.83126465925459 0
-0.8416543413891385 -0.8006234370137646 0
-0.8353306687080543 -0.7112549555767133 0
-0.762042720660822 -0.7707251140879241 0
-0.7507321993977882 -0.6771047886411817 0
-0.6787475693360424 -0.7400759149269327 0
-0.8604528202180145 -0.8830575962908898 0
-0.9013323386450834 -0.9103754250772076 0
-0.6591260177337702 -0.6521010238363445 0
-0.5919276538786044 -0.7093721006305229 0
-0.7318139330997472 -0.5901260877716212 0
0.9159471994650611 0.83126465925459 0
0.8416543413891385 0.8006234370137646 0
0.8353306687080543 0.7112549555767133 0
0.762042720660822 0.7707251140879242 0
0.7507321993977882 0.6771047886411817 0
0.6787475693360425 0.7400759149269327 0
0.8604528202180146 0.8830575962908898 0
0.9013323386450831 0.9103754250772076 0
0.6591260177337702 0.6521010238363445 0
0.5919276538786044 0.7093721006305229 0
0.7318139330997472 0.5901260877716212 0
0.9285039766204798 1.014534296244131 0
-0.9285039766204798 -1.014534296244131 0
-0.9630214104127541 1.001472085623773 0
-0.9555729848306826 1.013139753600055 0
-0.9712475406264974 0.9891371967763792 0
0.9630214104127541 -1.001472085623773 0
0.9555729848306825 -1.013139753600055 0
0.9712475406264974 -0.9891371967763792 0
0.6408562172821342 0.4636079047074833 0
0.7424268383768853 0.4535321380828517 0
0.7883837097838938 0.3717753473220211 0
-0.6408562172821342 -0.4636079047074833 0
-0.7424268383768853 -0.4535321380828517 0
-0.7883837097838939 -0.371775347322021 0
-0.6333888930915478 0.4803884586304487 0
-0.6475588221809719 0.5769876383306614 0
-0.5809995169305313 0.6433656240854059 0
-0.7308464107510668 0.476076710592438 0
-0.7878897483162925 0.3953596013886966 0
-0.7522940921617374 0.5763279993575146 0
-0.6729021806628485 0.6665582811911038 0
-0.6084579403349885 0.7324044453718028 0
-0.5198698975127058 0.7104910478834796 0
-0.5424642613620153 0.8022535070871298 0
-0.4470640059319605 0.7689341228489834 0
-0.7723530396191323 0.6740203448514986 0
-0.7347722671692696 0.2974765327816744 0
-0.7799963419035103 0.1954865280239886 0
0.6333888930915478 -0.4803884586304488 0
0.6475588221809719 -0.5769876383306612 0
0.5809995169305313 -0.6433656240854058 0
0.7308464107510667 -0.4760767105924379 0
0.7878897483162925 -0.3953596013886965 0
0.7522940921617371 -0.5763279993575147 0
0.6729021806628488 -0.6665582811911036 0
0.6084579403349886 -0.7324044453718028 0
0.5198698975127058 -0.7104910478834796 0
0.5424642613620153 -0.8022535070871299 0
0.4470640059319604 -0.7689341228489833 0
0.7723530396191325 -0.6740203448514985 0
0.7347722671692696 -0.2974765327816742 0
0.7799963419035103 -0.1954865280239886 0
0.4625814916138214 0.6229328585482696 0
-0.4625814916138214 -0.6229328585482696 0
-0.714308195132231 0.8369860952096418 0
0.7143081951322283 -0.836986095209644 0
-0.9413360220520149 -1.016817826702777 0
0.9413360220520149 1.016817826702777 0
0.9550985174783315 1.018787825996277 0
0.9632554985528268 1.008141359174697 0
-0.9550985174783315 -1.018787825996277 0
-0.9632554985528268 -1.008141359174697 0
0.3700904751752588 0.6860371924702646 0
0.4677537037229357 0.7337839254431273 0
0.3522051520021002 0.7879780814876036 0
0.2568772424847659 0.8281389916546413 0
-0.3700904751752588 -0.6860371924702646 0
-0.4677537037229357 -0.7337839254431274 0
-0.3522051520021004 -0.7879780814876037 0
-0.2568772424847661 -0.8281389916546413 0
-0.05884738705571205 0.7736654071651724 0
-0.003533304862406422 0.8457688861956587 0
-0.1807943362465958 0.7699629520474066 0
-0.2624710533775711 0.8300495695758032 0
0.05884738705571205 -0.7736654071651724 0
0.003533304862406469 -0.8457688861956588 0
0.1807943362465958 -0.7699629520474066 0
0.262471053377571 -0.8300495695758032 0
-0.7689197876121995 -0.05420633937530404 0
0.7689197876121995 0.0542063393753041 0
-0.6146821984631075 -0.7998019505906321 0
0.6146821984631075 0.7998019505906321 0
0.9123288035561992 -0.9812209338395986 0
0.9145436490830138 -0.9539122974979619 0
0.9326115279396413 -0.9183600577971208 0
-0.9123288035561992 0.9812209338395986 0
-0.9145436490830138 0.9539122974979619 0
-0.9326115279396414 0.9183600577971212 0
-0.9836570209634635 -0.9864642406211741 0
0.9836570209634635 0.9864642406211741 0
-0.3652091648441843 0.7017842360911668 0
0.3652091648441842 -0.7017842360911667 0
-0.8385031116919712 -0.4534104457739206 0
-0.8862111856119715 -0.3815656248442967 0
0.8385031116919712 0.4534104457739208 0
0.8862111856119714 0.3815656248442967 0
-0.1672530465672108 -0.7713707888401691 0
0.1672530465672107 0.7713707888401691 0
0.9057649171319034 -0.9915139051671358 0
-0.9057649171319034 0.9915139051671358 0
0.7455518641235332 0.2644079322772919 0
-0.7455518641235334 -0.2644079322772919 0
0.9136704454184829 0.651318982585271 0
-0.9136704454184829 -0.651318982585271 0
-0.9411990578355708 1.014397945005081 0
0.9411990578355708 -1.014397945005081 0
0.8759821762451607 -0.9922904948416067 0
-0.8759821762451607 0.9922904948416067 0
0.8757425824589111 0.9904381659001933 0
0.8846443765495776 0.9783310718570739 0
-0.8757425824589111 -0.9904381659001933 0
-0.8846443765495776 -0.9783310718570737 0
-0.9703339548892119 1.01429859222302 0
0.9703339548892119 -1.01429859222302 0
-0.9695911410960021 -0.9231750351892416 0
-0.9469208465847585 -0.9448615422302018 0
0.9695911410960021 0.9231750351892418 0
0.9469208465847583 0.9448615422302018 0
0.8315504744274753 -0.4943420441559425 0
0.8859910097694088 -0.4034933414632866 0
-0.8315504744274753 0.4943420441559426 0
-0.8859910097694088 0.4034933414632867 0
0.7245019814204895 -0.9197248739961497 0
-0.7245019814204894 0.9197248739961493 0
0.7202589682555152 0.9109915068971726 0
-0.7202589682555153 -0.9109915068971726 0
0.3391600306877881 0.8985370201858628 0
-0.3391600306877883 -0.8985370201858628 0
-0.9322880582703909 1.022148235761994 0
0.9322880582703909 -1.022148235761994 0
-0.9177137000055631 0.6563880955866117 0
0.9177137000055628 -0.6563880955866122 0
-0.9153335774773509 1.032177650853566 0
-0.9195129690521467 1.022004811585104 0
0.9153335774773509 -1.032177650853566 0
0.9195129690521467 -1.022004811585104 0
-0.9151587441920755 -1.031431396963979 0
0.9151587441920755 1.031431396963979 0
0.3486637816784546 -0.7960834129767613 0
0.338716083760158 -0.9002561883259521 0
-0.3486637816784546 0.7960834129767616 0
-0.3387160837601579 0.9002561883259521 0
-0.8948946053393289 -0.9978621764671604 0
0.8948946053393289 0.9978621764671604 0
0.8198673925780051 0.6167306997438172 0
-0.8198673925780051 -0.6167306997438172 0
0.8434337262156247 -0.9776125841310532 0
-0.8434337262156247 0.9776125841310532 0
-0.9199846554627272 -1.02297932996561 0
0.9199846554627272 1.02297932996561 0
0.5440092938204867 -0.9021936453172433 0
-0.5440092938204869 0.9021936453172428 0
-0.5365549688585334 -0.9157385969834673 0
-0.4916376776505805 -0.8372969018235958 0
0.5365549688585334 0.9157385969834673 0
0.4916376776505805 0.8372969018235957 0
0.9201661063057365 0.1524189052520697 0
-0.9201661063057365 -0.1524189052520698 0
0.9154435816505223 -0.0498705695002728 0
0.9211255495493333 -0.1500566312905212 0
-0.9154435816505223 0.0498705695002728 0
-0.9211255495493333 0.1500566312905212 0
-0.9568769270375853 -0.8748091798448807 0
0.9568769270375854 0.8748091798448808 0
0.9546384487698966 -0.8725192686246318 0
-0.9546384487698975 0.872519268624633 0
0.9701526460306857 -0.925507908075357 0
-0.9701526460306857 0.9255079080753572 0
-0.490192814668806 0.6180742495743602 0
0.490192814668806 -0.6180742495743601 0
0.6965287818166206 -0.7534506457408376 0
-0.6965287818166219 0.7534506457408368 0
0.9349283018128834 1.03195455045929 0
-0.9349283018128837 -1.03195455045929 0
0.6439043266382296 0.5639619075509027 0
-0.6439043266382296 -0.5639619075509027 0
-0.6960711982132506 -0.8314150173370639 0
0.6960711982132506 0.8314150173370639 0
-0.8379548815812585 0.6130860613758154 0
0.8379548815812582 -0.6130860613758158 0
-0.779891916422129 -0.8510812508725996 0
0.7798919164221291 0.8510812508725996 0
0.8488513168585938 0.9882984965798643 0
0.8557127791324646 0.9696981707428649 0
0.8794524925749726 0.9583997431937629 0
0.8496727505965477 0.9331508372618007 0
0.829303849091387 0.9792501932519986 0
0.8998284437732448 0.9695180198086126 0
0.9185327496218225 0.9703157421278161 0
-0.8488513168585938 -0.9882984965798643 0
-0.8557127791324646 -0.9696981707428649 0
-0.8794524925749727 -0.9583997431937631 0
-0.8496727505965476 -0.9331508372618008 0
-0.8293038490913869 -0.9792501932519988 0
-0.8998284437732452 -0.9695180198086129 0
-0.9185327496218229 -0.9703157421278161 0
0.8420741648842568 -0.2967830501606001 0
-0.8420741648842565 0.2967830501606001 0
-0.9475914014628597 0.9538842630464868 0
0.9475914014628596 -0.9538842630464867 0
-0.9550290708817799 1.031579221932716 0
0.9550290708817798 -1.031579221932716 0
0.9538315079663736 1.030930732187407 0
-0.9538315079663742 -1.030930732187408 0
0.9750000000002592 1.031339745962253 0
0.9799659053326271 1.021388550340643 0
-0.9750000000002592 -1.031339745962253 0
-0.9799659053326271 -1.021388550340643 0
0.9750000000001446 -1.031387362981121 0
-0.9750000000001446 1.031387362981121 0
-0.9122329808169447 -0.9446419982465158 0
0.9122329808169446 0.9446419982465158 0
-0.9354663332780173 1.031459201154802 0
0.9354663332780175 -1.031459201154802 0
-0.6281836216085006 0.8277835045505578 0
0.6281836216084983 -0.8277835045505596 0
0.8403013020610932 -0.7213097820380634 0
-0.8403013020610945 0.7213097820380616 0
-0.2363039421127438 -0.9168716047736689 0
0.2363039421127437 0.9168716047736689 0
0.2383687727137025 -0.9184966241589932 0
-0.2383687727137025 0.9184966241589931 0
-0.9129251468275155 -1.01803688586519 0
0.9129251468275155 1.01803688586519 0
0.847074172649105 0.2959178008588607 0
-0.8470741726491051 -0.2959178008588608 0
0.9912601045144845 -1.023594808234007 0
-0.9912601045144845 1.023594808234007 0
-0.9906529019483907 -1.023433486185832 0
0.9906529019483907 1.023433486185832 0
-0.9548757177758413 -0.965187480523768 0
0.9548757177758413 0.965187480523768 0
-0.979657581061109 1.022476653281494 0
0.979657581061109 -1.022476653281494 0
-0.8028174289693014 0.9317292889622036 0
0.8028174289693012 -0.9317292889622039 0
0.9674987527815266 1.020048844899453 0
-0.9674987527815266 -1.020048844899453 0
-0.9344764273533495 -0.9131982746278001 0
0.9344764273533492 0.9131982746278001 0
-0.9246520138031772 -0.4555654554480982 0
0.9246520138031772 0.4555654554480981 0
0.9468785048963033 -0.9754005649744131 0
-0.9468785048963035 0.9754005649744131 0
-0.7900410203221624 -0.5301717697517472 0
0.7900410203221626 0.5301717697517473 0
0.5521533925446624 0.6372189864445998 0
-0.5521533925446624 -0.6372189864445998 0
-0.1199828296158329 0.8374818723702919 0
0.1199828296158329 -0.8374818723702919 0
0.9214294006584931 0.9840313583225995 0
-0.9214294006584931 -0.9840313583225995 0
0.05256468461995607 0.9229660269018773 0
-0.05256468461995602 -0.9229660269018773 0
-0.0604140541834752 0.923103587150618 0
0.06041405418347533 -0.9231035871506179 0
0.797441890994564 0.9189546972467766 0
-0.7974418909945638 -0.9189546972467766 0
0.9861065261040852 -0.992538910728056 0
-0.9861065261040852 0.992538910728056 0
0.8388559735400678 0.20502087000111 0
-0.8388559735400678 -0.20502087000111 0
-0.8442303953035668 -0.004514465239151441 0
0.8442303953035668 0.004514465239151494 0
0.8966658037373954 0.9859961463686805 0
-0.8966658037373954 -0.9859961463686805 0
-0.9105424841124481 1.018250710726803 0
0.9105424841124481 -1.018250710726803 0
-0.950000000000097 1.022968059010272 0
0.9500000000000964 -1.022968059010272 0
0.9350902949455013 -0.8165594261460927 0
-0.9350902949455036 0.8165594261460938 0
0.9731177023157314 0.9980772312842447 0
0.9659298662649485 0.9804020783151002 0
-0.9731177023157314 -0.9980772312842447 0
-0.9659298662649485 -0.9804020783151002 0
-0.8421644931275978 -0.104160868190791 0
0.8421644931275978 0.104160868190791 0
0.9640055420966727 -0.9734800200629091 0
-0.9640055420966728 0.9734800200629091 0
0.9075652144095451 -1.032696915057798 0
-0.9075652144095451 1.032696915057798 0
-0.9068569090870728 -1.033117889582594 0
0.9068569090870728 1.033117889582594 0
-0.9291680670957875 0.3315684427467005 0
0.9291680670957875 -0.3315684427467006 0
0.1103171569194067 0.84288446012813 0
-0.1103171569194067 -0.8428844601281301 0
-0.5427343556284361 -0.7802646265141329 0
0.5427343556284361 0.7802646265141326 0
0.4807695861154704 -0.8499696664447494 0
-0.4807695861154702 0.8499696664447491 0
0.8361102876523416 -0.109176913548242 0
-0.8361102876523416 0.1091769135482421 0
0.931614910450496 1.023821819831646 0
-0.9316149104504963 -1.023821819831646 0
0.9263535625584821 -0.4724406285555496 0
-0.9263535625584821 0.4724406285555497 0
0.9740238350923939 1.011211375175096 0
-0.9740238350923939 -1.011211375175096 0
-0.7476858448134736 -0.9628808154020925 0
0.7476858448134727 0.962880815402093 0
-0.7476858448131525 0.9628808154020794 0
0.7476858448131534 -0.9628808154020789 0
-0.9605047628063856 1.023168256361203 0
0.9605047628063854 -1.023168256361203 0
0.4179013128128435 0.8346316904142921 0
-0.4179013128128437 -0.8346316904142921 0
0.9409338084719523 -1.023973995626445 0
-0.9409338084719522 1.023973995626445 0
-0.9172550585799286 -1.012750468401149 0
0.9172550585799286 1.012750468401149 0
0.9147875169523925 -0.994210252924483 0
-0.9147875169523925 0.994210252924483 0
-0.4092315012762412 0.8467572640686511 0
0.4092315012762413 -0.8467572640686508 0
0.8709391937189427 0.9788585290509569 0
-0.8709391937189427 -0.9788585290509569 0
-0.1839735081677276 -0.8565442724987563 0
0.1839735081677275 0.8565442724987563 0
-0.8605887884243826 0.2004306830806007 0
0.8605887884243826 -0.2004306830806007 0
-0.9063961774450504 -1.018581291760852 0
0.9063961774450504 1.018581291760852 0
0.4401568912248918 -0.6776322257541296 0
-0.4401568912248919 0.6776322257541297 0
0.9926701898782576 -1.032684862463181 0
-0.9926701898782576 1.032684862463181 0
-0.9926701898783041 -1.032684862463205 0
0.9926701898783041 1.032684862463205 0
-0.9754121717990145 1.001557469126143 0
0.9754121717990145 -1.001557469126143 0
0.9401539529268302 1.025610203631927 0
-0.9401539529268311 -1.025610203631928 0
-0.9487338553361171 -0.9788525501885788 0
0.9487338553361173 0.9788525501885788 0
-0.919904329939723 -0.8813264671787531 0
0.919904329939723 0.8813264671787531 0
-0.8800303415534649 -0.9287720644505676 0
0.8800303415534656 0.9287720644505683 0
0.8977715634977494 -0.9704346938048771 0
-0.8977715634977496 0.9704346938048771 0
-0.7092763382888262 -0.5233127563245211 0
0.7092763382888262 0.5233127563245211 0
0.8257485643045561 0.9538511550817534 0
-0.8257485643045561 -0.9538511550817536 0
-0.9700992597514028 1.024567943828995 0
0.9700992597514028 -1.024567943828995 0
0.7573347414875442 -0.1269996137232665 0
-0.7573347414875442 0.1269996137232666 0
0.9798709064767319 -0.9776205781706196 0
-0.9798709064767319 0.9776205781706196 0
-0.1908920171928143 0.8595699564515109 0
0.1908920171928141 -0.8595699564515107 0
-0.9473607573084006 -1.024455896720535 0
0.9473607573083995 1.024455896720534 0
-0.9359282461036461 -0.9633178790391457 0
0.9359282461036462 0.9633178790391457 0
-0.5557412191453887 -0.8483232688954629 0
0.5557412191453887 0.8483232688954627 0
0.9314183194518582 0.3199032548580883 0
-0.9314183194518582 -0.3199032548580883 0
-0.6910220545463309 0.5274452017277655 0
0.6910220545463308 -0.5274452017277657 0
2 2 0 167
755
756
757
758
759
760
761
762
763
764
765
766
767
768
769
770
771
772
773
774
775
776
777
778
779
780
781
782
783
784
785
786
787
788
789
790
791
792
793
794
795
796
797
798
799
800
801
802
803
804
805
806
807
808
809
810
811
812
813
814
815
816
817
818
819
820
821
822
823
824
825
826
827
828
829
830
831
832
833
834
835
836
837
838
839
840
841
842
843
844
845
846
847
848
849
850
851
852
853
854
855
856
857
858
859
860
861
862
863
864
865
866
867
868
869
870
871
872
873
874
875
876
877
878
879
880
881
882
883
884
885
886
887
888
889
890
891
892
893
894
895
896
897
898
899
900
901
902
903
904
905
906
907
908
909
910
911
912
913
914
915
916
917
918
919
920
921
0.5082332145163793 -0.3623020718962597 0
-0.4853546389428702 0.3632385215256524 0
-0.3730404364580741 -0.4938194337847777 0
0.3638704444841571 0.4811196337934178 0
-0.5977425448855386 -0.1300309318071237 0
-0.1294935954686332 0.5997590343801369 0
0.5957286373973851 0.1330127892193814 0
0.1361596352239606 -0.598238172928926 0
-0.597506577284644 0.1298673906891631 0
0.1443997472365913 0.6046748157245651 0
0.59802352722271 -0.1349804019425835 0
-0.1237119881516325 -0.6093056651786418 0
-0.5014609119458134 -0.3636242764999825 0
-0.3665915237267295 0.489708942229177 0
0.495467810989465 0.3794123531327835 0
0.3692082650780775 -0.4985155902959598 0
-0.6187712673949843 -0.0359803781142295 0
-0.5283905768241963 -0.06201167226019667 0
-0.5027620119390532 -0.1575352604004431 0
-0.4322956442340248 -0.08860681286545148 0
-0.4070391225682686 -0.1860535339056882 0
-0.335392246799643 -0.1167190748901927 0
-0.3608622871914916 -0.01922253157036753 0
-0.2637642116042506 -0.04722353878531825 0
-0.2391879773527722 -0.1441895788286116 0
-0.1674962580063413 -0.07465773214325139 0
-0.1919020077945895 0.02218308137418668 0
-0.09578019446964527 -0.005136858974281957 0
-0.07137571412564184 -0.1019784074685886 0
0.0002979459783024601 -0.03242210778886258 0
-0.02411058789016048 0.06442287165114163 0
0.07196596969127539 0.03713889062882381 0
0.09637583789451849 -0.05970719716433467 0
0.04755649640733732 0.133984653179918 0
0.1436326336073613 0.106701013988333 0
-0.04851944639460545 0.1612681328526237 0
0.1192229336967202 0.2035469640098426 0
0.2152989630260263 0.1762634130550992 0
0.2397087432154496 0.07941739692944264 0
0.3113749927338653 0.1489798617465568 0
0.3357847617371363 0.05213385482198431 0
0.1908892073550849 0.2731094090094005 0
0.09481321752725413 0.3003929275608436 0
0.166479445998339 0.3699554096292896 0
0.07040345523070765 0.3972389289987354 0
0.2641185420435117 -0.01742863452628963 0
0.3601945391284521 -0.04471215900376659 0
0.2885283208140808 -0.114274649475773 0
0.3846043145449839 -0.1415581712159243 0
0.3129380959097453 -0.2111206614144637 0
0.2168621029915451 -0.183837140367704 0
0.2412718773829175 -0.2806831517000103 0
0.1451958844238841 -0.2533996306150137 0
0.1696056585366927 -0.3502456417623453 0
0.07352966556535429 -0.322962120687779 0
-0.001262763278808476 0.327676438701074 0
-0.02567253461179196 0.4245224475921373 0
-0.09733875368529737 0.3549599577324576 0
0.4318607587118017 0.02485033052755989 0
0.2596063403391399 0.341928574548112 0
0.09840772269173843 -0.4181591234584202 0
0.00194149389845943 -0.3922497760048347 0
-0.0225333195216159 -0.2956327938352001 0
-0.09419737036016929 -0.3651876495522893 0
0.1921826679900174 -0.4454448314348087 0
0.02568345473728522 -0.4852559542571601 0
-0.1186176411821362 -0.2683785467596199 0
-0.1902852319719285 -0.3379459137795341 0
-0.165027380590598 -0.4318055192352357 0
0.3340100758906498 -0.304527935828499 0
-0.1229525023272524 0.4475662997300372 0
-0.1936154086624961 0.3815368669790372 0
-0.1690384158329934 0.2852796987572655 0
-0.2651199826214512 0.3125435916684742 0
-0.2406743345203116 0.2158239069730097 0
-0.3390975727983037 0.2431919072954769 0
-0.3129057321887465 0.1462383008373345 0
-0.4171404854917157 0.1742456126616912 0
-0.2178245201189828 0.4790894895165062 0
0.2518691773421698 0.4502589115778493 0
0.04438670923144501 0.4884261485547899 0
-0.364283107146597 0.3387825738266423 0
-0.2560096583302564 -0.405555896941716 0
-0.2854003537600047 -0.3103453141514811 0
-0.2320058895938704 -0.4968239439558745 0
-0.3555343218759743 -0.3847107070658867 0
-0.4768938150600607 -0.2655647148378609 0
-0.5557370071972214 0.03251176933972064 0
-0.4609803368451587 0.01154124433631551 0
-0.4928032801026149 0.1061685590807365 0
-0.5170188420351942 0.2007030628568867 0
-0.4460030049099442 0.2704361267870898 0
-0.3760923867959394 -0.2841901243799013 0
-0.3887702014553896 0.07806618327253245 0
-0.3096350687884107 -0.2137682044684531 0
-0.2879290869126104 0.04942591428948463 0
-0.2163652971932739 0.118988017434601 0
-0.1430553362703562 -0.1715247424007194 0
0.02470799498403336 -0.1292683383447597 0
-0.3028208367962212 0.4232522877201211 0
0.286473692049188 0.2457019955214488 0
0.3826156475321583 0.2173116039695489 0
-0.06869312554106195 -0.4571476882074975 0
0.4073800573334688 0.1214912169467076 0
0.4813780095411189 0.1864838338558664 0
0.5074355969170001 0.08943617617443186 0
0.527936752851444 -0.002433191498508409 0
0.4533851954817161 -0.0690230839992895 0
0.4957449951628646 -0.164187782312763 0
0.1424821231822803 0.4619896660941138 0
0.1956319871367191 0.5335043808883715 0
0.1680424776350703 0.009854945445640573 0
0.2617501309407187 -0.3761445503858527 0
0.4086871551895709 -0.2347049969141956 0
0.4970990233587596 -0.2681907162326361 0
0.04912170569782803 -0.226108181927999 0
-0.05976487125611372 0.5285582606653014 0
0.04054801309234256 0.5956739864698085 0
0.1924522319359079 -0.08699104927071689 0
0.02314690981761022 0.2308305104049583 0
0.3497788225184802 0.3157275875887644 0
0.1207859596546195 -0.1565519229484213 0
-0.1202121219430481 0.09171278341351968 0
-0.1445951979160143 0.188551456142847 0
-0.07293461121501812 0.2580943657652043 0
-0.04695871840298146 -0.1988151684561478 0
-0.2144592369541447 -0.2410500169000052 0
-0.05098324039299419 -0.5462437634420713 0
0.5700282271020115 0.2218647723528207 0
-0.5726008084323815 -0.2239793521762914 0
0.4610797624148587 0.2893728067446171 0
0.4008046199495597 0.4008046216235991 0
0.3520551166783245 -0.4018379614142112 0
0.1204310661827387 -0.5099086888018749 0
0.2168877552699681 -0.5564780428688466 0
0.04079107589153397 -0.5952756875501614 0
-0.414273911883625 0.4184359010776726 0
0.2825850701885902 -0.4723508488995741 0
0.6078031671537772 0.04584825836624899 0
-0.2957822128674464 0.53378897425716 0
-0.2140809633189402 0.5740398237795691 0
-0.4397250950157028 -0.4290361643408454 0
0.4394431969776323 -0.4285384273590097 0
-0.5456205199590949 0.2878838846159962 0
0.610278826047045 -0.0454382235943979 0
0.5773975290038292 -0.2273244341679185 0
0.2844730223903111 0.5495070090070182 0
-0.2195060307263238 -0.588518445675388 0
-0.555315080838572 -0.3044814853168324 0
0.5504391338521878 0.3119778030600497 0
0.3251858809267013 0.3979678658263486 0
-0.1399210594806462 -0.5177643407776449 0
0.4232546304352194 -0.3333503516074685 0
-0.2987660845511177 -0.5455148313642471 0
-0.04966616813532501 0.623373258159107 0
0.3055476839228524 -0.5530865420824757 0
-0.04670490782777353 -0.628740025106291 0
0.5350344996937587 -0.08144362000576957 0
-0.6359700047317313 0.04548547230653495 0
-0.1533821512145995 0.5232139667735283 0
-0.5966552939978828 0.2224645833890285 0
0.4516961970727462 0.4518180079518055 0
0.5616699275207665 -0.305411260366604 0
-0.4255068800006364 -0.3450383337624702 0
0.110809718733289 0.5333472977844623 0
0.2225016108522739 0.5992147368880255 0
-0.2988050709922324 -0.4683072940445788 0
$EndNodes
$Elements
26 1840 1 1840
1 100 1 6
1 5 69 
2 69 70 
3 70 71 
4 71 72 
5 72 73 
6 73 6 
1 101 1 10
7 6 74 
8 74 75 
9 75 76 
10 76 77 
11 77 78 
12 78 79 
13 79 80 
14 80 81 
15 81 82 
16 82 7 
1 102 1 2
17 7 83 
18 83 8 
1 103 1 4
19 8 84 
20 84 85 
21 85 86 
22 86 9 
1 104 1 5
23 9 87 
24 87 88 
25 88 89 
26 89 90 
27 90 10 
1 105 1 16
28 10 91 
29 91 92 
30 92 93 
31 93 94 
32 94 95 
33 95 96 
34 96 97 
35 97 98 
36 98 99 
37 99 100 
38 100 101 
39 101 102 
40 102 103 
41 103 104 
42 104 105 
43 105 11 
1 106 1 5
44 11 106 
45 106 107 
46 107 108 
47 108 109 
48 109 12 
1 107 1 4
49 12 110 
50 110 111 
51 111 112 
52 112 13 
1 108 1 2
53 13 113 
54 113 14 
1 109 1 10
55 14 114 
56 114 115 
57 115 116 
58 116 117 
59 117 118 
60 118 119 
61 119 120 
62 120 121 
63 121 122 
64 122 15 
1 110 1 6
65 15 123 
66 123 124 
67 124 125 
68 125 126 
69 126 127 
70 127 16 
1 111 1 18
71 16 128 
72 128 129 
73 129 130 
74 130 131 
75 131 132 
76 132 133 
77 133 134 
78 134 135 
79 135 136 
80 136 137 
81 137 138 
82 138 139 
83 139 140 
84 140 141 
85 141 142 
86 142 143 
87 143 144 
88 144 17 
1 112 1 6
89 17 145 
90 145 146 
91 146 147 
92 147 148 
93 148 149 
94 149 18 
1 113 1 10
95 18 150 
96 150 151 
97 151 152 
98 152 153 
99 153 154 
100 154 155 
101 155 156 
102 156 157 
103 157 158 
104 158 19 
1 114 1 2
105 19 159 
106 159 20 
1 115 1 4
107 20 160 
108 160 161 
109 161 162 
110 162 21 
1 116 1 5
111 21 163 
112 163 164 
113 164 165 
114 165 166 
115 166 22 
1 117 1 16
116 22 167 
117 167 168 
118 168 169 
119 169 170 
120 170 171 
121 171 172 
122 172 173 
123 173 174 
124 174 175 
125 175 176 
126 176 177 
127 177 178 
128 178 179 
129 179 180 
130 180 181 
131 181 23 
1 118 1 5
132 23 182 
133 182 183 
134 183 184 
135 184 185 
136 185 24 
1 119 1 4
137 24 186 
138 186 187 
139 187 188 
140 188 25 
1 120 1 2
141 25 189 
142 189 26 
1 121 1 10
143 26 190 
144 190 191 
145 191 192 
146 192 193 
147 193 194 
148 194 195 
149 195 196 
150 196 197 
151 197 198 
152 198 27 
1 122 1 6
153 27 199 
154 199 200 
155 200 201 
156 201 202 
157 202 203 
158 203 28 
1 123 1 18
159 28 204 
160 204 205 
161 205 206 
162 206 207 
163 207 208 
164 208 209 
165 209 210 
166 210 211 
167 211 212 
168 212 213 
169 213 214 
170 214 215 
171 215 216 
172 216 217 
173 217 218 
174 218 219 
175 219 220 
176 220 5 
2 1 2 1288
177 613 309 701 
178 614 321 702 
179 428 427 588 
180 442 441 587 
181 428 588 711 
182 442 587 712 
183 10 91 691 
184 22 167 692 
185 388 458 638 
186 399 454 637 
187 181 23 693 
188 105 11 694 
189 321 322 702 
190 309 310 701 
191 397 396 728 
192 386 385 727 
193 511 420 569 
194 509 434 570 
195 454 399 680 
196 458 388 679 
197 455 454 697 
198 459 458 698 
199 453 454 455 
200 457 458 459 
201 420 421 426 
202 434 435 440 
203 47 46 427 
204 67 66 441 
205 67 441 442 
206 47 427 428 
207 449 255 593 
208 451 256 594 
209 424 542 605 
210 438 541 606 
211 379 220 553 
212 390 144 554 
213 566 387 638 
214 565 398 637 
215 243 33 409 
216 244 53 412 
217 273 415 418 
218 274 429 432 
219 333 13 658 
220 343 25 657 
221 420 416 421 
222 434 430 435 
223 258 220 379 
224 257 144 390 
225 299 523 524 
226 300 525 526 
227 282 460 487 
228 281 456 488 
229 274 65 429 
230 273 45 415 
231 268 511 569 
232 267 509 570 
233 576 396 730 
234 583 385 729 
235 381 383 536 
236 392 394 535 
237 457 444 458 
238 453 443 454 
239 411 275 491 
240 414 276 492 
241 13 300 658 
242 25 299 657 
243 396 397 730 
244 385 386 729 
245 445 262 514 
246 446 261 513 
247 378 440 561 
248 374 426 562 
249 35 443 453 
250 55 444 457 
251 520 337 526 
252 519 347 524 
253 527 301 539 
254 528 302 540 
255 562 422 605 
256 561 436 606 
257 458 444 638 
258 454 443 637 
259 542 262 605 
260 541 261 606 
261 485 265 636 
262 483 266 635 
263 337 335 526 
264 347 345 524 
265 243 409 565 
266 244 412 566 
267 299 524 657 
268 300 526 658 
269 538 368 625 
270 537 362 626 
271 338 337 496 
272 348 347 495 
273 39 461 463 
274 59 465 467 
275 37 281 488 
276 57 282 487 
277 247 70 479 
278 248 146 480 
279 639 462 645 
280 640 466 646 
281 276 51 492 
282 275 31 491 
283 226 334 489 
284 228 344 490 
285 439 482 529 
286 425 481 531 
287 372 259 608 
288 376 260 607 
289 522 570 607 
290 521 569 608 
291 643 174 645 
292 644 98 646 
293 243 565 637 
294 244 566 638 
295 461 462 639 
296 465 466 640 
297 94 95 518 
298 170 171 517 
299 440 378 607 
300 426 374 608 
301 177 178 532 
302 101 102 530 
303 265 535 636 
304 266 536 635 
305 263 471 567 
306 264 472 568 
307 539 301 613 
308 540 302 614 
309 432 434 509 
310 418 420 511 
311 506 247 621 
312 508 248 622 
313 462 643 645 
314 466 644 646 
315 303 226 489 
316 305 228 490 
317 626 513 694 
318 625 514 693 
319 445 562 605 
320 446 561 606 
321 255 449 627 
322 256 451 628 
323 385 379 727 
324 396 390 728 
325 647 576 735 
326 648 583 736 
327 391 396 572 
328 380 385 571 
329 112 13 333 
330 188 25 343 
331 178 272 532 
332 102 271 530 
333 265 142 493 
334 266 218 494 
335 251 520 526 
336 252 519 524 
337 495 347 519 
338 496 337 520 
339 247 479 666 
340 248 480 664 
341 270 170 517 
342 269 94 518 
343 342 338 496 
344 352 348 495 
345 262 445 605 
346 261 446 606 
347 363 361 474 
348 369 367 477 
349 374 372 608 
350 378 376 607 
351 505 247 506 
352 507 248 508 
353 69 70 247 
354 145 146 248 
355 126 127 245 
356 202 203 246 
357 375 363 475 
358 371 369 478 
359 463 461 639 
360 467 465 640 
361 258 379 380 
362 257 390 391 
363 237 625 693 
364 238 626 694 
365 71 280 479 
366 147 279 480 
367 482 284 529 
368 481 283 531 
369 570 440 607 
370 569 426 608 
371 404 352 495 
372 407 342 496 
373 494 381 536 
374 493 392 535 
375 458 544 698 
376 454 546 697 
377 383 389 536 
378 394 400 535 
379 126 245 741 
380 202 246 742 
381 237 538 625 
382 238 537 626 
383 69 247 505 
384 145 248 507 
385 403 352 404 
386 406 342 407 
387 238 106 537 
388 237 182 538 
389 373 514 625 
390 377 513 626 
391 555 475 557 
392 556 478 558 
393 516 263 567 
394 515 264 568 
395 396 576 647 
396 385 583 648 
397 34 243 443 
398 54 244 444 
399 8 84 713 
400 20 160 714 
401 618 277 623 
402 617 278 624 
403 70 71 479 
404 146 147 480 
405 393 391 572 
406 382 380 571 
407 142 143 493 
408 218 219 494 
409 363 474 475 
410 369 477 478 
411 559 42 716 
412 560 62 715 
413 280 72 619 
414 279 148 620 
415 13 113 300 
416 25 189 299 
417 83 8 301 
418 159 20 302 
419 124 278 617 
420 200 277 618 
421 465 356 466 
422 461 355 462 
423 596 279 620 
424 598 280 619 
425 380 379 385 
426 391 390 396 
427 46 273 427 
428 66 274 441 
429 265 493 535 
430 266 494 536 
431 590 341 633 
432 589 351 634 
433 473 304 489 
434 476 306 490 
435 124 125 278 
436 200 201 277 
437 71 72 280 
438 147 148 279 
439 440 435 561 
440 426 421 562 
441 260 376 661 
442 259 372 662 
443 403 404 503 
444 406 407 504 
445 665 320 666 
446 663 332 664 
447 508 602 630 
448 506 601 629 
449 260 522 607 
450 259 521 608 
451 33 32 409 
452 53 52 412 
453 16 555 557 
454 28 556 558 
455 266 483 631 
456 265 485 632 
457 448 331 449 
458 447 319 451 
459 125 126 649 
460 201 202 650 
461 471 263 749 
462 472 264 750 
463 107 108 537 
464 183 184 538 
465 45 44 415 
466 65 64 429 
467 41 283 481 
468 61 284 482 
469 2 355 461 
470 4 356 465 
471 326 328 401 
472 314 316 402 
473 36 35 453 
474 56 55 457 
475 375 475 555 
476 371 478 556 
477 615 491 651 
478 616 492 652 
479 40 39 463 
480 60 59 467 
481 38 37 488 
482 58 57 487 
483 51 50 492 
484 31 30 491 
485 526 335 658 
486 524 345 657 
487 482 439 715 
488 481 425 716 
489 353 29 470 
490 354 49 469 
491 3 297 469 
492 1 298 470 
493 491 353 651 
494 492 354 652 
495 42 481 716 
496 62 482 715 
497 653 307 667 
498 654 308 668 
499 595 255 627 
500 597 256 628 
501 277 503 623 
502 278 504 624 
503 421 422 562 
504 435 436 561 
505 685 448 723 
506 686 447 724 
507 401 448 685 
508 402 447 686 
509 387 388 638 
510 398 399 637 
511 487 460 709 
512 488 456 710 
513 414 492 616 
514 411 491 615 
515 475 474 590 
516 478 477 589 
517 273 418 419 
518 274 432 433 
519 43 42 559 
520 63 62 560 
521 206 268 521 
522 130 267 522 
523 588 285 711 
524 587 286 712 
525 328 331 448 
526 316 319 447 
527 596 595 627 
528 598 597 628 
529 128 129 260 
530 204 205 259 
531 143 144 257 
532 219 220 258 
533 684 428 711 
534 683 442 712 
535 518 95 609 
536 517 171 610 
537 373 445 514 
538 377 446 513 
539 474 341 590 
540 477 351 589 
541 143 257 493 
542 219 258 494 
543 480 279 663 
544 479 280 665 
545 84 309 713 
546 160 321 714 
547 259 205 521 
548 260 129 522 
549 216 484 752 
550 140 486 751 
551 428 684 740 
552 442 683 739 
553 208 512 688 
554 132 510 687 
555 101 530 611 
556 177 532 612 
557 401 328 448 
558 402 316 447 
559 67 442 739 
560 47 428 740 
561 462 355 677 
562 466 356 678 
563 108 222 537 
564 184 221 538 
565 484 216 631 
566 486 140 632 
567 415 241 416 
568 429 242 430 
569 470 654 668 
570 469 653 667 
571 310 314 701 
572 322 326 702 
573 44 43 241 
574 64 63 242 
575 34 33 243 
576 54 53 244 
577 376 375 661 
578 372 371 662 
579 521 268 569 
580 522 267 570 
581 512 208 675 
582 510 132 676 
583 443 243 637 
584 444 244 638 
585 64 242 429 
586 44 241 415 
587 541 438 681 
588 542 424 682 
589 191 252 523 
590 115 251 525 
591 249 81 527 
592 250 157 528 
593 359 222 497 
594 365 221 498 
595 520 251 604 
596 519 252 603 
597 114 115 525 
598 190 191 523 
599 81 82 527 
600 157 158 528 
601 434 440 570 
602 420 426 569 
603 643 462 677 
604 644 466 678 
605 417 241 559 
606 431 242 560 
607 430 431 435 
608 416 417 421 
609 433 432 509 
610 419 418 511 
611 32 275 409 
612 52 276 412 
613 516 567 571 
614 515 568 572 
615 416 241 417 
616 430 242 431 
617 409 275 410 
618 412 276 413 
619 80 81 249 
620 156 157 250 
621 191 192 252 
622 115 116 251 
623 205 206 521 
624 129 130 522 
625 35 34 443 
626 55 54 444 
627 273 419 427 
628 274 433 441 
629 479 665 666 
630 480 663 664 
631 384 382 567 
632 395 393 568 
633 437 431 560 
634 423 417 559 
635 284 468 529 
636 283 464 531 
637 48 47 740 
638 68 67 739 
639 647 239 692 
640 648 240 691 
641 281 36 453 
642 282 56 457 
643 503 404 695 
644 504 407 696 
645 281 453 455 
646 282 457 459 
647 130 131 267 
648 206 207 268 
649 141 142 265 
650 217 218 266 
651 529 468 530 
652 531 464 532 
653 283 463 464 
654 284 467 468 
655 42 41 481 
656 62 61 482 
657 460 459 518 
658 456 455 517 
659 180 262 542 
660 104 261 541 
661 360 362 537 
662 366 368 538 
663 355 38 488 
664 356 58 487 
665 104 105 261 
666 180 181 262 
667 91 92 263 
668 167 168 264 
669 283 40 463 
670 284 60 467 
671 404 495 659 
672 407 496 660 
673 39 2 461 
674 59 4 465 
675 2 38 355 
676 4 58 356 
677 91 263 516 
678 167 264 515 
679 282 459 460 
680 281 455 456 
681 525 251 526 
682 523 252 524 
683 41 40 283 
684 61 60 284 
685 37 36 281 
686 57 56 282 
687 545 270 546 
688 543 269 544 
689 241 43 559 
690 242 63 560 
691 471 384 567 
692 472 395 568 
693 263 92 543 
694 264 168 545 
695 261 105 513 
696 262 181 514 
697 30 353 491 
698 50 354 492 
699 32 31 275 
700 52 51 276 
701 46 45 273 
702 66 65 274 
703 103 104 541 
704 179 180 542 
705 410 411 485 
706 413 414 483 
707 307 213 548 
708 308 137 547 
709 286 134 550 
710 285 210 552 
711 136 308 549 
712 212 307 551 
713 135 549 550 
714 211 551 552 
715 138 288 547 
716 214 287 548 
717 135 136 549 
718 211 212 551 
719 136 137 308 
720 212 213 307 
721 133 134 286 
722 209 210 285 
723 138 139 288 
724 214 215 287 
725 137 138 547 
726 213 214 548 
727 134 135 550 
728 210 211 552 
729 93 269 543 
730 169 270 545 
731 30 29 353 
732 50 49 354 
733 1 68 298 
734 3 48 297 
735 29 1 470 
736 49 3 469 
737 509 267 687 
738 511 268 688 
739 92 93 543 
740 168 169 545 
741 452 320 665 
742 450 332 663 
743 272 179 542 
744 271 103 541 
745 93 94 269 
746 169 170 270 
747 102 103 271 
748 178 179 272 
749 419 511 512 
750 433 509 510 
751 96 97 290 
752 172 173 289 
753 99 100 292 
754 175 176 291 
755 421 417 422 
756 435 431 436 
757 568 393 572 
758 567 382 571 
759 410 275 411 
760 413 276 414 
761 485 411 486 
762 483 414 484 
763 80 249 564 
764 156 250 563 
765 383 384 387 
766 394 395 398 
767 602 508 748 
768 601 506 747 
769 585 582 601 
770 578 575 602 
771 416 420 753 
772 430 434 754 
773 422 424 605 
774 436 438 606 
775 79 80 564 
776 155 156 563 
777 232 161 534 
778 230 85 533 
779 383 387 389 
780 394 398 400 
781 246 589 670 
782 245 590 669 
783 436 437 438 
784 422 423 424 
785 438 437 439 
786 424 423 425 
787 448 449 746 
788 447 451 745 
789 72 73 619 
790 148 149 620 
791 585 313 656 
792 578 325 655 
793 387 384 388 
794 398 395 399 
795 383 382 384 
796 394 393 395 
797 123 124 617 
798 199 200 618 
799 388 384 471 
800 399 395 472 
801 331 332 450 
802 319 320 452 
803 250 528 540 
804 249 527 539 
805 358 352 403 
806 357 342 406 
807 251 116 604 
808 252 192 603 
809 436 431 437 
810 422 417 423 
811 381 382 383 
812 392 393 394 
813 7 83 673 
814 19 159 674 
815 113 14 671 
816 189 26 672 
817 193 194 227 
818 117 118 225 
819 154 155 231 
820 78 79 229 
821 389 387 566 
822 400 398 565 
823 323 534 655 
824 311 533 656 
825 579 602 748 
826 586 601 747 
827 229 79 564 
828 231 155 563 
829 17 145 507 
830 5 69 505 
831 246 558 589 
832 245 557 590 
833 326 401 702 
834 314 402 701 
835 353 470 668 
836 354 469 667 
837 469 297 653 
838 470 298 654 
839 420 418 753 
840 434 432 754 
841 96 290 609 
842 172 289 610 
843 291 176 612 
844 292 100 611 
845 14 114 671 
846 26 190 672 
847 82 7 673 
848 158 19 674 
849 441 433 587 
850 427 419 588 
851 449 331 450 
852 451 319 452 
853 291 639 645 
854 292 640 646 
855 328 329 331 
856 316 317 319 
857 515 647 692 
858 516 648 691 
859 381 380 382 
860 392 391 393 
861 581 580 584 
862 574 573 577 
863 433 510 587 
864 419 512 588 
865 118 119 592 
866 194 195 591 
867 153 154 593 
868 77 78 594 
869 111 226 303 
870 187 228 305 
871 192 193 603 
872 116 117 604 
873 258 381 494 
874 257 392 493 
875 460 518 609 
876 456 517 610 
877 602 397 630 
878 601 386 629 
879 339 473 703 
880 349 476 704 
881 141 265 632 
882 217 266 631 
883 445 374 562 
884 446 378 561 
885 418 415 753 
886 432 429 754 
887 340 338 342 
888 350 348 352 
889 128 260 661 
890 204 259 662 
891 530 468 611 
892 532 464 612 
893 173 174 643 
894 97 98 644 
895 98 99 646 
896 174 175 645 
897 270 517 697 
898 269 518 698 
899 326 327 328 
900 314 315 316 
901 486 411 615 
902 484 414 616 
903 516 571 648 
904 515 572 647 
905 84 85 230 
906 160 161 232 
907 111 112 226 
908 187 188 228 
909 534 235 655 
910 533 236 656 
911 195 196 253 
912 119 120 254 
913 152 153 255 
914 76 77 256 
915 196 197 600 
916 120 121 599 
917 75 76 597 
918 151 152 595 
919 193 227 603 
920 117 225 604 
921 121 122 293 
922 197 198 294 
923 74 75 296 
924 150 151 295 
925 532 272 705 
926 530 271 706 
927 308 547 668 
928 307 548 667 
929 131 132 687 
930 207 208 688 
931 264 545 750 
932 263 543 749 
933 95 96 609 
934 171 172 610 
935 503 277 721 
936 504 278 722 
937 323 232 534 
938 311 230 533 
939 176 177 612 
940 100 101 611 
941 139 140 751 
942 215 216 752 
943 313 585 586 
944 325 578 579 
945 227 194 591 
946 225 118 592 
947 154 231 593 
948 78 229 594 
949 601 582 729 
950 602 575 730 
951 373 374 445 
952 377 378 446 
953 512 511 688 
954 510 509 687 
955 258 380 381 
956 257 391 392 
957 203 28 558 
958 127 16 557 
959 502 585 656 
960 500 578 655 
961 84 230 309 
962 160 232 321 
963 226 112 333 
964 228 188 343 
965 301 8 713 
966 302 20 714 
967 571 385 648 
968 572 396 647 
969 310 312 314 
970 322 324 326 
971 208 209 675 
972 132 133 676 
973 122 15 717 
974 198 27 718 
975 6 74 719 
976 18 150 720 
977 15 123 717 
978 27 199 718 
979 73 6 719 
980 149 18 720 
981 336 335 337 
982 346 345 347 
983 405 403 721 
984 408 406 722 
985 474 361 731 
986 477 367 732 
987 523 299 672 
988 525 300 671 
989 301 527 673 
990 302 528 674 
991 582 502 708 
992 575 500 707 
993 91 516 691 
994 167 515 692 
995 513 105 694 
996 514 181 693 
997 502 582 585 
998 500 575 578 
999 357 406 408 
1000 358 403 405 
1001 140 141 632 
1002 216 217 631 
1003 725 318 747 
1004 726 330 748 
1005 334 333 335 
1006 344 343 345 
1007 195 253 591 
1008 119 254 592 
1009 255 153 593 
1010 256 77 594 
1011 574 577 735 
1012 581 584 736 
1013 473 489 703 
1014 476 490 704 
1015 483 484 631 
1016 485 486 632 
1017 339 341 473 
1018 349 351 476 
1019 319 317 320 
1020 331 329 332 
1021 373 372 374 
1022 377 376 378 
1023 536 389 635 
1024 535 400 636 
1025 439 437 715 
1026 425 423 716 
1027 503 695 737 
1028 504 696 738 
1029 517 455 697 
1030 518 459 698 
1031 254 120 599 
1032 253 196 600 
1033 152 255 595 
1034 76 256 597 
1035 328 327 329 
1036 316 315 317 
1037 415 416 753 
1038 429 430 754 
1039 121 293 599 
1040 197 294 600 
1041 295 151 595 
1042 296 75 597 
1043 486 615 751 
1044 484 616 752 
1045 449 593 746 
1046 451 594 745 
1047 340 342 357 
1048 350 352 358 
1049 449 450 627 
1050 451 452 628 
1051 293 617 624 
1052 294 618 623 
1053 410 485 636 
1054 413 483 635 
1055 325 579 641 
1056 313 586 642 
1057 163 164 223 
1058 87 88 224 
1059 108 109 222 
1060 184 185 221 
1061 409 410 734 
1062 412 413 733 
1063 609 290 709 
1064 610 289 710 
1065 250 540 685 
1066 249 539 686 
1067 439 529 706 
1068 425 531 705 
1069 489 334 703 
1070 490 344 704 
1071 650 405 721 
1072 649 408 722 
1073 279 596 689 
1074 280 598 690 
1075 546 454 680 
1076 544 458 679 
1077 336 337 338 
1078 346 347 348 
1079 556 204 662 
1080 555 128 661 
1081 289 173 643 
1082 290 97 644 
1083 175 291 645 
1084 99 292 646 
1085 114 525 671 
1086 190 523 672 
1087 527 82 673 
1088 528 158 674 
1089 615 288 751 
1090 616 287 752 
1091 295 596 620 
1092 296 598 619 
1093 309 230 310 
1094 321 232 322 
1095 226 333 334 
1096 228 343 344 
1097 529 530 706 
1098 531 532 705 
1099 565 409 734 
1100 566 412 733 
1101 590 633 669 
1102 589 634 670 
1103 287 616 652 
1104 288 615 651 
1105 547 288 651 
1106 548 287 652 
1107 21 163 499 
1108 9 87 501 
1109 304 473 731 
1110 306 476 732 
1111 304 303 489 
1112 306 305 490 
1113 549 308 654 
1114 551 307 653 
1115 334 335 336 
1116 344 345 346 
1117 670 405 742 
1118 669 408 741 
1119 133 286 676 
1120 209 285 675 
1121 314 312 315 
1122 326 324 327 
1123 468 467 744 
1124 464 463 743 
1125 540 401 685 
1126 539 402 686 
1127 599 293 624 
1128 600 294 623 
1129 272 542 682 
1130 271 541 681 
1131 554 507 630 
1132 553 505 629 
1133 603 227 700 
1134 604 225 699 
1135 654 298 683 
1136 653 297 684 
1137 549 654 683 
1138 551 653 684 
1139 379 553 727 
1140 390 554 728 
1141 356 487 678 
1142 355 488 677 
1143 557 475 590 
1144 558 478 589 
1145 401 540 702 
1146 402 539 701 
1147 295 595 596 
1148 296 597 598 
1149 505 506 629 
1150 507 508 630 
1151 370 372 373 
1152 364 376 377 
1153 245 127 557 
1154 246 203 558 
1155 85 86 533 
1156 161 162 534 
1157 649 126 741 
1158 650 202 742 
1159 329 327 330 
1160 317 315 318 
1161 300 113 671 
1162 299 189 672 
1163 83 301 673 
1164 159 302 674 
1165 285 588 675 
1166 286 587 676 
1167 550 549 683 
1168 552 551 684 
1169 267 131 687 
1170 268 207 688 
1171 325 323 655 
1172 313 311 656 
1173 460 609 709 
1174 456 610 710 
1175 335 333 658 
1176 345 343 657 
1177 424 425 682 
1178 438 439 681 
1179 278 125 649 
1180 277 201 650 
1181 364 363 375 
1182 370 369 371 
1183 339 338 340 
1184 349 348 350 
1185 540 614 702 
1186 539 613 701 
1187 550 683 712 
1188 552 684 711 
1189 388 471 679 
1190 399 472 680 
1191 659 495 700 
1192 660 496 699 
1193 290 644 678 
1194 289 643 677 
1195 336 338 339 
1196 346 348 349 
1197 496 520 699 
1198 495 519 700 
1199 164 165 573 
1200 88 89 580 
1201 225 592 660 
1202 227 591 659 
1203 291 612 743 
1204 292 611 744 
1205 546 270 697 
1206 544 269 698 
1207 339 340 341 
1208 349 350 351 
1209 563 250 685 
1210 564 249 686 
1211 89 90 584 
1212 165 166 577 
1213 519 603 700 
1214 520 604 699 
1215 579 330 641 
1216 586 318 642 
1217 364 377 626 
1218 370 373 625 
1219 583 581 736 
1220 576 574 735 
1221 285 552 711 
1222 286 550 712 
1223 588 512 675 
1224 587 510 676 
1225 245 669 741 
1226 246 670 742 
1227 5 505 553 
1228 17 507 554 
1229 109 12 497 
1230 185 24 498 
1231 162 235 534 
1232 86 236 533 
1233 110 111 303 
1234 186 187 305 
1235 621 725 747 
1236 622 726 748 
1237 596 627 689 
1238 598 628 690 
1239 543 544 749 
1240 545 546 750 
1241 593 231 746 
1242 594 229 745 
1243 322 232 323 
1244 310 230 311 
1245 386 601 729 
1246 397 602 730 
1247 310 311 312 
1248 322 323 324 
1249 298 68 739 
1250 297 48 740 
1251 287 215 752 
1252 288 139 751 
1253 621 247 666 
1254 622 248 664 
1255 240 648 736 
1256 239 647 735 
1257 364 375 376 
1258 370 371 372 
1259 437 560 715 
1260 423 559 716 
1261 619 73 719 
1262 620 149 720 
1263 123 617 717 
1264 199 618 718 
1265 324 323 325 
1266 312 311 313 
1267 233 110 303 
1268 234 186 305 
1269 403 503 721 
1270 406 504 722 
1271 233 303 304 
1272 234 305 306 
1273 277 650 721 
1274 278 649 722 
1275 389 566 733 
1276 400 565 734 
1277 651 353 668 
1278 652 354 667 
1279 586 585 601 
1280 579 578 602 
1281 231 563 723 
1282 229 564 724 
1283 666 320 725 
1284 664 332 726 
1285 611 468 744 
1286 612 464 743 
1287 463 639 743 
1288 467 640 744 
1289 222 359 360 
1290 221 365 366 
1291 368 370 625 
1292 362 364 626 
1293 613 301 713 
1294 614 302 714 
1295 235 500 655 
1296 236 502 656 
1297 375 555 661 
1298 371 556 662 
1299 554 630 728 
1300 553 629 727 
1301 683 298 739 
1302 684 297 740 
1303 564 686 724 
1304 563 685 723 
1305 309 613 713 
1306 321 614 714 
1307 12 110 233 
1308 24 186 234 
1309 162 21 235 
1310 86 9 236 
1311 548 652 667 
1312 547 651 668 
1313 327 324 641 
1314 315 312 642 
1315 293 122 717 
1316 294 198 718 
1317 74 296 719 
1318 150 295 720 
1319 591 253 695 
1320 592 254 696 
1321 368 367 369 
1322 362 361 363 
1323 330 327 641 
1324 318 315 642 
1325 663 279 689 
1326 665 280 690 
1327 368 369 370 
1328 362 363 364 
1329 340 357 633 
1330 350 358 634 
1331 163 223 499 
1332 87 224 501 
1333 600 623 737 
1334 599 624 738 
1335 295 620 720 
1336 296 619 719 
1337 357 408 669 
1338 358 405 670 
1339 617 293 717 
1340 618 294 718 
1341 574 575 707 
1342 581 582 708 
1343 660 592 696 
1344 659 591 695 
1345 473 341 474 
1346 476 351 477 
1347 330 579 748 
1348 318 586 747 
1349 90 240 584 
1350 166 239 577 
1351 575 574 576 
1352 582 581 583 
1353 359 304 731 
1354 365 306 732 
1355 450 663 689 
1356 452 665 690 
1357 635 389 733 
1358 636 400 734 
1359 473 474 731 
1360 476 477 732 
1361 546 680 750 
1362 544 679 749 
1363 227 659 700 
1364 225 660 699 
1365 336 339 703 
1366 346 349 704 
1367 341 340 633 
1368 351 350 634 
1369 320 317 725 
1370 332 329 726 
1371 324 325 641 
1372 312 313 642 
1373 410 636 734 
1374 413 635 733 
1375 679 471 749 
1376 680 472 750 
1377 366 365 367 
1378 360 359 361 
1379 329 330 726 
1380 317 318 725 
1381 334 336 703 
1382 344 346 704 
1383 678 487 709 
1384 677 488 710 
1385 90 10 240 
1386 166 22 239 
1387 23 182 237 
1388 11 106 238 
1389 253 600 737 
1390 254 599 738 
1391 681 439 706 
1392 682 425 705 
1393 222 360 537 
1394 221 366 538 
1395 240 10 691 
1396 239 22 692 
1397 12 233 497 
1398 24 234 498 
1399 23 237 693 
1400 11 238 694 
1401 222 109 497 
1402 221 185 498 
1403 361 359 731 
1404 367 365 732 
1405 290 678 709 
1406 289 677 710 
1407 695 253 737 
1408 696 254 738 
1409 639 291 743 
1410 640 292 744 
1411 627 450 689 
1412 628 452 690 
1413 271 681 706 
1414 272 682 705 
1415 235 499 500 
1416 236 501 502 
1417 366 367 368 
1418 360 361 362 
1419 629 386 727 
1420 630 397 728 
1421 223 573 574 
1422 224 580 581 
1423 633 357 669 
1424 634 358 670 
1425 621 666 725 
1426 622 664 726 
1427 233 304 359 
1428 234 306 365 
1429 623 503 737 
1430 624 504 738 
1431 407 660 696 
1432 404 659 695 
1433 506 621 747 
1434 508 622 748 
1435 235 21 499 
1436 236 9 501 
1437 582 583 729 
1438 575 576 730 
1439 233 359 497 
1440 234 365 498 
1441 223 164 573 
1442 224 88 580 
1443 223 574 707 
1444 224 581 708 
1445 724 447 745 
1446 723 448 746 
1447 405 650 742 
1448 408 649 741 
1449 231 723 746 
1450 229 724 745 
1451 573 165 577 
1452 580 89 584 
1453 499 223 707 
1454 501 224 708 
1455 500 499 707 
1456 502 501 708 
1457 577 239 735 
1458 584 240 736 
1459 220 5 553 
1460 144 17 554 
1461 16 128 555 
1462 28 204 556 
1463 106 107 537 
1464 182 183 538 
2 2 2 376
1465 834 758 901 
1466 4 59 890 
1467 758 834 905 
1468 854 833 894 
1469 768 854 894 
1470 60 61 889 
1471 43 44 891 
1472 836 756 846 
1473 761 859 860 
1474 859 761 883 
1475 38 2 872 
1476 762 60 889 
1477 764 38 872 
1478 860 861 893 
1479 756 836 891 
1480 859 883 885 
1481 875 885 886 
1482 885 883 904 
1483 885 769 886 
1484 761 860 893 
1485 4 890 911 
1486 765 863 900 
1487 59 762 890 
1488 844 832 845 
1489 845 832 846 
1490 854 768 891 
1491 865 834 901 
1492 44 756 891 
1493 768 43 891 
1494 887 897 907 
1495 836 854 891 
1496 830 836 846 
1497 863 765 912 
1498 832 844 848 
1499 832 830 846 
1500 897 755 907 
1501 763 842 844 
1502 844 843 848 
1503 863 869 900 
1504 889 61 910 
1505 774 777 843 
1506 763 844 845 
1507 845 846 898 
1508 887 867 892 
1509 843 777 848 
1510 757 840 896 
1511 772 774 843 
1512 839 902 906 
1513 894 833 895 
1514 760 871 909 
1515 888 820 890 
1516 831 848 850 
1517 846 756 898 
1518 893 861 899 
1519 761 30 883 
1520 30 31 883 
1521 831 832 848 
1522 848 777 850 
1523 847 838 849 
1524 840 838 847 
1525 775 847 849 
1526 779 849 881 
1527 849 838 881 
1528 779 776 849 
1529 850 781 851 
1530 831 850 851 
1531 778 781 850 
1532 783 852 880 
1533 852 779 881 
1534 852 821 880 
1535 783 780 852 
1536 851 781 877 
1537 781 782 877 
1538 853 783 880 
1539 52 53 767 
1540 42 43 768 
1541 32 33 769 
1542 62 63 770 
1543 801 803 862 
1544 860 813 861 
1545 49 50 759 
1546 39 40 760 
1547 862 803 863 
1548 29 30 761 
1549 59 60 762 
1550 858 813 860 
1551 813 801 862 
1552 861 813 862 
1553 784 783 853 
1554 863 803 868 
1555 871 835 872 
1556 795 813 858 
1557 826 833 854 
1558 864 834 865 
1559 786 787 866 
1560 863 868 869 
1561 798 834 864 
1562 824 806 867 
1563 830 828 836 
1564 873 787 876 
1565 866 787 873 
1566 805 873 876 
1567 791 792 796 
1568 823 822 837 
1569 798 796 814 
1570 827 826 828 
1571 823 837 839 
1572 794 795 858 
1573 798 814 834 
1574 829 828 830 
1575 818 822 823 
1576 788 789 791 
1577 818 823 857 
1578 855 794 856 
1579 818 821 822 
1580 816 817 818 
1581 804 806 824 
1582 815 809 816 
1583 795 800 801 
1584 812 826 827 
1585 804 824 868 
1586 827 828 829 
1587 795 793 800 
1588 820 816 857 
1589 792 794 855 
1590 816 809 817 
1591 809 807 870 
1592 791 796 797 
1593 797 796 798 
1594 816 818 857 
1595 789 786 866 
1596 812 825 826 
1597 787 784 853 
1598 801 802 803 
1599 782 785 877 
1600 799 798 864 
1601 787 853 876 
1602 835 799 864 
1603 785 788 790 
1604 791 789 792 
1605 831 830 832 
1606 803 804 868 
1607 815 816 820 
1608 794 793 795 
1609 808 807 809 
1610 818 817 821 
1611 801 800 802 
1612 785 786 788 
1613 807 805 876 
1614 837 822 838 
1615 828 826 854 
1616 806 808 867 
1617 786 784 787 
1618 808 819 867 
1619 811 799 835 
1620 829 830 831 
1621 837 838 840 
1622 793 789 866 
1623 788 786 789 
1624 54 55 757 
1625 44 45 756 
1626 853 870 876 
1627 34 35 758 
1628 800 793 866 
1629 808 809 815 
1630 874 810 879 
1631 810 812 879 
1632 791 797 874 
1633 792 789 793 
1634 796 792 855 
1635 790 788 874 
1636 792 793 794 
1637 803 802 804 
1638 795 801 813 
1639 817 809 870 
1640 836 828 854 
1641 856 794 858 
1642 790 874 879 
1643 826 825 833 
1644 814 796 855 
1645 808 815 819 
1646 811 835 871 
1647 806 805 807 
1648 788 791 874 
1649 797 798 799 
1650 64 65 755 
1651 810 811 812 
1652 812 811 825 
1653 804 805 806 
1654 797 810 874 
1655 806 807 808 
1656 802 800 873 
1657 804 802 805 
1658 856 858 859 
1659 859 858 860 
1660 870 807 876 
1661 785 784 786 
1662 805 802 873 
1663 814 855 875 
1664 800 866 873 
1665 877 790 878 
1666 829 831 851 
1667 851 877 878 
1668 810 799 811 
1669 785 790 877 
1670 797 799 810 
1671 812 827 879 
1672 825 811 871 
1673 817 870 880 
1674 855 856 875 
1675 821 817 880 
1676 47 48 763 
1677 37 38 764 
1678 827 829 878 
1679 57 58 766 
1680 870 853 880 
1681 67 68 765 
1682 829 851 878 
1683 878 790 879 
1684 827 878 879 
1685 782 784 785 
1686 782 783 784 
1687 782 780 783 
1688 781 780 782 
1689 821 852 881 
1690 822 821 881 
1691 780 779 852 
1692 778 780 781 
1693 838 822 881 
1694 778 779 780 
1695 777 778 850 
1696 778 776 779 
1697 777 776 778 
1698 775 841 847 
1699 776 775 849 
1700 774 776 777 
1701 775 773 841 
1702 774 775 776 
1703 841 767 918 
1704 871 760 914 
1705 842 843 844 
1706 774 773 775 
1707 842 772 843 
1708 772 773 774 
1709 770 887 892 
1710 840 757 921 
1711 764 872 919 
1712 771 772 842 
1713 772 759 773 
1714 841 773 884 
1715 902 766 906 
1716 759 50 884 
1717 50 51 884 
1718 762 888 890 
1719 875 856 885 
1720 872 2 909 
1721 767 841 903 
1722 888 762 889 
1723 815 820 888 
1724 820 857 882 
1725 867 819 892 
1726 755 869 907 
1727 865 764 919 
1728 871 872 909 
1729 814 875 905 
1730 823 839 906 
1731 869 868 907 
1732 773 759 884 
1733 856 859 885 
1734 819 888 889 
1735 862 863 912 
1736 825 871 914 
1737 847 841 918 
1738 837 840 921 
1739 872 835 919 
1740 864 865 919 
1741 824 867 887 
1742 771 759 772 
1743 842 763 913 
1744 875 886 905 
1745 766 882 906 
1746 882 857 906 
1747 899 861 912 
1748 819 815 888 
1749 896 840 918 
1750 895 833 914 
1751 890 882 911 
1752 764 865 920 
1753 1 29 893 
1754 3 49 771 
1755 53 54 896 
1756 29 761 893 
1757 63 64 897 
1758 49 759 771 
1759 54 757 896 
1760 767 53 896 
1761 64 755 897 
1762 770 63 897 
1763 42 768 894 
1764 760 40 895 
1765 40 41 895 
1766 68 1 899 
1767 41 42 894 
1768 45 46 898 
1769 765 68 899 
1770 756 45 898 
1771 66 67 900 
1772 67 765 900 
1773 35 36 901 
1774 824 887 907 
1775 887 770 897 
1776 57 766 902 
1777 769 885 904 
1778 819 889 892 
1779 758 35 901 
1780 31 32 904 
1781 763 845 915 
1782 869 755 917 
1783 886 758 905 
1784 757 55 908 
1785 820 882 890 
1786 2 39 909 
1787 62 770 910 
1788 841 884 903 
1789 51 52 903 
1790 766 58 911 
1791 52 767 903 
1792 763 48 913 
1793 56 57 902 
1794 47 763 915 
1795 769 33 916 
1796 34 758 916 
1797 37 764 920 
1798 755 65 917 
1799 32 769 904 
1800 883 31 904 
1801 771 842 913 
1802 834 814 905 
1803 857 823 906 
1804 845 898 915 
1805 868 824 907 
1806 882 766 911 
1807 55 56 908 
1808 39 760 909 
1809 61 62 910 
1810 886 769 916 
1811 758 886 916 
1812 884 51 903 
1813 1 893 899 
1814 41 894 895 
1815 767 896 918 
1816 765 899 912 
1817 58 4 911 
1818 861 862 912 
1819 48 3 913 
1820 833 825 914 
1821 770 892 910 
1822 900 869 917 
1823 46 47 915 
1824 33 34 916 
1825 65 66 917 
1826 901 36 920 
1827 892 889 910 
1828 3 771 913 
1829 840 847 918 
1830 835 864 919 
1831 36 37 920 
1832 839 837 921 
1833 56 902 908 
1834 902 839 908 
1835 898 46 915 
1836 865 901 920 
1837 66 900 917 
1838 760 895 914 
1839 757 908 921 
1840 908 839 921 
$EndElements
