$MeshFormat
4.1 0 8
$EndMeshFormat
$Entities
33 28 2 0
1 0 0 0 0 
2 0.7 0 0 0 
3 0 0.7 0 0 
4 -0.7 0 0 0 
5 0 -0.7 0 0 
100 -1 -0.9 0 0 
101 -1 -1.02 0 0 
102 -0.98 -1.02 0 0 
103 -0.98 -1.01 0 0 
104 -0.97 -1 0 0 
105 -0.87 -1 0 0 
106 0.87 -1 0 0 
107 0.97 -1 0 0 
108 0.98 -1.01 0 0 
109 0.98 -1.02 0 0 
110 1 -1.02 0 0 
111 1 -0.9 0 0 
112 1 0.9 0 0 
113 1 1.02 0 0 
114 0.98 1.02 0 0 
115 0.98 1.01 0 0 
116 0.97 1 0 0 
117 0.87 1 0 0 
118 -0.87 1 0 0 
119 -0.97 1 0 0 
120 -0.98 1.01 0 0 
121 -0.98 1.02 0 0 
122 -1 1.02 0 0 
123 -1 0.9 0 0 
1001 -0.97 -1.01 0 0 
1002 0.97 -1.01 0 0 
1003 0.97 1.01 0 0 
1004 -0.97 1.01 0 0 
1 5.551115123125783e-17 0 0 0.7 0.7 0 0 2 2 -3 
2 -0.7 5.551115123125783e-17 0 0 0.7 0 0 2 3 -4 
3 -0.7 -0.7 0 -5.551115123125783e-17 0 0 0 2 4 -5 
4 0 -0.7 0 0.7 -5.551115123125783e-17 0 0 2 5 -2 
100 -1 -1.02 0 -1 -0.9 0 1 5 2 100 -101 
101 -1 -1.02 0 -0.98 -1.02 0 1 1 2 101 -102 
102 -0.98 -1.02 0 -0.98 -1.01 0 1 5 2 102 -103 
103 -0.98 -1.01 0 -0.97 -1 0 1 5 2 103 -104 
104 -0.97 -1 0 -0.87 -1 0 1 5 2 104 -105 
105 -0.87 -1 0 0.87 -1 0 1 5 2 105 -106 
106 0.87 -1 0 0.97 -1 0 1 5 2 106 -107 
107 0.97 -1.01 0 0.98 -1 0 1 5 2 107 -108 
108 0.98 -1.02 0 0.98 -1.01 0 1 5 2 108 -109 
109 0.98 -1.02 0 1 -1.02 0 1 2 2 109 -110 
110 1 -1.02 0 1 -0.9 0 1 5 2 110 -111 
111 1 -0.9 0 1 0.9 0 1 5 2 111 -112 
112 1 0.9 0 1 1.02 0 1 5 2 112 -113 
113 0.98 1.02 0 1 1.02 0 1 3 2 113 -114 
114 0.98 1.01 0 0.98 1.02 0 1 5 2 114 -115 
115 0.97 1 0 0.98 1.01 0 1 5 2 115 -116 
116 0.87 1 0 0.97 1 0 1 5 2 116 -117 
117 -0.87 1 0 0.87 1 0 1 5 2 117 -118 
118 -0.97 1 0 -0.87 1 0 1 5 2 118 -119 
119 -0.98 1 0 -0.97 1.01 0 1 5 2 119 -120 
120 -0.98 1.01 0 -0.98 1.02 0 1 5 2 120 -121 
121 -1 1.02 0 -0.98 1.02 0 1 4 2 121 -122 
122 -1 0.9 0 -1 1.02 0 1 5 2 122 -123 
123 -1 -0.9 0 -1 0.9 0 1 5 2 123 -100 
1 -1 -1.02 0 1 1.02 0 1 1 28 100 101 102 103 104 105 106 107 108 109 110 111 112 113 114 115 116 117 118 119 120 121 122 123 1 2 3 4 
2 -0.7 -0.7 0 0.7 0.7 0 1 2 4 1 2 3 4 
$EndEntities
$Nodes
58 803 1 803
0 2 0 1
1
0.7 0 0
0 3 0 1
2
0 0.7 0
0 4 0 1
3
-0.7 0 0
0 5 0 1
4
0 -0.7 0
0 100 0 1
5
-1 -0.9 0
0 101 0 1
6
-1 -1.02 0
0 102 0 1
7
-0.98 -1.02 0
0 103 0 1
8
-0.98 -1.01 0
0 104 0 1
9
-0.97 -1 0
0 105 0 1
10
-0.87 -1 0
0 106 0 1
11
0.87 -1 0
0 107 0 1
12
0.97 -1 0
0 108 0 1
13
0.98 -1.01 0
0 109 0 1
14
0.98 -1.02 0
0 110 0 1
15
1 -1.02 0
0 111 0 1
16
1 -0.9 0
0 112 0 1
17
1 0.9 0
0 113 0 1
18
1 1.02 0
0 114 0 1
19
0.98 1.02 0
0 115 0 1
20
0.98 1.01 0
0 116 0 1
21
0.97 1 0
0 117 0 1
22
0.87 1 0
0 118 0 1
23
-0.87 1 0
0 119 0 1
24
-0.97 1 0
0 120 0 1
25
-0.98 1.01 0
0 121 0 1
26
-0.98 1.02 0
0 122 0 1
27
-1 1.02 0
0 123 0 1
28
-1 0.9 0
1 1 0 10
29
30
31
32
33
34
35
36
37
38
0.6928750092802883 0.09962038704422065 0
0.6716450813681384 0.1972127903407551 0
0.6367423963819454 0.2907905099032247 0
0.5888774723726585 0.3784485731668025 0
0.5290247010657466 0.4584025148952581 0
0.4584025126417869 0.5290247030183907 0
0.3784485712503317 0.5888774736042995 0
0.2907905082858739 0.6367423971205648 0
0.1972127892118739 0.6716450816996079 0
0.09962038648577498 0.6928750093605807 0
1 2 0 10
39
40
41
42
43
44
45
46
47
48
-0.09962038704422065 0.6928750092802883 0
-0.1972127903407551 0.6716450813681384 0
-0.2907905099032247 0.6367423963819454 0
-0.3784485731668025 0.5888774723726585 0
-0.4584025148952581 0.5290247010657466 0
-0.5290247030183907 0.4584025126417869 0
-0.5888774736042995 0.3784485712503317 0
-0.6367423971205648 0.2907905082858739 0
-0.6716450816996079 0.1972127892118739 0
-0.6928750093605807 0.09962038648577498 0
1 3 0 10
49
50
51
52
53
54
55
56
57
58
-0.6928750092802883 -0.09962038704422065 0
-0.6716450813681384 -0.1972127903407551 0
-0.6367423963819454 -0.2907905099032247 0
-0.5888774723726585 -0.3784485731668025 0
-0.5290247010657466 -0.4584025148952581 0
-0.4584025126417869 -0.5290247030183907 0
-0.3784485712503317 -0.5888774736042995 0
-0.2907905082858739 -0.6367423971205648 0
-0.1972127892118739 -0.6716450816996079 0
-0.09962038648577498 -0.6928750093605807 0
1 4 0 10
59
60
61
62
63
64
65
66
67
68
0.09962038704422065 -0.6928750092802883 0
0.1972127903407551 -0.6716450813681384 0
0.2907905099032247 -0.6367423963819454 0
0.3784485731668025 -0.5888774723726585 0
0.4584025148952581 -0.5290247010657466 0
0.5290247030183907 -0.4584025126417869 0
0.5888774736042995 -0.3784485712503317 0
0.6367423971205648 -0.2907905082858739 0
0.6716450816996079 -0.1972127892118739 0
0.6928750093605807 -0.09962038648577498 0
1 100 0 6
69
70
71
72
73
74
-1 -0.9365781593272614 0
-1 -0.9632186446075441 0
-1 -0.982621351142662 0
-1 -0.9967526654295699 0
-1 -1.007044735019174 0
-1 -1.014540621493657 0
1 101 0 3
75
76
77
-0.9950000000000216 -1.02 0
-0.9900000000000433 -1.02 0
-0.9850000000000216 -1.02 0
1 102 0 1
78
-0.98 -1.015 0
1 103 0 3
79
80
81
-0.9792387954239311 -1.006173165914918 0
-0.9770710679940772 -1.002928932370346 0
-0.9738268344825628 -1.000761204740711 0
1 104 0 6
82
83
84
85
86
87
-0.9649970015817437 -1 0
-0.9582837500570195 -1 0
-0.9492756026174117 -1 0
-0.9371880610469934 -1 0
-0.9209684425307452 -1 0
-0.8992042233451262 -1 0
1 105 0 17
88
89
90
91
92
93
94
95
96
97
98
99
100
101
102
103
104
-0.7733333333335066 -1 0
-0.6766666666669652 -1 0
-0.5800000000005707 -1 0
-0.4833333333341787 -1 0
-0.3866666666677939 -1 0
-0.2900000000014018 -1 0
-0.1933333333349978 -1 0
-0.09666666666863699 -1 0
-2.211231198145924e-12 -1 0
0.09666666666470092 -1 0
0.1933333333314998 -1 0
0.2899999999983808 -1 0
0.3866666666653819 -1 0
0.4833333333323589 -1 0
0.5799999999991389 -1 0
0.6766666666661255 -1 0
0.7733333333331275 -1 0
1 106 0 6
105
106
107
108
109
110
0.8992042233447692 -1 0
0.9209684425304704 -1 0
0.9371880610468741 -1 0
0.9492756026173546 -1 0
0.958283750056991 -1 0
0.9649970015817332 -1 0
1 107 0 3
111
112
113
0.973826834495931 -1.000761204746248 0
0.9770710680553787 -1.002928932431648 0
0.9792387954441356 -1.006173165963696 0
1 108 0 1
114
0.98 -1.014999999999957 0
1 109 0 3
115
116
117
0.9849999999999783 -1.02 0
0.9899999999999567 -1.02 0
0.9949999999999783 -1.02 0
1 110 0 6
118
119
120
121
122
123
1 -1.014540621493697 0
1 -1.007044735019269 0
1 -0.9967526654297439 0
1 -0.9826213511428968 0
1 -0.963218644607884 0
1 -0.9365781593274791 0
1 111 0 17
124
125
126
127
128
129
130
131
132
133
134
135
136
137
138
139
140
1 -0.8000000000002193 0
1 -0.7000000000004555 0
1 -0.6000000000007013 0
1 -0.5000000000009859 0
1 -0.40000000000127 0
1 -0.3000000000015542 0
1 -0.2000000000018384 0
1 -0.1000000000021226 0
1 -2.406741472782414e-12 0
1 0.09999999999783638 0
1 0.199999999998106 0
1 0.299999999998395 0
1 0.3999999999986404 0
1 0.4999999999989294 0
1 0.5999999999991895 0
1 0.6999999999994641 0
1 0.7999999999997539 0
1 112 0 6
141
142
143
144
145
146
1 0.9365781593272614 0
1 0.9632186446075441 0
1 0.982621351142662 0
1 0.9967526654295699 0
1 1.007044735019174 0
1 1.014540621493657 0
1 113 0 3
147
148
149
0.9950000000000216 1.02 0
0.9900000000000433 1.02 0
0.9850000000000216 1.02 0
1 114 0 1
150
0.98 1.015 0
1 115 0 3
151
152
153
0.9792387954239311 1.006173165914918 0
0.9770710679940772 1.002928932370346 0
0.9738268344825628 1.000761204740711 0
1 116 0 6
154
155
156
157
158
159
0.9649970015817437 1 0
0.9582837500570195 1 0
0.9492756026174117 1 0
0.9371880610469934 1 0
0.9209684425307452 1 0
0.8992042233451262 1 0
1 117 0 17
160
161
162
163
164
165
166
167
168
169
170
171
172
173
174
175
176
0.7733333333335066 1 0
0.6766666666669652 1 0
0.5800000000005707 1 0
0.4833333333341787 1 0
0.3866666666677939 1 0
0.2900000000014018 1 0
0.1933333333349978 1 0
0.09666666666863699 1 0
2.211231198145924e-12 1 0
-0.09666666666470092 1 0
-0.1933333333314998 1 0
-0.2899999999983808 1 0
-0.3866666666653819 1 0
-0.4833333333323589 1 0
-0.5799999999991389 1 0
-0.6766666666661255 1 0
-0.7733333333331275 1 0
1 118 0 6
177
178
179
180
181
182
-0.8992042233447692 1 0
-0.9209684425304704 1 0
-0.9371880610468741 1 0
-0.9492756026173546 1 0
-0.958283750056991 1 0
-0.9649970015817332 1 0
1 119 0 3
183
184
185
-0.973826834495931 1.000761204746248 0
-0.9770710680553787 1.002928932431648 0
-0.9792387954441356 1.006173165963696 0
1 120 0 1
186
-0.98 1.014999999999957 0
1 121 0 3
187
188
189
-0.9849999999999783 1.02 0
-0.9899999999999567 1.02 0
-0.9949999999999783 1.02 0
1 122 0 6
190
191
192
193
194
195
-1 1.014540621493697 0
-1 1.007044735019269 0
-1 0.9967526654297439 0
-1 0.9826213511428968 0
-1 0.963218644607884 0
-1 0.9365781593274791 0
1 123 0 17
196
197
198
199
200
201
202
203
204
205
206
207
208
209
210
211
212
-1 0.8000000000002193 0
-1 0.7000000000004555 0
-1 0.6000000000007013 0
-1 0.5000000000009859 0
-1 0.40000000000127 0
-1 0.3000000000015542 0
-1 0.2000000000018384 0
-1 0.1000000000021226 0
-1 2.406741472782414e-12 0
-1 -0.09999999999783638 0
-1 -0.199999999998106 0
-1 -0.299999999998395 0
-1 -0.3999999999986404 0
-1 -0.4999999999989294 0
-1 -0.5999999999991895 0
-1 -0.6999999999994641 0
-1 -0.7999999999997539 0
2 1 0 424
213
214
215
216
217
218
219
220
221
222
223
224
225
226
227
228
229
230
231
232
233
234
235
236
237
238
239
240
241
242
243
244
245
246
247
248
249
250
251
252
253
254
255
256
257
258
259
260
261
262
263
264
265
266
267
268
269
270
271
272
273
274
275
276
277
278
279
280
281
282
283
284
285
286
287
288
289
290
291
292
293
294
295
296
297
298
299
300
301
302
303
304
305
306
307
308
309
310
311
312
313
314
315
316
317
318
319
320
321
322
323
324
325
326
327
328
329
330
331
332
333
334
335
336
337
338
339
340
341
342
343
344
345
346
347
348
349
350
351
352
353
354
355
356
357
358
359
360
361
362
363
364
365
366
367
368
369
370
371
372
373
374
375
376
377
378
379
380
381
382
383
384
385
386
387
388
389
390
391
392
393
394
395
396
397
398
399
400
401
402
403
404
405
406
407
408
409
410
411
412
413
414
415
416
417
418
419
420
421
422
423
424
425
426
427
428
429
430
431
432
433
434
435
436
437
438
439
440
441
442
443
444
445
446
447
448
449
450
451
452
453
454
455
456
457
458
459
460
461
462
463
464
465
466
467
468
469
470
471
472
473
474
475
476
477
478
479
480
481
482
483
484
485
486
487
488
489
490
491
492
493
494
495
496
497
498
499
500
501
502
503
504
505
506
507
508
509
510
511
512
513
514
515
516
517
518
519
520
521
522
523
524
525
526
527
528
529
530
531
532
533
534
535
536
537
538
539
540
541
542
543
544
545
546
547
548
549
550
551
552
553
554
555
556
557
558
559
560
561
562
563
564
565
566
567
568
569
570
571
572
573
574
575
576
577
578
579
580
581
582
583
584
585
586
587
588
589
590
591
592
593
594
595
596
597
598
599
600
601
602
603
604
605
606
607
608
609
610
611
612
613
614
615
616
617
618
619
620
621
622
623
624
625
626
627
628
629
630
631
632
633
634
635
636
-0.9554017737719778 0.9926203960979414 0
0.9554017737719778 -0.9926203960979414 0
0.9537350092885931 0.9930075468166879 0
-0.9537350092885932 -0.9930075468166881 0
0.9290782517886714 -0.9877426401278827 0
-0.9290782517886714 0.9877426401278827 0
0.932663637484352 0.9880945817898723 0
-0.9326636374843524 -0.9880945817898722 0
-0.9729830123255636 -0.9966011422506726 0
0.9729830123255631 0.9966011422506732 0
-0.972788309792352 0.9968394039998312 0
0.972788309792352 -0.9968394039998312 0
0.5550214386571042 0.5550343294975011 0
-0.5550214386571042 -0.5550343294975011 0
0.5601631531345431 -0.5430391278366538 0
-0.5601631531345431 0.5430391278366538 0
-0.7278000933639304 -0.9261897286669948 0
0.7278000933639307 0.9261897286669947 0
0.7232295846532693 -0.9223817911367234 0
-0.7232295846532693 0.9223817911367235 0
0.8846021116725626 0.9696468693877742 0
-0.8846021116725626 -0.9696468693877742 0
-0.886465682315581 0.9714984021488122 0
0.8864656823155809 -0.9714984021488122 0
0.918957227349507 0.6598179522940768 0
-0.9189572273495068 -0.6598179522940771 0
0.9220985337655865 -0.6532663608010246 0
-0.9220985337655865 0.6532663608010247 0
0.5212982780992425 -0.9069136283388077 0
-0.5212982780992425 0.906913628338808 0
-0.5377789581754062 -0.9073331669945445 0
0.5377789581754064 0.9073331669945448 0
0.9756950090912709 0.9543851658370673 0
-0.9756950090912727 -0.9543851658370684 0
0.9800627131082642 -0.949898401967681 0
-0.9800627131082642 0.949898401967681 0
-0.9185179074467118 0.4531002573472144 0
0.918517907446712 -0.4531002573472143 0
-0.9072872447800627 -0.4510132029723389 0
0.9072872447800626 0.451013202972339 0
-0.982965741349574 1.006966877095659 0
0.982965741349574 -1.006966877095659 0
0.9832485859197932 1.007731631997994 0
-0.9832485859197932 -1.007731631997994 0
-0.3445106042110597 -0.9265998686273873 0
0.3445106042110596 0.9265998686273874 0
0.3498622975768224 -0.9271215796637853 0
-0.3498622975768224 0.9271215796637851 0
-0.7388972855589513 0.2659063702635132 0
0.7388972855589513 -0.2659063702635132 0
0.7342458499257472 0.2683131421811474 0
-0.7342458499257472 -0.2683131421811474 0
-0.9448480810684181 -0.8535857539701996 0
0.9448480810684173 0.8535857539701999 0
0.9350480947163169 -0.8500000000001096 0
-0.9350480947163169 0.8500000000001096 0
0.3690299796263807 -0.6962055570153487 0
-0.3690299796263807 0.6962055570153486 0
0.3792577831804016 0.6859944971167276 0
-0.3792577831804018 -0.6859944971167273 0
-0.1700172805066631 -0.7695027999565507 0
0.1700172805066632 0.7695027999565506 0
0.1669183183227665 -0.7664274709373808 0
-0.1669183183227667 0.7664274709373808 0
-0.9199467236152171 0.1588578641353526 0
0.9199467236152168 -0.1588578641353526 0
0.9179860859379576 0.1666022716155722 0
-0.9179860859379576 -0.1666022716155724 0
0.9944127639774758 -1.011021958996778 0
-0.9944127639774758 1.011021958996778 0
0.9949013292356752 1.011151506756498 0
-0.9949013292356751 -1.011151506756498 0
-0.9894243645582805 -0.989687008286115 0
0.9894243645582805 0.9896870082861149 0
0.9924125152481512 -0.9891920414253836 0
-0.9924125152481512 0.9891920414253836 0
-0.05901331520211935 0.9270331249617918 0
0.05901331520211918 -0.9270331249617918 0
0.9821390929902081 1.003361936413721 0
0.980367456174009 0.9986102612192311 0
0.9866162330836812 1.005031318312804 0
-0.9821390929902081 -1.003361936413721 0
-0.9803674561740094 -0.9986102612192318 0
-0.9866162330836812 -1.005031318312804 0
0.9808369036961979 -1.002695431914876 0
0.9864329938506209 -1.00297782840615 0
-0.9808369036961979 1.002695431914876 0
-0.9864329938506209 1.00297782840615 0
0.9772635959287825 -0.9991133997682653 0
0.9772625993117043 -0.9936800430409551 0
0.9713988020600801 -0.9909561913129694 0
0.9776527975004443 -0.9849309499175931 0
0.9683920343657211 -0.9816320642540877 0
-0.9772635959287825 0.9991133997682653 0
-0.9772625993117043 0.9936800430409551 0
-0.9713988020600801 0.9909561913129694 0
-0.9776527975004443 0.9849309499175931 0
-0.9683920343657211 0.9816320642540877 0
0.9874999999999653 -1.015669872981097 0
-0.9874999999999653 1.015669872981097 0
-0.9874815376435078 -1.015262475924422 0
0.987481537643508 1.015262475924422 0
0.7710846211984641 -0.05863494316467588 0
-0.7710846211984641 0.05863494316467582 0
0.9880377491498133 -0.9784379692358322 0
-0.9880377491498133 0.9784379692358322 0
0.1415926379128117 0.9225350924327982 0
-0.1415926379128117 -0.9225350924327983 0
0.9937496740594498 -1.004153300277641 0
-0.9937496740594498 1.004153300277641 0
-0.9857720037813209 -0.9732920767999098 0
-0.9782307308069221 -0.9852071019273355 0
0.9857720037813207 0.9732920767999098 0
0.9782307308069217 0.9852071019273342 0
0.9685015275448685 0.9965829625690065 0
-0.9685015275448685 -0.996582962569007 0
0.9676553157424845 -0.9957369203562809 0
-0.9676553157424845 0.9957369203562809 0
0.2749228818741267 -0.7503725139419865 0
0.2257577556951857 -0.8306017919674549 0
0.3683157173957575 -0.7805790743676588 0
0.449215800642324 -0.7536999866040273 0
0.4717216571161766 -0.665399976087569 0
0.5387441954670971 -0.7396810895691415 0
-0.2749228818741268 0.7503725139419863 0
-0.2257577556951859 0.8306017919674548 0
-0.3683157173957575 0.7805790743676587 0
-0.449215800642324 0.7536999866040273 0
-0.4717216571161765 0.6653999760875688 0
-0.5387441954670972 0.7396810895691412 0
-0.2831322905308019 -0.7470760696075401 0
-0.3822903129550519 -0.7871643719579589 0
-0.4601660278823121 -0.7406751025584513 0
-0.2447125836213095 -0.8314678639272464 0
0.2831322905308017 0.7470760696075401 0
0.3822903129550517 0.7871643719579591 0
0.4601660278823118 0.7406751025584518 0
0.2447125836213096 0.8314678639272461 0
-0.06575992789248392 0.7773015345367945 0
0.03272569589963392 0.7973023828652095 0
0.06575992789248371 -0.7773015345367946 0
-0.03272569589963406 -0.7973023828652094 0
0.963354737997018 0.9934548111269768 0
0.9581804293212679 0.9848010772569791 0
-0.9633547379970178 -0.9934548111269783 0
-0.9581804293212705 -0.9848010772569806 0
0.62473319572719 0.4833938972577425 0
0.6514055485674829 0.5807810402407556 0
0.7204206361231581 0.5092155034792076 0
0.7449171368205223 0.6071416828842693 0
0.677211328526982 0.6772641177663992 0
0.7674781229827385 0.7007190095240944 0
0.6982556458568272 0.7681796444991067 0
0.7958073054020921 0.7847107146283104 0
0.6121146641523466 0.7453751038776757 0
-0.62473319572719 -0.4833938972577424 0
-0.6514055485674826 -0.5807810402407556 0
-0.7204206361231584 -0.5092155034792079 0
-0.7449171368205222 -0.6071416828842697 0
-0.6772113285269813 -0.6772641177663991 0
-0.767478122982738 -0.7007190095240949 0
-0.6982556458568263 -0.768179644499107 0
-0.7958073054020915 -0.7847107146283108 0
-0.6121146641523461 -0.7453751038776756 0
-0.626827776787081 0.4687586956691399 0
-0.658079508954712 0.5674006866902297 0
-0.7256503377076764 0.4956223098529199 0
-0.7528673152688947 0.5894390423955616 0
-0.6887324311989933 0.6634122436529906 0
-0.7782734887796749 0.6838862489442981 0
-0.7267665496319191 0.7596909741520165 0
-0.8157845273310806 0.7740533108923806 0
0.626827776787081 -0.4687586956691399 0
0.658079508954712 -0.5674006866902296 0
0.7256503377076765 -0.4956223098529201 0
0.7528673152688948 -0.5894390423955613 0
0.6887324311989932 -0.6634122436529906 0
0.7782734887796746 -0.6838862489442979 0
0.7267665496319188 -0.7596909741520166 0
0.8157845273310802 -0.7740533108923808 0
0.7606299569051713 0.1744903497280499 0
0.8385481626666382 0.2410560136669638 0
0.7854792225698284 0.3468847340141179 0
0.7941141648714802 0.08042682126942435 0
-0.7606299569051713 -0.1744903497280499 0
-0.8385481626666382 -0.241056013666964 0
-0.7854792225698286 -0.346884734014118 0
-0.7941141648714802 -0.08042682126942435 0
-0.7590984980569001 0.1624180734991637 0
-0.8373239592149722 0.2427914998004963 0
-0.8117457032771844 0.3412112940606209 0
0.7590984980569001 -0.1624180734991637 0
0.837323959214972 -0.2427914998004964 0
0.8117457032771844 -0.3412112940606209 0
0.7029845608609465 -0.3817473236359308 0
-0.7029845608609465 0.3817473236359308 0
-0.8185366670093343 -0.5359528902897711 0
0.8185366670093341 0.5359528902897701 0
-0.6248969471747596 -0.8369338210072127 0
0.6248969471747605 0.8369338210072128 0
-0.9885712713338753 1.008093152980165 0
0.9885712713338753 -1.008093152980165 0
0.9825027085227345 -0.9979473962974055 0
-0.9825027085227345 0.9979473962974055 0
0.9940621639644609 1.004229429989896 0
-0.9940621639644607 -1.004229429989896 0
-0.9466158724617589 -0.982933719326029 0
-0.9351399875272692 -0.9692414289805069 0
-0.9576393515559887 -0.9702476538291163 0
-0.9479584117308056 -0.9464980117080081 0
0.9466158724617568 0.9829337193260282 0
0.9351399875272653 0.9692414289805065 0
0.9576393515559866 0.9702476538291145 0
0.947958411730801 0.9464980117080051 0
0.700817121648203 0.4159522459332541 0
-0.7008171216482034 -0.4159522459332542 0
-0.9858088710221116 -0.9999601826436451 0
0.9858088710221115 0.9999601826436438 0
0.4783123982560978 0.6383132226593823 0
-0.4783123982560977 -0.6383132226593821 0
-0.9870823170114932 -1.010135438207316 0
0.9870823170114935 1.010135438207315 0
-0.4247229852321296 0.8522555842490238 0
0.4247229852321295 -0.8522555842490238 0
0.9846710381030245 -1.012008371696418 0
-0.9846710381030245 1.012008371696418 0
-0.829180253127124 0.5033025818306945 0
0.8291802531271241 -0.5033025818306944 0
-0.8058839365968364 -0.9202122635667267 0
0.8058839365968358 0.9202122635667275 0
0.806750649525856 -0.9214845744043731 0
-0.806750649525856 0.9214845744043731 0
0.9101118507218359 0.7651569296620686 0
-0.9101118507218355 -0.7651569296620688 0
0.9151171695692412 -0.7610204656817785 0
-0.9151171695692411 0.7610204656817785 0
0.4574554842088191 0.8392254652750136 0
-0.4574554842088198 -0.839225465275013 0
-0.9012550405676651 -0.34149953303556 0
0.901255040567665 0.34149953303556 0
0.9434122276234791 -0.9063221726326071 0
-0.9434122276234791 0.9063221726326071 0
-0.1373547462256526 0.861030715754263 0
0.1373547462256521 -0.8610307157542632 0
0.5848953593558435 0.6521785116418771 0
-0.5848953593558434 -0.652178511641877 0
0.989869806458254 -0.9973631587227849 0
-0.989869806458254 0.9973631587227849 0
0.9439219343639274 -0.9895590016770233 0
0.9427750578457055 -0.9704386113186969 0
-0.9439219343639274 0.9895590016770233 0
-0.9427750578457054 0.9704386113186969 0
0.9183239422044623 -0.05229569011962274 0
0.9018869779424549 0.06262868937868271 0
-0.9183239422044625 0.05229569011962264 0
-0.9018869779424549 -0.06262868937868282 0
-0.911265774637301 0.3467318602175277 0
0.9112657746373012 -0.3467318602175276 0
0.6283333333326321 -0.9162842109673469 0
0.5799999999991389 -0.8320423880926976 0
-0.6283333333326321 0.9162842109673469 0
-0.5799999999991392 0.8320423880926976 0
-0.04074950575541592 -0.9060676631572654 0
0.0407495057554158 0.9060676631572655 0
0.9922234917435744 -1.015828244939452 0
-0.9922234917435744 1.015828244939452 0
-0.9924277850682639 -1.015749699900618 0
0.992427785068264 1.015749699900618 0
0.9127118050209928 0.9825257139572441 0
-0.9127118050209935 -0.9825257139572439 0
-0.9100863329376199 0.9839885771657259 0
-0.9173783377844401 0.9560463077663008 0
-0.8833902218492008 0.9210672434815623 0
-0.9542043996633978 0.9459338519362888 0
-0.8547744584253922 0.8472390336826733 0
0.9100863329376199 -0.9839885771657259 0
0.9173783377844401 -0.9560463077663007 0
0.8833902218492007 -0.9210672434815623 0
0.9542043996633978 -0.9459338519362888 0
0.854774458425392 -0.8472390336826733 0
0.9138724372690397 0.5571016062702042 0
-0.9138724372690397 -0.5571016062702043 0
0.9164301828221375 -0.5505696545673902 0
-0.9164301828221376 0.55056965456739 0
0.9623643204476914 -0.9957845928959852 0
-0.9623643204476914 0.9957845928959852 0
0.9835732468116258 1.012417084305798 0
-0.9835732468116256 -1.012417084305798 0
-0.5776069290257643 0.6433068502512257 0
0.5776069290257642 -0.6433068502512258 0
-0.9669558404085463 -0.9203907832814793 0
0.9669558404085464 0.9203907832814766 0
-0.9124468159420975 -0.947600245962308 0
0.9124468159420944 0.9476002459623083 0
-0.7958190990114293 -0.4442262520646473 0
0.7958190990114288 0.4442262520646471 0
0.5379531432614488 0.797640985920408 0
-0.5379531432614486 -0.7976409859204077 0
-0.9714677648141716 -0.9915195746834043 0
-0.977095237367295 -0.9940518546020464 0
0.9714677648141712 0.9915195746834038 0
0.9770952373672943 0.9940518546020446 0
-0.7857108339130822 0.4243770693215724 0
0.7857108339130823 -0.4243770693215723 0
0.2442685924207291 0.9098451204379955 0
-0.2442685924207291 -0.9098451204379956 0
-0.6768536877146338 0.8389229755119108 0
0.6768536877146338 -0.8389229755119108 0
-0.4345936376978127 -0.9247988595801635 0
0.4345936376978127 0.9247988595801639 0
0.7688445318366344 -0.8473468235840577 0
-0.7688445318366345 0.8473468235840574 0
-0.9315578578344521 -0.2498315636629195 0
0.9315578578344521 0.2498315636629194 0
0.9768750062918793 -0.9754519195414293 0
0.9651625984195542 -0.9675187174694646 0
-0.9768750062918793 0.9754519195414293 0
-0.9651625984195542 0.9675187174694646 0
-0.2356048997448693 0.9150900773617859 0
0.2356048997448691 -0.915090077361786 0
0.9561816584264289 -0.9811730183548598 0
-0.9561816584264289 0.9811730183548598 0
0.9910378209249231 0.9976704335168198 0
-0.9910378209249229 -0.9976704335168209 0
0.9337072914934981 -0.2496762448313538 0
-0.9337072914934981 0.2496762448313539 0
-0.6352840793085035 -0.9236460309926799 0
0.6352840793085037 0.9236460309926801 0
-0.6316628970841787 0.7425994231336658 0
0.6316628970841787 -0.742599423133666 0
-0.870618722147773 -0.923986273283806 0
-0.8608257674984819 -0.8582206686390228 0
0.8706187221477715 0.9239862732838067 0
0.8608257674984807 0.8582206686390231 0
0.8430429683668179 -0.6145170193213687 0
-0.8430429683668177 0.6145170193213688 0
-0.8360605475440985 -0.6289018638908823 0
0.8360605475440988 0.6289018638908817 0
0.989475713031583 -1.012524320318782 0
-0.989475713031583 1.012524320318782 0
0.9755358680790283 -0.9277465171728112 0
-0.9755358680790283 0.9277465171728112 0
0.9724392578135902 0.9717799672326313 0
-0.9724392578135908 -0.9717799672326322 0
-0.8423411194095318 0.002813577710444514 0
0.8423411194095318 -0.002813577710444724 0
-0.1054315049946303 -0.838480061738609 0
0.1054315049946303 0.8384800617386091 0
0.9841021429076752 -0.9904490191037323 0
-0.9841021429076752 0.9904490191037323 0
0.433176712181187 -0.9372581584503235 0
-0.433176712181187 0.9372581584503235 0
-0.8357480439274478 -0.9648333477412198 0
0.8357480439274478 0.9648333477412198 0
0.8375668151767832 -0.9657083118837231 0
-0.8375668151767832 0.9657083118837231 0
0.9840433976564484 -0.9653676510148159 0
-0.9840433976564484 0.9653676510148159 0
-0.845683010800054 -0.7078612939998868 0
0.8456830108000544 0.7078612939998863 0
0.8413531439499243 -0.112968608071626 0
-0.8413531439499244 0.1129686080716259 0
-0.1443945922337684 0.9406307836155682 0
0.1443945922337682 -0.9406307836155682 0
0.9835172168920643 0.9942936785806689 0
-0.9835172168920647 -0.994293678580672 0
0.8577518050690461 -0.7032528242328765 0
-0.8577518050690458 0.7032528242328765 0
0.5349912374681919 0.7155549545452686 0
-0.5349912374681919 -0.7155549545452687 0
-0.5032850351450304 0.8156611197026837 0
0.5032850351450302 -0.8156611197026837 0
-0.943895636579822 -0.9928071695865178 0
0.9438956365798215 0.9928071695865177 0
0.7770015155076317 0.8656429552307476 0
-0.7770015155076316 -0.8656429552307476 0
0.1750537169989815 0.8476027063792351 0
-0.1750537169989813 -0.8476027063792353 0
0.9836602540378309 -1.016339745962168 0
-0.9836602540378309 1.016339745962168 0
-0.976315421904367 -0.9982228477112198 0
0.9763154219043668 0.9982228477112192 0
0.8426330696647405 0.1450408291317386 0
-0.8426330696647405 -0.1450408291317387 0
-0.9836270402949596 -1.016372959705055 0
0.9836270402949604 1.016372959705054 0
-0.3207919817823287 -0.8435475379939685 0
0.3207919817823284 0.8435475379939685 0
0.9963272511442057 -1.016278165085985 0
-0.9963272511442057 1.016278165085985 0
-0.9964281864841735 -1.016288684802981 0
0.9964281864841735 1.016288684802981 0
0.3106157525643132 -0.8453620983135522 0
-0.3106157525643133 0.845362098313552 0
-0.8474601517322464 -0.3959059305216661 0
0.8474601517322463 0.395905930521666 0
0.037730557533041 -0.853747084255065 0
-0.03773055753304121 0.853747084255065 0
0.9681273611337182 0.9837590403291252 0
-0.9681273611337181 -0.9837590403291305 0
-0.9906423846319875 -1.011991096598371 0
0.9906423846319877 1.011991096598371 0
0.8569865413437816 -0.4035791944038277 0
-0.8569865413437818 0.4035791944038281 0
-0.3879284041710146 -0.8642672206868984 0
0.3879284041710143 0.8642672206868985 0
0.9199005124323861 0.9049341691629575 0
-0.9199005124323889 -0.9049341691629575 0
-0.7059628573407242 -0.8450666882193992 0
0.7059628573407251 0.8450666882193985 0
0.9635656508023971 -0.989650530545354 0
-0.9635656508023971 0.989650530545354 0
-0.9905028607383578 -1.007471308340912 0
0.9905028607383579 1.007471308340912 0
0.9897127365028497 1.002289060180589 0
-0.9897127365028497 -1.002289060180589 0
0.09565036107467159 0.7639714480833396 0
-0.09565036107467098 -0.7639714480833394 0
0.4924828462183779 -0.5914349695345762 0
-0.4924828462183778 0.5914349695345763 0
0.6906961404882141 0.3378459979277473 0
-0.6906961404882143 -0.3378459979277473 0
0.7647616501958986 0.01885755929831716 0
-0.7647616501958986 -0.01885755929831719 0
2 2 0 167
637
638
639
640
641
642
643
644
645
646
647
648
649
650
651
652
653
654
655
656
657
658
659
660
661
662
663
664
665
666
667
668
669
670
671
672
673
674
675
676
677
678
679
680
681
682
683
684
685
686
687
688
689
690
691
692
693
694
695
696
697
698
699
700
701
702
703
704
705
706
707
708
709
710
711
712
713
714
715
716
717
718
719
720
721
722
723
724
725
726
727
728
729
730
731
732
733
734
735
736
737
738
739
740
741
742
743
744
745
746
747
748
749
750
751
752
753
754
755
756
757
758
759
760
761
762
763
764
765
766
767
768
769
770
771
772
773
774
775
776
777
778
779
780
781
782
783
784
785
786
787
788
789
790
791
792
793
794
795
796
797
798
799
800
801
802
803
-0.5515444595375512 0.2868477445266305 0
0.5414966212844794 -0.3055150713556372 0
-0.2896107430287483 -0.5403493920122813 0
0.2931363693745388 0.5366103968491265 0
-0.57315305653055 -0.2137750382729195 0
0.5908371511158785 0.203476741847865 0
0.2101660752462218 -0.590620452278686 0
-0.2137750382729195 0.57315305653055 0
-0.05900384359410482 -0.6214731972762002 0
0.04262253706469103 0.6078426109666277 0
0.6174933612151373 -0.04145780436963592 0
-0.6069303935621094 0.03851798560852412 0
0.4897089422291771 0.3665915237267295 0
0.3659732591009053 -0.4917192438776851 0
-0.4897089422291771 -0.3665915237267295 0
-0.3684817714833207 0.490608533833856 0
0.4324011608011099 0.444073986151349 0
0.3928875351852947 0.3587219452715067 0
0.4495419078023276 0.2758487016883562 0
0.3502656039540217 0.2685238241622516 0
0.405060686823777 0.1839211135586034 0
0.3075265956431169 0.1766987533820943 0
0.250823393964742 0.2600505461049022 0
0.2083617317656356 0.1683445248750619 0
0.2655403956431023 0.0862711131525899 0
0.1660889562395624 0.07767125349694973 0
0.1088914722892535 0.1595410430312073 0
0.06660469329827066 0.06901605138258955 0
0.1238078761116087 -0.01284439203983136 0
0.02430728339561485 -0.02145893233676569 0
-0.03289860898877832 0.06040829897300216 0
-0.07519550902837661 -0.03006796209498535 0
-0.01798918204164294 -0.1119362821299772 0
-0.1324017680270375 0.05180018764221513 0
-0.1174922925214649 -0.1205445151398411 0
-0.09010487081082087 0.1422764558186993 0
-0.06028598050568568 -0.2024127976615999 0
0.03921723146555702 -0.1938048189181269 0
-0.1896080744311067 0.1336684561577162 0
-0.2319049530786196 0.04319214149156655 0
-0.1597891808810349 -0.2110208054683391 0
-0.1473111851080221 0.2241447441220348 0
-0.003079639975083421 -0.2842811516041712 0
0.09642358116807828 -0.2756731958566218 0
-0.2468143974799994 0.2155367663742251 0
0.05412669463175927 -0.3661494908105886 0
-0.04537652045808319 -0.3747574618497632 0
-0.2045175109372344 0.3060130612862578 0
-0.105014295869189 0.3146210323157581 0
0.1536299103910639 -0.3575415215026871 0
0.1959267960338821 -0.2670652243705388 0
-0.3040207252206897 0.2974050883225635 0
-0.3463176103647614 0.206928789962994 0
-0.2169955078854854 -0.1291524854012165 0
-0.2592923934117284 -0.2196287827955035 0
-0.3164987224498432 -0.1377604576694319 0
-0.2020860640246718 -0.3014971088563604 0
-0.3015892782950002 -0.3101050817792299 0
0.251580227823979 -0.3482075842272035 0
0.2951711945953731 -0.2583362585565794 0
0.2381805454359804 -0.1765687611406148 0
0.3376765709139882 -0.1679574287300054 0
-0.1623149481740076 0.400104131142296 0
-0.06286553967125504 0.4097548162847939 0
-0.00553576855637182 0.3240052498741779 0
0.03821739878674158 0.4164461936211663 0
0.3499128964536387 -0.3371853292911333 0
0.09437560681002201 0.332527034762942 0
0.1414717690884781 0.4295602637059825 0
0.2805050088653923 -0.08610533958072192 0
0.380012807936859 -0.07749952499551849 0
0.4344067899838611 -0.1580531053285296 0
0.1081969533984038 -0.4465517327803444 0
-0.2447399935261896 -0.387846177549621 0
-0.3438861637102364 -0.4005813793119218 0
-0.3981949674456621 0.2863058674396293 0
-0.4396036907906263 0.1954143616844451 0
-0.3875783066050036 0.1159680825937117 0
-0.5062848523966959 0.1015376423268405 0
-0.4324666663516322 0.02423663335459897 0
-0.01271414204507539 0.509034795733706 0
0.47414936993005 -0.07210344063972912 0
0.421422573887593 0.01243803288534263 0
0.5274060321527134 -0.1500121388519488 0
0.5306064826165469 0.01115328471389614 0
-0.3609263217975959 0.391528951940762 0
-0.4768202795423929 0.3594721626728881 0
0.3393595876903071 0.4412886885023213 0
0.2931556306280012 0.3559436017015223 0
0.2424806734945089 0.4419614900807631 0
0.1868922317863513 0.5222026434059815 0
0.08820379779831257 0.5158750377796638 0
-0.06138612258017169 0.5936761169733418 0
-0.1248047234173641 0.510436668205608 0
-0.5310093968474923 0.201120121470679 0
-0.3995764651826126 -0.3272395603632626 0
0.4632070345633433 0.09976100774445858 0
0.5553259568592525 0.1134132547914693 0
0.1955844855242998 0.3450020519885771 0
0.3646797079355733 0.09436495510745682 0
0.1511998391600469 0.2499693755753504 0
0.05175359135176689 0.2416132974334746 0
0.2232961803358151 -0.004227386106987649 0
0.1810078404414323 -0.0947143799237526 0
-0.1449392418114278 -0.3826775638916223 0
-0.2005675838903819 -0.4820809341305169 0
-0.09019746284314628 -0.4632289454391121 0
-0.1228360270628926 -0.5514241464049321 0
0.01060414226429395 -0.4527839349773997 0
0.06894893969555622 -0.5302777412505277 0
-0.1025927712759978 -0.2927744815553093 0
0.3904736026332492 -0.2474532690254843 0
-0.2742018372211338 -0.04728415945845875 0
-0.3739642660092047 -0.05618205850991828 0
-0.4147418379367487 -0.1455060552832119 0
-0.4704189381286509 -0.06413670026210874 0
-0.331537885004599 0.03416518379626854 0
-0.1746986219519253 -0.03867618897623734 0
0.009406385275362382 0.150934641728859 0
0.08151191933259347 -0.1033259506127309 0
-0.2617238392052767 0.3878813844826974 0
-0.04780102395287911 0.2329325702155006 0
-0.288960204494015 0.1249099033960804 0
0.1387113189795873 -0.1851920551370643 0
0.2074205407086619 -0.4355496638399395 0
-0.358332919972999 -0.2295141108495124 0
-0.4701787370401979 -0.2473425537964768 0
0.3226943396657529 0.004283713398222882 0
-0.2191984380862645 0.4757161722537154 0
0.4462104151912772 -0.319183028437141 0
-0.5174282024195117 0.005715384822649544 0
-0.5625954577574104 -0.06299344065682369 0
-0.5101458094785816 -0.1485910954632987 0
0.310652065315438 -0.4227598725878594 0
0.4241918716287237 -0.4199189305022296 0
0.2753278765377902 -0.5229643625021723 0
-0.4324680216715616 -0.4302874742583812 0
0.5414375381123123 0.2832189652381469 0
-0.5517321209109058 -0.2993896397732306 0
-0.2943177168403632 0.5372340237296355 0
-0.3652730189693657 -0.4911344578900019 0
0.6213075862537198 0.05335221073422469 0
0.1283781154689868 -0.6050105805610754 0
-0.2063144433943216 -0.5852364388248523 0
0.1397063765515251 0.6016945243798497 0
0.03429710797607692 -0.6128597317065158 0
-0.6025473317583517 0.1440393951344698 0
0.5885184457032194 -0.2195060307367044 0
0.5009017125461485 0.1932732974781499 0
0.4829289889321309 -0.233318253679825 0
-0.02636452392736945 -0.5386746161757812 0
0.6079227794595941 -0.1314439002197726 0
0.149722925747887 -0.5210896281661961 0
-0.4387311181473916 0.4458073724310079 0
-0.1399366759770203 0.6092887299142333 0
-0.6094867298175185 -0.132030514249278 0
0.5059602169454341 -0.3762936228374253 0
-0.2888221015135298 -0.4576863251347371 0
0.3820961566583889 0.5104207109596599 0
-0.2972956608559291 0.4576823500149437 0
0.2225952608804559 0.5966921945076518 0
-0.6411057698790548 -0.0458527897378497 0
-0.1369974979497936 -0.6245307747132346 0
0.6263981569754556 0.133415076951707 0
-0.4753294628429841 0.2655428772080347 0
-0.5986977333927136 0.2240021117259055 0
0.5502973102008329 -0.07936684211850688 0
$EndNodes
$Elements
26 1604 1 1604
1 100 1 7
1 5 69 
2 69 70 
3 70 71 
4 71 72 
5 72 73 
6 73 74 
7 74 6 
1 101 1 4
8 6 75 
9 75 76 
10 76 77 
11 77 7 
1 102 1 2
12 7 78 
13 78 8 
1 103 1 4
14 8 79 
15 79 80 
16 80 81 
17 81 9 
1 104 1 7
18 9 82 
19 82 83 
20 83 84 
21 84 85 
22 85 86 
23 86 87 
24 87 10 
1 105 1 18
25 10 88 
26 88 89 
27 89 90 
28 90 91 
29 91 92 
30 92 93 
31 93 94 
32 94 95 
33 95 96 
34 96 97 
35 97 98 
36 98 99 
37 99 100 
38 100 101 
39 101 102 
40 102 103 
41 103 104 
42 104 11 
1 106 1 7
43 11 105 
44 105 106 
45 106 107 
46 107 108 
47 108 109 
48 109 110 
49 110 12 
1 107 1 4
50 12 111 
51 111 112 
52 112 113 
53 113 13 
1 108 1 2
54 13 114 
55 114 14 
1 109 1 4
56 14 115 
57 115 116 
58 116 117 
59 117 15 
1 110 1 7
60 15 118 
61 118 119 
62 119 120 
63 120 121 
64 121 122 
65 122 123 
66 123 16 
1 111 1 18
67 16 124 
68 124 125 
69 125 126 
70 126 127 
71 127 128 
72 128 129 
73 129 130 
74 130 131 
75 131 132 
76 132 133 
77 133 134 
78 134 135 
79 135 136 
80 136 137 
81 137 138 
82 138 139 
83 139 140 
84 140 17 
1 112 1 7
85 17 141 
86 141 142 
87 142 143 
88 143 144 
89 144 145 
90 145 146 
91 146 18 
1 113 1 4
92 18 147 
93 147 148 
94 148 149 
95 149 19 
1 114 1 2
96 19 150 
97 150 20 
1 115 1 4
98 20 151 
99 151 152 
100 152 153 
101 153 21 
1 116 1 7
102 21 154 
103 154 155 
104 155 156 
105 156 157 
106 157 158 
107 158 159 
108 159 22 
1 117 1 18
109 22 160 
110 160 161 
111 161 162 
112 162 163 
113 163 164 
114 164 165 
115 165 166 
116 166 167 
117 167 168 
118 168 169 
119 169 170 
120 170 171 
121 171 172 
122 172 173 
123 173 174 
124 174 175 
125 175 176 
126 176 23 
1 118 1 7
127 23 177 
128 177 178 
129 178 179 
130 179 180 
131 180 181 
132 181 182 
133 182 24 
1 119 1 4
134 24 183 
135 183 184 
136 184 185 
137 185 25 
1 120 1 2
138 25 186 
139 186 26 
1 121 1 4
140 26 187 
141 187 188 
142 188 189 
143 189 27 
1 122 1 7
144 27 190 
145 190 191 
146 191 192 
147 192 193 
148 193 194 
149 194 195 
150 195 28 
1 123 1 18
151 28 196 
152 196 197 
153 197 198 
154 198 199 
155 199 200 
156 200 201 
157 201 202 
158 202 203 
159 203 204 
160 204 205 
161 205 206 
162 206 207 
163 207 208 
164 208 209 
165 209 210 
166 210 211 
167 211 212 
168 212 5 
2 1 2 1060
169 447 392 492 
170 448 384 487 
171 268 448 487 
172 267 447 492 
173 321 298 414 
174 322 300 413 
175 285 72 536 
176 286 144 535 
177 385 387 407 
178 377 379 408 
179 324 285 578 
180 326 286 577 
181 512 324 578 
182 514 326 577 
183 323 285 324 
184 325 286 326 
185 281 414 551 
186 282 413 552 
187 252 410 508 
188 251 409 507 
189 375 446 544 
190 366 445 546 
191 281 321 414 
192 282 322 413 
193 328 357 511 
194 327 355 513 
195 214 497 623 
196 213 498 624 
197 405 278 573 
198 402 277 574 
199 71 285 323 
200 143 286 325 
201 349 271 431 
202 345 272 432 
203 259 436 605 
204 260 435 606 
205 280 398 596 
206 279 394 595 
207 398 280 525 
208 394 279 526 
209 402 403 469 
210 405 406 470 
211 436 333 605 
212 435 339 606 
213 273 343 346 
214 274 347 350 
215 120 287 459 
216 192 288 460 
217 269 331 333 
218 270 337 339 
219 415 459 561 
220 416 460 562 
221 408 379 515 
222 407 387 516 
223 404 405 573 
224 401 402 574 
225 273 57 343 
226 274 37 347 
227 269 61 331 
228 270 41 337 
229 287 317 561 
230 288 318 562 
231 272 55 432 
232 271 35 431 
233 71 72 285 
234 143 144 286 
235 120 121 287 
236 192 193 288 
237 401 261 402 
238 404 262 405 
239 118 119 281 
240 190 191 282 
241 73 74 284 
242 145 146 283 
243 45 377 408 
244 65 385 407 
245 317 304 561 
246 318 309 562 
247 47 261 401 
248 67 262 404 
249 402 469 538 
250 405 470 537 
251 265 5 503 
252 266 17 504 
253 136 252 452 
254 208 251 451 
255 412 244 509 
256 411 243 510 
257 446 375 571 
258 445 366 572 
259 409 251 494 
260 410 252 493 
261 244 412 540 
262 243 411 539 
263 437 311 551 
264 438 312 552 
265 212 5 265 
266 140 17 266 
267 16 124 267 
268 28 196 268 
269 252 508 608 
270 251 507 607 
271 400 468 596 
272 396 466 595 
273 335 336 502 
274 341 342 501 
275 207 208 451 
276 135 136 452 
277 472 520 542 
278 474 519 541 
279 428 399 507 
280 427 395 508 
281 413 438 552 
282 414 437 551 
283 335 502 631 
284 341 501 632 
285 119 120 321 
286 191 192 322 
287 332 456 532 
288 338 455 531 
289 72 73 418 
290 144 145 417 
291 409 494 549 
292 410 493 550 
293 532 456 576 
294 531 455 575 
295 439 249 616 
296 440 250 615 
297 118 281 601 
298 190 282 602 
299 284 74 603 
300 283 146 604 
301 528 462 533 
302 530 464 534 
303 13 114 437 
304 25 186 438 
305 453 267 490 
306 454 268 485 
307 342 474 541 
308 336 472 542 
309 535 430 577 
310 536 429 578 
311 515 439 616 
312 516 440 615 
313 298 321 459 
314 300 322 460 
315 494 238 549 
316 493 237 550 
317 245 142 325 
318 246 70 323 
319 121 122 317 
320 193 194 318 
321 142 143 325 
322 70 71 323 
323 403 408 515 
324 406 407 516 
325 415 298 459 
326 416 300 460 
327 485 268 487 
328 490 267 492 
329 351 2 352 
330 353 4 354 
331 468 400 557 
332 466 396 558 
333 533 214 623 
334 534 213 624 
335 370 428 507 
336 361 427 508 
337 359 32 427 
338 368 52 428 
339 393 29 396 
340 397 49 400 
341 385 227 386 
342 377 228 378 
343 277 402 538 
344 278 405 537 
345 352 476 610 
346 354 475 609 
347 406 262 407 
348 403 261 408 
349 62 269 335 
350 42 270 341 
351 476 352 560 
352 475 354 559 
353 436 259 563 
354 435 260 564 
355 125 239 447 
356 197 240 448 
357 395 427 633 
358 399 428 634 
359 237 139 445 
360 238 211 446 
361 16 267 453 
362 28 268 454 
363 370 368 428 
364 361 359 427 
365 513 355 611 
366 511 357 612 
367 321 120 459 
368 322 192 460 
369 62 335 631 
370 42 341 632 
371 79 80 294 
372 151 152 291 
373 349 431 581 
374 345 432 582 
375 468 280 596 
376 466 279 595 
377 449 349 509 
378 450 345 510 
379 39 2 351 
380 59 4 353 
381 57 56 343 
382 37 36 347 
383 61 60 331 
384 41 40 337 
385 55 54 432 
386 35 34 431 
387 245 425 426 
388 246 421 422 
389 249 439 496 
390 250 440 495 
391 435 242 583 
392 436 241 584 
393 46 45 408 
394 66 65 407 
395 33 32 359 
396 53 52 368 
397 48 47 401 
398 68 67 404 
399 30 29 393 
400 50 49 397 
401 44 228 377 
402 64 227 385 
403 122 123 247 
404 194 195 248 
405 69 70 246 
406 141 142 245 
407 391 520 523 
408 383 519 524 
409 384 383 524 
410 392 391 523 
411 269 333 334 
412 270 339 340 
413 290 456 609 
414 289 455 610 
415 454 484 486 
416 453 489 491 
417 413 253 438 
418 414 254 437 
419 230 540 622 
420 229 539 621 
421 402 261 403 
422 405 262 406 
423 243 450 510 
424 244 449 509 
425 519 383 541 
426 520 391 542 
427 242 435 564 
428 241 436 563 
429 474 342 583 
430 472 336 584 
431 122 247 569 
432 194 248 570 
433 491 462 528 
434 486 464 530 
435 528 527 569 
436 530 529 570 
437 257 518 599 
438 258 517 600 
439 540 412 622 
440 539 411 621 
441 346 343 599 
442 350 347 600 
443 509 349 581 
444 510 345 582 
445 456 353 609 
446 455 351 610 
447 339 337 606 
448 333 331 605 
449 20 255 499 
450 8 256 500 
451 445 266 546 
452 446 265 544 
453 352 2 629 
454 354 4 630 
455 518 346 599 
456 517 350 600 
457 265 503 620 
458 266 504 619 
459 377 378 379 
460 385 386 387 
461 248 486 530 
462 247 491 528 
463 340 339 435 
464 334 333 436 
465 452 252 608 
466 451 251 607 
467 390 391 392 
468 382 383 384 
469 365 364 366 
470 374 373 375 
471 16 453 553 
472 28 454 554 
473 428 52 634 
474 427 32 633 
475 396 29 635 
476 400 49 636 
477 450 243 521 
478 449 244 522 
479 431 225 457 
480 432 226 458 
481 246 323 556 
482 245 325 555 
483 433 313 500 
484 434 314 499 
485 311 437 591 
486 312 438 592 
487 2 38 629 
488 4 58 630 
489 270 340 341 
490 269 334 335 
491 363 362 364 
492 372 371 373 
493 275 353 456 
494 276 351 455 
495 63 62 631 
496 43 42 632 
497 297 298 415 
498 299 300 416 
499 459 287 561 
500 460 288 562 
501 363 364 365 
502 372 373 374 
503 380 381 382 
504 388 389 390 
505 52 51 634 
506 32 31 633 
507 29 1 635 
508 49 3 636 
509 382 381 383 
510 390 389 391 
511 226 369 458 
512 225 360 457 
513 543 441 544 
514 545 442 546 
515 398 397 596 
516 394 393 595 
517 88 229 441 
518 160 230 442 
519 337 276 338 
520 331 275 332 
521 343 344 599 
522 347 348 600 
523 150 20 499 
524 78 8 500 
525 343 272 344 
526 347 271 348 
527 231 104 443 
528 232 176 444 
529 332 275 456 
530 338 276 455 
531 276 39 351 
532 275 59 353 
533 40 276 337 
534 60 275 331 
535 379 378 380 
536 387 386 388 
537 348 349 449 
538 344 345 450 
539 56 272 343 
540 36 271 347 
541 367 365 412 
542 376 374 411 
543 113 254 297 
544 185 253 299 
545 543 544 620 
546 545 546 619 
547 388 386 389 
548 380 378 381 
549 40 39 276 
550 60 59 275 
551 38 37 274 
552 58 57 273 
553 337 338 606 
554 331 332 605 
555 335 334 336 
556 341 340 342 
557 42 41 270 
558 62 61 269 
559 56 55 272 
560 36 35 271 
561 344 272 345 
562 348 271 349 
563 360 362 363 
564 369 371 372 
565 34 225 431 
566 54 226 432 
567 369 372 458 
568 360 363 457 
569 379 380 439 
570 387 388 440 
571 372 374 376 
572 363 365 367 
573 133 279 466 
574 205 280 468 
575 278 131 465 
576 277 203 467 
577 465 132 466 
578 467 204 468 
579 250 128 470 
580 249 200 469 
581 132 133 466 
582 204 205 468 
583 130 131 278 
584 202 203 277 
585 133 134 279 
586 205 206 280 
587 199 200 249 
588 127 128 250 
589 136 137 252 
590 208 209 251 
591 131 132 465 
592 203 204 467 
593 138 139 237 
594 210 211 238 
595 125 126 239 
596 197 198 240 
597 200 201 469 
598 128 129 470 
599 34 33 225 
600 54 53 226 
601 44 43 228 
602 64 63 227 
603 45 44 377 
604 65 64 385 
605 31 30 263 
606 51 50 264 
607 47 46 261 
608 67 66 262 
609 225 33 359 
610 226 53 368 
611 1 68 315 
612 3 48 316 
613 261 46 408 
614 262 66 407 
615 263 394 395 
616 264 398 399 
617 369 370 371 
618 360 361 362 
619 362 361 410 
620 371 370 409 
621 369 368 370 
622 360 359 361 
623 225 359 360 
624 226 368 369 
625 263 30 393 
626 264 50 397 
627 316 48 401 
628 315 68 404 
629 124 125 447 
630 196 197 448 
631 395 394 452 
632 399 398 451 
633 263 393 394 
634 264 397 398 
635 139 140 445 
636 211 212 446 
637 372 376 458 
638 363 367 457 
639 313 433 613 
640 314 434 614 
641 88 89 229 
642 160 161 230 
643 90 91 243 
644 162 163 244 
645 103 104 231 
646 175 176 232 
647 102 103 471 
648 174 175 473 
649 101 102 241 
650 173 174 242 
651 220 419 585 
652 219 423 586 
653 164 165 258 
654 92 93 257 
655 99 100 259 
656 171 172 260 
657 94 95 320 
658 166 167 319 
659 95 96 475 
660 167 168 476 
661 96 97 290 
662 168 169 289 
663 241 102 471 
664 242 174 473 
665 103 231 471 
666 175 232 473 
667 241 471 472 
668 242 473 474 
669 152 153 594 
670 80 81 593 
671 319 167 476 
672 320 95 475 
673 168 289 476 
674 96 290 475 
675 251 209 494 
676 252 137 493 
677 210 238 494 
678 138 237 493 
679 115 116 311 
680 187 188 312 
681 76 77 313 
682 148 149 314 
683 127 250 495 
684 199 249 496 
685 240 198 496 
686 239 126 495 
687 137 138 493 
688 209 210 494 
689 281 119 321 
690 282 191 322 
691 116 117 477 
692 188 189 478 
693 75 76 479 
694 147 148 480 
695 126 127 495 
696 198 199 496 
697 501 228 632 
698 502 227 631 
699 241 472 584 
700 242 474 583 
701 73 284 418 
702 145 283 417 
703 238 446 571 
704 237 445 572 
705 207 451 525 
706 135 452 526 
707 467 557 574 
708 465 558 573 
709 392 447 579 
710 384 448 580 
711 544 441 588 
712 546 442 587 
713 437 114 591 
714 438 186 592 
715 455 289 575 
716 456 290 576 
717 311 116 477 
718 312 188 478 
719 76 313 479 
720 148 314 480 
721 444 485 487 
722 443 490 492 
723 378 228 501 
724 386 227 502 
725 489 453 490 
726 484 454 485 
727 547 390 579 
728 548 382 580 
729 294 80 295 
730 291 152 292 
731 256 433 500 
732 255 434 499 
733 281 477 601 
734 282 478 602 
735 479 284 603 
736 480 283 604 
737 300 253 413 
738 298 254 414 
739 258 165 517 
740 257 93 518 
741 94 320 518 
742 166 319 517 
743 299 253 300 
744 297 254 298 
745 366 364 572 
746 375 373 571 
747 448 240 580 
748 447 239 579 
749 243 91 521 
750 244 163 522 
751 92 257 521 
752 164 258 522 
753 472 471 520 
754 474 473 519 
755 431 457 581 
756 432 458 582 
757 141 245 504 
758 69 246 503 
759 470 129 537 
760 469 201 538 
761 202 277 538 
762 130 278 537 
763 374 375 621 
764 365 366 622 
765 389 386 502 
766 381 378 501 
767 518 320 590 
768 517 319 589 
769 305 533 623 
770 310 534 624 
771 171 260 531 
772 99 259 532 
773 388 390 547 
774 380 382 548 
775 229 89 539 
776 230 161 540 
777 162 244 540 
778 90 243 539 
779 280 206 525 
780 279 134 526 
781 286 535 577 
782 285 536 578 
783 154 155 355 
784 82 83 357 
785 409 370 507 
786 410 361 508 
787 362 410 550 
788 371 409 549 
789 218 464 484 
790 217 462 489 
791 557 316 574 
792 558 315 573 
793 461 214 533 
794 463 213 534 
795 367 412 509 
796 376 411 510 
797 531 260 606 
798 532 259 605 
799 502 336 542 
800 501 342 541 
801 287 121 317 
802 288 193 318 
803 420 482 505 
804 424 481 506 
805 101 241 563 
806 173 242 564 
807 259 100 563 
808 260 172 564 
809 381 501 541 
810 389 502 542 
811 263 395 633 
812 264 399 634 
813 560 274 589 
814 559 273 590 
815 375 588 621 
816 366 587 622 
817 114 14 591 
818 186 26 592 
819 14 115 591 
820 26 187 592 
821 443 104 567 
822 444 176 568 
823 165 166 517 
824 93 94 518 
825 289 169 575 
826 290 97 576 
827 379 439 515 
828 387 440 516 
829 274 560 629 
830 273 559 630 
831 20 151 255 
832 8 79 256 
833 113 13 254 
834 185 25 253 
835 72 418 536 
836 144 417 535 
837 247 528 569 
838 248 530 570 
839 88 441 565 
840 160 442 566 
841 471 231 520 
842 473 232 519 
843 350 517 589 
844 346 518 590 
845 15 118 601 
846 27 190 602 
847 74 6 603 
848 146 18 604 
849 21 154 327 
850 9 82 328 
851 91 92 521 
852 163 164 522 
853 336 334 584 
854 342 340 583 
855 155 156 215 
856 83 84 216 
857 108 109 214 
858 180 181 213 
859 19 150 598 
860 7 78 597 
861 149 19 598 
862 77 7 597 
863 134 135 526 
864 206 207 525 
865 476 289 610 
866 475 290 609 
867 485 444 568 
868 490 443 567 
869 255 293 434 
870 256 296 433 
871 451 398 525 
872 452 394 526 
873 117 15 601 
874 189 27 602 
875 6 75 603 
876 18 147 604 
877 254 13 437 
878 253 25 438 
879 170 171 531 
880 98 99 532 
881 112 297 301 
882 184 299 306 
883 155 215 355 
884 83 216 357 
885 487 384 524 
886 492 392 523 
887 309 318 529 
888 304 317 527 
889 273 346 590 
890 274 350 589 
891 240 496 548 
892 239 495 547 
893 267 124 447 
894 268 196 448 
895 140 266 445 
896 212 265 446 
897 302 301 415 
898 307 306 416 
899 239 547 579 
900 240 548 580 
901 178 179 218 
902 106 107 217 
903 157 158 219 
904 85 86 220 
905 129 130 537 
906 201 202 538 
907 107 108 461 
908 179 180 463 
909 383 381 541 
910 391 389 542 
911 89 90 539 
912 161 162 540 
913 332 532 605 
914 338 531 606 
915 224 111 301 
916 223 183 306 
917 367 509 581 
918 376 510 582 
919 496 439 548 
920 495 440 547 
921 520 231 523 
922 519 232 524 
923 109 110 497 
924 181 182 498 
925 277 467 574 
926 278 465 573 
927 390 392 579 
928 382 384 580 
929 364 362 550 
930 373 371 549 
931 156 157 586 
932 84 85 585 
933 439 380 548 
934 440 388 547 
935 513 326 514 
936 511 324 512 
937 170 531 575 
938 98 532 576 
939 112 113 297 
940 184 185 299 
941 418 284 625 
942 417 283 626 
943 235 485 568 
944 236 490 567 
945 467 468 557 
946 465 466 558 
947 301 297 415 
948 306 299 416 
949 355 356 611 
950 357 358 612 
951 100 101 563 
952 172 173 564 
953 311 477 551 
954 312 478 552 
955 5 69 503 
956 17 141 504 
957 477 281 551 
958 478 282 552 
959 110 12 329 
960 182 24 330 
961 351 352 610 
962 353 354 609 
963 443 492 523 
964 444 487 524 
965 231 443 523 
966 232 444 524 
967 81 9 221 
968 153 21 222 
969 12 111 224 
970 24 183 223 
971 320 475 559 
972 319 476 560 
973 483 218 484 
974 488 217 489 
975 292 152 594 
976 295 80 593 
977 503 422 620 
978 504 426 619 
979 393 396 595 
980 397 400 596 
981 356 425 611 
982 358 421 612 
983 255 151 291 
984 256 79 294 
985 315 404 573 
986 316 401 574 
987 340 435 583 
988 334 436 584 
989 302 415 561 
990 307 416 562 
991 223 306 307 
992 224 301 302 
993 97 98 576 
994 169 170 575 
995 294 295 429 
996 291 292 430 
997 544 265 620 
998 546 266 619 
999 491 247 553 
1000 486 248 554 
1001 457 367 581 
1002 458 376 582 
1003 470 406 615 
1004 469 403 616 
1005 344 450 617 
1006 348 449 618 
1007 284 479 613 
1008 283 480 614 
1009 111 112 301 
1010 183 184 306 
1011 395 452 608 
1012 399 451 607 
1013 420 220 482 
1014 424 219 481 
1015 256 294 296 
1016 255 291 293 
1017 158 159 481 
1018 86 87 482 
1019 317 122 569 
1020 318 194 570 
1021 105 106 488 
1022 177 178 483 
1023 323 324 556 
1024 325 326 555 
1025 411 374 621 
1026 412 365 622 
1027 12 224 329 
1028 24 223 330 
1029 441 229 588 
1030 442 230 587 
1031 115 311 591 
1032 187 312 592 
1033 38 274 629 
1034 58 273 630 
1035 313 77 597 
1036 314 149 598 
1037 250 470 615 
1038 249 469 616 
1039 522 258 618 
1040 521 257 617 
1041 375 544 588 
1042 366 546 587 
1043 227 63 631 
1044 228 43 632 
1045 434 293 626 
1046 433 296 625 
1047 51 264 634 
1048 31 263 633 
1049 1 315 635 
1050 3 316 636 
1051 245 426 504 
1052 246 422 503 
1053 422 505 620 
1054 426 506 619 
1055 489 462 491 
1056 484 464 486 
1057 477 117 601 
1058 478 189 602 
1059 75 479 603 
1060 147 480 604 
1061 214 109 497 
1062 213 181 498 
1063 355 215 356 
1064 357 216 358 
1065 293 291 430 
1066 296 294 429 
1067 108 214 461 
1068 180 213 463 
1069 85 220 585 
1070 157 219 586 
1071 505 543 620 
1072 506 545 619 
1073 556 324 612 
1074 555 326 611 
1075 549 238 571 
1076 550 237 572 
1077 482 234 505 
1078 481 233 506 
1079 218 179 463 
1080 217 107 461 
1081 480 314 614 
1082 479 313 613 
1083 159 233 481 
1084 87 234 482 
1085 215 156 586 
1086 216 84 585 
1087 284 613 625 
1088 283 614 626 
1089 221 512 593 
1090 222 514 594 
1091 500 313 597 
1092 499 314 598 
1093 558 396 635 
1094 557 400 636 
1095 507 399 607 
1096 508 395 608 
1097 123 16 553 
1098 195 28 554 
1099 462 461 533 
1100 464 463 534 
1101 430 535 627 
1102 429 536 628 
1103 373 549 571 
1104 364 550 572 
1105 425 555 611 
1106 421 556 612 
1107 327 154 355 
1108 328 82 357 
1109 536 418 628 
1110 535 417 627 
1111 224 303 329 
1112 223 308 330 
1113 419 420 421 
1114 423 424 425 
1115 419 220 420 
1116 423 219 424 
1117 236 105 488 
1118 235 177 483 
1119 406 516 615 
1120 403 515 616 
1121 543 234 565 
1122 545 233 566 
1123 110 329 497 
1124 182 330 498 
1125 221 511 512 
1126 222 513 514 
1127 78 500 597 
1128 150 499 598 
1129 505 234 543 
1130 506 233 545 
1131 450 521 617 
1132 449 522 618 
1133 625 296 628 
1134 626 293 627 
1135 560 352 629 
1136 559 354 630 
1137 234 10 565 
1138 233 22 566 
1139 613 433 625 
1140 614 434 626 
1141 247 123 553 
1142 248 195 554 
1143 310 309 529 
1144 305 304 527 
1145 218 463 464 
1146 217 461 462 
1147 430 292 577 
1148 429 295 578 
1149 421 420 422 
1150 425 424 426 
1151 512 295 593 
1152 514 292 594 
1153 221 9 328 
1154 222 21 327 
1155 223 307 308 
1156 224 302 303 
1157 319 560 589 
1158 320 559 590 
1159 236 489 490 
1160 235 484 485 
1161 304 302 561 
1162 309 307 562 
1163 178 218 483 
1164 106 217 488 
1165 303 304 305 
1166 308 309 310 
1167 11 236 567 
1168 23 235 568 
1169 358 419 421 
1170 356 423 425 
1171 81 221 593 
1172 153 222 594 
1173 87 10 234 
1174 159 22 233 
1175 11 105 236 
1176 23 177 235 
1177 529 318 570 
1178 527 317 569 
1179 356 215 423 
1180 358 216 419 
1181 303 302 304 
1182 308 307 309 
1183 292 514 577 
1184 295 512 578 
1185 316 557 636 
1186 315 558 635 
1187 326 513 611 
1188 324 511 612 
1189 599 344 617 
1190 600 348 618 
1191 305 527 528 
1192 310 529 530 
1193 305 528 533 
1194 310 530 534 
1195 221 328 511 
1196 222 327 513 
1197 453 491 553 
1198 454 486 554 
1199 303 305 623 
1200 308 310 624 
1201 587 230 622 
1202 588 229 621 
1203 441 543 565 
1204 442 545 566 
1205 219 158 481 
1206 220 86 482 
1207 426 424 506 
1208 422 420 505 
1209 419 216 585 
1210 423 215 586 
1211 257 599 617 
1212 258 600 618 
1213 418 625 628 
1214 417 626 627 
1215 235 483 484 
1216 236 488 489 
1217 293 430 627 
1218 296 429 628 
1219 497 329 623 
1220 498 330 624 
1221 329 303 623 
1222 330 308 624 
1223 10 88 565 
1224 104 11 567 
1225 22 160 566 
1226 176 23 568 
1227 425 245 555 
1228 421 246 556 
2 2 2 376
1229 648 715 783 
1230 63 64 771 
1231 715 648 767 
1232 646 717 728 
1233 61 62 772 
1234 717 646 729 
1235 651 732 763 
1236 651 763 775 
1237 699 700 730 
1238 44 45 723 
1239 772 761 789 
1240 643 772 789 
1241 45 637 723 
1242 711 732 773 
1243 774 655 785 
1244 732 651 773 
1245 771 64 793 
1246 742 639 780 
1247 650 63 771 
1248 705 726 727 
1249 705 727 728 
1250 646 2 729 
1251 2 39 729 
1252 642 774 785 
1253 699 730 765 
1254 715 731 783 
1255 700 717 730 
1256 62 650 772 
1257 643 61 772 
1258 717 702 728 
1259 782 746 787 
1260 639 742 794 
1261 767 648 768 
1262 763 641 775 
1263 726 705 735 
1264 702 705 728 
1265 645 782 787 
1266 768 648 798 
1267 730 644 765 
1268 641 763 769 
1269 724 640 726 
1270 725 726 735 
1271 744 742 780 
1272 659 656 725 
1273 726 640 727 
1274 717 729 730 
1275 728 727 781 
1276 659 725 735 
1277 721 647 778 
1278 656 654 725 
1279 784 720 786 
1280 644 730 791 
1281 722 652 790 
1282 703 770 771 
1283 735 704 737 
1284 646 728 781 
1285 711 773 777 
1286 705 704 735 
1287 659 735 737 
1288 733 657 736 
1289 657 658 736 
1290 663 737 738 
1291 737 704 738 
1292 663 660 737 
1293 658 661 736 
1294 736 661 764 
1295 739 665 740 
1296 661 739 764 
1297 706 739 740 
1298 662 665 739 
1299 663 738 755 
1300 664 663 755 
1301 740 665 756 
1302 750 716 752 
1303 32 33 649 
1304 52 53 651 
1305 62 63 650 
1306 42 43 652 
1307 750 749 753 
1308 716 750 753 
1309 709 682 745 
1310 749 676 753 
1311 709 745 746 
1312 683 741 743 
1313 741 683 747 
1314 665 666 756 
1315 30 31 642 
1316 60 61 643 
1317 50 51 641 
1318 682 683 745 
1319 40 41 644 
1320 673 677 747 
1321 708 698 748 
1322 676 675 759 
1323 679 673 747 
1324 677 693 747 
1325 753 676 759 
1326 693 694 710 
1327 712 722 723 
1328 741 710 742 
1329 693 710 741 
1330 683 679 747 
1331 55 56 639 
1332 35 36 640 
1333 698 696 748 
1334 690 671 754 
1335 710 694 711 
1336 687 695 696 
1337 681 688 689 
1338 689 712 713 
1339 65 66 638 
1340 689 688 712 
1341 683 743 745 
1342 682 679 683 
1343 702 704 705 
1344 693 741 747 
1345 718 708 720 
1346 715 713 731 
1347 707 698 708 
1348 700 702 717 
1349 696 703 748 
1350 700 685 701 
1351 700 701 702 
1352 667 664 755 
1353 699 685 700 
1354 696 695 703 
1355 677 691 693 
1356 676 749 754 
1357 749 690 754 
1358 687 696 697 
1359 671 668 754 
1360 743 742 744 
1361 670 675 676 
1362 707 708 718 
1363 741 742 743 
1364 669 671 673 
1365 675 681 759 
1366 693 691 694 
1367 674 673 679 
1368 668 667 670 
1369 680 679 682 
1370 697 696 698 
1371 687 686 695 
1372 680 686 687 
1373 666 669 756 
1374 670 672 675 
1375 675 678 681 
1376 692 749 750 
1377 681 684 688 
1378 701 685 758 
1379 669 673 674 
1380 714 713 715 
1381 673 671 677 
1382 669 668 671 
1383 689 713 714 
1384 687 697 760 
1385 702 701 704 
1386 45 46 637 
1387 685 678 758 
1388 666 668 669 
1389 751 750 752 
1390 756 674 760 
1391 706 698 707 
1392 674 679 680 
1393 669 674 756 
1394 677 690 691 
1395 670 667 672 
1396 692 690 749 
1397 677 671 690 
1398 672 755 758 
1399 680 682 686 
1400 668 670 754 
1401 684 678 685 
1402 740 756 760 
1403 738 701 758 
1404 678 672 758 
1405 755 738 758 
1406 689 714 759 
1407 681 689 759 
1408 712 688 722 
1409 672 667 755 
1410 697 740 760 
1411 670 676 754 
1412 714 753 759 
1413 697 698 706 
1414 684 685 699 
1415 675 672 678 
1416 714 715 716 
1417 691 690 692 
1418 666 667 668 
1419 680 687 760 
1420 681 678 684 
1421 714 716 753 
1422 719 718 721 
1423 692 750 751 
1424 686 682 709 
1425 707 718 719 
1426 704 701 738 
1427 688 684 757 
1428 719 733 736 
1429 697 706 740 
1430 684 699 757 
1431 692 751 762 
1432 674 680 760 
1433 711 694 732 
1434 719 721 733 
1435 695 686 761 
1436 722 688 757 
1437 691 692 762 
1438 694 691 762 
1439 58 4 645 
1440 68 1 647 
1441 38 2 646 
1442 48 3 648 
1443 762 751 763 
1444 732 694 762 
1445 686 709 761 
1446 733 721 734 
1447 732 762 763 
1448 666 664 667 
1449 665 664 666 
1450 662 664 665 
1451 662 663 664 
1452 739 706 764 
1453 706 707 764 
1454 719 736 764 
1455 661 662 739 
1456 662 660 663 
1457 707 719 764 
1458 661 660 662 
1459 658 660 661 
1460 660 659 737 
1461 658 659 660 
1462 658 656 659 
1463 657 656 658 
1464 725 724 726 
1465 655 656 657 
1466 652 722 796 
1467 654 724 725 
1468 655 654 656 
1469 765 644 776 
1470 647 721 803 
1471 723 637 801 
1472 654 653 724 
1473 649 654 655 
1474 638 784 786 
1475 757 699 765 
1476 734 721 778 
1477 770 650 771 
1478 44 723 790 
1479 716 715 767 
1480 763 751 769 
1481 703 695 770 
1482 748 703 766 
1483 734 642 785 
1484 752 768 769 
1485 649 655 774 
1486 744 645 787 
1487 769 768 792 
1488 637 731 801 
1489 723 722 790 
1490 730 729 791 
1491 752 767 768 
1492 655 657 785 
1493 733 734 785 
1494 720 708 786 
1495 746 745 787 
1496 743 744 787 
1497 761 709 789 
1498 742 710 794 
1499 721 718 803 
1500 712 723 801 
1501 731 713 801 
1502 722 757 796 
1503 752 716 767 
1504 729 39 791 
1505 765 776 796 
1506 649 653 654 
1507 640 724 795 
1508 751 752 769 
1509 770 761 772 
1510 766 638 786 
1511 748 766 786 
1512 711 777 794 
1513 695 761 770 
1514 641 769 792 
1515 766 771 793 
1516 731 637 802 
1517 53 54 773 
1518 33 34 653 
1519 651 53 773 
1520 649 33 653 
1521 642 31 774 
1522 641 51 775 
1523 32 649 774 
1524 52 651 775 
1525 1 29 778 
1526 644 41 776 
1527 42 652 776 
1528 60 643 779 
1529 59 60 779 
1530 31 32 774 
1531 51 52 775 
1532 41 42 776 
1533 639 56 780 
1534 55 639 777 
1535 56 57 780 
1536 54 55 777 
1537 647 1 778 
1538 37 38 781 
1539 38 646 781 
1540 645 4 782 
1541 47 48 783 
1542 4 59 782 
1543 638 66 784 
1544 48 648 783 
1545 727 640 797 
1546 642 734 800 
1547 645 744 799 
1548 68 647 788 
1549 766 703 771 
1550 43 44 790 
1551 39 40 791 
1552 49 50 792 
1553 65 638 793 
1554 35 640 795 
1555 66 67 784 
1556 640 36 797 
1557 648 3 798 
1558 779 746 782 
1559 637 46 802 
1560 58 645 799 
1561 30 642 800 
1562 657 733 785 
1563 49 792 798 
1564 724 653 795 
1565 708 748 786 
1566 781 727 797 
1567 745 743 787 
1568 746 779 789 
1569 638 766 793 
1570 650 770 772 
1571 67 68 788 
1572 709 746 789 
1573 652 43 790 
1574 40 644 791 
1575 50 641 792 
1576 773 54 777 
1577 59 779 782 
1578 777 639 794 
1579 64 65 793 
1580 792 768 798 
1581 710 711 794 
1582 34 35 795 
1583 779 643 789 
1584 744 780 799 
1585 36 37 797 
1586 3 49 798 
1587 57 58 799 
1588 47 783 802 
1589 653 34 795 
1590 757 765 796 
1591 29 30 800 
1592 713 712 801 
1593 46 47 802 
1594 718 720 803 
1595 784 67 788 
1596 720 784 788 
1597 37 781 797 
1598 783 731 802 
1599 734 778 800 
1600 780 57 799 
1601 776 652 796 
1602 778 29 800 
1603 788 647 803 
1604 720 788 803 
$EndElements
