$MeshFormat
4.1 0 8
$EndMeshFormat
$Entities
33 28 2 0
1 0 0 0 0 
2 0.7 0 0 0 
3 0 0.7 0 0 
4 -0.7 0 0 0 
5 0 -0.7 0 0 
100 -1 -0.9 0 0 
101 -1 -1.04 0 0 
102 -0.9 -1.04 0 0 
103 -0.9 -1.02 0 0 
104 -0.88 -1 0 0 
105 -0.78 -1 0 0 
106 0.78 -1 0 0 
107 0.88 -1 0 0 
108 0.9 -1.02 0 0 
109 0.9 -1.04 0 0 
110 1 -1.04 0 0 
111 1 -0.9 0 0 
112 1 0.9 0 0 
113 1 1.04 0 0 
114 0.9 1.04 0 0 
115 0.9 1.02 0 0 
116 0.88 1 0 0 
117 0.78 1 0 0 
118 -0.78 1 0 0 
119 -0.88 1 0 0 
120 -0.9 1.02 0 0 
121 -0.9 1.04 0 0 
122 -1 1.04 0 0 
123 -1 0.9 0 0 
1001 -0.88 -1.02 0 0 
1002 0.88 -1.02 0 0 
1003 0.88 1.02 0 0 
1004 -0.88 1.02 0 0 
1 5.551115123125783e-17 0 0 0.7 0.7 0 0 2 2 -3 
2 -0.7 5.551115123125783e-17 0 0 0.7 0 0 2 3 -4 
3 -0.7 -0.7 0 -5.551115123125783e-17 0 0 0 2 4 -5 
4 0 -0.7 0 0.7 -5.551115123125783e-17 0 0 2 5 -2 
100 -1 -1.04 0 -1 -0.9 0 1 5 2 100 -101 
101 -1 -1.04 0 -0.9 -1.04 0 1 1 2 101 -102 
102 -0.9 -1.04 0 -0.9 -1.02 0 1 5 2 102 -103 
103 -0.9 -1.02 0 -0.88 -1 0 1 5 2 103 -104 
104 -0.88 -1 0 -0.78 -1 0 1 5 2 104 -105 
105 -0.78 -1 0 0.78 -1 0 1 5 2 105 -106 
106 0.78 -1 0 0.88 -1 0 1 5 2 106 -107 
107 0.88 -1.02 0 0.9 -1 0 1 5 2 107 -108 
108 0.9 -1.04 0 0.9 -1.02 0 1 5 2 108 -109 
109 0.9 -1.04 0 1 -1.04 0 1 2 2 109 -110 
110 1 -1.04 0 1 -0.9 0 1 5 2 110 -111 
111 1 -0.9 0 1 0.9 0 1 5 2 111 -112 
112 1 0.9 0 1 1.04 0 1 5 2 112 -113 
113 0.9 1.04 0 1 1.04 0 1 3 2 113 -114 
114 0.9 1.02 0 0.9 1.04 0 1 5 2 114 -115 
115 0.88 1 0 0.9 1.02 0 1 5 2 115 -116 
116 0.78 1 0 0.88 1 0 1 5 2 116 -117 
117 -0.78 1 0 0.78 1 0 1 5 2 117 -118 
118 -0.88 1 0 -0.78 1 0 1 5 2 118 -119 
119 -0.9 1 0 -0.88 1.02 0 1 5 2 119 -120 
120 -0.9 1.02 0 -0.9 1.04 0 1 5 2 120 -121 
121 -1 1.04 0 -0.9 1.04 0 1 4 2 121 -122 
122 -1 0.9 0 -1 1.04 0 1 5 2 122 -123 
123 -1 -0.9 0 -1 0.9 0 1 5 2 123 -100 
1 -1 -1.04 0 1 1.04 0 1 1 28 100 101 102 103 104 105 106 107 108 109 110 111 112 113 114 115 116 117 118 119 120 121 122 123 1 2 3 4 
2 -0.7 -0.7 0 0.7 0.7 0 1 2 4 1 2 3 4 
$EndEntities
$Nodes
58 592 1 592
0 2 0 1
1
0.7 0 0
0 3 0 1
2
0 0.7 0
0 4 0 1
3
-0.7 0 0
0 5 0 1
4
0 -0.7 0
0 100 0 1
5
-1 -0.9 0
0 101 0 1
6
-1 -1.04 0
0 102 0 1
7
-0.9 -1.04 0
0 103 0 1
8
-0.9 -1.02 0
0 104 0 1
9
-0.88 -1 0
0 105 0 1
10
-0.78 -1 0
0 106 0 1
11
0.78 -1 0
0 107 0 1
12
0.88 -1 0
0 108 0 1
13
0.9 -1.02 0
0 109 0 1
14
0.9 -1.04 0
0 110 0 1
15
1 -1.04 0
0 111 0 1
16
1 -0.9 0
0 112 0 1
17
1 0.9 0
0 113 0 1
18
1 1.04 0
0 114 0 1
19
0.9 1.04 0
0 115 0 1
20
0.9 1.02 0
0 116 0 1
21
0.88 1 0
0 117 0 1
22
0.78 1 0
0 118 0 1
23
-0.78 1 0
0 119 0 1
24
-0.88 1 0
0 120 0 1
25
-0.9 1.02 0
0 121 0 1
26
-0.9 1.04 0
0 122 0 1
27
-1 1.04 0
0 123 0 1
28
-1 0.9 0
1 1 0 10
29
30
31
32
33
34
35
36
37
38
0.6928750092802883 0.09962038704422065 0
0.6716450813681384 0.1972127903407551 0
0.6367423963819454 0.2907905099032247 0
0.5888774723726585 0.3784485731668025 0
0.5290247010657466 0.4584025148952581 0
0.4584025126417869 0.5290247030183907 0
0.3784485712503317 0.5888774736042995 0
0.2907905082858739 0.6367423971205648 0
0.1972127892118739 0.6716450816996079 0
0.09962038648577498 0.6928750093605807 0
1 2 0 10
39
40
41
42
43
44
45
46
47
48
-0.09962038704422065 0.6928750092802883 0
-0.1972127903407551 0.6716450813681384 0
-0.2907905099032247 0.6367423963819454 0
-0.3784485731668025 0.5888774723726585 0
-0.4584025148952581 0.5290247010657466 0
-0.5290247030183907 0.4584025126417869 0
-0.5888774736042995 0.3784485712503317 0
-0.6367423971205648 0.2907905082858739 0
-0.6716450816996079 0.1972127892118739 0
-0.6928750093605807 0.09962038648577498 0
1 3 0 10
49
50
51
52
53
54
55
56
57
58
-0.6928750092802883 -0.09962038704422065 0
-0.6716450813681384 -0.1972127903407551 0
-0.6367423963819454 -0.2907905099032247 0
-0.5888774723726585 -0.3784485731668025 0
-0.5290247010657466 -0.4584025148952581 0
-0.4584025126417869 -0.5290247030183907 0
-0.3784485712503317 -0.5888774736042995 0
-0.2907905082858739 -0.6367423971205648 0
-0.1972127892118739 -0.6716450816996079 0
-0.09962038648577498 -0.6928750093605807 0
1 4 0 10
59
60
61
62
63
64
65
66
67
68
0.09962038704422065 -0.6928750092802883 0
0.1972127903407551 -0.6716450813681384 0
0.2907905099032247 -0.6367423963819454 0
0.3784485731668025 -0.5888774723726585 0
0.4584025148952581 -0.5290247010657466 0
0.5290247030183907 -0.4584025126417869 0
0.5888774736042995 -0.3784485712503317 0
0.6367423971205648 -0.2907905082858739 0
0.6716450816996079 -0.1972127892118739 0
0.6928750093605807 -0.09962038648577498 0
1 100 0 1
69
-1 -0.9816370690904247 0
1 101 0 1
70
-0.9500000000003904 -1.04 0
1 102 0 0
1 103 0 1
71
-0.8941421354481672 -1.005857864200705 0
1 104 0 1
72
-0.836472783192328 -1 0
1 105 0 15
73
74
75
76
77
78
79
80
81
82
83
84
85
86
87
-0.6825000000002061 -1 0
-0.5850000000003687 -1 0
-0.4875000000006723 -1 0
-0.3900000000009544 -1 0
-0.2925000000012361 -1 0
-0.1950000000015177 -1 0
-0.09750000000183201 -1 0
-2.059463710679665e-12 -1 0
0.09749999999821157 -1 0
0.1949999999984392 -1 0
0.2924999999987752 -1 0
0.3899999999989594 -1 0
0.4874999999991438 -1 0
0.5849999999995881 -1 0
0.6824999999997292 -1 0
1 106 0 1
88
0.8364727831919583 -1 0
1 107 0 1
89
0.8941421355167171 -1.005857864269255 0
1 108 0 0
1 109 0 1
90
0.9500000000000866 -1.04 0
1 110 0 1
91
1 -0.981637069090698 0
1 111 0 17
92
93
94
95
96
97
98
99
100
101
102
103
104
105
106
107
108
1 -0.8000000000002193 0
1 -0.7000000000004555 0
1 -0.6000000000007013 0
1 -0.5000000000009859 0
1 -0.40000000000127 0
1 -0.3000000000015542 0
1 -0.2000000000018384 0
1 -0.1000000000021226 0
1 -2.406741472782414e-12 0
1 0.09999999999783638 0
1 0.199999999998106 0
1 0.299999999998395 0
1 0.3999999999986404 0
1 0.4999999999989294 0
1 0.5999999999991895 0
1 0.6999999999994641 0
1 0.7999999999997539 0
1 112 0 1
109
1 0.9816370690904247 0
1 113 0 1
110
0.9500000000003904 1.04 0
1 114 0 0
1 115 0 1
111
0.8941421354481672 1.005857864200705 0
1 116 0 1
112
0.836472783192328 1 0
1 117 0 15
113
114
115
116
117
118
119
120
121
122
123
124
125
126
127
0.6825000000002061 1 0
0.5850000000003687 1 0
0.4875000000006723 1 0
0.3900000000009544 1 0
0.2925000000012361 1 0
0.1950000000015177 1 0
0.09750000000183201 1 0
2.059463710679665e-12 1 0
-0.09749999999821157 1 0
-0.1949999999984392 1 0
-0.2924999999987752 1 0
-0.3899999999989594 1 0
-0.4874999999991438 1 0
-0.5849999999995881 1 0
-0.6824999999997292 1 0
1 118 0 1
128
-0.8364727831919583 1 0
1 119 0 1
129
-0.8941421355167171 1.005857864269255 0
1 120 0 0
1 121 0 1
130
-0.9500000000000866 1.04 0
1 122 0 1
131
-1 0.981637069090698 0
1 123 0 17
132
133
134
135
136
137
138
139
140
141
142
143
144
145
146
147
148
-1 0.8000000000002193 0
-1 0.7000000000004555 0
-1 0.6000000000007013 0
-1 0.5000000000009859 0
-1 0.40000000000127 0
-1 0.3000000000015542 0
-1 0.2000000000018384 0
-1 0.1000000000021226 0
-1 2.406741472782414e-12 0
-1 -0.09999999999783638 0
-1 -0.199999999998106 0
-1 -0.299999999998395 0
-1 -0.3999999999986404 0
-1 -0.4999999999989294 0
-1 -0.5999999999991895 0
-1 -0.6999999999994641 0
-1 -0.7999999999997539 0
2 1 0 278
149
150
151
152
153
154
155
156
157
158
159
160
161
162
163
164
165
166
167
168
169
170
171
172
173
174
175
176
177
178
179
180
181
182
183
184
185
186
187
188
189
190
191
192
193
194
195
196
197
198
199
200
201
202
203
204
205
206
207
208
209
210
211
212
213
214
215
216
217
218
219
220
221
222
223
224
225
226
227
228
229
230
231
232
233
234
235
236
237
238
239
240
241
242
243
244
245
246
247
248
249
250
251
252
253
254
255
256
257
258
259
260
261
262
263
264
265
266
267
268
269
270
271
272
273
274
275
276
277
278
279
280
281
282
283
284
285
286
287
288
289
290
291
292
293
294
295
296
297
298
299
300
301
302
303
304
305
306
307
308
309
310
311
312
313
314
315
316
317
318
319
320
321
322
323
324
325
326
327
328
329
330
331
332
333
334
335
336
337
338
339
340
341
342
343
344
345
346
347
348
349
350
351
352
353
354
355
356
357
358
359
360
361
362
363
364
365
366
367
368
369
370
371
372
373
374
375
376
377
378
379
380
381
382
383
384
385
386
387
388
389
390
391
392
393
394
395
396
397
398
399
400
401
402
403
404
405
406
407
408
409
410
411
412
413
414
415
416
417
418
419
420
421
422
423
424
425
426
-0.7312499999998646 0.9333278291321242 0
0.7312499999998646 -0.9333278291321242 0
0.7312500000001029 0.9333278291321144 0
-0.7312500000001031 -0.9333278291321144 0
-0.8609470443368819 -0.9551525075226193 0
0.8609470443368819 0.9551525075226195 0
-0.8579892482329066 0.9685895009341977 0
0.857989248232906 -0.9685895009341974 0
-0.9133974596217858 0.6500000000005786 0
0.9133974596217858 -0.6500000000005782 0
-0.9122990496647818 -0.6490563498622788 0
0.9122990496647818 0.6490563498622786 0
-0.472592672840343 -0.6225982349744814 0
0.472592672840343 0.6225982349744814 0
-0.4731464321329115 0.6251087817304053 0
0.4731464321329116 -0.6251087817304052 0
-0.6283876512552934 0.469111717834518 0
0.6283876512552934 -0.469111717834518 0
0.6441365276214566 0.4635495199000313 0
-0.6441365276214568 -0.4635495199000315 0
0.536249999999366 -0.9155625231308763 0
-0.536249999999366 0.9155625231308763 0
-0.5233728173098637 -0.9115161823837865 0
0.5233728173098637 0.9115161823837865 0
0.3380123745445551 0.9112265433593943 0
-0.3380123745445551 -0.9112265433593942 0
-0.3485362952176614 0.9214041205608789 0
0.3485362952176611 -0.9214041205608787 0
0.9133974596213372 0.4499999999987849 0
-0.9133974596213372 -0.4499999999987849 0
0.9146706813538398 -0.4521657682360026 0
-0.9146706813538398 0.4521657682360027 0
-0.7332128852728546 0.2753139874554547 0
0.7332128852728546 -0.2753139874554547 0
0.7331957692131542 0.2779858314269418 0
-0.733195769213154 -0.2779858314269419 0
-0.1668022445220819 -0.7667775454996684 0
0.1668022445220819 0.7667775454996684 0
0.1668022455778518 -0.7667775457628881 0
-0.166802245577852 0.7667775457628881 0
-0.9210801750718081 0.1504401845539109 0
0.9210801750718078 -0.1504401845539109 0
0.917986212323217 0.1666022986896853 0
-0.917986212323217 -0.1666022986896854 0
0.8940225178813377 -0.9704657379914009 0
0.8685038036877357 -0.918800549726687 0
-0.8940225178813384 0.9704657379914018 0
-0.8685038036877371 0.9188005497266875 0
0.9186029983620363 0.8583549578550782 0
-0.9186029983620362 -0.8583549578550783 0
-0.06137584396186671 0.9280139143656492 0
0.06137584396186671 -0.9280139143656494 0
0.9320971147783805 0.9335541355544168 0
-0.9320971147783805 -0.9335541355544168 0
0.9244595052911361 -0.9869285377094408 0
-0.924459505291136 0.9869285377094419 0
0.7710846070805228 -0.05863496402391633 0
-0.7710846070805228 0.05863496402391628 0
-0.1527250770395695 -0.921940333212914 0
0.1527250770395695 0.921940333212914 0
-0.06779681253467756 0.7780221657788546 0
0.0328968211926757 0.79734628784956 0
0.06779681253467751 -0.7780221657788546 0
-0.03289682119267581 -0.79734628784956 0
0.2624449160113345 -0.747201337383578 0
0.2305795981696059 -0.8268513487853592 0
0.3953123605197911 -0.6846017421972124 0
0.4818700378817519 -0.7270320523146426 0
0.5614559842568674 -0.6675818455428684 0
0.5736146893490397 -0.7634939889465634 0
0.6508895968547566 -0.7101762009003517 0
0.6662022933097408 -0.7964011428898072 0
0.7433562926008906 -0.7459352590221381 0
0.7291470438275478 -0.645313445622839 0
0.4070652003716031 -0.7782195404800085 0
-0.2624449160113347 0.7472013373835781 0
-0.2305795981696061 0.8268513487853592 0
-0.3953123605197911 0.6846017421972124 0
-0.4818700378817519 0.7270320523146426 0
-0.5614559842568674 0.6675818455428685 0
-0.5736146893490396 0.7634939889465634 0
-0.6508895968547563 0.7101762009003517 0
-0.6662022933097409 0.7964011428898072 0
-0.7433562926008904 0.7459352590221378 0
-0.729147043827548 0.645313445622839 0
-0.4070652003716033 0.7782195404800085 0
0.2641302048423484 0.7454630847927992 0
0.3668221468483899 0.7256200094859776 0
-0.2641302048423484 -0.7454630847927992 0
-0.3668221468483899 -0.7256200094859775 0
0.5465845213992574 0.5709451706455511 0
0.5616537801638025 0.6666920186874586 0
0.6385985514193168 0.6132105502678742 0
0.6527866211680582 0.7070507737067164 0
0.7336997386331251 0.6506725611111874 0
0.7482364637914616 0.7553411117431181 0
0.6718355954079916 0.8008960811896497 0
0.4709682848894994 0.7184172391674959 0
0.7096857188294925 0.544124766892203 0
-0.5465845213992574 -0.5709451706455511 0
-0.5616537801638025 -0.6666920186874586 0
-0.6385985514193169 -0.6132105502678745 0
-0.652786621168058 -0.7070507737067168 0
-0.733699738633125 -0.6506725611111879 0
-0.7482364637914616 -0.7553411117431188 0
-0.6718355954079918 -0.8008960811896502 0
-0.4709682848894993 -0.7184172391674957 0
-0.7096857188294927 -0.5441247668922035 0
-0.6848564183549581 0.3741157832920801 0
-0.7420882339907059 0.4618516054211361 0
-0.7920284550219514 0.3584676813762287 0
-0.8307579771027158 0.2636151264546892 0
0.6848564183549581 -0.3741157832920801 0
0.7420882339907059 -0.461851605421136 0
0.7920284550219514 -0.3584676813762286 0
0.8307579771027159 -0.2636151264546892 0
0.7604550217804387 0.176102385002019 0
0.8383728367349481 0.2426680944519445 0
0.7864920007961144 0.3550411002819562 0
0.7941141975145966 0.08042653857424228 0
-0.7604550217804387 -0.1761023850020191 0
-0.8383728367349481 -0.2426680944519446 0
-0.7864920007961144 -0.3550411002819566 0
-0.7941141975145966 -0.08042653857424228 0
-0.7697777457608219 0.171003589716029 0
0.7697777457608217 -0.171003589716029 0
0.2321278562188939 0.8427048694844932 0
-0.232127856218894 -0.8427048694844932 0
0.8158061517710014 0.5945791368782954 0
0.819040768594187 0.5038755342197441 0
-0.8158061517710015 -0.5945791368782962 0
-0.8190407685941872 -0.5038755342197446 0
-0.5641219530136992 0.5632376768687181 0
0.5641219530136992 -0.5632376768687181 0
0.6860086827078781 0.3771483119874066 0
-0.6860086827078781 -0.3771483119874068 0
-0.1387621046240034 0.8605611623129898 0
0.1387621046240033 -0.8605611623129898 0
-0.9267176677722044 0.8530056004418907 0
0.9267176677722041 -0.8530056004418906 0
0.8994683996519619 0.3420698111803362 0
-0.8994683996519619 -0.3420698111803364 0
0.3409455184101271 0.8097056315355547 0
0.426470910745294 0.8607986146139242 0
-0.3409455184101273 -0.8097056315355547 0
-0.426470910745294 -0.8607986146139239 0
0.9184878630195663 -0.7541456529063095 0
0.8355964638216721 -0.8147651201211831 0
-0.9184878630195665 0.7541456529063093 0
-0.8355964638216729 0.8147651201211831 0
0.6674355182552794 -0.5620155563915187 0
-0.6674355182552795 0.5620155563915186 0
-0.9153882726071896 -0.7537638397448552 0
-0.8377549077395408 -0.8043137406493279 0
0.9153882726071898 0.7537638397448549 0
0.8377549077395405 0.8043137406493275 0
-0.6358418068578997 -0.9241474181826805 0
0.6358418068578996 0.9241474181826805 0
0.63540600922139 -0.9279322181297107 0
-0.63540600922139 0.9279322181297109 0
0.5741294381664157 0.7592198532753196 0
-0.5741294381664157 -0.7592198532753196 0
0.4888622634606748 -0.8295397062304755 0
-0.4888622634606749 0.8295397062304755 0
-0.832958778297809 0.7060888562939742 0
-0.826100326981825 0.6021235374828041 0
-0.9133689244850847 0.5497173003635916 0
0.8329587782978088 -0.7060888562939739 0
0.8261003269818249 -0.602123537482804 0
0.9133689244850844 -0.5497173003635913 0
0.8486862406380373 0.8923139263737412 0
-0.8486862406380374 -0.8923139263737414 0
0.9100905716085511 0.5495851701595369 0
-0.9100905716085512 -0.5495851701595372 0
0.9204803877981794 -0.05180572639563908 0
0.9021950726098689 0.06269859962169301 0
-0.9204803877981798 0.051805726395639 0
-0.9021950726098689 -0.06269859962169307 0
0.9006257918166841 -0.3489515283274672 0
-0.900625791816684 0.3489515283274673 0
0.8068670968758811 0.9454752742387229 0
-0.8068670968758813 -0.945475274238723 0
-0.8135749251270005 0.9509998917159607 0
0.8135749251269996 -0.9509998917159607 0
0.4412497187595079 -0.920722414284061 0
-0.4412497187595081 0.920722414284061 0
-0.04228911461833344 -0.906006397536123 0
0.04228911461833341 0.9060063975361229 0
-0.8286636093562241 -0.7019073917411737 0
0.8286636093562242 0.7019073917411731 0
-0.9395963536208113 0.9445398606340136 0
0.9395963536208108 -0.9445398606340132 0
-0.832240429078822 0.5064118492965382 0
0.8322404290788219 -0.506411849296538 0
-0.7519171257239666 0.8400984519545276 0
0.7519171257239661 -0.8400984519545275 0
-0.897279943556329 -0.9665303966768072 0
-0.9235463350276705 -0.983971221956889 0
0.897279943556329 0.9665303966768075 0
0.9235463350276705 0.9839712219568891 0
-0.2402137164908774 0.9116232696960452 0
0.2402137164908772 -0.9116232696960452 0
0.7699719826048683 0.8592450133501093 0
-0.769971982604869 -0.8592450133501105 0
0.9186506036664476 -0.2446776501970687 0
-0.9186506036664475 0.2446776501970687 0
-0.9311654897420253 -0.2502680408636935 0
0.9311654897420253 0.2502680408636934 0
-0.2420730615611545 -0.9351743492113602 0
0.2420730615611545 0.9351743492113602 0
0.5002381059767105 0.8131172742244426 0
-0.5002381059767105 -0.8131172742244425 0
-0.759402310426836 0.5555431988429671 0
0.7594023104268359 -0.5555431988429671 0
-0.8001684636720484 0.8915983685300966 0
0.8001684636720476 -0.8915983685300966 0
-0.9143450382604068 -1.008512498441779 0
-0.9219689730465724 -1.023588366753694 0
0.9143450382604068 1.00851249844178 0
0.9219689730465724 1.023588366753694 0
0.3269442595283679 -0.8299847980385088 0
-0.3269442595283683 0.8299847980385088 0
-0.6006234294579531 -0.846308829962424 0
0.6006234294579531 0.8463088299624238 0
-0.5953764212511595 0.8500408794764571 0
0.5953764212511594 -0.8500408794764571 0
-0.8424480398801109 0.002789306345339318 0
0.8424480398801109 -0.002789306345339527 0
0.4203063654937819 0.7838893276316415 0
-0.4203063654937819 -0.7838893276316413 0
0.1138748717394751 0.8376123807762155 0
-0.1138748717394751 -0.8376123807762155 0
-0.7476029790686112 -0.4437987158799051 0
0.7476029790686112 0.4437987158799047 0
0.8921923595410711 0.9176702441875261 0
-0.892192359541071 -0.9176702441875267 0
-0.8427650313088254 0.1103424520686476 0
0.8427650313088252 -0.1103424520686477 0
-0.4358526635311474 -0.937960816779091 0
0.4358526635311474 0.937960816779091 0
-0.8566063065821237 0.1880158005980691 0
0.8566063065821237 -0.1880158005980691 0
-0.8384179997077862 -0.4190280646829216 0
0.8384179997077865 0.4190280646829208 0
-0.6310008672818943 0.631418622874183 0
0.631000867281894 -0.631418622874183 0
-0.1462499999983254 0.9413868112822397 0
0.1462499999983254 -0.94138681128224 0
-0.8363307182524006 0.4255696865314746 0
0.8363307182524006 -0.4255696865314745 0
-0.9474517970307174 -1.008877487894936 0
-0.9607648237511508 -0.9649932310387557 0
0.9474517970307172 1.008877487894937 0
0.9607648237511509 0.9649932310387557 0
0.9591244155739455 -1.00145451698669 0
0.9212876760636474 -1.015706819827564 0
-0.9591244155739453 1.00145451698669 0
-0.9212876760636474 1.015706819827564 0
-0.8410590980424173 -0.1451260264411839 0
0.8410590980424173 0.1451260264411838 0
-0.03854976506190771 0.8539899855686355 0
0.03854976506190767 -0.8539899855686355 0
-0.6819045628657634 -0.8727850343633959 0
0.6819045628657631 0.8727850343633956 0
-0.3963497538812435 0.8578281357821355 0
0.3963497538812427 -0.8578281357821355 0
0.3390119733039375 -0.7376501727306404 0
-0.3390119733039376 0.7376501727306405 0
0.6148057002413782 0.5352887231097581 0
-0.6148057002413783 -0.5352887231097582 0
0.09570780901565136 0.7639192244437054 0
-0.09570780901565155 -0.7639192244437053 0
0.4000788370412912 0.6568184050690387 0
-0.4000788370412912 -0.6568184050690387 0
0.7647725208488625 0.01885994369265969 0
-0.7647725208488625 -0.01885994369265971 0
-0.6825297279514608 0.8695912907837058 0
0.6825297279514606 -0.8695912907837056 0
2 2 0 166
427
428
429
430
431
432
433
434
435
436
437
438
439
440
441
442
443
444
445
446
447
448
449
450
451
452
453
454
455
456
457
458
459
460
461
462
463
464
465
466
467
468
469
470
471
472
473
474
475
476
477
478
479
480
481
482
483
484
485
486
487
488
489
490
491
492
493
494
495
496
497
498
499
500
501
502
503
504
505
506
507
508
509
510
511
512
513
514
515
516
517
518
519
520
521
522
523
524
525
526
527
528
529
530
531
532
533
534
535
536
537
538
539
540
541
542
543
544
545
546
547
548
549
550
551
552
553
554
555
556
557
558
559
560
561
562
563
564
565
566
567
568
569
570
571
572
573
574
575
576
577
578
579
580
581
582
583
584
585
586
587
588
589
590
591
592
0.3623862630180059 0.5083174057249206 0
-0.3632385215373978 -0.4853546389468506 0
0.4922549066832549 -0.3744093451215967 0
-0.4811196338335677 0.3638704445402217 0
0.1300309318071237 -0.5977425448855386 0
-0.5997590343886801 -0.1294935954605988 0
-0.1330127892215693 0.5957286374197218 0
0.6075611326545591 0.04311997368625042 0
0.5368958247445001 0.2931673013927594 0
-0.1298673906902147 -0.5975065772848667 0
-0.6046748157699959 0.1443997472922555 0
0.1349804019480606 0.5980235272666055 0
0.3627198593651352 -0.4849723995917371 0
-0.489708942229177 -0.3665915237267295 0
-0.3794123531433873 0.4954678110330247 0
0.5827989343905845 -0.210986707786379 0
0.03598037811346397 -0.618771267394381 0
0.06201167225931563 -0.5283905768214197 0
0.1575352604029453 -0.5027620119357847 0
0.08860681286536055 -0.432295644226666 0
0.1903541681875592 -0.4039870610566936 0
0.121736481547895 -0.3318315083639636 0
0.02013798062245632 -0.3595937251981136 0
0.04821234806657752 -0.26295932817933 0
0.1489968645953879 -0.2334468185318044 0
0.07562374798461596 -0.1664052509335567 0
-0.02203884013573983 -0.1917548433267081 0
0.005311367184539503 -0.09558674692775534 0
0.102168494835301 -0.07116163834149472 0
0.03248287371486751 0.0003658665860023138 0
-0.06438365931862783 -0.02406702648366667 0
-0.03712222759954312 0.0719845500870234 0
0.05972010201302436 0.0963902547776221 0
-0.1339753406518058 0.04756685343161116 0
-0.106696684751477 0.1436374565806069 0
-0.1612600454137209 -0.04851045994521462 0
-0.2035453228775219 0.1192247618094828 0
-0.1762624180264045 0.2153000716248075 0
-0.07941650956191257 0.239709731892663 0
-0.1489795573161201 0.3113753311281739 0
-0.05213365619175137 0.3357849830227507 0
-0.2731092393946504 0.1908893974791331 0
-0.3003926258224848 0.09481355395954345 0
-0.369955352270001 0.1664795103752279 0
-0.3972388692046135 0.07040352209829234 0
0.01742881554683582 0.2641187437795866 0
0.04471216055498817 0.3601945411098754 0
0.1142746799667222 0.2885283548428867 0
0.1415581766210599 0.384604320652745 0
0.2111206675076725 0.3129381026788041 0
-0.3276763784973783 -0.00126269601288953 0
0.1838371465393189 0.2168621098260562 0
0.2806831538170417 0.2412718795868473 0
0.2533996320812457 0.1451958858621205 0
0.3502456425243281 0.1696056591415985 0
0.3229621211862932 0.07352966586361494 0
-0.4245224282361611 -0.02567251291485754 0
-0.3549599445291277 -0.09733873881656749 0
-0.02485029716549462 0.4318607960267086 0
0.4198081322188055 0.0979394397987598 0
0.3925246110288856 0.001863446718980954 0
0.295678599851111 -0.02254632739616364 0
0.3652410898480138 -0.09421254634688561 0
-0.3419285367717799 0.2596063828382635 0
0.4617177149119119 -0.0683372293826025 0
0.2679007033583879 -0.1166608448712982 0
0.3379575687415863 -0.1902885392756208 0
0.3741989965779338 0.2666273480104293 0
-0.44756629436047 -0.1229524961952099 0
-0.3815368639450655 -0.1936154051295027 0
-0.2852796960992054 -0.1690384127294114 0
-0.3125435907766231 -0.2651199814905102 0
-0.2158239068826942 -0.240674334296467 0
-0.243191907171035 -0.3390975725663151 0
-0.1462383008312546 -0.3129057320959845 0
-0.1742456126520693 -0.41714048544267 0
-0.4790894896205147 -0.217824520064787 0
0.236053773480434 0.4067326753359303 0
-0.4502588980248329 0.2518691926790848 0
-0.4884261354084841 0.0443867240631852 0
-0.3387825738577434 -0.3642831070665302 0
0.1642766671616714 0.4958312710738498 0
0.2548739475792172 -0.4802026765472055 0
0.2897167260346888 -0.387034936693808 0
0.3925703458889606 -0.3826696377241475 0
0.3395998335997476 -0.2986713621155152 0
0.2214248945992096 -0.3096501750446985 0
-0.03251176934256865 -0.5557370071952505 0
-0.01154124434058873 -0.4609803368397197 0
-0.1061685590908585 -0.4928032800994609 0
-0.200703062859504 -0.5170188420346447 0
-0.2704361267856389 -0.4460030049010983 0
0.2684443583542859 0.4968016879408226 0
-0.07791360843300968 -0.3885587744280323 0
-0.04942591430574322 -0.2879290868922455 0
-0.1189639772313374 -0.2163407697069151 0
0.1719446155100994 -0.1395933362972792 0
0.1988464369522261 -0.04602202303167938 0
-0.4232522871833487 -0.3028208361155227 0
0.4331477007900436 -0.1739704071224703 0
-0.2457017444022906 0.286473972035789 0
-0.2173115114048363 0.3826157507027842 0
0.4928664743736003 0.02525697439855695 0
0.520886819187284 0.1165597745481488 0
0.5584778960603045 -0.047108682758058 0
0.1292700984866061 0.02471011729162977 0
-0.4619896421343902 0.1424821501220544 0
-0.5335043746525261 0.1956319942264402 0
-0.1214911121294664 0.4073801740904573 0
-0.1864838219023243 0.4813780230466485 0
-0.08943616342174049 0.5074356112822676 0
0.002433191498281688 0.5279367530795555 0
-0.009849229140493384 0.1680488443977509 0
0.07199568168019824 0.4562705340910345 0
0.2261184180277188 0.04927557147971726 0
-0.5285582552771406 -0.05976486514032548 0
-0.5956739838272876 0.04054801611114903 0
0.3046695004204848 0.3348438363275109 0
0.3993903692273011 0.355538026425242 0
0.08699418908903983 0.1924557363187807 0
-0.2308292776696149 0.02314828648283945 0
0.4582736928208151 0.2063564476455907 0
-0.2580927997360686 -0.07293286981316235 0
-0.3157275240358605 0.349778893512684 0
-0.1885209783980424 -0.1446137117105876 0
0.1565565977061589 0.1208149459259877 0
-0.09164268888548815 -0.1201455930168079 0
-0.2218647723192509 0.5700282272403884 0
0.2215972188786771 -0.573424882171289 0
-0.2893727827356865 0.4610797892615069 0
-0.4008046216932894 0.4008046200192499 0
0.5245104171454815 -0.1410641474410994 0
0.6073759197800559 0.13349410967946 0
-0.418435901080881 -0.4142739118754293 0
0.2479707467340698 -0.2147185126893694 0
0.5589511648103338 0.2053524142518096 0
-0.04584825624120287 0.6078031695897299 0
0.4917715327179734 0.3705614459185825 0
-0.5337889741850327 -0.295782212744964 0
-0.5740398237924842 -0.2140809632811614 0
0.5417330833305942 -0.2905298652455001 0
0.444215637350237 -0.2805959463902098 0
-0.2878838846184369 -0.5456205199589665 0
0.04543822394920728 0.6102788265026333 0
0.2273815220136712 0.5773623524567121 0
0.4270205176009057 0.440263243951316 0
-0.5495070057262654 0.2844730261414184 0
0.6111877590985619 -0.123589820462248 0
0.3016860217786113 -0.552843965412967 0
-0.3119777982536703 0.5504391392579048 0
-0.3979678428718661 0.3251859067179008 0
0.3329941303502362 0.4237494792842903 0
0.4465069340146211 -0.4465069321126482 0
0.4521060832177047 0.2984501138785207 0
-0.6233732565546793 -0.04966616630679917 0
0.08144362000432928 0.5350344997193286 0
-0.04548547230652957 -0.6359700047316561 0
-0.5232139668105942 -0.1533821511726391 0
0.6368192159348133 -0.04554620909030273 0
0.5052811546013881 -0.2194294147971317 0
-0.2224645833905003 -0.5966552940001111 0
-0.4518180079836281 0.4516961971095554 0
0.3054902445844338 0.5616202633694639 0
0.3883526917125472 -0.2397280182762295 0
-0.5333472930949879 0.1108097240882826 0
-0.599214734993792 0.2225016130315724 0
$EndNodes
$Elements
26 1182 1 1182
1 100 1 2
1 5 69 
2 69 6 
1 101 1 2
3 6 70 
4 70 7 
1 102 1 1
5 7 8 
1 103 1 2
6 8 71 
7 71 9 
1 104 1 2
8 9 72 
9 72 10 
1 105 1 16
10 10 73 
11 73 74 
12 74 75 
13 75 76 
14 76 77 
15 77 78 
16 78 79 
17 79 80 
18 80 81 
19 81 82 
20 82 83 
21 83 84 
22 84 85 
23 85 86 
24 86 87 
25 87 11 
1 106 1 2
26 11 88 
27 88 12 
1 107 1 2
28 12 89 
29 89 13 
1 108 1 1
30 13 14 
1 109 1 2
31 14 90 
32 90 15 
1 110 1 2
33 15 91 
34 91 16 
1 111 1 18
35 16 92 
36 92 93 
37 93 94 
38 94 95 
39 95 96 
40 96 97 
41 97 98 
42 98 99 
43 99 100 
44 100 101 
45 101 102 
46 102 103 
47 103 104 
48 104 105 
49 105 106 
50 106 107 
51 107 108 
52 108 17 
1 112 1 2
53 17 109 
54 109 18 
1 113 1 2
55 18 110 
56 110 19 
1 114 1 1
57 19 20 
1 115 1 2
58 20 111 
59 111 21 
1 116 1 2
60 21 112 
61 112 22 
1 117 1 16
62 22 113 
63 113 114 
64 114 115 
65 115 116 
66 116 117 
67 117 118 
68 118 119 
69 119 120 
70 120 121 
71 121 122 
72 122 123 
73 123 124 
74 124 125 
75 125 126 
76 126 127 
77 127 23 
1 118 1 2
78 23 128 
79 128 24 
1 119 1 2
80 24 129 
81 129 25 
1 120 1 1
82 25 26 
1 121 1 2
83 26 130 
84 130 27 
1 122 1 2
85 27 131 
86 131 28 
1 123 1 18
87 28 132 
88 132 133 
89 133 134 
90 134 135 
91 135 136 
92 136 137 
93 137 138 
94 138 139 
95 139 140 
96 140 141 
97 141 142 
98 142 143 
99 143 144 
100 144 145 
101 145 146 
102 146 147 
103 147 148 
104 148 5 
2 1 2 704
105 382 267 392 
106 381 271 391 
107 185 276 380 
108 186 275 379 
109 182 264 274 
110 181 260 273 
111 276 207 380 
112 275 208 379 
113 273 260 389 
114 274 264 390 
115 173 275 291 
116 174 276 293 
117 71 9 345 
118 111 21 347 
119 284 271 381 
120 283 267 382 
121 12 89 193 
122 24 129 195 
123 319 329 351 
124 320 330 352 
125 13 14 404 
126 25 26 406 
127 196 287 298 
128 194 288 296 
129 196 298 363 
130 194 296 364 
131 278 177 321 
132 280 178 322 
133 109 18 401 
134 69 6 399 
135 192 270 407 
136 191 266 408 
137 164 217 282 
138 163 228 281 
139 270 192 355 
140 266 191 356 
141 275 173 358 
142 276 174 357 
143 183 267 283 
144 184 271 284 
145 277 278 321 
146 279 280 322 
147 43 163 281 
148 63 164 282 
149 31 183 283 
150 51 184 284 
151 254 253 352 
152 245 244 351 
153 47 181 273 
154 67 182 274 
155 104 177 289 
156 144 178 290 
157 278 382 392 
158 280 381 391 
159 200 286 410 
160 199 285 409 
161 286 211 410 
162 285 209 409 
163 264 263 327 
164 260 259 328 
165 91 16 340 
166 131 28 339 
167 277 160 338 
168 279 159 337 
169 263 262 398 
170 259 258 397 
171 5 69 400 
172 17 109 402 
173 287 196 339 
174 288 194 340 
175 243 277 338 
176 252 279 337 
177 257 258 259 
178 261 262 263 
179 349 175 370 
180 350 176 369 
181 225 349 370 
182 214 350 369 
183 268 324 408 
184 272 326 407 
185 18 110 401 
186 6 70 399 
187 103 104 289 
188 143 144 290 
189 171 294 360 
190 172 292 359 
191 319 154 329 
192 320 153 330 
193 221 296 316 
194 232 298 313 
195 329 151 351 
196 330 152 352 
197 254 352 411 
198 245 351 412 
199 197 17 201 
200 198 5 202 
201 26 130 406 
202 14 90 404 
203 28 287 339 
204 16 288 340 
205 91 340 403 
206 131 339 405 
207 160 277 321 
208 159 279 322 
209 296 221 344 
210 298 232 343 
211 253 302 352 
212 244 304 351 
213 292 172 388 
214 294 171 387 
215 201 17 402 
216 202 5 400 
217 233 313 314 
218 222 316 317 
219 213 187 214 
220 224 188 225 
221 255 238 422 
222 246 236 421 
223 326 272 375 
224 324 268 376 
225 327 263 398 
226 328 259 397 
227 233 232 313 
228 222 221 316 
229 209 2 210 
230 211 4 212 
231 238 255 378 
232 236 246 377 
233 198 202 384 
234 197 201 383 
235 237 56 238 
236 235 36 236 
237 226 41 416 
238 215 61 415 
239 262 342 398 
240 258 341 397 
241 265 29 268 
242 269 49 272 
243 257 165 258 
244 261 166 262 
245 181 257 259 
246 182 261 263 
247 239 33 417 
248 248 53 418 
249 154 319 383 
250 153 320 384 
251 302 253 337 
252 304 244 338 
253 168 256 418 
254 167 247 417 
255 244 243 338 
256 253 252 337 
257 258 165 300 
258 262 166 299 
259 10 73 152 
260 22 113 151 
261 127 23 149 
262 87 11 150 
263 187 211 286 
264 188 209 285 
265 22 151 329 
266 10 152 330 
267 276 237 293 
268 275 235 291 
269 256 168 381 
270 247 167 382 
271 210 336 409 
272 212 335 410 
273 324 191 408 
274 326 192 407 
275 60 187 213 
276 40 188 224 
277 336 210 379 
278 335 212 380 
279 59 4 211 
280 39 2 209 
281 207 276 357 
282 208 275 358 
283 37 36 235 
284 57 56 237 
285 42 41 226 
286 62 61 215 
287 44 43 281 
288 64 63 282 
289 34 33 239 
290 54 53 248 
291 32 31 283 
292 52 51 284 
293 48 47 273 
294 68 67 274 
295 50 49 269 
296 30 29 265 
297 45 165 257 
298 65 166 261 
299 181 46 257 
300 182 66 261 
301 94 95 318 
302 134 135 315 
303 317 318 342 
304 314 315 341 
305 93 158 295 
306 133 157 297 
307 41 224 416 
308 61 213 415 
309 28 132 287 
310 16 92 288 
311 71 345 346 
312 111 347 348 
313 33 167 417 
314 53 168 418 
315 281 228 393 
316 282 217 394 
317 174 293 294 
318 173 291 292 
319 148 5 198 
320 108 17 197 
321 177 278 392 
322 178 280 391 
323 295 158 316 
324 297 157 313 
325 296 295 316 
326 298 297 313 
327 170 312 334 
328 169 311 333 
329 225 285 349 
330 214 286 350 
331 290 178 391 
332 289 177 392 
333 95 179 318 
334 135 180 315 
335 213 214 369 
336 224 225 370 
337 159 147 301 
338 160 107 303 
339 158 94 318 
340 157 134 315 
341 214 187 286 
342 225 188 285 
343 237 238 293 
344 235 236 291 
345 285 199 395 
346 286 200 396 
347 74 171 305 
348 114 172 306 
349 169 86 307 
350 170 126 308 
351 264 327 353 
352 260 328 354 
353 212 4 420 
354 210 2 419 
355 181 259 260 
356 182 263 264 
357 236 36 421 
358 238 56 422 
359 303 304 338 
360 301 302 337 
361 268 29 423 
362 272 49 424 
363 2 38 419 
364 4 58 420 
365 36 35 421 
366 56 55 422 
367 287 297 298 
368 288 295 296 
369 317 342 362 
370 314 341 361 
371 159 301 337 
372 160 303 338 
373 29 1 423 
374 49 3 424 
375 242 245 309 
376 251 254 310 
377 270 269 407 
378 266 265 408 
379 227 234 312 
380 216 223 311 
381 186 235 275 
382 185 237 276 
383 249 251 310 
384 240 242 309 
385 216 215 223 
386 227 226 234 
387 242 244 245 
388 251 253 254 
389 188 39 209 
390 187 59 211 
391 163 226 227 
392 164 215 216 
393 218 216 311 
394 229 227 312 
395 255 249 310 
396 246 240 309 
397 186 37 235 
398 185 57 237 
399 161 249 255 
400 162 240 246 
401 217 216 218 
402 228 227 229 
403 40 39 188 
404 60 59 187 
405 38 37 186 
406 58 57 185 
407 163 42 226 
408 164 62 215 
409 161 248 249 
410 162 239 240 
411 41 40 224 
412 61 60 213 
413 251 252 253 
414 242 243 244 
415 340 203 403 
416 339 204 405 
417 240 241 242 
418 249 250 251 
419 219 218 220 
420 230 229 231 
421 163 227 228 
422 164 216 217 
423 43 42 163 
424 63 62 164 
425 35 34 162 
426 55 54 161 
427 349 285 395 
428 350 286 396 
429 162 34 239 
430 161 54 248 
431 165 44 281 
432 166 64 282 
433 165 281 300 
434 166 282 299 
435 240 239 241 
436 249 248 250 
437 92 93 295 
438 132 133 297 
439 101 191 324 
440 141 192 326 
441 146 159 322 
442 106 160 321 
443 217 218 219 
444 228 229 230 
445 190 99 323 
446 189 139 325 
447 323 100 324 
448 325 140 326 
449 100 101 324 
450 140 141 326 
451 98 99 190 
452 138 139 189 
453 101 102 191 
454 141 142 192 
455 179 96 327 
456 180 136 328 
457 177 105 321 
458 178 145 322 
459 95 96 179 
460 135 136 180 
461 104 105 177 
462 144 145 178 
463 93 94 158 
464 133 134 157 
465 106 107 160 
466 146 147 159 
467 99 100 323 
468 139 140 325 
469 96 97 327 
470 136 137 328 
471 105 106 321 
472 145 146 322 
473 33 32 167 
474 53 52 168 
475 45 44 165 
476 65 64 166 
477 46 45 257 
478 66 65 261 
479 31 30 183 
480 51 50 184 
481 47 46 181 
482 67 66 182 
483 184 270 271 
484 183 266 267 
485 167 32 283 
486 168 52 284 
487 1 68 205 
488 3 48 206 
489 183 30 265 
490 184 50 269 
491 206 48 273 
492 205 68 274 
493 267 266 289 
494 271 270 290 
495 183 265 266 
496 184 269 270 
497 219 220 221 
498 230 231 232 
499 251 250 252 
500 242 241 243 
501 303 197 304 
502 301 198 302 
503 279 256 280 
504 277 247 278 
505 243 247 277 
506 252 256 279 
507 74 75 171 
508 114 115 172 
509 85 86 169 
510 125 126 170 
511 109 401 402 
512 69 399 400 
513 84 85 333 
514 124 125 334 
515 252 250 256 
516 243 241 247 
517 76 77 174 
518 116 117 173 
519 83 84 176 
520 123 124 175 
521 147 148 301 
522 107 108 303 
523 78 79 207 
524 118 119 208 
525 79 80 335 
526 119 120 336 
527 80 81 200 
528 120 121 199 
529 230 232 233 
530 219 221 222 
531 85 169 333 
532 125 170 334 
533 171 360 371 
534 172 359 372 
535 176 84 333 
536 175 124 334 
537 314 157 315 
538 317 158 318 
539 207 79 335 
540 208 119 336 
541 80 200 335 
542 120 199 336 
543 73 74 305 
544 113 114 306 
545 86 87 307 
546 126 127 308 
547 316 158 317 
548 313 157 314 
549 315 180 341 
550 318 179 342 
551 306 372 412 
552 305 371 411 
553 258 300 361 
554 262 299 362 
555 371 254 411 
556 372 245 412 
557 302 198 320 
558 304 197 319 
559 103 289 356 
560 143 290 355 
561 222 299 394 
562 233 300 393 
563 323 376 386 
564 325 375 385 
565 299 222 362 
566 300 233 361 
567 232 231 343 
568 221 220 344 
569 149 23 331 
570 150 11 332 
571 287 132 297 
572 288 92 295 
573 148 198 301 
574 108 197 303 
575 333 311 414 
576 334 312 413 
577 123 175 349 
578 83 176 350 
579 328 137 354 
580 327 97 353 
581 138 189 354 
582 98 190 353 
583 196 195 339 
584 194 193 340 
585 224 370 416 
586 213 369 415 
587 174 77 357 
588 173 117 358 
589 78 207 357 
590 118 208 358 
591 192 142 355 
592 191 102 356 
593 27 131 405 
594 15 91 403 
595 375 206 385 
596 376 205 386 
597 312 170 373 
598 311 169 374 
599 174 294 387 
600 173 292 388 
601 72 10 330 
602 112 22 329 
603 161 255 422 
604 162 246 421 
605 229 312 373 
606 218 311 374 
607 300 281 393 
608 299 282 394 
609 149 331 363 
610 150 332 364 
611 171 75 387 
612 172 115 388 
613 116 173 388 
614 76 174 387 
615 130 27 405 
616 90 15 403 
617 233 314 361 
618 222 317 362 
619 219 222 394 
620 230 233 393 
621 256 250 418 
622 247 241 417 
623 21 112 154 
624 9 72 153 
625 128 24 155 
626 88 12 156 
627 82 83 350 
628 122 123 349 
629 200 81 396 
630 199 121 395 
631 271 290 391 
632 267 289 392 
633 311 223 414 
634 312 234 413 
635 102 103 356 
636 142 143 355 
637 204 129 406 
638 203 89 404 
639 137 138 354 
640 97 98 353 
641 193 89 203 
642 195 129 204 
643 185 380 420 
644 186 379 419 
645 336 199 409 
646 335 200 410 
647 289 266 356 
648 290 270 355 
649 305 171 371 
650 306 172 372 
651 169 307 374 
652 170 308 373 
653 353 190 390 
654 354 189 389 
655 343 149 363 
656 344 150 364 
657 77 78 357 
658 117 118 358 
659 347 154 383 
660 345 153 384 
661 7 8 366 
662 19 20 368 
663 246 309 359 
664 255 310 360 
665 179 327 398 
666 180 328 397 
667 342 262 362 
668 341 258 361 
669 309 245 372 
670 310 254 371 
671 168 284 381 
672 167 283 382 
673 152 73 305 
674 151 113 306 
675 87 150 307 
676 127 149 308 
677 368 367 401 
678 366 365 399 
679 298 343 363 
680 296 344 364 
681 291 236 377 
682 293 238 378 
683 11 88 332 
684 23 128 331 
685 231 229 373 
686 220 218 374 
687 190 323 386 
688 189 325 385 
689 231 373 425 
690 220 374 426 
691 304 319 351 
692 302 320 352 
693 82 350 396 
694 122 349 395 
695 373 308 425 
696 374 307 426 
697 292 291 377 
698 294 293 378 
699 360 310 371 
700 359 309 372 
701 320 198 384 
702 319 197 383 
703 325 326 375 
704 323 324 376 
705 331 196 363 
706 332 194 364 
707 208 336 379 
708 207 335 380 
709 264 353 390 
710 260 354 389 
711 209 210 409 
712 211 212 410 
713 278 247 382 
714 280 256 381 
715 269 272 407 
716 265 268 408 
717 206 273 385 
718 205 274 386 
719 75 76 387 
720 115 116 388 
721 155 196 331 
722 156 194 332 
723 217 219 394 
724 228 230 393 
725 121 122 395 
726 81 82 396 
727 347 201 348 
728 345 202 346 
729 359 292 377 
730 360 294 378 
731 246 359 377 
732 255 360 378 
733 176 333 414 
734 175 334 413 
735 38 186 419 
736 58 185 420 
737 223 215 415 
738 234 226 416 
739 35 162 421 
740 55 161 422 
741 1 205 423 
742 3 206 424 
743 341 180 397 
744 342 179 398 
745 241 239 417 
746 250 248 418 
747 21 154 347 
748 9 153 345 
749 150 344 426 
750 149 343 425 
751 155 24 195 
752 156 12 193 
753 151 306 412 
754 152 305 411 
755 307 150 426 
756 308 149 425 
757 343 231 425 
758 344 220 426 
759 376 268 423 
760 375 272 424 
761 367 348 401 
762 365 346 399 
763 369 223 415 
764 370 234 416 
765 128 155 331 
766 88 156 332 
767 8 71 365 
768 20 111 367 
769 201 347 383 
770 202 345 384 
771 380 212 420 
772 379 210 419 
773 348 201 402 
774 346 202 400 
775 385 273 389 
776 386 274 390 
777 189 385 389 
778 190 386 390 
779 370 175 413 
780 369 176 414 
781 195 204 339 
782 193 203 340 
783 153 72 330 
784 154 112 329 
785 351 151 412 
786 352 152 411 
787 223 369 414 
788 234 370 413 
789 8 365 366 
790 20 367 368 
791 206 375 424 
792 205 376 423 
793 155 195 196 
794 156 193 194 
795 70 366 399 
796 110 368 401 
797 401 348 402 
798 399 346 400 
799 130 405 406 
800 90 403 404 
801 403 203 404 
802 405 204 406 
803 70 7 366 
804 89 13 404 
805 110 19 368 
806 129 25 406 
807 71 346 365 
808 111 348 367 
2 2 2 374
809 505 430 573 
810 512 493 561 
811 513 512 561 
812 430 505 577 
813 525 503 565 
814 448 447 513 
815 440 525 565 
816 509 439 510 
817 510 439 511 
818 53 54 560 
819 507 428 518 
820 512 511 568 
821 433 536 537 
822 435 548 562 
823 548 435 580 
824 529 434 530 
825 536 433 554 
826 451 448 513 
827 48 3 543 
828 30 31 562 
829 437 48 543 
830 537 538 563 
831 428 507 560 
832 536 554 556 
833 511 429 568 
834 550 556 557 
835 556 554 576 
836 556 441 557 
837 433 537 563 
838 438 508 571 
839 447 510 513 
840 516 502 517 
841 517 502 518 
842 525 440 560 
843 434 529 531 
844 534 505 573 
845 54 428 560 
846 440 53 560 
847 507 525 560 
848 500 507 518 
849 545 572 578 
850 508 438 582 
851 502 516 520 
852 31 435 562 
853 502 500 518 
854 572 427 578 
855 530 434 559 
856 559 30 562 
857 436 514 516 
858 516 515 520 
859 508 519 571 
860 512 568 590 
861 446 449 515 
862 436 516 517 
863 517 518 569 
864 515 449 520 
865 510 511 512 
866 444 446 515 
867 565 503 566 
868 432 542 581 
869 451 513 561 
870 501 520 521 
871 510 512 513 
872 518 428 569 
873 563 538 570 
874 433 40 554 
875 40 41 554 
876 501 502 520 
877 520 449 521 
878 521 453 522 
879 501 521 522 
880 450 453 521 
881 455 523 524 
882 523 492 524 
883 455 452 523 
884 522 453 553 
885 453 454 553 
886 455 524 532 
887 62 63 439 
888 52 53 440 
889 42 43 441 
890 1 29 434 
891 537 485 538 
892 59 60 431 
893 49 50 432 
894 39 40 433 
895 538 485 540 
896 535 485 537 
897 456 455 532 
898 489 493 526 
899 542 506 543 
900 31 32 435 
901 496 503 525 
902 529 491 531 
903 467 485 535 
904 500 498 507 
905 463 464 468 
906 506 471 533 
907 470 468 490 
908 497 496 498 
909 470 490 505 
910 491 489 526 
911 486 482 487 
912 487 491 529 
913 487 488 489 
914 489 492 493 
915 487 482 488 
916 499 498 500 
917 487 489 491 
918 460 461 463 
919 466 467 535 
920 532 524 541 
921 508 504 519 
922 527 466 528 
923 488 482 541 
924 546 459 552 
925 475 504 508 
926 484 496 497 
927 497 498 499 
928 469 468 470 
929 533 505 534 
930 463 468 469 
931 464 466 527 
932 478 546 552 
933 484 495 496 
934 481 480 482 
935 524 488 541 
936 458 459 539 
937 457 460 462 
938 454 457 553 
939 489 488 492 
940 501 500 502 
941 539 459 546 
942 463 461 464 
943 467 472 473 
944 486 487 529 
945 467 465 472 
946 473 475 540 
947 457 458 460 
948 483 471 506 
949 498 496 525 
950 504 476 544 
951 459 456 532 
952 475 508 540 
953 481 482 486 
954 475 476 504 
955 470 505 533 
956 499 500 501 
957 485 473 540 
958 466 465 467 
959 482 480 541 
960 461 458 539 
961 460 458 461 
962 473 474 475 
963 463 469 547 
964 462 460 547 
965 477 484 549 
966 64 65 429 
967 465 461 539 
968 547 477 549 
969 507 498 525 
970 496 495 503 
971 468 464 527 
972 472 465 539 
973 54 55 428 
974 473 472 474 
975 462 547 549 
976 483 506 542 
977 471 470 533 
978 464 461 465 
979 464 465 466 
980 458 456 459 
981 467 473 485 
982 469 470 471 
983 460 463 547 
984 44 45 430 
985 490 468 527 
986 544 494 545 
987 479 478 480 
988 528 466 535 
989 476 479 544 
990 479 481 494 
991 484 483 495 
992 477 483 484 
993 469 477 547 
994 480 478 552 
995 459 532 552 
996 475 474 476 
997 479 480 481 
998 476 474 478 
999 476 478 479 
1000 532 541 552 
1001 492 488 524 
1002 528 535 536 
1003 457 456 458 
1004 479 494 544 
1005 490 527 550 
1006 536 535 537 
1007 551 522 553 
1008 472 539 546 
1009 462 551 553 
1010 481 486 548 
1011 499 501 522 
1012 474 472 546 
1013 477 471 483 
1014 484 497 549 
1015 478 474 546 
1016 469 471 477 
1017 495 483 542 
1018 66 67 442 
1019 494 481 548 
1020 457 462 553 
1021 486 529 530 
1022 486 530 548 
1023 527 528 550 
1024 497 499 551 
1025 57 58 436 
1026 47 48 437 
1027 541 480 552 
1028 549 497 551 
1029 499 522 551 
1030 462 549 551 
1031 37 38 438 
1032 454 456 457 
1033 34 35 427 
1034 454 455 456 
1035 454 452 455 
1036 453 452 454 
1037 452 451 523 
1038 450 452 453 
1039 450 451 452 
1040 449 450 521 
1041 450 448 451 
1042 449 448 450 
1043 447 509 510 
1044 446 448 449 
1045 447 445 509 
1046 446 447 448 
1047 542 432 584 
1048 514 515 516 
1049 446 445 447 
1050 514 444 515 
1051 444 445 446 
1052 548 530 562 
1053 437 543 591 
1054 443 444 514 
1055 444 431 445 
1056 509 445 555 
1057 431 60 555 
1058 60 61 555 
1059 550 528 556 
1060 543 3 581 
1061 439 509 575 
1062 491 526 558 
1063 568 526 590 
1064 526 568 586 
1065 523 451 561 
1066 493 492 561 
1067 427 519 578 
1068 534 437 591 
1069 542 543 581 
1070 490 550 577 
1071 519 504 578 
1072 544 545 578 
1073 445 431 555 
1074 494 548 580 
1075 528 536 556 
1076 540 508 582 
1077 495 542 584 
1078 543 506 591 
1079 533 534 591 
1080 531 558 574 
1081 531 491 558 
1082 29 30 559 
1083 434 29 559 
1084 443 431 444 
1085 429 567 568 
1086 514 436 583 
1087 550 557 577 
1088 570 538 582 
1089 493 512 590 
1090 511 439 579 
1091 429 511 579 
1092 566 503 584 
1093 492 523 561 
1094 568 567 586 
1095 531 574 585 
1096 437 534 592 
1097 2 39 563 
1098 4 59 443 
1099 32 33 564 
1100 59 431 443 
1101 39 433 563 
1102 435 32 564 
1103 52 440 565 
1104 432 50 566 
1105 50 51 566 
1106 51 52 565 
1107 38 2 570 
1108 55 56 569 
1109 65 66 567 
1110 429 65 567 
1111 428 55 569 
1112 66 442 567 
1113 438 38 570 
1114 36 37 571 
1115 37 438 571 
1116 34 427 572 
1117 45 46 573 
1118 434 531 585 
1119 33 34 572 
1120 441 556 576 
1121 430 45 573 
1122 442 67 574 
1123 41 42 576 
1124 436 517 587 
1125 519 427 589 
1126 557 430 577 
1127 439 63 579 
1128 64 429 579 
1129 3 49 581 
1130 509 555 575 
1131 61 62 575 
1132 62 439 575 
1133 436 58 583 
1134 1 434 585 
1135 57 436 587 
1136 441 43 588 
1137 44 430 588 
1138 545 564 572 
1139 47 437 592 
1140 427 35 589 
1141 67 68 574 
1142 42 441 576 
1143 567 442 586 
1144 554 41 576 
1145 443 514 583 
1146 505 490 577 
1147 517 569 587 
1148 504 544 578 
1149 564 545 580 
1150 63 64 579 
1151 526 493 590 
1152 530 559 562 
1153 545 494 580 
1154 558 526 586 
1155 49 432 581 
1156 557 441 588 
1157 430 557 588 
1158 558 442 574 
1159 555 61 575 
1160 2 563 570 
1161 51 565 566 
1162 564 33 572 
1163 438 570 582 
1164 538 540 582 
1165 58 4 583 
1166 503 495 584 
1167 68 1 585 
1168 435 564 580 
1169 571 519 589 
1170 56 57 587 
1171 43 44 588 
1172 35 36 589 
1173 573 46 592 
1174 4 443 583 
1175 506 533 591 
1176 46 47 592 
1177 569 56 587 
1178 534 573 592 
1179 36 571 589 
1180 432 566 584 
1181 442 558 586 
1182 574 68 585 
$EndElements
