$MeshFormat
4.1 0 8
$EndMeshFormat
$Entities
28 24 1 0
100 -1 -0.9 0 0 
101 -1 -1.15 0 0 
102 -0.9 -1.15 0 0 
103 -0.9 -1.05 0 0 
104 -0.85 -1 0 0 
105 -0.75 -1 0 0 
106 0.75 -1 0 0 
107 0.85 -1 0 0 
108 0.9 -1.05 0 0 
109 0.9 -1.15 0 0 
110 1 -1.15 0 0 
111 1 -0.9 0 0 
112 1 0.9 0 0 
113 1 1.15 0 0 
114 0.9 1.15 0 0 
115 0.9 1.05 0 0 
116 0.85 1 0 0 
117 0.75 1 0 0 
118 -0.75 1 0 0 
119 -0.85 1 0 0 
120 -0.9 1.05 0 0 
121 -0.9 1.15 0 0 
122 -1 1.15 0 0 
123 -1 0.9 0 0 
1001 -0.85 -1.05 0 0 
1002 0.85 -1.05 0 0 
1003 0.85 1.05 0 0 
1004 -0.85 1.05 0 0 
100 -1 -1.15 0 -1 -0.9 0 1 5 2 100 -101 
101 -1 -1.15 0 -0.9 -1.15 0 1 1 2 101 -102 
102 -0.9 -1.15 0 -0.9 -1.05 0 1 5 2 102 -103 
103 -0.9 -1.05 0 -0.85 -1 0 1 5 2 103 -104 
104 -0.85 -1 0 -0.75 -1 0 1 5 2 104 -105 
105 -0.75 -1 0 0.75 -1 0 1 5 2 105 -106 
106 0.75 -1 0 0.85 -1 0 1 5 2 106 -107 
107 0.85 -1.05 0 0.9 -1 0 1 5 2 107 -108 
108 0.9 -1.15 0 0.9 -1.05 0 1 5 2 108 -109 
109 0.9 -1.15 0 1 -1.15 0 1 2 2 109 -110 
110 1 -1.15 0 1 -0.9 0 1 5 2 110 -111 
111 1 -0.9 0 1 0.9 0 1 5 2 111 -112 
112 1 0.9 0 1 1.15 0 1 5 2 112 -113 
113 0.9 1.15 0 1 1.15 0 1 3 2 113 -114 
114 0.9 1.05 0 0.9 1.15 0 1 5 2 114 -115 
115 0.85 1 0 0.9 1.05 0 1 5 2 115 -116 
116 0.75 1 0 0.85 1 0 1 5 2 116 -117 
117 -0.75 1 0 0.75 1 0 1 5 2 117 -118 
118 -0.85 1 0 -0.75 1 0 1 5 2 118 -119 
119 -0.9 1 0 -0.85 1.05 0 1 5 2 119 -120 
120 -0.9 1.05 0 -0.9 1.15 0 1 5 2 120 -121 
121 -1 1.15 0 -0.9 1.15 0 1 4 2 121 -122 
122 -1 0.9 0 -1 1.15 0 1 5 2 122 -123 
123 -1 -0.9 0 -1 0.9 0 1 5 2 123 -100 
1 -1 -1.15 0 1 1.15 0 1 1 24 100 101 102 103 104 105 106 107 108 109 110 111 112 113 114 115 116 117 118 119 120 121 122 123 
$EndEntities
$Nodes
49 765 1 765
0 100 0 1
1
-1 -0.9 0
0 101 0 1
2
-1 -1.15 0
0 102 0 1
3
-0.9 -1.15 0
0 103 0 1
4
-0.9 -1.05 0
0 104 0 1
5
-0.85 -1 0
0 105 0 1
6
-0.75 -1 0
0 106 0 1
7
0.75 -1 0
0 107 0 1
8
0.85 -1 0
0 108 0 1
9
0.9 -1.05 0
0 109 0 1
10
0.9 -1.15 0
0 110 0 1
11
1 -1.15 0
0 111 0 1
12
1 -0.9 0
0 112 0 1
13
1 0.9 0
0 113 0 1
14
1 1.15 0
0 114 0 1
15
0.9 1.15 0
0 115 0 1
16
0.9 1.05 0
0 116 0 1
17
0.85 1 0
0 117 0 1
18
0.75 1 0
0 118 0 1
19
-0.75 1 0
0 119 0 1
20
-0.85 1 0
0 120 0 1
21
-0.9 1.05 0
0 121 0 1
22
-0.9 1.15 0
0 122 0 1
23
-1 1.15 0
0 123 0 1
24
-1 0.9 0
1 100 0 5
25
26
27
28
29
-1 -0.9735235903012343 0
-1 -1.02974888731289 0
-1 -1.072745748854902 0
-1 -1.105626503073395 0
-1 -1.130771218943565 0
1 101 0 4
30
31
32
33
-0.9800000000002038 -1.15 0
-0.9600000000004033 -1.15 0
-0.9400000000003773 -1.15 0
-0.92000000000023 -1.15 0
1 102 0 4
34
35
36
37
-0.9 -1.129999999999983 0
-0.9 -1.110000000000147 0
-0.9 -1.090000000000035 0
-0.9 -1.069999999999931 0
1 103 0 3
38
39
40
-0.8961939766307682 -1.030865828394309 0
-0.8853553390881425 -1.014644660969488 0
-0.8691341717187955 -1.003806023416081 0
1 104 0 2
41
42
-0.8269415359463739 -1 0
-0.7948006757399045 -1 0
1 105 0 14
43
44
45
46
47
48
49
50
51
52
53
54
55
56
-0.6500000000003697 -1 0
-0.5500000000007395 -1 0
-0.4500000000011093 -1 0
-0.3500000000014792 -1 0
-0.2500000000018491 -1 0
-0.1500000000022191 -1 0
-0.05000000000258897 -1 0
0.04999999999741145 -1 0
0.1499999999977812 -1 0
0.249999999998151 -1 0
0.3499999999985208 -1 0
0.4499999999988906 -1 0
0.5499999999992604 -1 0
0.6499999999996302 -1 0
1 106 0 2
57
58
0.7948006757395741 -1 0
0.8269415359460021 -1 0
1 107 0 3
59
60
61
0.8691341718098233 -1.003806023453786 0
0.8853553392419546 -1.0146446611233 0
0.8961939766315008 -1.030865828396077 0
1 108 0 4
62
63
64
65
0.9 -1.069999999999948 0
0.9 -1.0899999999998 0
0.9 -1.109999999999939 0
0.9 -1.129999999999792 0
1 109 0 4
66
67
68
69
0.9199999999999263 -1.15 0
0.9400000000000304 -1.15 0
0.9600000000001432 -1.15 0
0.9800000000001171 -1.15 0
1 110 0 5
70
71
72
73
74
1 -1.130771218943313 0
1 -1.105626503072977 0
1 -1.072745748855591 0
1 -1.029748887314135 0
1 -0.9735235903019704 0
1 111 0 17
75
76
77
78
79
80
81
82
83
84
85
86
87
88
89
90
91
1 -0.8000000000002193 0
1 -0.7000000000004555 0
1 -0.6000000000007013 0
1 -0.5000000000009859 0
1 -0.40000000000127 0
1 -0.3000000000015542 0
1 -0.2000000000018384 0
1 -0.1000000000021226 0
1 -2.406741472782414e-12 0
1 0.09999999999783638 0
1 0.199999999998106 0
1 0.299999999998395 0
1 0.3999999999986404 0
1 0.4999999999989294 0
1 0.5999999999991895 0
1 0.6999999999994641 0
1 0.7999999999997539 0
1 112 0 5
92
93
94
95
96
1 0.9735235903012343 0
1 1.02974888731289 0
1 1.072745748854902 0
1 1.105626503073395 0
1 1.130771218943565 0
1 113 0 4
97
98
99
100
0.9800000000002038 1.15 0
0.9600000000004033 1.15 0
0.9400000000003773 1.15 0
0.92000000000023 1.15 0
1 114 0 4
101
102
103
104
0.9 1.129999999999983 0
0.9 1.110000000000147 0
0.9 1.090000000000035 0
0.9 1.069999999999931 0
1 115 0 3
105
106
107
0.8961939766307682 1.030865828394309 0
0.8853553390881425 1.014644660969488 0
0.8691341717187955 1.003806023416081 0
1 116 0 2
108
109
0.8269415359463739 1 0
0.7948006757399045 1 0
1 117 0 14
110
111
112
113
114
115
116
117
118
119
120
121
122
123
0.6500000000003697 1 0
0.5500000000007395 1 0
0.4500000000011093 1 0
0.3500000000014792 1 0
0.2500000000018491 1 0
0.1500000000022191 1 0
0.05000000000258897 1 0
-0.04999999999741145 1 0
-0.1499999999977812 1 0
-0.249999999998151 1 0
-0.3499999999985208 1 0
-0.4499999999988906 1 0
-0.5499999999992604 1 0
-0.6499999999996302 1 0
1 118 0 2
124
125
-0.7948006757395741 1 0
-0.8269415359460021 1 0
1 119 0 3
126
127
128
-0.8691341718098233 1.003806023453786 0
-0.8853553392419546 1.0146446611233 0
-0.8961939766315008 1.030865828396077 0
1 120 0 4
129
130
131
132
-0.9 1.069999999999948 0
-0.9 1.0899999999998 0
-0.9 1.109999999999939 0
-0.9 1.129999999999792 0
1 121 0 4
133
134
135
136
-0.9199999999999263 1.15 0
-0.9400000000000304 1.15 0
-0.9600000000001432 1.15 0
-0.9800000000001171 1.15 0
1 122 0 5
137
138
139
140
141
-1 1.130771218943313 0
-1 1.105626503072977 0
-1 1.072745748855591 0
-1 1.029748887314135 0
-1 0.9735235903019704 0
1 123 0 17
142
143
144
145
146
147
148
149
150
151
152
153
154
155
156
157
158
-1 0.8000000000002193 0
-1 0.7000000000004555 0
-1 0.6000000000007013 0
-1 0.5000000000009859 0
-1 0.40000000000127 0
-1 0.3000000000015542 0
-1 0.2000000000018384 0
-1 0.1000000000021226 0
-1 2.406741472782414e-12 0
-1 -0.09999999999783638 0
-1 -0.199999999998106 0
-1 -0.299999999998395 0
-1 -0.3999999999986404 0
-1 -0.4999999999989294 0
-1 -0.5999999999991895 0
-1 -0.6999999999994641 0
-1 -0.7999999999997539 0
2 1 0 607
159
160
161
162
163
164
165
166
167
168
169
170
171
172
173
174
175
176
177
178
179
180
181
182
183
184
185
186
187
188
189
190
191
192
193
194
195
196
197
198
199
200
201
202
203
204
205
206
207
208
209
210
211
212
213
214
215
216
217
218
219
220
221
222
223
224
225
226
227
228
229
230
231
232
233
234
235
236
237
238
239
240
241
242
243
244
245
246
247
248
249
250
251
252
253
254
255
256
257
258
259
260
261
262
263
264
265
266
267
268
269
270
271
272
273
274
275
276
277
278
279
280
281
282
283
284
285
286
287
288
289
290
291
292
293
294
295
296
297
298
299
300
301
302
303
304
305
306
307
308
309
310
311
312
313
314
315
316
317
318
319
320
321
322
323
324
325
326
327
328
329
330
331
332
333
334
335
336
337
338
339
340
341
342
343
344
345
346
347
348
349
350
351
352
353
354
355
356
357
358
359
360
361
362
363
364
365
366
367
368
369
370
371
372
373
374
375
376
377
378
379
380
381
382
383
384
385
386
387
388
389
390
391
392
393
394
395
396
397
398
399
400
401
402
403
404
405
406
407
408
409
410
411
412
413
414
415
416
417
418
419
420
421
422
423
424
425
426
427
428
429
430
431
432
433
434
435
436
437
438
439
440
441
442
443
444
445
446
447
448
449
450
451
452
453
454
455
456
457
458
459
460
461
462
463
464
465
466
467
468
469
470
471
472
473
474
475
476
477
478
479
480
481
482
483
484
485
486
487
488
489
490
491
492
493
494
495
496
497
498
499
500
501
502
503
504
505
506
507
508
509
510
511
512
513
514
515
516
517
518
519
520
521
522
523
524
525
526
527
528
529
530
531
532
533
534
535
536
537
538
539
540
541
542
543
544
545
546
547
548
549
550
551
552
553
554
555
556
557
558
559
560
561
562
563
564
565
566
567
568
569
570
571
572
573
574
575
576
577
578
579
580
581
582
583
584
585
586
587
588
589
590
591
592
593
594
595
596
597
598
599
600
601
602
603
604
605
606
607
608
609
610
611
612
613
614
615
616
617
618
619
620
621
622
623
624
625
626
627
628
629
630
631
632
633
634
635
636
637
638
639
640
641
642
643
644
645
646
647
648
649
650
651
652
653
654
655
656
657
658
659
660
661
662
663
664
665
666
667
668
669
670
671
672
673
674
675
676
677
678
679
680
681
682
683
684
685
686
687
688
689
690
691
692
693
694
695
696
697
698
699
700
701
702
703
704
705
706
707
708
709
710
711
712
713
714
715
716
717
718
719
720
721
722
723
724
725
726
727
728
729
730
731
732
733
734
735
736
737
738
739
740
741
742
743
744
745
746
747
748
749
750
751
752
753
754
755
756
757
758
759
760
761
762
763
764
765
-0.009467770908442806 -0.907366205949363 0
2.579575945001218e-12 0.9159641932511811 0
0.9166421902740696 0.04287031793665805 0
-0.9133974596215739 -0.04999999999771482 0
-0.9166455170165648 0.3534196867005914 0
0.9138416024376559 -0.3445966958907014 0
0.3918993499601314 0.9019434710428811 0
-0.3966032857203609 -0.9029036819949317 0
-0.2930421666288458 0.9150478267844832 0
0.3047858158447416 -0.9125600930252833 0
0.9128701868007101 0.3517521148676915 0
-0.9125032226406604 -0.3619252306185373 0
0.592825833679127 -0.9209170926772614 0
-0.5945400175573035 0.8989314637954823 0
0.7764791687785076 0.9593299211332937 0
0.9254514426500953 0.6303509154346373 0
-0.7764910040540585 -0.9592526802486315 0
-0.9215404799945894 -0.6374501329015101 0
-0.8166882519982233 0.972463631080784 0
0.8166882519982235 -0.972463631080784 0
-0.8636905320620663 0.9830501904277319 0
0.8636905320620666 -0.9830501904277318 0
0.8678885007263495 0.9886960918715936 0
-0.8678885007263495 -0.9886960918715936 0
-0.9091408747940536 0.6396165846910533 0
0.9094799194601038 -0.6344161479506258 0
-0.9070535741116192 0.1520294939140526 0
0.1948800987949679 0.9142491958504815 0
0.6072282709820234 0.9104551035490329 0
-0.2000000000020341 -0.9133974596218766 0
-0.5944999171208498 -0.9117480699791882 0
0.9133939473479646 -0.1499810480586381 0
0.9167592484978269 -1.100193677554758 0
-0.9167592484978271 1.100193677554758 0
-0.9167616926965836 -1.100193837366804 0
0.9167616926965836 1.100193837366804 0
0.9175721854319587 -1.0579967997705 0
-0.9175721854319583 1.0579967997705 0
-0.9175721854665705 -1.057996799759649 0
0.9175721854665705 1.057996799759649 0
-0.9284403671542757 -0.8579013883507134 0
0.928440367154276 0.8579013883507134 0
0.9328092455839979 -0.8572992404051922 0
-0.932809245583998 0.8572992404051925 0
-0.9045023517107859 1.011298534514559 0
0.9045023517107857 -1.011298534514559 0
0.9025222660943613 1.012621299973875 0
-0.9025222660943613 -1.012621299973875 0
-0.9486000750317392 -1.130932011965354 0
0.9486000750317392 1.130932011965354 0
0.9485976308327141 -1.130931852153402 0
-0.9485976308327141 1.130931852153402 0
0.975784998441064 -1.092541853890762 0
-0.9757849984410638 1.092541853890763 0
-0.9757849984404541 -1.092541853892637 0
0.9757849984404541 1.092541853892637 0
0.9445764464868012 -0.9275757575491628 0
-0.9445764464868014 0.9275757575491631 0
0.9439610792382843 0.92836995870517 0
-0.9439610792382842 -0.9283699587051701 0
-0.8866533543965519 0.9947517645869118 0
0.886653354396552 -0.9947517645869119 0
0.8922973498037909 0.9914091358462948 0
-0.8922973498037908 -0.9914091358462949 0
-0.8761962770098191 0.9150650644766651 0
-0.8545896128019165 0.8383321954190983 0
0.8761962770098194 -0.9150650644766651 0
0.8545896128019164 -0.8383321954190985 0
-0.8793154599900658 -0.9115275447578057 0
-0.8518504468453276 -0.8348235371449989 0
0.8793158740030292 0.9115250768252888 0
0.8489594186901754 0.834348794705229 0
-0.8047107815873102 0.8850116957160221 0
-0.7746751365953746 0.8203179080137888 0
0.8047107815873114 -0.8850116957160231 0
0.7837450784444869 -0.8234659422355148 0
-0.9813768347849005 -1.117702869170021 0
0.9813768347849005 1.117702869170021 0
0.9813768347848959 -1.117702869169499 0
-0.9813768347848957 1.117702869169499 0
0.9572687168960462 -1.001107389605086 0
0.9103402282390635 -0.9849203721257924 0
-0.9572687168960489 1.001107389605085 0
-0.9103402282390634 0.9849203721257926 0
0.959829900634225 1.004517612418963 0
-0.959829900634225 -1.004517612418963 0
-0.9570145060823048 1.046696053919763 0
0.9570145060823038 -1.046696053919763 0
-0.9604424171529097 -1.041532329211318 0
0.9604424171529098 1.041532329211318 0
0.9182917996834712 -1.033224327523889 0
-0.918291799683471 1.033224327523888 0
-0.9176999324138513 -1.030595249245628 0
0.9176999324138512 1.030595249245629 0
-0.8306044235820083 0.7574525786146153 0
-0.7418323111318648 0.7406579777999004 0
0.8321160805568597 -0.7579772509849025 0
0.7487134753448614 -0.749427230425102 0
-0.7319354220282103 0.8814764066234961 0
0.730719402060922 -0.8805459362776901 0
-0.8843239490825019 0.9640886230404482 0
-0.848982146219845 0.9583040033924226 0
0.8843239490825023 -0.9640886230404477 0
0.8489821462198452 -0.9583040033924228 0
0.911500216264266 0.7755938714903975 0
0.8192978320971016 0.7558758856087249 0
0.760663651288889 0.8338148313204721 0
0.7282248834219227 0.7366849481055566 0
0.7865162371193657 0.6677088305950041 0
0.6954089569037804 0.6439005344409572 0
0.7576322440327817 0.5709826743430007 0
0.6638546242655895 0.5498041379907768 0
0.5991897104696827 0.6238652184605772 0
0.5672895135755146 0.5299351022676237 0
0.5030547277201005 0.6041018096852349 0
0.4702104858551007 0.5103872602468511 0
0.5355873973403731 0.4357981712045172 0
0.4381424885689842 0.4163444663087321 0
0.5036776842373805 0.3416174872359192 0
0.4061447699115516 0.3222046292466318 0
0.3431592057600502 0.3957403652701853 0
0.3134502562453516 0.3010707034188534 0
0.3749703375295251 0.2276980896984981 0
0.2775147172025491 0.2082111189737098 0
0.2128926594618778 0.2958647720862473 0
0.1793976304325882 0.1911476194045493 0
0.2448157191844821 0.1145402115809325 0
0.1469058409135297 0.09482492929408218 0
0.08134449393093016 0.1698525505187213 0
0.04922042832929409 0.07538957209498842 0
0.2126261061531976 0.01998872534086421 0
-0.01643862921796602 0.1501251751245798 0
-0.04852299279144366 0.05588553255128675 0
-0.1142482337246447 0.1308309910345943 0
-0.1441214060157567 0.03837201398572991 0
-0.08019818309529786 -0.03819080215190886 0
-0.1902666001063318 -0.0578031812840762 0
-0.1145127475919038 -0.1328796123305483 0
-0.2104393342269748 -0.1524157442626445 0
-0.2107907195666858 0.1045525849390334 0
-0.07830772657881012 0.2187226132357411 0
-0.1449566903291013 -0.2274307742346409 0
-0.2425774870397874 -0.2469142771038919 0
-0.3068727465590875 -0.1792795522947247 0
-0.3401950668186993 -0.2676295900601392 0
-0.1767730381987593 -0.3219492978503009 0
-0.07888234142618358 -0.3024735052018462 0
-0.1108788146573375 -0.3969861575509678 0
-0.01300469888322761 -0.3775032436443321 0
-0.4055749958757875 -0.1947677978584712 0
-0.4382047072404193 -0.2866577295509504 0
-0.04503849673330505 -0.4720000349025316 0
0.05280543722401713 -0.4524668200511207 0
-0.1429479926389497 -0.4915239252842266 0
-0.5040541396710178 -0.2115003332989649 0
-0.4648722359915203 -0.1042945853753679 0
0.08480981879380392 -0.3580799409212335 0
0.1505152725349927 -0.4329334098838064 0
0.1824850423232051 -0.3387308446130209 0
0.248063017755816 -0.4134098538134524 0
0.2799693698018779 -0.3193636616680413 0
0.3454458253475478 -0.3939503078385592 0
0.3773411845182131 -0.2997654262974631 0
0.4427287423780744 -0.3745314434353508 0
0.4109031423864209 -0.4684602813587637 0
0.4746944656193552 -0.2802353061981664 0
0.3102595921708086 0.03946983245670769 0
0.4123092743665662 0.5813904559681872 0
0.1185903965230709 -0.5272174173694379 0
-0.5362452478236863 -0.3056090952568376 0
-0.4704235546123597 -0.3805999157072818 0
-0.5684061536229754 -0.3999310185582906 0
-0.5025605159791047 -0.4749722403190884 0
0.5081105349850941 -0.4491457289426025 0
0.4763662201462454 -0.5429325810365186 0
-0.5957335561934543 -0.2326018614636306 0
-0.6004523297385169 -0.4944592953369864 0
-0.5346270563531995 -0.5694610317541096 0
-0.07707478786245875 -0.5665519557385177 0
-0.1750194941902125 -0.5860954286943688 0
0.1167536458073568 -0.2636033999590818 0
0.3790547051905818 -0.562407374759172 0
0.4446330738332073 -0.6369698959512473 0
0.6011731442179922 0.3611043322092332 0
0.5693032186660387 0.2668045371937305 0
0.5734658362078623 -0.5235558557195704 0
0.6051294040815196 -0.4298197729171955 0
-0.6324792395326975 -0.5889157075051419 0
0.3471400506114023 -0.6565691271344882 0
0.6720575976882089 -0.5066533436789961 0
-0.6982271098762418 -0.5139629491118846 0
-0.1091334130201941 -0.6611633869108884 0
-0.2081115250456033 -0.675563631318235 0
0.6669608262617605 0.286308146140709 0
0.6350251960850432 0.1919076926839589 0
0.311914977454954 -0.2246244881480361 0
-0.4367222616396643 -0.5500109691743226 0
-0.4688238244320667 -0.6445311708027499 0
0.7328141581417985 0.2114434674023618 0
0.7008357244535632 0.1169609772210965 0
0.6030311142387466 0.09744636695208103 0
0.6688339228573488 0.02248308590681256 0
0.5710813502914085 0.002946953122687875 0
0.6368231936071248 -0.07197571038688826 0
0.4126214493119694 -0.7304019826829731 0
0.5102584606634866 -0.7114963756186775 0
0.5397968946371358 0.7006484659443419 0
0.7046320861785729 -0.4113880013302585 0
0.7748560249469334 -0.4928599375075282 0
-0.01497906086820612 -0.1134118428279166 0
0.5391475417358877 -0.09147346723058987 0
0.604804719466142 -0.1663995815004436 0
0.6952992953144523 -0.1529941146235632 0
0.7294327552666241 0.4754698041762405 0
-0.01118382664334026 -0.6416052718387424 0
-0.2408715885689117 -0.5110394084845816 0
0.5053886376004666 0.07806048899669193 0
-0.7291853688561674 -0.6087335873781834 0
-0.6647863675428293 -0.68273556821009 0
-0.7980433425147297 -0.5333765553132499 0
-0.763959377067716 -0.4409181904496173 0
0.6390912856531323 -0.5995756233092534 0
-0.04324063439955955 -0.7362190833818684 0
0.0547554669877038 -0.7157461142421284 0
0.3144050780769501 -0.7472377228569747 0
0.2493827026185387 -0.6759928547786014 0
0.216432940173184 -0.7642309103886838 0
-0.7692970334932084 -0.7116474241580256 0
-0.6970910722336374 -0.7747877983793008 0
-0.6054005950216071 -0.7525786856247438 0
0.8255468586838306 0.5069897941404478 0
0.278285544697907 -0.05489859016379942 0
0.1806136133520447 -0.07437628468978291 0
0.6374376711663967 -0.3359591152736376 0
0.734075797682321 -0.3196110410540293 0
-0.3708849412693362 -0.6250954892563704 0
-0.4030096518548781 -0.7196668833831693 0
0.3758809827508188 -0.03562593257403196 0
0.477001430268067 -0.8125294586042364 0
0.7616268193524085 0.303314500114326 0
0.8299859856024945 0.2294739610304228 0
0.7626701859066618 0.04678558016443027 0
0.5738395708282243 -0.7794866255310492 0
0.6689243122654344 0.8082090503068214 0
0.6956276420486095 0.8943265565439162 0
0.574523512534673 0.7997573845135308 0
-0.9130008331753597 -0.7764628939563514 0
-0.8618224604320386 -0.4585088648896594 0
0.8082332617103167 0.8994921318114817 0
-0.8110742289543857 -0.8969416450520691 0
0.9561329163780465 -1.108502587556105 0
0.953275378582371 -1.085658659522995 0
-0.9561329163780466 1.108502587556105 0
-0.953275378582371 1.085658659522995 0
-0.9561353605766336 -1.108502747368462 0
-0.9532758674211674 -1.085658691488084 0
0.9561353605766336 1.108502747368462 0
0.9532758674211674 1.085658691488084 0
0.8711244621985929 0.9624260679194304 0
-0.8711239101813084 -0.9624293584961197 0
0.8419245426733655 0.9784566755404671 0
-0.8419248742159104 -0.9784588301771006 0
-0.8142668380178177 0.6684096049809114 0
-0.7129422944487984 0.6519345204417091 0
-0.7736348084037347 0.5785003294022204 0
-0.6791711767038979 0.5601854931249931 0
-0.6160597281451808 0.6352673408278187 0
-0.5825814627351931 0.5422438213746852 0
-0.5188649087287805 0.6176569652856685 0
-0.4854381915312784 0.5244017107967249 0
-0.5491250703938702 0.4492461257327283 0
-0.4212762565061965 0.5995879645437661 0
-0.3880207606280799 0.5063503212761962 0
-0.3237503797047988 0.5816081133977447 0
-0.2904354449627253 0.4883486372336805 0
-0.2260298478960526 0.5637878733149317 0
-0.3540787441750926 0.4131501063383086 0
-0.4547788676754005 0.6931323712688544 0
-0.1926893994697114 0.4702671592206312 0
-0.1281600418177351 0.5457566142708286 0
-0.1615523163846895 0.6395640758789738 0
-0.06359207222252075 0.6215496385702464 0
-0.03020420300345596 0.5276664343547645 0
0.03440502998244324 0.6035083327591344 0
0.06778073853814198 0.5096186167379049 0
0.1324176172332494 0.5854648374074982 0
0.09901915347088493 0.6793789125527315 0
0.1970757186983627 0.6613283958171525 0
-0.7433682696100565 0.4856555273857152 0
0.003160535859613674 0.4337639962835905 0
-0.09701970994215028 0.7154308915253451 0
-0.1950526173823822 0.7334245833543913 0
0.1657732850973639 0.4915812609627266 0
-0.1290189907991434 0.8229736087214652 0
-0.8349396537616913 0.512938053802441 0
0.1654496594075701 0.7522875540964602 0
0.261822441073824 0.7355064666965974 0
0.07088161249537281 0.7683892776320437 0
-0.8206962427853876 0.403004977041827 0
-0.712697952883907 0.3908555153154288 0
-0.7749154032674742 0.3167689894192265 0
-0.6777052144491643 0.2981949520800147 0
-0.7420046049820798 0.2228496818271446 0
-0.6441389997520213 0.2045504585705961 0
-0.7088672663565345 0.1289507142683478 0
-0.6109381262364159 0.1106623126624478 0
-0.5461410452951893 0.1863327650476662 0
-0.6757434509750674 0.03494946912563016 0
-0.5129853158900262 0.09240067946112983 0
-0.4482178993393544 0.1680889494906586 0
-0.4150241408069625 0.07413198538133954 0
-0.4815967191151794 0.261909289682082 0
-0.3837425854748726 0.2436736495861526 0
-0.7674393288781644 0.0554854833667555 0
-0.737865550149031 -0.03985444672133384 0
-0.6355404487179762 -0.0688183319317798 0
-0.7135528780290611 -0.1423459740498609 0
-0.8229578077441632 -0.1121885658122742 0
-0.7764987998124799 -0.211016249432352 0
-0.874199027774319 -0.1954305356707435 0
0.2907490244530735 0.6467918793151373 0
0.3560067051011146 0.7191034903135767 0
0.3268829157754298 0.8141900202977306 0
0.4194577049089712 0.7957450590127607 0
-0.8370706580949034 0.2374954571150851 0
0.8071070980456633 -0.6711930505811392 0
0.8393292888348018 -0.5695039763092786 0
-0.7210614712457373 -0.9569370942004232 0
-0.4798408320674334 -0.001593204780154206 0
-0.3843231223489776 -0.02009499068715295 0
-0.3072277466778623 0.06431350862452545 0
-0.9250629182673725 -0.999166348815248 0
0.9250629182673725 0.9991663488152479 0
-0.228608081447419 0.8273608358682841 0
-0.2933912176996408 0.7487065852259859 0
0.8412604932452274 -0.9827635649801878 0
-0.8412604932452272 0.9827635649801878 0
0.7450437545937004 -0.5930247089878131 0
0.8563617852907387 -0.4862271791901826 0
0.8202118856079228 -0.3968607680078394 0
-0.2923890114800621 -0.03394528767305041 0
-0.6498293573339147 0.7278210472308346 0
0.02299105561593979 -0.8108852225331589 0
-0.07096113301043927 -0.8295633163124305 0
0.09786958807841589 -0.885235798405597 0
0.2102799265014655 -0.9103055256308217 0
0.4987933089527555 0.8823305679162115 0
-0.552722136634396 0.7111725938784568 0
-0.4885452498726313 0.7831249555896931 0
-0.5861245955646769 0.8025976219505796 0
-0.5070980091071657 -0.738334357967509 0
-0.451087210153063 -0.8139353517845823 0
-0.3330987524872615 -0.7984614772776456 0
-0.2933879585852358 -0.9053799423133163 0
-0.2292730653710989 -0.8225006697714047 0
-0.500947703313168 -0.9106240795079864 0
0.3438818045340485 -0.130017086338502 0
0.6056006832237368 -0.691104502600511 0
0.5069031750338361 -0.1858027929477182 0
0.5417131963713562 -0.6174241231828281 0
0.9179555658443036 0.546990113547436 0
-0.9096780653273265 -0.5470394804193873 0
0.2161927280314871 -0.5074790277779141 0
0.08666046117381472 -0.6214334522794474 0
0.2901114571393605 0.9090554717074775 0
0.6343447117054382 0.7188442669619641 0
0.8125232296264091 0.3968254583773143 0
-0.5794093509287044 0.2801721807091445 0
-0.5153075378851361 0.3557218166470784 0
0.5373651193437639 0.1724769133593517 0
0.2463202980340905 -0.1495603996278717 0
0.1486870040490391 -0.1690895099506893 0
0.4093785553613921 -0.2052160344182861 0
0.02079319728029978 -0.5468791586966328 0
-0.6315924491356664 -0.3258366263322525 0
0.2278600061435969 0.5695706684673398 0
0.2708087082656377 0.4675658575761253 0
0.1930993508960735 0.3969438543180644 0
0.6326735440421982 0.4554561947654994 0
0.01898521449552527 -0.2829995285619564 0
-0.047228483040524 -0.2079255404608582 0
-0.09482005839064053 0.4519175645467234 0
-0.1592711817456772 0.3779390716334627 0
-0.06489025494730183 0.3642627717645777 0
0.0376769733719798 0.3358135116136624 0
-0.3503088118796157 0.1498750002932246 0
-0.2876419848351764 0.2278095525785476 0
-0.3196929249319108 0.319056907314579 0
-0.3724849909388233 -0.3611242888917126 0
0.9008072595494011 0.147023700257435 0
0.9146822106109114 -0.05240344151534566 0
0.83309564529907 -0.10298173612107 0
0.8333631372142565 -0.1984553887217335 0
0.9145501185071134 -0.2490162100154814 0
-0.09908974519042288 0.9150650993104799 0
-0.9155239724589795 0.04408993409480623 0
-0.3916622639316693 0.9163487427995235 0
-0.4903330839518708 0.9167582617435681 0
0.4037442547830687 -0.912097233168506 0
0.4999795545268972 -0.9134092638200255 0
0.09847075157973942 0.9181327745468291 0
0.01720906451150374 -0.01904194375050858 0
0.7436805960643659 -0.060250484563527 0
0.3424928828361605 0.1336876562074436 0
0.1108976207267587 0.263084885171958 0
-0.2087947497384559 -0.4164828643883408 0
0.100963112316155 0.4183474495974913 0
-0.5633560022494886 -0.140014387564395 0
0.1149076197265217 0.0004834091759889838 0
-0.2745867437764032 -0.3416791421216109 0
-0.2731245395802326 -0.6047583588434393 0
-0.4046082329671469 -0.4554826470438862 0
-0.3388177823248644 -0.5303935678729801 0
0.08290216137460477 -0.09396569194185816 0
0.05094314848869284 -0.1883947540447999 0
-0.1880032911377784 0.2035684793560869 0
-0.3055900651599625 -0.6946851753346448 0
-0.3066948396269365 -0.4359899235175826 0
-0.1515547006993606 -0.7593886355478984 0
-0.665773894945166 -0.419937239887938 0
0.3136037894279984 -0.4879188542464673 0
0.7943043211468265 0.1369979620499687 0
-0.2594700178479881 0.6570002455782566 0
0.7007317197945655 0.379746405963887 0
0.001873581159093649 0.6965955266984345 0
-0.5777642116018326 0.01673011077365719 0
-0.7243156976748347 -0.3495221675200289 0
0.4718622100536505 0.2473376166162693 0
0.3753389819169313 0.4883621255800964 0
-0.568869181998261 -0.662759420310724 0
-0.8067139065705863 0.1473087411805278 0
0.2144086311695903 -0.2443269354003565 0
-0.02554725118028087 0.7860235544216613 0
0.4415357250079464 -0.110851106579831 0
0.4399606646099203 0.1530405677415973 0
-0.357206023558631 0.674680811750265 0
-0.6467250983098156 0.4669924872568374 0
0.4734531729470806 -0.01632673711562397 0
0.4079059888192092 0.05871764595213076 0
0.5399997006494388 -0.3551109803887288 0
0.5718973856661935 -0.2609745155654198 0
0.2816223761752216 -0.5819469650895903 0
0.6658819095759654 -0.2452154947146575 0
0.1842635798603839 -0.6014839882390133 0
-0.8463348851710318 -0.2815236575797838 0
-0.6134950374750995 0.373530512956872 0
-0.7720835009058757 -0.8224477235888676 0
-0.7053867022259979 -0.8509245030730139 0
-0.3918159437837719 0.7615445222407977 0
-0.4516609092019797 0.4310095606550235 0
0.9292368096291914 -1.132855418191619 0
-0.9292368096291914 1.132855418191619 0
-0.9292388464617072 -1.132855551368224 0
0.9292388464617072 1.132855551368224 0
0.152077239777661 -0.6943907448450046 0
0.01536130047451998 0.2374464498943079 0
-0.4178802646164995 0.3372721732866144 0
0.9114826401592088 0.4504262468217431 0
-0.2239389357101166 0.3031990519158462 0
-0.2566844384992056 0.3953268222760846 0
0.9171536801463147 -1.079830190785739 0
-0.9171536801463149 1.079830190785739 0
-0.9171538879893542 -1.079830204374421 0
0.9171538879893542 1.079830204374421 0
-0.8131468389180315 -0.9756405144492808 0
0.8128360454482599 0.9755479892735197 0
-0.8307076156252198 -0.9420653156259566 0
0.8307105137159622 0.9420480400983408 0
0.8284277428003646 -0.2930017434464527 0
0.1205182885108434 -0.7841602054429924 0
-0.8300428099341791 -0.6259002869336644 0
0.9163920109651437 -0.7771102892511405 0
-0.9161400681360019 0.7770228438560924 0
-0.9149286118729463 0.4543508735930109 0
0.7763789076118199 -0.9648636605598609 0
0.724073141794934 -0.9463207592400606 0
-0.776378907611819 0.9648636605598608 0
-0.724275811789481 0.9464758376310277 0
-0.1916264973436272 0.9134078951141188 0
0.372508464053194 -0.8223087101068597 0
0.9159191051365907 -1.119972106784299 0
0.9335813394563501 -1.113005309408349 0
-0.9159191051365907 1.119972106784299 0
-0.9335813394563501 1.113005309408349 0
0.4423524187890708 0.6880800944076297 0
-0.9159207332168798 -1.119972213235117 0
-0.933586838738629 -1.113005668974431 0
0.9159207332168798 1.119972213235117 0
0.933586838738629 1.113005668974431 0
-0.6784288830375141 0.8265965137798469 0
-0.9172902576740342 0.5567425240109507 0
0.2302367977751017 0.8273032428557781 0
-0.1058801762086484 -0.9160786885158538 0
0.9181052913468367 0.2532207611174386 0
0.6982177742815741 -0.6734173305152418 0
-0.6923883332624451 -0.2440370523784704 0
-0.8357772976814964 -0.770517225019818 0
0.7146658262228434 0.9516999562606597 0
0.968572861128644 -1.132110898720339 0
-0.968572861128644 1.132110898720339 0
-0.9685736758616492 -1.132110951991162 0
0.9685736758616492 1.132110951991162 0
-0.8321032190513172 -0.00789670679675075 0
0.662705159856769 -0.7577417895555496 0
-0.8125105559407203 -0.3623809526364144 0
-0.3590530807761798 -0.1075352028914819 0
0.9385474588351556 -1.068435322707327 0
-0.9385474588351554 1.068435322707327 0
-0.9405173955110478 -1.067146756813087 0
0.940517395511048 1.067146756813087 0
-0.9289018112518065 1.007951246363938 0
0.9289018112518063 -1.007951246363938 0
0.9353903721591227 -1.046445926449139 0
-0.935390372159123 1.046445926449139 0
-0.9356883136941372 -1.043992745835529 0
0.9356883136941374 1.043992745835529 0
-0.9227530373509809 0.2548846684338655 0
0.9222190723068202 -0.535767752631383 0
-0.3325591280664155 0.8323012072012519 0
0.3240772159422953 0.5668065682568195 0
0.8343456091742922 -0.01307817859517475 0
-0.9266074271172023 -0.2677758847731131 0
-0.5564711369350547 -0.8297249776897297 0
0.2750086068548511 -0.8303985472479365 0
0.1370686946140358 0.8386015603406508 0
-0.1319664781809929 0.2950099676306371 0
0.8417728356439331 0.5945999717126271 0
-0.2289590967693398 0.02309792771843243 0
0.9409520147151809 1.023339667085399 0
-0.9409520147151804 -1.023339667085398 0
-0.5433500682581458 -0.05909072276152538 0
0.754286668388531 -0.2290620406547279 0
0.9359083369826774 -1.092604291255879 0
-0.9359083369826775 1.092604291255879 0
-0.9336821996192473 -1.09062204577899 0
0.9336821996192473 1.09062204577899 0
-0.9672825053422019 1.068068291261785 0
0.9672825053422026 -1.068068291261785 0
-0.9689726879520031 -1.068095125280776 0
0.9689726879520031 1.068095125280776 0
0.1346235825933549 0.3421835785304714 0
0.6418672734256683 -0.8460709975692191 0
-0.6700653410512563 0.9143731710448472 0
0.6678971301920562 -0.9187709571528462 0
-0.9243937801125077 -0.1309538142110038 0
-0.1531591235976714 -0.8471862740800448 0
-0.8147109617610143 0.9343369057095474 0
-0.770402376955567 0.922432901247991 0
0.8147109617610155 -0.9343369057095484 0
0.7701186389632005 -0.9222157915006367 0
0.8445198996062309 0.3096263745991044 0
-0.4344015513833293 0.841601092085435 0
0.04177069137143077 0.8490294706981159 0
-0.8498544865302663 0.5912414193775154 0
0.7135500778265416 -0.8114503792126151 0
0.4984443242816408 0.7684129572952758 0
0.9448863662041661 -1.026263053705774 0
-0.9448863662041684 1.026263053705774 0
-0.9396955783303136 -0.449999999998785 0
-0.7418492807622139 -0.9015412638399983 0
0.9478226628099791 0.9726008493467437 0
-0.9478226628099791 -0.9726008493467441 0
-0.6373080334540626 -0.8404179952704937 0
0.8417539132102502 0.07211987636266345 0
0.9145391852911088 -1.135460814708813 0
-0.9145391852911088 1.135460814708813 0
-0.9145391852910855 -1.135460814708972 0
0.9145391852910855 1.135460814708972 0
0.2685990496123459 0.3695967707143591 0
-0.9853297847760155 -1.135528083443136 0
0.9853297847760155 1.135528083443136 0
0.985329784775948 -1.135528083443029 0
-0.985329784775948 1.135528083443029 0
-0.8442712866217776 0.08134929112719565 0
0.9233622926457086 -0.4343824369711512 0
-0.6701104048816048 -0.9163753403719856 0
0.5536155796756426 -0.8557493159394738 0
-0.8782764090464721 -0.7036629938281389 0
-0.2730096349979513 0.1508623317477131 0
0.7527146563593943 0.9137637175369167 0
-0.6388972593335789 -0.1650488830903083 0
0.1789834404321558 -0.8344724422433818 0
-0.9148365981832192 0.9542999624994677 0
-0.9412189686409966 0.9740976114444125 0
0.9148365981832192 -0.9542999624994669 0
0.9412189686409967 -0.9740976114444119 0
-0.2453668535437341 -0.7460111474561217 0
0.8765101370212234 0.6970527212845961 0
-0.9116240996921929 -0.9612347609374792 0
0.9116242146957939 0.9612340754006686 0
-0.8486882964113227 0.3144990630393654 0
-0.04337464715606327 0.2879054268224364 0
-0.9738308397294553 1.021047391045362 0
0.9738308397294544 -1.021047391045363 0
-0.270518728790231 -0.1085083553351642 0
0.6647923211371058 0.9398730876861556 0
-0.5259475902539297 0.8471398004449162 0
0.3673973005079665 0.6471584226340313 0
0.7732926203755521 -0.1493578461707095 0
-0.04999999999730784 0.8613347564390171 0
-0.9823537762762282 -1.053030522664971 0
0.9823537762762282 1.053030522664971 0
-0.9796255702307924 1.047661274479327 0
0.9796255702307921 -1.047661274479327 0
-0.7661276926580416 -0.28188760476086 0
-0.8896894940322944 0.7086582442195825 0
0.8788371268480881 -0.7090530486969744 0
$EndNodes
$Elements
25 1528 1 1528
1 100 1 6
1 1 25 
2 25 26 
3 26 27 
4 27 28 
5 28 29 
6 29 2 
1 101 1 5
7 2 30 
8 30 31 
9 31 32 
10 32 33 
11 33 3 
1 102 1 5
12 3 34 
13 34 35 
14 35 36 
15 36 37 
16 37 4 
1 103 1 4
17 4 38 
18 38 39 
19 39 40 
20 40 5 
1 104 1 3
21 5 41 
22 41 42 
23 42 6 
1 105 1 15
24 6 43 
25 43 44 
26 44 45 
27 45 46 
28 46 47 
29 47 48 
30 48 49 
31 49 50 
32 50 51 
33 51 52 
34 52 53 
35 53 54 
36 54 55 
37 55 56 
38 56 7 
1 106 1 3
39 7 57 
40 57 58 
41 58 8 
1 107 1 4
42 8 59 
43 59 60 
44 60 61 
45 61 9 
1 108 1 5
46 9 62 
47 62 63 
48 63 64 
49 64 65 
50 65 10 
1 109 1 5
51 10 66 
52 66 67 
53 67 68 
54 68 69 
55 69 11 
1 110 1 6
56 11 70 
57 70 71 
58 71 72 
59 72 73 
60 73 74 
61 74 12 
1 111 1 18
62 12 75 
63 75 76 
64 76 77 
65 77 78 
66 78 79 
67 79 80 
68 80 81 
69 81 82 
70 82 83 
71 83 84 
72 84 85 
73 85 86 
74 86 87 
75 87 88 
76 88 89 
77 89 90 
78 90 91 
79 91 13 
1 112 1 6
80 13 92 
81 92 93 
82 93 94 
83 94 95 
84 95 96 
85 96 14 
1 113 1 5
86 14 97 
87 97 98 
88 98 99 
89 99 100 
90 100 15 
1 114 1 5
91 15 101 
92 101 102 
93 102 103 
94 103 104 
95 104 16 
1 115 1 4
96 16 105 
97 105 106 
98 106 107 
99 107 17 
1 116 1 3
100 17 108 
101 108 109 
102 109 18 
1 117 1 15
103 18 110 
104 110 111 
105 111 112 
106 112 113 
107 113 114 
108 114 115 
109 115 116 
110 116 117 
111 117 118 
112 118 119 
113 119 120 
114 120 121 
115 121 122 
116 122 123 
117 123 19 
1 118 1 3
118 19 124 
119 124 125 
120 125 20 
1 119 1 4
121 20 126 
122 126 127 
123 127 128 
124 128 21 
1 120 1 5
125 21 129 
126 129 130 
127 130 131 
128 131 132 
129 132 22 
1 121 1 5
130 22 133 
131 133 134 
132 134 135 
133 135 136 
134 136 23 
1 122 1 6
135 23 137 
136 137 138 
137 138 139 
138 139 140 
139 140 141 
140 141 24 
1 123 1 18
141 24 142 
142 142 143 
143 143 144 
144 144 145 
145 145 146 
146 146 147 
147 147 148 
148 148 149 
149 149 150 
150 150 151 
151 151 152 
152 152 153 
153 153 154 
154 154 155 
155 155 156 
156 156 157 
157 157 158 
158 158 1 
2 1 2 1370
159 244 26 247 
160 243 93 248 
161 216 202 223 
162 215 201 225 
163 247 26 759 
164 248 93 760 
165 50 51 503 
166 525 169 616 
167 24 202 216 
168 12 201 215 
169 187 402 403 
170 18 110 656 
171 157 405 736 
172 487 314 488 
173 90 263 746 
174 397 557 558 
175 510 166 511 
176 511 166 512 
177 227 218 747 
178 229 217 748 
179 409 209 657 
180 411 210 658 
181 207 413 659 
182 208 415 660 
183 123 19 636 
184 56 7 634 
185 510 509 681 
186 165 482 505 
187 197 4 251 
188 198 16 252 
189 21 196 250 
190 9 195 249 
191 6 43 486 
192 199 1 218 
193 200 13 217 
194 165 481 482 
195 418 227 747 
196 417 229 748 
197 418 420 625 
198 216 223 741 
199 215 225 743 
200 417 419 626 
201 648 172 701 
202 199 218 227 
203 200 217 229 
204 557 397 638 
205 503 51 504 
206 243 248 687 
207 244 247 688 
208 452 553 637 
209 640 409 691 
210 642 411 692 
211 413 645 693 
212 415 647 694 
213 378 520 629 
214 402 187 404 
215 25 26 244 
216 92 93 243 
217 488 314 664 
218 46 47 512 
219 505 482 714 
220 404 365 524 
221 209 409 640 
222 210 411 642 
223 413 207 645 
224 415 208 647 
225 508 172 648 
226 476 162 703 
227 387 386 605 
228 176 157 736 
229 605 386 655 
230 252 491 687 
231 251 490 688 
232 389 525 616 
233 44 45 514 
234 492 452 637 
235 1 25 218 
236 13 92 217 
237 174 90 746 
238 514 510 681 
239 159 50 503 
240 237 409 657 
241 238 411 658 
242 413 235 659 
243 415 236 660 
244 141 24 216 
245 74 12 215 
246 478 152 680 
247 157 158 405 
248 90 91 263 
249 111 112 505 
250 152 478 703 
251 163 457 632 
252 609 209 640 
253 610 210 642 
254 207 611 645 
255 208 612 647 
256 217 92 719 
257 218 25 720 
258 24 142 202 
259 12 75 201 
260 213 28 235 
261 214 95 236 
262 71 211 237 
263 138 212 238 
264 141 216 742 
265 74 215 744 
266 73 74 752 
267 140 141 751 
268 548 399 580 
269 414 413 693 
270 416 415 694 
271 409 410 691 
272 411 412 692 
273 74 239 752 
274 141 241 751 
275 169 525 709 
276 485 367 496 
277 175 408 625 
278 481 165 523 
279 237 211 409 
280 238 212 411 
281 213 235 413 
282 214 236 415 
283 162 476 661 
284 605 408 718 
285 367 485 497 
286 402 404 524 
287 223 259 741 
288 225 261 743 
289 676 78 733 
290 173 407 626 
291 367 348 496 
292 497 676 733 
293 27 28 213 
294 94 95 214 
295 71 72 211 
296 138 139 212 
297 348 380 496 
298 166 46 512 
299 47 188 512 
300 378 406 520 
301 404 505 714 
302 483 185 589 
303 168 557 638 
304 520 176 629 
305 606 605 718 
306 241 141 742 
307 239 74 744 
308 189 44 514 
309 260 223 705 
310 262 225 707 
311 158 1 199 
312 91 13 200 
313 40 182 222 
314 107 181 221 
315 630 76 765 
316 631 143 764 
317 232 254 648 
318 4 38 251 
319 16 105 252 
320 61 9 249 
321 128 21 250 
322 45 166 514 
323 112 165 505 
324 393 366 498 
325 187 403 754 
326 168 638 682 
327 187 111 505 
328 257 232 648 
329 245 666 695 
330 246 665 696 
331 667 247 697 
332 668 248 698 
333 227 418 625 
334 665 410 696 
335 666 412 695 
336 414 667 697 
337 416 668 698 
338 665 246 671 
339 666 245 672 
340 247 667 673 
341 248 668 674 
342 482 480 643 
343 229 417 626 
344 535 279 587 
345 164 498 733 
346 76 184 765 
347 143 183 764 
348 457 163 749 
349 475 477 654 
350 28 29 235 
351 95 96 236 
352 70 71 237 
353 137 138 238 
354 482 643 714 
355 226 201 630 
356 224 202 631 
357 159 501 502 
358 406 170 717 
359 481 523 650 
360 386 629 736 
361 402 265 403 
362 249 195 671 
363 250 196 672 
364 198 252 674 
365 197 251 673 
366 478 476 703 
367 262 178 494 
368 260 177 495 
369 170 406 663 
370 399 548 652 
371 498 497 733 
372 403 265 738 
373 185 483 675 
374 484 184 485 
375 366 367 498 
376 145 632 649 
377 721 606 734 
378 261 225 262 
379 259 223 260 
380 457 453 632 
381 623 175 625 
382 624 173 626 
383 365 404 714 
384 489 298 737 
385 511 512 513 
386 548 580 722 
387 475 654 739 
388 267 685 746 
389 52 168 504 
390 51 52 504 
391 265 407 738 
392 484 496 653 
393 546 617 618 
394 655 386 736 
395 298 489 686 
396 404 187 505 
397 167 492 637 
398 72 73 762 
399 139 140 761 
400 26 27 759 
401 93 94 760 
402 92 243 719 
403 25 244 720 
404 504 168 682 
405 509 388 681 
406 523 186 650 
407 228 227 408 
408 159 502 651 
409 498 164 627 
410 685 174 746 
411 166 510 514 
412 563 543 614 
413 367 497 498 
414 256 484 653 
415 253 224 631 
416 255 226 630 
417 499 488 664 
418 501 159 503 
419 393 498 627 
420 377 376 386 
421 536 283 727 
422 230 229 407 
423 113 114 523 
424 617 541 618 
425 545 574 617 
426 377 386 387 
427 409 211 410 
428 411 212 412 
429 213 413 414 
430 214 415 416 
431 492 167 677 
432 632 453 649 
433 189 721 734 
434 484 485 496 
435 512 188 513 
436 39 40 222 
437 106 107 221 
438 535 587 678 
439 427 436 506 
440 165 113 523 
441 114 186 523 
442 223 224 231 
443 225 226 233 
444 283 536 699 
445 546 545 617 
446 223 231 705 
447 225 233 707 
448 408 227 625 
449 554 162 661 
450 364 516 518 
451 506 507 508 
452 516 380 518 
453 354 515 529 
454 257 648 701 
455 529 530 590 
456 387 605 606 
457 519 389 616 
458 500 425 506 
459 506 436 507 
460 425 427 506 
461 574 545 737 
462 388 509 588 
463 354 529 590 
464 504 682 740 
465 407 173 738 
466 341 364 518 
467 471 546 615 
468 530 339 590 
469 526 527 604 
470 515 354 531 
471 561 550 679 
472 314 487 689 
473 321 324 531 
474 89 174 519 
475 156 176 520 
476 339 530 573 
477 527 429 604 
478 324 517 531 
479 354 321 531 
480 546 435 615 
481 364 401 516 
482 89 90 174 
483 156 157 176 
484 407 229 626 
485 538 339 573 
486 422 425 500 
487 348 344 380 
488 332 333 344 
489 365 271 524 
490 396 596 597 
491 596 375 597 
492 317 316 318 
493 373 522 532 
494 341 363 364 
495 522 327 532 
496 88 89 519 
497 158 199 405 
498 91 200 263 
499 319 318 320 
500 155 156 520 
501 371 370 601 
502 315 311 316 
503 370 517 599 
504 337 373 532 
505 315 316 317 
506 364 397 401 
507 333 341 518 
508 460 462 526 
509 526 470 527 
510 380 344 518 
511 322 323 332 
512 317 318 319 
513 375 359 528 
514 396 515 592 
515 190 550 551 
516 346 349 376 
517 307 315 538 
518 444 451 534 
519 370 369 517 
520 465 470 526 
521 462 465 526 
522 307 311 315 
523 164 80 552 
524 331 330 335 
525 465 468 470 
526 373 382 522 
527 540 541 542 
528 479 446 534 
529 332 344 345 
530 450 492 493 
531 307 310 311 
532 539 538 573 
533 368 296 539 
534 362 369 370 
535 362 361 369 
536 318 316 521 
537 471 545 546 
538 534 451 535 
539 110 111 187 
540 43 44 189 
541 446 444 534 
542 336 335 346 
543 167 120 555 
544 120 121 555 
545 435 608 615 
546 296 300 539 
547 346 376 377 
548 455 446 479 
549 190 549 550 
550 470 468 471 
551 122 172 556 
552 329 328 330 
553 315 339 538 
554 316 311 327 
555 361 359 375 
556 450 493 581 
557 375 528 593 
558 555 121 556 
559 441 438 540 
560 390 391 529 
561 80 81 552 
562 515 390 529 
563 305 306 307 
564 396 390 515 
565 275 342 537 
566 455 479 480 
567 359 353 528 
568 320 318 579 
569 325 289 390 
570 444 443 451 
571 168 53 557 
572 53 54 557 
573 346 335 349 
574 540 437 541 
575 316 327 521 
576 373 381 382 
577 329 330 331 
578 117 118 553 
579 160 117 553 
580 432 434 581 
581 55 171 558 
582 330 328 533 
583 310 337 532 
584 535 451 536 
585 509 356 588 
586 462 464 465 
587 305 307 538 
588 442 443 444 
589 325 390 396 
590 557 54 558 
591 372 537 582 
592 288 291 560 
593 360 361 362 
594 332 323 333 
595 337 350 373 
596 300 305 539 
597 161 84 548 
598 84 85 548 
599 360 359 361 
600 438 437 540 
601 376 349 378 
602 442 441 443 
603 536 451 565 
604 451 443 565 
605 294 296 368 
606 358 353 359 
607 307 306 310 
608 322 320 323 
609 390 289 391 
610 294 368 560 
611 121 122 556 
612 395 356 509 
613 291 294 560 
614 54 55 558 
615 285 289 325 
616 330 533 578 
617 529 391 530 
618 353 343 528 
619 465 467 468 
620 83 84 161 
621 150 151 162 
622 83 161 549 
623 150 162 554 
624 190 82 549 
625 185 149 554 
626 149 150 554 
627 82 83 549 
628 116 117 160 
629 119 120 167 
630 86 87 169 
631 153 154 170 
632 52 53 168 
633 115 116 559 
634 49 50 159 
635 122 123 172 
636 55 56 171 
637 116 160 559 
638 186 115 559 
639 112 113 165 
640 146 147 163 
641 45 46 166 
642 148 149 185 
643 81 82 190 
644 79 80 164 
645 143 144 183 
646 76 77 184 
647 114 115 186 
648 47 48 188 
649 398 525 582 
650 285 325 562 
651 331 335 336 
652 530 572 573 
653 300 304 305 
654 338 312 374 
655 443 441 448 
656 272 275 537 
657 313 308 314 
658 309 328 329 
659 305 538 539 
660 190 551 552 
661 499 664 753 
662 448 441 540 
663 303 309 547 
664 373 350 381 
665 313 314 566 
666 391 567 572 
667 306 304 564 
668 309 313 328 
669 335 330 578 
670 374 312 564 
671 396 592 596 
672 331 355 570 
673 309 329 547 
674 570 571 576 
675 440 441 442 
676 469 488 489 
677 303 308 309 
678 469 489 544 
679 434 439 581 
680 344 333 518 
681 408 175 718 
682 489 488 499 
683 448 542 543 
684 395 509 510 
685 448 543 565 
686 305 304 306 
687 321 320 322 
688 382 381 501 
689 282 284 285 
690 328 313 334 
691 309 308 313 
692 303 302 308 
693 358 359 360 
694 328 334 533 
695 291 293 294 
696 329 331 570 
697 288 560 567 
698 448 540 542 
699 471 544 545 
700 312 306 564 
701 572 368 573 
702 531 517 592 
703 465 464 467 
704 282 285 562 
705 301 297 302 
706 362 370 371 
707 334 313 566 
708 301 302 303 
709 391 289 567 
710 303 547 568 
711 349 335 578 
712 517 324 599 
713 286 288 567 
714 287 284 563 
715 298 292 574 
716 289 286 567 
717 286 284 287 
718 319 320 321 
719 443 448 565 
720 310 312 337 
721 284 283 563 
722 323 320 579 
723 300 301 304 
724 350 338 351 
725 294 295 296 
726 368 539 573 
727 311 310 532 
728 355 356 394 
729 445 444 446 
730 291 292 293 
731 571 374 576 
732 296 297 300 
733 355 336 356 
734 288 287 290 
735 288 290 291 
736 291 290 292 
737 337 338 350 
738 564 304 568 
739 293 292 298 
740 318 521 579 
741 294 293 295 
742 292 299 574 
743 285 286 289 
744 286 287 288 
745 338 374 569 
746 285 284 286 
747 296 295 297 
748 300 297 301 
749 281 282 562 
750 292 290 299 
751 547 329 570 
752 337 312 338 
753 568 547 576 
754 394 356 395 
755 360 362 561 
756 477 476 478 
757 301 303 568 
758 471 468 544 
759 81 190 552 
760 570 355 571 
761 351 338 569 
762 481 480 482 
763 355 394 571 
764 282 280 283 
765 310 306 312 
766 440 438 441 
767 395 510 511 
768 304 301 568 
769 278 280 281 
770 442 444 445 
771 569 394 575 
772 475 476 477 
773 315 317 339 
774 282 283 284 
775 564 568 576 
776 272 273 274 
777 351 569 575 
778 281 280 282 
779 357 353 358 
780 567 560 572 
781 569 374 571 
782 346 377 588 
783 278 276 279 
784 278 279 280 
785 331 336 355 
786 547 570 576 
787 468 467 469 
788 454 446 455 
789 272 274 275 
790 501 381 502 
791 462 463 464 
792 560 368 572 
793 395 511 575 
794 469 487 488 
795 530 391 572 
796 466 473 474 
797 394 395 575 
798 525 372 582 
799 517 369 592 
800 362 371 561 
801 394 569 571 
802 475 473 476 
803 433 431 435 
804 460 461 462 
805 277 276 278 
806 324 598 599 
807 381 350 577 
808 374 564 576 
809 364 363 397 
810 350 351 577 
811 474 473 475 
812 358 360 400 
813 439 449 450 
814 502 381 577 
815 468 469 544 
816 440 442 583 
817 578 533 585 
818 537 342 582 
819 469 467 487 
820 466 474 584 
821 361 375 596 
822 464 463 466 
823 383 347 384 
824 398 357 399 
825 277 278 586 
826 445 446 454 
827 466 463 472 
828 434 438 439 
829 352 357 398 
830 352 343 353 
831 455 480 481 
832 378 379 406 
833 581 493 594 
834 442 445 583 
835 352 353 357 
836 439 440 449 
837 400 360 561 
838 445 454 456 
839 462 461 463 
840 450 452 492 
841 528 343 586 
842 466 472 473 
843 379 349 578 
844 500 506 508 
845 439 438 440 
846 275 274 276 
847 278 281 586 
848 358 400 580 
849 357 358 580 
850 270 272 537 
851 336 346 588 
852 450 449 452 
853 464 466 584 
854 275 276 277 
855 467 464 584 
856 383 384 385 
857 325 396 597 
858 378 349 379 
859 375 593 597 
860 275 277 342 
861 515 531 592 
862 327 311 532 
863 445 456 583 
864 449 440 583 
865 399 357 580 
866 439 450 581 
867 352 398 582 
868 487 467 584 
869 356 336 588 
870 343 277 586 
871 274 273 326 
872 460 459 461 
873 276 274 587 
874 342 277 343 
875 458 459 460 
876 434 437 438 
877 342 343 352 
878 363 347 383 
879 327 522 602 
880 272 271 273 
881 434 433 437 
882 432 431 433 
883 379 578 585 
884 501 503 628 
885 598 392 599 
886 332 345 598 
887 461 459 483 
888 319 321 354 
889 430 428 431 
890 341 347 363 
891 279 276 587 
892 432 433 434 
893 321 322 324 
894 273 271 365 
895 449 583 591 
896 281 562 593 
897 341 340 347 
898 460 526 604 
899 430 431 432 
900 463 461 589 
901 472 463 589 
902 333 340 341 
903 274 326 587 
904 340 323 579 
905 339 317 590 
906 428 426 429 
907 528 586 593 
908 333 323 340 
909 452 449 591 
910 586 281 593 
911 345 366 392 
912 322 332 598 
913 342 352 582 
914 345 344 348 
915 427 430 436 
916 345 392 598 
917 447 457 458 
918 583 456 591 
919 317 319 590 
920 369 361 596 
921 461 483 589 
922 370 599 601 
923 167 555 677 
924 319 354 590 
925 579 521 600 
926 427 428 430 
927 427 426 428 
928 372 270 537 
929 384 347 600 
930 392 366 393 
931 562 325 597 
932 593 562 597 
933 270 271 272 
934 422 424 425 
935 432 581 594 
936 392 393 601 
937 599 392 601 
938 458 457 459 
939 269 372 389 
940 592 369 596 
941 430 432 594 
942 324 322 598 
943 366 348 367 
944 88 519 616 
945 522 382 613 
946 436 430 594 
947 340 579 600 
948 425 426 427 
949 389 372 525 
950 425 424 426 
951 429 595 604 
952 270 268 271 
953 345 348 366 
954 269 270 372 
955 426 424 595 
956 608 527 615 
957 347 340 600 
958 435 546 618 
959 422 423 424 
960 429 527 608 
961 429 426 595 
962 602 522 613 
963 254 500 648 
964 470 471 615 
965 447 453 457 
966 384 600 602 
967 595 458 604 
968 424 423 447 
969 169 87 616 
970 424 447 595 
971 287 563 614 
972 447 423 453 
973 600 521 602 
974 299 290 614 
975 435 431 608 
976 521 327 602 
977 447 458 595 
978 477 478 603 
979 271 268 524 
980 269 268 270 
981 279 535 727 
982 594 493 607 
983 428 429 608 
984 458 460 604 
985 507 436 607 
986 433 435 618 
987 541 437 618 
988 436 594 607 
989 382 501 628 
990 66 67 609 
991 133 134 610 
992 384 602 613 
993 212 139 695 
994 211 72 696 
995 27 213 697 
996 94 214 698 
997 431 428 608 
998 385 384 613 
999 32 33 611 
1000 99 100 612 
1001 268 266 524 
1002 527 470 615 
1003 290 287 614 
1004 377 388 588 
1005 499 295 686 
1006 267 268 269 
1007 543 563 699 
1008 254 422 500 
1009 400 561 679 
1010 87 88 616 
1011 422 421 423 
1012 223 202 224 
1013 225 201 226 
1014 718 486 734 
1015 437 433 618 
1016 31 32 207 
1017 98 99 208 
1018 67 68 209 
1019 134 135 210 
1020 258 700 702 
1021 377 387 388 
1022 511 513 745 
1023 663 585 763 
1024 552 551 627 
1025 145 146 632 
1026 513 577 745 
1027 266 402 524 
1028 496 380 653 
1029 553 118 637 
1030 119 167 637 
1031 639 609 640 
1032 641 610 642 
1033 267 266 268 
1034 386 376 629 
1035 63 64 191 
1036 130 131 192 
1037 35 36 193 
1038 102 103 194 
1039 164 552 627 
1040 67 209 609 
1041 134 210 610 
1042 491 243 687 
1043 490 244 688 
1044 611 644 645 
1045 612 646 647 
1046 265 230 407 
1047 376 378 629 
1048 207 32 611 
1049 208 99 612 
1050 397 363 638 
1051 554 661 732 
1052 613 382 628 
1053 295 499 753 
1054 298 574 737 
1055 144 145 649 
1056 474 566 689 
1057 49 159 651 
1058 188 48 651 
1059 385 613 628 
1060 326 273 643 
1061 161 548 722 
1062 566 474 739 
1063 455 481 650 
1064 700 258 713 
1065 548 85 652 
1066 86 169 652 
1067 254 421 422 
1068 142 143 631 
1069 75 76 630 
1070 62 63 619 
1071 129 130 620 
1072 36 37 621 
1073 103 104 622 
1074 677 555 710 
1075 266 265 402 
1076 585 533 654 
1077 520 406 717 
1078 264 266 267 
1079 485 184 676 
1080 476 473 661 
1081 199 227 228 
1082 200 229 230 
1083 603 663 763 
1084 146 163 632 
1085 314 308 664 
1086 389 519 685 
1087 172 508 755 
1088 118 119 637 
1089 379 585 663 
1090 9 62 195 
1091 21 129 196 
1092 37 4 197 
1093 104 16 198 
1094 363 383 638 
1095 493 492 677 
1096 163 147 675 
1097 148 185 675 
1098 184 77 676 
1099 534 535 678 
1100 549 161 679 
1101 550 561 757 
1102 191 639 640 
1103 192 641 642 
1104 644 193 645 
1105 646 194 647 
1106 152 153 680 
1107 574 299 684 
1108 191 64 639 
1109 192 131 641 
1110 35 193 644 
1111 102 194 646 
1112 577 513 704 
1113 295 293 686 
1114 63 191 619 
1115 130 192 620 
1116 193 36 621 
1117 194 103 622 
1118 555 556 710 
1119 497 485 676 
1120 264 230 265 
1121 456 454 683 
1122 269 389 685 
1123 371 601 690 
1124 535 536 727 
1125 201 75 630 
1126 202 142 631 
1127 617 574 684 
1128 2 30 728 
1129 14 97 729 
1130 69 11 730 
1131 136 23 731 
1132 474 475 739 
1133 273 365 643 
1134 64 65 639 
1135 131 132 641 
1136 29 2 728 
1137 96 14 729 
1138 11 70 730 
1139 23 137 731 
1140 525 398 709 
1141 235 29 728 
1142 236 96 729 
1143 70 237 730 
1144 137 238 731 
1145 34 35 644 
1146 101 102 646 
1147 565 543 699 
1148 584 474 689 
1149 454 455 650 
1150 589 185 732 
1151 183 144 649 
1152 48 49 651 
1153 151 152 703 
1154 553 452 758 
1155 397 558 735 
1156 643 365 714 
1157 155 520 717 
1158 183 421 764 
1159 380 516 653 
1160 184 484 765 
1161 170 154 717 
1162 254 253 421 
1163 256 653 662 
1164 85 86 652 
1165 710 556 755 
1166 264 265 266 
1167 256 255 484 
1168 78 79 733 
1169 283 280 727 
1170 297 295 753 
1171 561 371 757 
1172 500 508 648 
1173 577 351 745 
1174 544 489 737 
1175 575 511 745 
1176 228 408 605 
1177 31 207 659 
1178 98 208 660 
1179 209 68 657 
1180 210 135 658 
1181 591 456 711 
1182 421 183 712 
1183 606 718 734 
1184 459 457 749 
1185 627 551 690 
1186 653 516 662 
1187 65 10 723 
1188 132 22 724 
1189 10 66 723 
1190 22 133 724 
1191 3 34 725 
1192 15 101 726 
1193 33 3 725 
1194 100 15 726 
1195 533 334 654 
1196 635 177 705 
1197 633 178 707 
1198 393 627 690 
1199 638 383 682 
1200 123 636 701 
1201 56 634 702 
1202 68 69 657 
1203 135 136 658 
1204 30 31 659 
1205 97 98 660 
1206 196 129 620 
1207 195 62 619 
1208 37 197 621 
1209 104 198 622 
1210 163 675 749 
1211 263 230 264 
1212 542 541 684 
1213 473 472 661 
1214 186 559 683 
1215 591 711 758 
1216 199 228 405 
1217 200 230 263 
1218 652 169 709 
1219 516 401 662 
1220 453 423 712 
1221 231 232 257 
1222 233 234 258 
1223 406 379 663 
1224 308 302 664 
1225 503 504 740 
1226 587 326 678 
1227 603 170 663 
1228 178 262 707 
1229 177 260 705 
1230 124 125 177 
1231 57 58 178 
1232 491 221 748 
1233 490 222 747 
1234 189 514 681 
1235 519 174 685 
1236 563 283 699 
1237 147 148 675 
1238 77 78 676 
1239 185 554 732 
1240 489 499 686 
1241 479 534 678 
1242 222 182 418 
1243 221 181 417 
1244 456 683 711 
1245 189 681 721 
1246 188 651 704 
1247 232 253 254 
1248 234 255 256 
1249 556 172 755 
1250 233 258 708 
1251 231 257 706 
1252 550 549 679 
1253 645 193 693 
1254 647 194 694 
1255 192 642 692 
1256 191 640 691 
1257 607 493 677 
1258 172 123 701 
1259 171 56 702 
1260 7 57 633 
1261 19 124 635 
1262 153 170 680 
1263 566 314 689 
1264 170 603 680 
1265 502 577 704 
1266 603 478 680 
1267 38 39 206 
1268 105 106 205 
1269 127 128 203 
1270 60 61 204 
1271 654 334 739 
1272 405 228 655 
1273 383 385 682 
1274 650 186 683 
1275 543 542 750 
1276 41 42 623 
1277 108 109 624 
1278 649 453 712 
1279 452 591 758 
1280 661 472 732 
1281 293 298 686 
1282 231 224 232 
1283 233 226 234 
1284 614 543 750 
1285 678 326 756 
1286 42 6 175 
1287 109 18 173 
1288 267 269 685 
1289 399 652 709 
1290 541 617 684 
1291 127 203 219 
1292 60 204 220 
1293 228 605 655 
1294 250 672 716 
1295 249 671 715 
1296 664 302 753 
1297 110 187 754 
1298 43 189 734 
1299 264 267 746 
1300 232 224 253 
1301 234 226 255 
1302 675 483 749 
1303 27 697 759 
1304 94 698 760 
1305 695 139 761 
1306 696 72 762 
1307 628 503 740 
1308 5 41 420 
1309 17 108 419 
1310 479 678 756 
1311 196 620 666 
1312 195 619 665 
1313 621 197 667 
1314 622 198 668 
1315 487 584 689 
1316 371 690 757 
1317 105 205 252 
1318 38 206 251 
1319 203 128 250 
1320 204 61 249 
1321 601 393 690 
1322 536 565 699 
1323 682 385 740 
1324 401 397 735 
1325 607 677 710 
1326 679 161 722 
1327 651 502 704 
1328 513 188 704 
1329 162 151 703 
1330 423 421 712 
1331 629 176 736 
1332 257 636 706 
1333 258 634 708 
1334 674 252 687 
1335 673 251 688 
1336 196 666 672 
1337 195 665 671 
1338 667 197 673 
1339 668 198 674 
1340 636 257 701 
1341 634 258 702 
1342 221 417 748 
1343 222 418 747 
1344 454 650 683 
1345 507 710 755 
1346 486 43 734 
1347 398 399 709 
1348 559 160 711 
1349 508 507 755 
1350 243 491 719 
1351 244 490 720 
1352 410 211 696 
1353 412 212 695 
1354 213 414 697 
1355 214 416 698 
1356 507 607 710 
1357 388 387 721 
1358 154 155 717 
1359 326 643 756 
1360 585 654 763 
1361 711 160 758 
1362 580 400 722 
1363 620 192 692 
1364 619 191 691 
1365 193 621 693 
1366 194 622 694 
1367 219 203 242 
1368 220 204 240 
1369 280 279 727 
1370 387 606 721 
1371 219 242 259 
1372 220 240 261 
1373 66 609 723 
1374 133 610 724 
1375 79 164 733 
1376 558 171 735 
1377 611 33 725 
1378 612 100 726 
1379 472 589 732 
1380 240 670 744 
1381 242 669 742 
1382 542 684 750 
1383 545 544 737 
1384 334 566 739 
1385 665 619 691 
1386 666 620 692 
1387 621 667 693 
1388 622 668 694 
1389 635 705 706 
1390 633 707 708 
1391 351 575 745 
1392 57 178 633 
1393 124 177 635 
1394 683 559 711 
1395 483 459 749 
1396 299 614 750 
1397 302 297 753 
1398 551 550 757 
1399 480 479 756 
1400 421 253 764 
1401 160 553 758 
1402 484 255 765 
1403 234 256 713 
1404 669 250 716 
1405 670 249 715 
1406 107 17 181 
1407 40 5 182 
1408 477 603 763 
1409 204 249 670 
1410 203 250 669 
1411 670 239 744 
1412 669 241 742 
1413 385 628 740 
1414 662 401 700 
1415 183 649 712 
1416 125 20 495 
1417 58 8 494 
1418 42 175 623 
1419 109 173 624 
1420 205 106 221 
1421 206 39 222 
1422 59 60 220 
1423 126 127 219 
1424 247 673 688 
1425 248 674 687 
1426 240 204 670 
1427 242 203 669 
1428 643 480 756 
1429 639 65 723 
1430 641 132 724 
1431 34 644 725 
1432 101 646 726 
1433 609 639 723 
1434 610 641 724 
1435 644 611 725 
1436 646 612 726 
1437 684 299 750 
1438 256 662 713 
1439 180 59 220 
1440 179 126 219 
1441 410 665 691 
1442 412 666 692 
1443 667 414 693 
1444 668 416 694 
1445 258 234 713 
1446 700 401 735 
1447 180 220 261 
1448 179 219 259 
1449 656 110 754 
1450 400 679 722 
1451 173 18 656 
1452 180 261 262 
1453 179 259 260 
1454 20 126 179 
1455 8 59 180 
1456 171 700 735 
1457 654 477 763 
1458 205 221 491 
1459 206 222 490 
1460 657 69 730 
1461 658 136 731 
1462 30 659 728 
1463 97 660 729 
1464 634 633 708 
1465 636 635 706 
1466 180 262 494 
1467 179 260 495 
1468 690 551 757 
1469 237 657 730 
1470 238 658 731 
1471 659 235 728 
1472 660 236 729 
1473 662 700 713 
1474 700 171 702 
1475 681 388 721 
1476 259 242 741 
1477 261 240 743 
1478 263 264 746 
1479 175 6 486 
1480 253 631 764 
1481 255 630 765 
1482 405 655 736 
1483 177 125 495 
1484 178 58 494 
1485 420 41 623 
1486 419 108 624 
1487 7 633 634 
1488 19 635 636 
1489 173 656 738 
1490 239 670 715 
1491 241 669 716 
1492 420 623 625 
1493 419 624 626 
1494 182 5 420 
1495 181 17 419 
1496 20 179 495 
1497 8 180 494 
1498 672 245 716 
1499 671 246 715 
1500 175 486 718 
1501 656 403 738 
1502 403 656 754 
1503 743 240 744 
1504 741 242 742 
1505 720 490 747 
1506 719 491 748 
1507 752 246 762 
1508 751 245 761 
1509 697 247 759 
1510 698 248 760 
1511 245 695 761 
1512 246 696 762 
1513 705 231 706 
1514 707 233 708 
1515 716 245 751 
1516 715 246 752 
1517 73 752 762 
1518 140 751 761 
1519 218 720 747 
1520 217 719 748 
1521 241 716 751 
1522 239 715 752 
1523 216 741 742 
1524 215 743 744 
1525 417 181 419 
1526 418 182 420 
1527 252 205 491 
1528 251 206 490 
$EndElements
